<svg width="15" height="15" viewBox="0 0 15 15" fill="none" xmlns="http://www.w3.org/2000/svg">
<g id="cable-tv" clip-path="url(#clip0_402_604)">
<g id="cable-tv_2">
<path id="Trac&#195;&#169; 1025" d="M13.4507 12.849H12.5837C12.4764 12.8493 12.3735 12.892 12.2976 12.9679C12.2217 13.0438 12.179 13.1467 12.1787 13.254V13.816C12.179 13.9233 12.2217 14.0262 12.2976 14.1021C12.3735 14.178 12.4764 14.2207 12.5837 14.221H13.4507C13.558 14.2207 13.6609 14.178 13.7368 14.1021C13.8127 14.0262 13.8554 13.9233 13.8557 13.816V13.254C13.8554 13.1467 13.8127 13.0438 13.7368 12.9679C13.6609 12.892 13.558 12.8493 13.4507 12.849ZM13.3987 13.764H12.6357V13.306H13.3987V13.764Z" fill="black"/>
<path id="Trac&#195;&#169; 1026" d="M14.488 12.224H13.682V11.31C13.6782 11.2543 13.6535 11.2022 13.6127 11.1641C13.572 11.126 13.5183 11.1048 13.4625 11.1048C13.4067 11.1048 13.353 11.126 13.3123 11.1641C13.2715 11.2022 13.2468 11.2543 13.243 11.31V12.224H9.562V10.25H10.218C10.3284 10.25 10.4343 10.2062 10.5125 10.1282C10.5907 10.0502 10.6347 9.94441 10.635 9.83398V9.37199C10.8577 9.35535 11.0659 9.25525 11.2179 9.09172C11.3699 8.92819 11.4546 8.71328 11.455 8.48999V1.81298C11.4542 1.57826 11.3604 1.35342 11.1941 1.18772C11.0279 1.02202 10.8027 0.928984 10.568 0.928986H0.887C0.652272 0.928984 0.427113 1.02202 0.260855 1.18772C0.0945958 1.35342 0.000793895 1.57826 0 1.81298L0 2.83699C0.00375865 2.89264 0.0285183 2.94479 0.069269 2.98288C0.11002 3.02097 0.163718 3.04216 0.2195 3.04216C0.275282 3.04216 0.32898 3.02097 0.369731 2.98288C0.410482 2.94479 0.435241 2.89264 0.439 2.83699V1.81298C0.440579 1.6953 0.488507 1.58299 0.572382 1.50043C0.656256 1.41786 0.769307 1.37171 0.887 1.37198H10.569C10.6874 1.37198 10.8009 1.41894 10.8847 1.50255C10.9685 1.58617 11.0157 1.69961 11.016 1.81799V8.49398C11.0157 8.61236 10.9685 8.7258 10.8847 8.80941C10.8009 8.89303 10.6874 8.93998 10.569 8.93998H9.562V8.42799C9.55824 8.37233 9.53348 8.32018 9.49273 8.28209C9.45198 8.244 9.39828 8.22281 9.3425 8.22281C9.28672 8.22281 9.23302 8.244 9.19227 8.28209C9.15152 8.32018 9.12676 8.37233 9.123 8.42799V8.93998H0.887C0.768621 8.93998 0.655076 8.89303 0.571276 8.80941C0.487476 8.7258 0.440265 8.61236 0.44 8.49398V3.77198C0.44 3.71364 0.416822 3.65768 0.375564 3.61642C0.334305 3.57516 0.278348 3.55199 0.22 3.55199C0.161652 3.55199 0.105695 3.57516 0.0644365 3.61642C0.0231785 3.65768 0 3.71364 0 3.77198L0 8.48598C0.000387721 8.70928 0.0850721 8.92419 0.237111 9.08772C0.389149 9.25126 0.597329 9.35135 0.82 9.36798V9.83099C0.820265 9.94141 0.864315 10.0472 0.942489 10.1252C1.02066 10.2032 1.12658 10.247 1.237 10.247H9.123V12.221H8.315C8.17929 12.221 8.04911 12.2748 7.95296 12.3705C7.85681 12.4663 7.80253 12.5963 7.802 12.732V14.485C7.80253 14.6207 7.85681 14.7507 7.95296 14.8464C8.04911 14.9422 8.17929 14.996 8.315 14.996H14.488C14.623 14.9957 14.7525 14.9423 14.8483 14.8472C14.9442 14.7521 14.9987 14.623 15 14.488V12.735C14.9995 12.5993 14.9452 12.4693 14.849 12.3735C14.7529 12.2778 14.6237 12.224 14.488 12.224ZM10.2 9.37199V9.80999H9.562V9.37199H10.2ZM1.26 9.81199V9.37199H9.123V9.80999L1.26 9.81199ZM14.56 14.489C14.56 14.5083 14.5523 14.5269 14.5386 14.5406C14.5249 14.5543 14.5064 14.562 14.487 14.562H8.315C8.29564 14.562 8.27707 14.5543 8.26338 14.5406C8.24969 14.5269 8.242 14.5083 8.242 14.489V12.735C8.242 12.7156 8.24969 12.6971 8.26338 12.6834C8.27707 12.6697 8.29564 12.662 8.315 12.662H14.488C14.5074 12.662 14.5259 12.6697 14.5396 12.6834C14.5533 12.6971 14.561 12.7156 14.561 12.735L14.56 14.489Z" fill="black"/>
<path id="Trac&#195;&#169; 1027" d="M10.9364 13.322H8.79639C8.73565 13.322 8.67741 13.3461 8.63446 13.3891C8.59151 13.432 8.56738 13.4903 8.56738 13.551C8.56738 13.6117 8.59151 13.67 8.63446 13.7129C8.67741 13.7559 8.73565 13.78 8.79639 13.78H10.9364C10.9971 13.78 11.0554 13.7559 11.0983 13.7129C11.1412 13.67 11.1654 13.6117 11.1654 13.551C11.1654 13.4903 11.1412 13.432 11.0983 13.3891C11.0554 13.3461 10.9971 13.322 10.9364 13.322Z" fill="black"/>
<path id="Trac&#195;&#169; 1028" d="M13.3989 11C13.4597 11 13.5179 10.9759 13.5609 10.9329C13.6038 10.89 13.6279 10.8317 13.6279 10.771V0.229C13.6279 0.168265 13.6038 0.110018 13.5609 0.0670725C13.5179 0.0241267 13.4597 0 13.3989 0C13.3382 0 13.2799 0.0241267 13.237 0.0670725C13.1941 0.110018 13.1699 0.168265 13.1699 0.229V10.771C13.1699 10.8011 13.1758 10.8309 13.1873 10.8586C13.1989 10.8864 13.2157 10.9117 13.237 10.9329C13.2583 10.9542 13.2835 10.9711 13.3113 10.9826C13.3391 10.9941 13.3689 11 13.3989 11Z" fill="black"/>
<path id="Trac&#195;&#169; 1029" d="M9.76691 3.87298C9.91422 3.87003 10.0574 3.82364 10.1784 3.73963C10.2994 3.65562 10.393 3.53773 10.4473 3.40076C10.5016 3.26379 10.5142 3.11384 10.4836 2.96972C10.453 2.82559 10.3805 2.69372 10.2752 2.59064C10.1699 2.48757 10.0365 2.41789 9.89179 2.39033C9.74705 2.36278 9.5974 2.37858 9.46161 2.43577C9.32582 2.49295 9.20994 2.58896 9.12851 2.71175C9.04708 2.83454 9.00374 2.97865 9.00391 3.12599C9.00628 3.32615 9.08792 3.51719 9.23096 3.65722C9.37399 3.79726 9.56674 3.87485 9.76691 3.87298ZM9.76691 2.83599C9.82353 2.83892 9.87806 2.85839 9.92374 2.89198C9.96941 2.92558 10.0042 2.97183 10.0239 3.02501C10.0436 3.07819 10.0472 3.13597 10.0344 3.1912C10.0216 3.24643 9.99281 3.29669 9.95172 3.33576C9.91063 3.37483 9.859 3.401 9.80319 3.41102C9.74739 3.42105 9.68985 3.4145 9.63773 3.39218C9.5856 3.36986 9.54117 3.33275 9.50992 3.28544C9.47867 3.23812 9.46199 3.18269 9.46191 3.12599C9.46453 3.0473 9.49796 2.97278 9.55502 2.91853C9.61208 2.86428 9.68818 2.83463 9.76691 2.83599Z" fill="black"/>
<path id="Trac&#195;&#169; 1030" d="M9.76691 5.905C9.91422 5.90204 10.0574 5.85565 10.1784 5.77164C10.2994 5.68763 10.393 5.56974 10.4473 5.43277C10.5016 5.2958 10.5142 5.14585 10.4836 5.00172C10.453 4.8576 10.3805 4.72572 10.2752 4.62265C10.1699 4.51958 10.0365 4.4499 9.89179 4.42235C9.74705 4.39479 9.5974 4.41059 9.46161 4.46777C9.32582 4.52495 9.20994 4.62097 9.12851 4.74376C9.04708 4.86655 9.00374 5.01065 9.00391 5.15799C9.00628 5.35815 9.08792 5.5492 9.23096 5.68924C9.37399 5.82927 9.56674 5.90687 9.76691 5.905ZM9.76691 4.868C9.82353 4.87093 9.87806 4.8904 9.92374 4.924C9.96941 4.95759 10.0042 5.00384 10.0239 5.05702C10.0436 5.1102 10.0472 5.16797 10.0344 5.22321C10.0216 5.27844 9.99281 5.3287 9.95172 5.36777C9.91063 5.40684 9.859 5.43301 9.80319 5.44304C9.74739 5.45307 9.68985 5.44652 9.63773 5.42419C9.5856 5.40187 9.54117 5.36475 9.50992 5.31744C9.47867 5.27013 9.46199 5.21469 9.46191 5.15799C9.46453 5.0793 9.49796 5.0048 9.55502 4.95055C9.61208 4.89629 9.68818 4.86664 9.76691 4.868Z" fill="black"/>
<path id="Trac&#195;&#169; 1031" d="M8.05897 8.29299H7.80897C7.74824 8.29299 7.68999 8.31712 7.64704 8.36006C7.6041 8.40301 7.57997 8.46126 7.57997 8.522C7.57997 8.58273 7.6041 8.64098 7.64704 8.68392C7.68999 8.72687 7.74824 8.75099 7.80897 8.75099H8.05897C8.28724 8.75073 8.50608 8.65993 8.6675 8.49852C8.82891 8.33711 8.91971 8.11826 8.91997 7.88999V2.82999C8.91971 2.60172 8.82891 2.38288 8.6675 2.22147C8.50608 2.06005 8.28724 1.96926 8.05897 1.96899H1.90397C1.6757 1.96926 1.45686 2.06005 1.29544 2.22147C1.13403 2.38288 1.04323 2.60172 1.04297 2.82999V7.88999C1.04323 8.11826 1.13403 8.33711 1.29544 8.49852C1.45686 8.65993 1.6757 8.75073 1.90397 8.75099H6.82097C6.88171 8.75099 6.93995 8.72687 6.9829 8.68392C7.02584 8.64098 7.04997 8.58273 7.04997 8.522C7.04997 8.46126 7.02584 8.40301 6.9829 8.36006C6.93995 8.31712 6.88171 8.29299 6.82097 8.29299H1.90397C1.85144 8.29299 1.79943 8.28264 1.7509 8.26254C1.70237 8.24244 1.65827 8.21298 1.62113 8.17583C1.58398 8.13869 1.55452 8.0946 1.53442 8.04607C1.51432 7.99754 1.50397 7.94552 1.50397 7.89299V2.83299C1.50397 2.72691 1.54611 2.62516 1.62113 2.55015C1.69614 2.47513 1.79788 2.43299 1.90397 2.43299H8.05897C8.16506 2.43299 8.2668 2.47513 8.34181 2.55015C8.41683 2.62516 8.45897 2.72691 8.45897 2.83299V7.89299C8.45897 7.94552 8.44863 7.99754 8.42852 8.04607C8.40842 8.0946 8.37896 8.13869 8.34181 8.17583C8.30467 8.21298 8.26057 8.24244 8.21204 8.26254C8.16351 8.28264 8.1115 8.29299 8.05897 8.29299Z" fill="black"/>
<path id="Trac&#195;&#169; 1032" d="M8.93079 7.26601C8.93105 7.37334 8.97379 7.4762 9.04968 7.55209C9.12558 7.62799 9.22845 7.67074 9.33578 7.67101H10.2028C10.3101 7.67074 10.413 7.62799 10.4889 7.55209C10.5648 7.4762 10.6075 7.37334 10.6078 7.26601V6.70401C10.6075 6.59668 10.5648 6.49382 10.4889 6.41792C10.413 6.34203 10.3101 6.29928 10.2028 6.29901H9.33078C9.22345 6.29928 9.12057 6.34203 9.04468 6.41792C8.96878 6.49382 8.92605 6.59668 8.92578 6.70401L8.93079 7.26601ZM9.38876 6.75601H10.1518V7.214H9.38876V6.75601Z" fill="black"/>
</g>
</g>
<defs>
<clipPath id="clip0_402_604">
<rect width="15" height="15" fill="white"/>
</clipPath>
</defs>
</svg>
