<svg width="23" height="23" viewBox="0 0 23 23" fill="none" xmlns="http://www.w3.org/2000/svg">
<g clip-path="url(#clip0_402_544)">
<path d="M22.3586 11.179C22.3573 13.3898 21.698 15.5502 20.4646 17.385C20.3359 17.5775 20.1359 17.7111 19.9087 17.7562C19.6815 17.8013 19.4457 17.7543 19.2531 17.6255C19.0606 17.4967 18.9271 17.2968 18.882 17.0696C18.8369 16.8424 18.8839 16.6065 19.0126 16.414C19.7529 15.3116 20.2515 14.065 20.4755 12.7562C20.6996 11.4473 20.6441 10.1059 20.3126 8.82C20.2548 8.59563 20.2885 8.35748 20.4063 8.15794C20.524 7.9584 20.7162 7.81382 20.9406 7.756C21.165 7.69818 21.4031 7.73186 21.6027 7.84964C21.8022 7.96741 21.9468 8.15963 22.0046 8.384C22.2388 9.29685 22.3571 10.2356 22.3566 11.178L22.3586 11.179ZM16.0586 19.254C14.6072 20.1308 12.9462 20.6001 11.2505 20.6125C9.55486 20.625 7.88719 20.1801 6.42302 19.3248C4.95884 18.4694 3.75231 17.2352 2.9304 15.752C2.10848 14.2688 1.70158 12.5914 1.75251 10.8965C1.80344 9.20152 2.31032 7.55164 3.21981 6.12045C4.1293 4.68927 5.40776 3.52971 6.92065 2.76381C8.43354 1.99791 10.1249 1.65398 11.8168 1.76822C13.5086 1.88247 15.1384 2.45066 16.5346 3.413C16.7252 3.54468 16.9602 3.59527 17.1881 3.55363C17.3009 3.53302 17.4086 3.49038 17.5049 3.42816C17.6013 3.36594 17.6844 3.28535 17.7496 3.191C17.8148 3.09664 17.8608 2.99037 17.8849 2.87825C17.9091 2.76612 17.9109 2.65034 17.8902 2.53752C17.8696 2.4247 17.827 2.31704 17.7648 2.22069C17.7026 2.12435 17.622 2.0412 17.5276 1.976C15.2313 0.390743 12.4251 -0.278489 9.66049 0.0997881C6.89586 0.478066 4.37263 1.87651 2.58652 4.02036C0.800423 6.1642 -0.119423 8.89848 0.00771319 11.686C0.134849 14.4735 1.29978 17.1126 3.27362 19.085C5.04146 20.8522 7.35037 21.9762 9.83179 22.2777C12.3132 22.5791 14.8241 22.0406 16.9636 20.748C17.0617 20.6886 17.1471 20.6104 17.215 20.518C17.2829 20.4255 17.3319 20.3206 17.3593 20.2092C17.3866 20.0979 17.3918 19.9822 17.3744 19.8688C17.3571 19.7554 17.3175 19.6466 17.2581 19.5485C17.1987 19.4504 17.1205 19.365 17.0281 19.2971C16.9356 19.2292 16.8307 19.1802 16.7194 19.1528C16.608 19.1255 16.4923 19.1203 16.3789 19.1377C16.2656 19.1551 16.1567 19.1946 16.0586 19.254ZM11.2586 13.712C11.1911 13.7149 11.1236 13.7041 11.0604 13.6802C10.9971 13.6563 10.9394 13.6198 10.8906 13.573L6.32162 9.236C6.15176 9.09068 5.93264 9.01606 5.70939 9.0275C5.48615 9.03895 5.27581 9.13559 5.12171 9.29752C4.9676 9.45944 4.88148 9.67431 4.88109 9.89784C4.88071 10.1214 4.96608 10.3365 5.11962 10.499L9.69362 14.836C10.11 15.2351 10.6649 15.4573 11.2416 15.456H11.3346C11.6358 15.4449 11.9316 15.3728 12.2041 15.2443C12.4767 15.1157 12.7204 14.9333 12.9206 14.708L12.9506 14.673L22.1666 3.211C22.3118 3.03052 22.3794 2.79975 22.3544 2.56945C22.3295 2.33916 22.2141 2.12821 22.0336 1.983C21.8531 1.83779 21.6224 1.77023 21.3921 1.79517C21.1618 1.82011 20.9508 1.93552 20.8056 2.116L11.6056 13.557C11.5157 13.651 11.3926 13.7062 11.2626 13.711L11.2586 13.712Z" fill="#FC2947"/>
</g>
<defs>
<clipPath id="clip0_402_544">
<rect width="22.36" height="22.36" fill="white"/>
</clipPath>
</defs>
</svg>
