<svg width="15" height="18" viewBox="0 0 15 18" fill="none" xmlns="http://www.w3.org/2000/svg">
<g id="insurance" clip-path="url(#clip0_402_624)">
<g id="insurance_2">
<path id="Trac&#195;&#169; 328" d="M14.9721 2.79699C14.971 2.72012 14.9461 2.64546 14.9011 2.58319C14.856 2.52092 14.7928 2.47406 14.7201 2.44899L7.62009 0.0199926C7.54153 -0.00808834 7.45566 -0.00808834 7.37709 0.0199926L0.277093 2.44899C0.204414 2.47406 0.141226 2.52092 0.0961338 2.58319C0.0510415 2.64546 0.0262358 2.72012 0.0250936 2.79699L0.00609357 3.89699C-0.16268 6.41113 0.122882 8.93511 0.849094 11.348C1.31706 12.5677 2.02272 13.6823 2.92509 14.627C4.00405 15.7257 5.28297 16.6082 6.69309 17.227L7.34309 17.527C7.39176 17.5492 7.44462 17.5606 7.49809 17.5606C7.55157 17.5606 7.60442 17.5492 7.65309 17.527L8.30309 17.227C9.71322 16.6082 10.9921 15.7257 12.0711 14.627C12.9744 13.6819 13.6808 12.5666 14.1491 11.346C14.8753 8.93311 15.1609 6.40913 14.9921 3.89499L14.9721 2.79699ZM13.4531 11.079C13.0206 12.2079 12.3676 13.2393 11.5321 14.113C10.5175 15.1392 9.31721 15.9635 7.99509 16.542L7.49509 16.772L6.99509 16.546C5.67298 15.9675 4.47272 15.1432 3.45809 14.117C2.62214 13.2421 1.96907 12.2093 1.53709 11.079C0.849625 8.75803 0.581429 6.33309 0.745094 3.91799L0.758093 3.07699L7.49909 0.761992L14.2251 3.07199L14.2381 3.91299C14.4076 6.33038 14.1417 8.75856 13.4531 11.082V11.079Z" fill="black"/>
<path id="Trac&#195;&#169; 330" d="M9.9235 6.31599L6.2435 9.99599L5.0765 8.82899C5.02857 8.78106 4.97166 8.74304 4.90903 8.7171C4.84641 8.69116 4.77929 8.6778 4.7115 8.6778C4.64371 8.6778 4.57659 8.69116 4.51396 8.7171C4.45133 8.74304 4.39443 8.78106 4.3465 8.82899C4.29857 8.87692 4.26054 8.93383 4.2346 8.99646C4.20866 9.05908 4.19531 9.12621 4.19531 9.19399C4.19531 9.26178 4.20866 9.3289 4.2346 9.39153C4.26054 9.45416 4.29857 9.51106 4.3465 9.55899L5.8765 11.089C5.92428 11.1372 5.98114 11.1754 6.04379 11.2015C6.10644 11.2277 6.17363 11.2411 6.2415 11.2411C6.30937 11.2411 6.37656 11.2277 6.43921 11.2015C6.50186 11.1754 6.55871 11.1372 6.6065 11.089L10.6535 7.04499C10.7014 6.99706 10.7395 6.94016 10.7654 6.87753C10.7913 6.8149 10.8047 6.74778 10.8047 6.67999C10.8047 6.61221 10.7913 6.54508 10.7654 6.48246C10.7395 6.41983 10.7014 6.36292 10.6535 6.31499C10.6056 6.26706 10.5487 6.22904 10.486 6.2031C10.4234 6.17716 10.3563 6.1638 10.2885 6.1638C10.2207 6.1638 10.1536 6.17716 10.091 6.2031C10.0283 6.22904 9.97143 6.26706 9.9235 6.31499V6.31599Z" fill="black"/>
</g>
</g>
<defs>
<clipPath id="clip0_402_624">
<rect width="15" height="17.557" fill="white"/>
</clipPath>
</defs>
</svg>
