<svg width="15" height="15" viewBox="0 0 15 15" fill="none" xmlns="http://www.w3.org/2000/svg">
<g id="plug" clip-path="url(#clip0_402_568)">
<g id="plug_2">
<g id="Groupe 422">
<g id="Groupe 421">
<path id="Trac&#195;&#169; 322" d="M3.33274 11.652C3.14565 11.465 2.90453 11.3415 2.64344 11.299C2.38235 11.2564 2.1145 11.297 1.87774 11.415C1.04548 10.2245 0.600299 8.80638 0.602804 7.35379C0.605309 5.90119 1.05538 4.48465 1.89174 3.29699C1.9262 3.23264 1.936 3.15793 1.91933 3.08686C1.90266 3.0158 1.86064 2.95324 1.80116 2.91093C1.74167 2.86862 1.6688 2.84945 1.59619 2.85701C1.52359 2.86457 1.45623 2.89834 1.40674 2.952C0.488429 4.24527 -0.00365428 5.79276 -0.000965603 7.37889C0.00172307 8.96503 0.49905 10.5108 1.42174 11.801C1.27981 11.9958 1.19668 12.2272 1.18222 12.4678C1.16775 12.7084 1.22254 12.9481 1.3401 13.1586C1.45766 13.369 1.63307 13.5413 1.84554 13.6551C2.05802 13.7689 2.29866 13.8194 2.53896 13.8007C2.77927 13.782 3.00917 13.6948 3.20144 13.5494C3.39371 13.404 3.54028 13.2066 3.62381 12.9805C3.70734 12.7544 3.72431 12.5091 3.67272 12.2736C3.62114 12.0382 3.50315 11.8225 3.33274 11.652ZM2.91174 13.014C2.81865 13.1073 2.69998 13.1708 2.57075 13.1966C2.44153 13.2224 2.30756 13.2093 2.18579 13.1589C2.06402 13.1085 1.95993 13.0232 1.8867 12.9136C1.81346 12.8041 1.77437 12.6753 1.77437 12.5435C1.77437 12.4117 1.81346 12.2829 1.8867 12.1734C1.95993 12.0638 2.06402 11.9784 2.18579 11.9281C2.30756 11.8777 2.44153 11.8646 2.57075 11.8904C2.69998 11.9162 2.81865 11.9797 2.91174 12.073C3.03637 12.1979 3.10637 12.3671 3.10637 12.5435C3.10637 12.7199 3.03637 12.8891 2.91174 13.014Z" fill="black"/>
</g>
</g>
<g id="Groupe 424">
<g id="Groupe 423">
<path id="Trac&#195;&#169; 323" d="M12.0052 13.162C11.9584 13.0988 11.8888 13.0565 11.8112 13.0442C11.7336 13.0319 11.6542 13.0505 11.5902 13.096C10.7427 13.6989 9.77148 14.1055 8.74718 14.286C8.62948 14.3074 8.50853 14.303 8.39269 14.2732C8.27684 14.2433 8.16885 14.1886 8.07617 14.113C7.98512 14.0391 7.91168 13.9458 7.86118 13.8399C7.81067 13.7341 7.78437 13.6183 7.78418 13.501V11.356H7.81018C7.97445 11.3573 8.13251 11.2934 8.2497 11.1783C8.36688 11.0632 8.4336 10.9063 8.43518 10.742V10.248C8.93906 10.0624 9.37429 9.72737 9.68271 9.28778C9.99113 8.8482 10.1581 8.32497 10.1612 7.78799V6.40399C10.4124 6.34018 10.6332 6.19027 10.7852 5.98037C10.9372 5.77047 11.0107 5.51389 10.993 5.25534C10.9753 4.99679 10.8674 4.75266 10.6882 4.56548C10.5089 4.37829 10.2697 4.25992 10.0122 4.23099V2.40699C10.0122 2.17015 9.9181 1.94302 9.75063 1.77555C9.58316 1.60808 9.35601 1.51399 9.11917 1.51399C8.88233 1.51399 8.6552 1.60808 8.48773 1.77555C8.32026 1.94302 8.22618 2.17015 8.22618 2.40699V4.21999H6.73817V2.40699C6.73817 2.17015 6.64409 1.94302 6.47662 1.77555C6.30915 1.60808 6.08201 1.51399 5.84517 1.51399C5.60833 1.51399 5.3812 1.60808 5.21373 1.77555C5.04626 1.94302 4.95218 2.17015 4.95218 2.40699V4.22599C4.69464 4.25492 4.45542 4.37329 4.27618 4.56047C4.09695 4.74766 3.98907 4.9918 3.97134 5.25035C3.95362 5.5089 4.02716 5.76547 4.17917 5.97537C4.33117 6.18527 4.552 6.33518 4.80318 6.39899V7.78399C4.8063 8.32097 4.97323 8.84421 5.28165 9.28379C5.59007 9.72337 6.0253 10.0584 6.52918 10.244V10.738C6.53076 10.9023 6.59746 11.0592 6.71465 11.1743C6.83183 11.2894 6.98991 11.3533 7.15418 11.352H7.18817V13.496C7.18823 13.6994 7.23359 13.9002 7.32094 14.0839C7.40829 14.2676 7.53544 14.4296 7.69318 14.558C7.94712 14.7658 8.26503 14.8796 8.59317 14.88C8.67868 14.8799 8.76402 14.8722 8.84818 14.857C9.95961 14.6611 11.0135 14.22 11.9332 13.566C11.9646 13.5443 11.9913 13.5166 12.0119 13.4845C12.0326 13.4524 12.0466 13.4165 12.0533 13.379C12.06 13.3414 12.0592 13.3029 12.0509 13.2657C12.0427 13.2284 12.0271 13.1932 12.0052 13.162ZM8.82217 2.40799C8.82217 2.32843 8.85379 2.25212 8.91005 2.19586C8.96631 2.1396 9.04261 2.10799 9.12218 2.10799C9.20174 2.10799 9.27804 2.1396 9.33431 2.19586C9.39057 2.25212 9.42218 2.32843 9.42218 2.40799V4.22099H8.82217V2.40799ZM5.54817 2.40799C5.54817 2.32843 5.57979 2.25212 5.63605 2.19586C5.69231 2.1396 5.76861 2.10799 5.84818 2.10799C5.92774 2.10799 6.00404 2.1396 6.0603 2.19586C6.11656 2.25212 6.14818 2.32843 6.14818 2.40799V4.22099H5.54817V2.40799ZM4.56618 5.33199C4.56776 5.19124 4.62506 5.05686 4.72553 4.95827C4.82599 4.85968 4.96142 4.80492 5.10217 4.80599H9.86418C10.0038 4.80599 10.1377 4.86146 10.2365 4.9602C10.3352 5.05894 10.3907 5.19286 10.3907 5.33249C10.3907 5.47213 10.3352 5.60605 10.2365 5.70478C10.1377 5.80352 10.0038 5.85899 9.86418 5.85899H5.10217C4.96211 5.85874 4.82781 5.80326 4.72839 5.70459C4.62898 5.60593 4.5725 5.47205 4.57118 5.33199H4.56618ZM5.39917 7.78899V6.44299H9.56517V7.78799C9.5484 8.32926 9.32159 8.84275 8.93279 9.2197C8.54398 9.59664 8.02371 9.80744 7.48218 9.80744C6.94064 9.80744 6.42038 9.59664 6.03157 9.2197C5.64276 8.84275 5.41594 8.33026 5.39917 7.78899ZM7.49318 10.772H7.15418C7.14639 10.772 7.13891 10.769 7.13332 10.7636C7.12772 10.7582 7.12444 10.7508 7.12418 10.743V10.398C7.36115 10.4292 7.60121 10.4292 7.83818 10.398V10.743C7.83792 10.7508 7.83464 10.7582 7.82904 10.7636C7.82344 10.769 7.81597 10.772 7.80818 10.772H7.49318Z" fill="black"/>
</g>
</g>
<g id="Groupe 426">
<g id="Groupe 425">
<path id="Trac&#195;&#169; 324" d="M12.7614 12.325C12.7046 12.2729 12.6299 12.2446 12.5528 12.2461C12.4757 12.2476 12.4022 12.2787 12.3474 12.333L12.3404 12.34C12.2974 12.3986 12.2771 12.4709 12.2833 12.5433C12.2896 12.6158 12.3219 12.6835 12.3744 12.7339C12.4269 12.7843 12.4959 12.8139 12.5685 12.8172C12.6412 12.8206 12.7126 12.7974 12.7694 12.752L12.7764 12.745C12.8294 12.687 12.8576 12.6105 12.8548 12.5319C12.8519 12.4534 12.8184 12.3791 12.7614 12.325Z" fill="black"/>
</g>
</g>
<g id="Groupe 428">
<g id="Groupe 427">
<path id="Trac&#195;&#169; 325" d="M14.9816 7.045C14.8778 5.70039 14.4196 4.40728 13.6538 3.29722C12.8879 2.18716 11.8417 1.29976 10.6215 0.725298C9.4014 0.150836 8.05086 -0.0901893 6.70732 0.0267411C5.36379 0.143671 4.0752 0.614385 2.97264 1.391C2.93517 1.4111 2.9024 1.43893 2.87651 1.47265C2.85061 1.50638 2.83218 1.54522 2.82244 1.58661C2.81269 1.62799 2.81186 1.67098 2.81999 1.71271C2.82812 1.75444 2.84502 1.79397 2.86959 1.82868C2.89415 1.86338 2.92582 1.89247 2.96247 1.91401C2.99913 1.93555 3.03995 1.94905 3.08222 1.95362C3.12449 1.95819 3.16725 1.95372 3.20767 1.94051C3.24808 1.9273 3.28523 1.90565 3.31664 1.877C4.67466 0.930371 6.32077 0.488024 7.97036 0.626433C9.61996 0.764843 11.1693 1.47531 12.3506 2.635C13.5425 3.81456 14.27 5.38369 14.4002 7.0555C14.5304 8.72732 14.0545 10.3901 13.0596 11.74C13.03 11.7708 13.0073 11.8077 12.9931 11.848C12.9789 11.8884 12.9734 11.9313 12.9772 11.9739C12.9809 12.0165 12.9937 12.0578 13.0147 12.0951C13.0357 12.1324 13.0644 12.1647 13.0989 12.1899C13.1335 12.2152 13.173 12.2328 13.2149 12.2415C13.2568 12.2502 13.3 12.2499 13.3417 12.2405C13.3835 12.2311 13.4227 12.2129 13.4569 12.1872C13.491 12.1614 13.5192 12.1286 13.5396 12.091C14.6027 10.6328 15.1137 8.84469 14.9816 7.045Z" fill="black"/>
</g>
</g>
<g id="Groupe 430">
<g id="Groupe 429">
<path id="Trac&#195;&#169; 326" d="M2.61619 2.24999C2.56007 2.19472 2.48446 2.16374 2.40569 2.16374C2.32692 2.16374 2.25131 2.19472 2.19519 2.24999C2.15054 2.30792 2.1286 2.38017 2.13348 2.45314C2.13836 2.52611 2.16972 2.59479 2.22168 2.64626C2.27365 2.69773 2.34262 2.72844 2.41564 2.73263C2.48866 2.73681 2.56069 2.71419 2.61819 2.66899C2.67259 2.6127 2.70283 2.53737 2.70246 2.45908C2.70209 2.3808 2.67113 2.30576 2.61619 2.24999Z" fill="black"/>
</g>
</g>
<g id="Groupe 432">
<g id="Groupe 431">
<path id="Trac&#195;&#169; 327" d="M8.17067 7.66301C8.14433 7.61819 8.10679 7.58097 8.06174 7.55502C8.01668 7.52908 7.96566 7.51528 7.91367 7.515H7.69766L8.08966 7.02C8.12732 6.95747 8.14088 6.88334 8.12781 6.81152C8.11473 6.7397 8.07592 6.67512 8.01865 6.62987C7.96137 6.58461 7.88956 6.56178 7.81667 6.56567C7.74377 6.56956 7.6748 6.5999 7.62266 6.651L6.84866 7.62801C6.815 7.67209 6.79422 7.72464 6.78863 7.77983C6.78305 7.83502 6.79287 7.89067 6.81702 7.94061C6.84116 7.99055 6.87866 8.03283 6.92538 8.06273C6.9721 8.09263 7.0262 8.10899 7.08166 8.11H7.39867L7.03467 8.75301C7.00914 8.78713 6.99116 8.82631 6.98195 8.86792C6.97274 8.90953 6.97251 8.95263 6.98126 8.99434C6.99001 9.03605 7.00756 9.07542 7.03271 9.10982C7.05787 9.14422 7.09007 9.17286 7.12717 9.19385C7.16426 9.21483 7.2054 9.22767 7.24785 9.23151C7.29029 9.23534 7.33308 9.2301 7.37334 9.21611C7.41359 9.20212 7.45042 9.17971 7.48134 9.15037C7.51226 9.12104 7.53656 9.08547 7.55266 9.046L8.16865 7.95801C8.19437 7.91317 8.20808 7.86245 8.20843 7.81076C8.20878 7.75907 8.19578 7.70819 8.17067 7.66301Z" fill="black"/>
</g>
</g>
</g>
</g>
<defs>
<clipPath id="clip0_402_568">
<rect width="15" height="14.884" fill="white"/>
</clipPath>
</defs>
</svg>
