<svg width="15" height="20" viewBox="0 0 15 20" fill="none" xmlns="http://www.w3.org/2000/svg">
<g id="water-drop" clip-path="url(#clip0_402_588)">
<g id="Groupe 434">
<path id="Trac&#195;&#169; 331" d="M5.48428 16.419C4.80627 16.2071 4.18865 15.8365 3.68281 15.3377C3.17698 14.839 2.79754 14.2267 2.57609 13.5518C2.35463 12.8769 2.29755 12.1588 2.4096 11.4574C2.52164 10.7559 2.79958 10.0914 3.22028 9.519C3.23317 9.50132 3.24454 9.48259 3.25428 9.463C3.29964 9.37702 3.31032 9.27693 3.28413 9.18331C3.25794 9.08969 3.19686 9.00967 3.11347 8.95971C3.03007 8.90975 2.93071 8.89365 2.83581 8.91472C2.7409 8.9358 2.65769 8.99244 2.60328 9.073C1.94037 9.97474 1.58476 11.0656 1.5889 12.1848C1.59304 13.304 1.95672 14.3922 2.62628 15.289C3.28701 16.1695 4.20715 16.8207 5.25728 17.151C5.35368 17.181 5.45805 17.1714 5.54741 17.1244C5.63677 17.0775 5.70381 16.9969 5.73378 16.9005C5.76375 16.8041 5.75419 16.6997 5.70721 16.6104C5.66023 16.521 5.57968 16.454 5.48327 16.424L5.48428 16.419Z" fill="black"/>
<path id="Trac&#195;&#169; 332" d="M14.9999 8.753C15.0016 8.04604 14.7762 7.35722 14.3569 6.788L11.9889 3.268C11.9545 3.21727 11.9083 3.17572 11.8542 3.14701C11.8 3.11829 11.7397 3.10327 11.6784 3.10327C11.6171 3.10327 11.5568 3.11829 11.5027 3.14701C11.4485 3.17572 11.4023 3.21727 11.3679 3.268L10.3679 4.751L7.27691 0.165002C7.24255 0.114266 7.19628 0.0727229 7.14215 0.0440063C7.08802 0.0152897 7.02768 0.000274658 6.96641 0.000274658C6.90513 0.000274658 6.84479 0.0152897 6.79066 0.0440063C6.73653 0.0727229 6.69026 0.114266 6.65591 0.165002L1.35591 8.037C0.704188 8.92417 0.272 9.95315 0.0947751 11.0396C-0.0824499 12.1261 0.000336051 13.2391 0.336341 14.2873C0.672346 15.3356 1.252 16.2894 2.0278 17.0703C2.80359 17.8513 3.75343 18.4373 4.79945 18.7803C5.84547 19.1233 6.95789 19.2135 8.0455 19.0436C9.13312 18.8736 10.165 18.4483 11.0565 17.8025C11.9479 17.1567 12.6737 16.3088 13.1742 15.3284C13.6747 14.3479 13.9358 13.2628 13.9359 12.162C13.9359 11.8557 13.9158 11.5497 13.8759 11.246C14.2297 10.9342 14.513 10.5506 14.7068 10.1207C14.9006 9.69084 15.0005 9.22456 14.9999 8.753ZM11.6759 4.148L13.7359 7.206L13.7489 7.225C14.0313 7.60853 14.2018 8.06286 14.2415 8.5375C14.2811 9.01213 14.1883 9.48846 13.9735 9.91352C13.7586 10.3386 13.4301 10.6957 13.0244 10.9452C12.6187 11.1947 12.1517 11.3268 11.6754 11.3268C11.1991 11.3268 10.7322 11.1947 10.3265 10.9452C9.92077 10.6957 9.59221 10.3386 9.37734 9.91352C9.16247 9.48846 9.0697 9.01213 9.10934 8.5375C9.14899 8.06286 9.31949 7.60853 9.6019 7.225L9.61491 7.207L10.6759 5.632L10.6819 5.623L11.6759 4.148ZM13.1829 12.163C13.1827 13.1458 12.9496 14.1146 12.5025 14.9899C12.0555 15.8651 11.4072 16.622 10.6111 17.1982C9.81492 17.7745 8.89348 18.1538 7.92235 18.305C6.95122 18.4562 5.95808 18.375 5.02441 18.068C4.09074 17.7611 3.24313 17.2372 2.55114 16.5393C1.85914 15.8414 1.34246 14.9893 1.04351 14.0531C0.744547 13.1168 0.671819 12.123 0.83129 11.1532C0.990761 10.1834 1.37789 9.26523 1.96091 8.474L1.97391 8.455L6.96591 1.045L9.91391 5.422L8.98891 6.788C8.54797 7.38985 8.32234 8.12255 8.34831 8.86818C8.37428 9.61382 8.65036 10.329 9.1321 10.8987C9.61385 11.4685 10.2732 11.8595 11.0042 12.009C11.7352 12.1586 12.4952 12.0578 13.1619 11.723C13.1719 11.869 13.1772 12.0153 13.1779 12.162L13.1829 12.163Z" fill="black"/>
<path id="Trac&#195;&#169; 333" d="M10.3504 8.65699C10.35 8.47474 10.3882 8.29447 10.4624 8.128C10.5034 8.03518 10.5058 7.92987 10.4691 7.83526C10.4325 7.74065 10.3597 7.66448 10.2669 7.6235C10.1741 7.58252 10.0688 7.58009 9.97417 7.61676C9.87955 7.65342 9.80338 7.72617 9.76241 7.819C9.5651 8.26382 9.53114 8.76401 9.66652 9.23143C9.80189 9.69884 10.0979 10.1035 10.5024 10.374C10.5439 10.4018 10.5905 10.4211 10.6394 10.4309C10.6884 10.4407 10.7388 10.4407 10.7878 10.431C10.8368 10.4213 10.8834 10.402 10.9249 10.3743C10.9665 10.3466 11.0021 10.311 11.0299 10.2695C11.0577 10.228 11.077 10.1814 11.0868 10.1325C11.0966 10.0835 11.0966 10.0331 11.0869 9.98411C11.0772 9.93513 11.0579 9.88854 11.0302 9.847C11.0025 9.80545 10.9669 9.76977 10.9254 9.742C10.7476 9.62253 10.602 9.46096 10.5017 9.27166C10.4014 9.08237 10.3494 8.87122 10.3504 8.65699Z" fill="black"/>
<path id="Trac&#195;&#169; 334" d="M6.79507 16.947C6.76979 16.8865 6.7293 16.8336 6.67753 16.7934C6.62576 16.7532 6.56447 16.7271 6.49963 16.7176C6.43478 16.7081 6.36856 16.7155 6.30743 16.7391C6.24629 16.7628 6.19232 16.8018 6.15073 16.8525C6.10915 16.9031 6.08137 16.9637 6.07011 17.0283C6.05884 17.0928 6.06447 17.1592 6.08645 17.2209C6.10842 17.2827 6.146 17.3377 6.19552 17.3806C6.24504 17.4236 6.30482 17.453 6.36906 17.466C6.43651 17.4786 6.50612 17.4729 6.57061 17.4494C6.63509 17.426 6.69208 17.3856 6.73562 17.3325C6.77916 17.2795 6.80765 17.2157 6.81811 17.1479C6.82856 17.0801 6.82061 17.0107 6.79507 16.947Z" fill="black"/>
<path id="Trac&#195;&#169; 335" d="M11.4708 10.697C11.5281 10.735 11.5946 10.7568 11.6632 10.7601C11.7319 10.7633 11.8001 10.7479 11.8607 10.7154C11.9213 10.6829 11.9719 10.6346 12.0072 10.5756C12.0425 10.5167 12.0612 10.4492 12.0612 10.3805C12.0612 10.3118 12.0425 10.2443 12.0072 10.1854C11.9719 10.1264 11.9213 10.0781 11.8607 10.0456C11.8001 10.0131 11.7319 9.99767 11.6632 10.0009C11.5946 10.0042 11.5281 10.026 11.4708 10.064C11.4191 10.099 11.3767 10.1461 11.3474 10.2013C11.3181 10.2565 11.3027 10.318 11.3027 10.3805C11.3027 10.443 11.3181 10.5045 11.3474 10.5597C11.3767 10.6149 11.4191 10.662 11.4708 10.697Z" fill="black"/>
</g>
</g>
<defs>
<clipPath id="clip0_402_588">
<rect width="15" height="19.129" fill="white"/>
</clipPath>
</defs>
</svg>
