<svg width="15" height="16" viewBox="0 0 15 16" fill="none" xmlns="http://www.w3.org/2000/svg">
<g id="wipe" clip-path="url(#clip0_402_595)">
<g id="wipe_2">
<path id="Trac&#195;&#169; 979" d="M13.9315 5.67501L12.5825 4.32501L12.6265 4.13801L14.1015 3.70101C14.156 3.68477 14.2037 3.65137 14.2377 3.60579C14.2717 3.5602 14.2901 3.50487 14.2901 3.44801C14.2901 3.39116 14.2717 3.33582 14.2377 3.29024C14.2037 3.24465 14.156 3.21125 14.1015 3.19501L12.6265 2.75801L12.3055 1.40901C12.2915 1.35154 12.2586 1.30044 12.2121 1.2639C12.1656 1.22735 12.1081 1.20749 12.049 1.20749C11.9898 1.20749 11.9324 1.22735 11.8859 1.2639C11.8394 1.30044 11.8065 1.35154 11.7925 1.40901L11.4715 2.76001L11.1215 2.86001L9.01447 0.752014C8.82306 0.560437 8.59578 0.408458 8.34561 0.304768C8.09543 0.201077 7.82728 0.147705 7.55647 0.147705C7.28566 0.147705 7.01751 0.201077 6.76733 0.304768C6.51716 0.408458 6.28987 0.560437 6.09847 0.752014L1.18147 5.67301C0.795351 6.06061 0.578559 6.58541 0.578559 7.13251C0.578559 7.67961 0.795351 8.20442 1.18147 8.59201L1.42747 8.83801L1.13747 9.86701C0.881341 10.6464 0.513874 11.3847 0.0464695 12.059C0.0119974 12.1099 -0.00366778 12.1711 0.0021732 12.2323C0.00801417 12.2934 0.0349971 12.3506 0.078471 12.394L3.00347 15.321C3.04608 15.3639 3.10215 15.3908 3.16225 15.3971C3.22235 15.4035 3.28282 15.389 3.33347 15.356L4.90547 14.338C5.30893 14.0751 5.69629 13.7882 6.06547 13.479L6.09947 13.513C6.29088 13.7046 6.51816 13.8566 6.76833 13.9603C7.01851 14.0639 7.28666 14.1173 7.55747 14.1173C7.82828 14.1173 8.09643 14.0639 8.34661 13.9603C8.59678 13.8566 8.82406 13.7046 9.01547 13.513L13.9325 8.59201C14.3178 8.20437 14.5341 7.67991 14.5339 7.1333C14.5337 6.58669 14.3171 6.06239 13.9315 5.67501ZM11.7675 3.22101C11.812 3.20785 11.8523 3.18317 11.8843 3.14946C11.9162 3.11574 11.9387 3.0742 11.9495 3.02901L12.0495 2.60801L12.1495 3.02901C12.1602 3.0742 12.1827 3.11574 12.2147 3.14946C12.2466 3.18317 12.2869 3.20785 12.3315 3.22101L13.0975 3.44801L12.3315 3.67501C12.2869 3.68818 12.2466 3.71286 12.2147 3.74657C12.1827 3.78028 12.1602 3.82183 12.1495 3.86701L12.0495 4.28801L11.9495 3.86701C11.9387 3.82183 11.9162 3.78028 11.8843 3.74657C11.8523 3.71286 11.812 3.68818 11.7675 3.67501L11.0015 3.44801L11.7675 3.22101ZM4.61747 13.897L3.22547 14.797L0.603469 12.173C1.06275 11.5028 1.4159 10.7659 1.65047 9.98801L2.77547 5.98801C2.79152 5.86867 2.85432 5.76058 2.95005 5.68753C3.04579 5.61449 3.16662 5.58247 3.28597 5.59851C3.40531 5.61456 3.5134 5.67736 3.58645 5.77309C3.65949 5.86883 3.69152 5.98967 3.67547 6.10901L3.15147 8.38401C3.13856 8.43988 3.1442 8.49844 3.16752 8.55082C3.19085 8.6032 3.23059 8.64657 3.28075 8.67436C3.33091 8.70215 3.38875 8.71285 3.44553 8.70485C3.50231 8.69685 3.55494 8.67058 3.59547 8.63001L7.38247 4.84001C7.45681 4.76939 7.55543 4.73001 7.65797 4.73001C7.76051 4.73001 7.85913 4.76939 7.93347 4.84001C8.00644 4.91313 8.04743 5.01221 8.04743 5.11551C8.04743 5.21881 8.00644 5.3179 7.93347 5.39101L5.14747 8.18001C5.1212 8.20409 5.10008 8.23324 5.08538 8.2657C5.07068 8.29816 5.0627 8.33326 5.06192 8.36889C5.06115 8.40451 5.0676 8.43993 5.08087 8.473C5.09415 8.50606 5.11399 8.5361 5.13919 8.5613C5.16438 8.5865 5.19442 8.60633 5.22749 8.61961C5.26056 8.63289 5.29597 8.63933 5.3316 8.63856C5.36722 8.63778 5.40232 8.62981 5.43478 8.6151C5.46724 8.6004 5.49639 8.57928 5.52047 8.55301L9.07647 4.99401C9.15057 4.92621 9.24797 4.88962 9.34839 4.89185C9.4488 4.89407 9.54448 4.93496 9.6155 5.00598C9.68652 5.077 9.72741 5.17268 9.72964 5.27309C9.73186 5.37351 9.69527 5.47091 9.62747 5.54501L8.69847 6.47501L6.06647 9.10901C6.0402 9.13309 6.01908 9.16224 6.00438 9.1947C5.98968 9.22716 5.9817 9.26226 5.98092 9.29789C5.98015 9.33351 5.98659 9.36893 5.99987 9.40199C6.01315 9.43506 6.03299 9.4651 6.05818 9.4903C6.08338 9.5155 6.11342 9.53533 6.14649 9.54861C6.17956 9.56188 6.21497 9.56833 6.25059 9.56756C6.28622 9.56678 6.32132 9.55881 6.35378 9.54411C6.38624 9.5294 6.41539 9.50828 6.43947 9.48201L9.06647 6.85301C9.14318 6.78885 9.24114 6.75575 9.34104 6.76023C9.44095 6.76471 9.53555 6.80646 9.6062 6.87724C9.67686 6.94801 9.71843 7.04269 9.72274 7.1426C9.72705 7.24251 9.69377 7.34042 9.62947 7.41701L8.87247 8.17501L6.86147 10.187C6.8155 10.2372 6.79066 10.3031 6.79214 10.3711C6.79362 10.4392 6.8213 10.504 6.8694 10.5521C6.91751 10.6002 6.98233 10.6279 7.05034 10.6293C7.11836 10.6308 7.18432 10.606 7.23447 10.56L7.37547 10.419L9.24447 8.54801C9.31687 8.4787 9.41324 8.44001 9.51347 8.44001C9.6137 8.44001 9.71007 8.4787 9.78247 8.54801C9.85367 8.61943 9.89365 8.71616 9.89365 8.81701C9.89365 8.91786 9.85367 9.0146 9.78247 9.08601L6.50547 12.366C5.93164 12.9412 5.29881 13.4544 4.61747 13.897ZM13.5585 8.22101L8.64147 13.142C8.499 13.2847 8.32979 13.3979 8.14353 13.4751C7.95727 13.5524 7.75761 13.5921 7.55597 13.5921C7.35433 13.5921 7.15467 13.5524 6.96841 13.4751C6.78215 13.3979 6.61294 13.2847 6.47047 13.142L6.46347 13.135C6.60447 13.007 6.74347 12.876 6.87747 12.742L10.1545 9.46201C10.3248 9.29156 10.4205 9.06047 10.4205 8.81951C10.4205 8.57856 10.3248 8.34746 10.1545 8.17701C10.0598 8.08578 9.94558 8.01737 9.82047 7.97701L10.0015 7.79601C10.1748 7.62208 10.2721 7.38655 10.2721 7.14101C10.2721 6.89548 10.1748 6.65995 10.0015 6.48601C9.90316 6.38903 9.78419 6.31553 9.65347 6.27101L9.99547 5.92901C10.1679 5.75662 10.2647 5.52281 10.2647 5.27901C10.2647 5.03521 10.1679 4.8014 9.99547 4.62901C9.82308 4.45662 9.58927 4.35978 9.34547 4.35978C9.10167 4.35978 8.86786 4.45662 8.69547 4.62901L8.51047 4.81401C8.4659 4.68665 8.39347 4.57084 8.29847 4.47501C8.12375 4.30708 7.89081 4.21328 7.64847 4.21328C7.40613 4.21328 7.17319 4.30708 6.99847 4.47501L3.86947 7.60901L4.19047 6.21501C4.19264 6.2051 4.19431 6.19509 4.19547 6.18501C4.22039 5.93645 4.14955 5.68775 3.99739 5.48963C3.84523 5.29151 3.62323 5.1589 3.37665 5.11884C3.13008 5.07879 2.87752 5.13431 2.67047 5.27408C2.46343 5.41385 2.31751 5.62735 2.26247 5.87101L1.58847 8.25801L1.55147 8.22101C1.26391 7.93254 1.10244 7.54183 1.10244 7.13451C1.10244 6.7272 1.26391 6.33649 1.55147 6.04801L6.46847 1.12701C6.61095 0.98433 6.78015 0.871132 6.96641 0.7939C7.15267 0.716668 7.35233 0.676914 7.55397 0.676914C7.75561 0.676914 7.95527 0.716668 8.14153 0.7939C8.32779 0.871132 8.49699 0.98433 8.63947 1.12701L10.5395 3.03301L9.99047 3.19601C9.93598 3.21226 9.8882 3.24565 9.85422 3.29124C9.82024 3.33682 9.80188 3.39216 9.80188 3.44901C9.80188 3.50587 9.82024 3.5612 9.85422 3.60679C9.8882 3.65237 9.93598 3.68577 9.99047 3.70201L11.4655 4.13901L11.7865 5.49001C11.8005 5.54748 11.8334 5.59859 11.8799 5.63513C11.9264 5.67167 11.9838 5.69153 12.043 5.69153C12.1021 5.69153 12.1596 5.67167 12.2061 5.63513C12.2526 5.59859 12.2855 5.54748 12.2995 5.49001L12.4335 4.92901L13.5525 6.04901C13.8403 6.33678 14.0025 6.72678 14.0036 7.13377C14.0047 7.54077 13.8447 7.93166 13.5585 8.22101Z" fill="black"/>
<path id="Trac&#195;&#169; 980" d="M1.55234 1.1C1.62528 1.1 1.69522 1.07102 1.7468 1.01945C1.79837 0.967879 1.82734 0.897931 1.82734 0.824997V0.274998C1.82734 0.202063 1.79837 0.132116 1.7468 0.0805435C1.69522 0.028971 1.62528 0 1.55234 0C1.47941 0 1.40946 0.028971 1.35789 0.0805435C1.30631 0.132116 1.27734 0.202063 1.27734 0.274998V0.824997C1.27734 0.897931 1.30631 0.967879 1.35789 1.01945C1.40946 1.07102 1.47941 1.1 1.55234 1.1Z" fill="black"/>
<path id="Trac&#195;&#169; 981" d="M1.55234 1.64999C1.47941 1.64999 1.40946 1.67896 1.35789 1.73054C1.30631 1.78211 1.27734 1.85206 1.27734 1.92499V2.47499C1.27734 2.54793 1.30631 2.61787 1.35789 2.66945C1.40946 2.72102 1.47941 2.74999 1.55234 2.74999C1.62528 2.74999 1.69522 2.72102 1.7468 2.66945C1.79837 2.61787 1.82734 2.54793 1.82734 2.47499V1.92499C1.82734 1.85206 1.79837 1.78211 1.7468 1.73054C1.69522 1.67896 1.62528 1.64999 1.55234 1.64999Z" fill="black"/>
<path id="Trac&#195;&#169; 982" d="M0.452732 1.65001H1.00273C1.07567 1.65001 1.14561 1.62103 1.19719 1.56946C1.24876 1.51789 1.27773 1.44794 1.27773 1.375C1.27773 1.30207 1.24876 1.23212 1.19719 1.18055C1.14561 1.12898 1.07567 1.10001 1.00273 1.10001H0.452732C0.379798 1.10001 0.30985 1.12898 0.258278 1.18055C0.206705 1.23212 0.177734 1.30207 0.177734 1.375C0.177734 1.44794 0.206705 1.51789 0.258278 1.56946C0.30985 1.62103 0.379798 1.65001 0.452732 1.65001Z" fill="black"/>
<path id="Trac&#195;&#169; 983" d="M2.10215 1.65001H2.65215C2.72508 1.65001 2.79503 1.62103 2.8466 1.56946C2.89818 1.51789 2.92715 1.44794 2.92715 1.375C2.92715 1.30207 2.89818 1.23212 2.8466 1.18055C2.79503 1.12898 2.72508 1.10001 2.65215 1.10001H2.10215C2.02921 1.10001 1.95926 1.12898 1.90769 1.18055C1.85612 1.23212 1.82715 1.30207 1.82715 1.375C1.82715 1.44794 1.85612 1.51789 1.90769 1.56946C1.95926 1.62103 2.02921 1.65001 2.10215 1.65001Z" fill="black"/>
<path id="Trac&#195;&#169; 984" d="M12.6222 12.84C12.4317 12.84 12.2455 12.8965 12.0872 13.0023C11.9288 13.1081 11.8054 13.2585 11.7325 13.4345C11.6596 13.6104 11.6405 13.8041 11.6777 13.9909C11.7148 14.1777 11.8066 14.3493 11.9412 14.4839C12.0759 14.6186 12.2475 14.7103 12.4343 14.7475C12.6211 14.7847 12.8147 14.7656 12.9907 14.6927C13.1667 14.6198 13.3171 14.4964 13.4229 14.338C13.5287 14.1796 13.5852 13.9935 13.5852 13.803C13.5849 13.5477 13.4834 13.3029 13.3028 13.1223C13.1223 12.9418 12.8775 12.8403 12.6222 12.84ZM12.6222 14.215C12.5405 14.215 12.4606 14.1908 12.3927 14.1454C12.3248 14.1 12.2719 14.0355 12.2406 13.9601C12.2094 13.8846 12.2012 13.8015 12.2171 13.7214C12.233 13.6413 12.2724 13.5677 12.3301 13.51C12.3879 13.4522 12.4615 13.4129 12.5416 13.3969C12.6217 13.381 12.7048 13.3892 12.7802 13.4204C12.8557 13.4517 12.9202 13.5046 12.9656 13.5726C13.011 13.6405 13.0352 13.7203 13.0352 13.802C13.0352 13.8562 13.0245 13.9099 13.0037 13.9601C12.983 14.0102 12.9526 14.0557 12.9142 14.094C12.8759 14.1324 12.8303 14.1628 12.7802 14.1836C12.7301 14.2043 12.6764 14.215 12.6222 14.215Z" fill="black"/>
<path id="Trac&#195;&#169; 985" d="M14.7061 11.215C14.648 11.215 14.5911 11.2322 14.5428 11.2645C14.4944 11.2968 14.4567 11.3428 14.4345 11.3965C14.4122 11.4502 14.4064 11.5093 14.4178 11.5663C14.4291 11.6234 14.4571 11.6758 14.4982 11.7169C14.5393 11.758 14.5917 11.786 14.6487 11.7973C14.7058 11.8087 14.7649 11.8029 14.8186 11.7806C14.8723 11.7584 14.9183 11.7207 14.9506 11.6723C14.9829 11.624 15.0001 11.5671 15.0001 11.509C15.0001 11.431 14.9691 11.3562 14.914 11.3011C14.8589 11.246 14.7841 11.215 14.7061 11.215Z" fill="black"/>
</g>
</g>
<defs>
<clipPath id="clip0_402_595">
<rect width="15" height="15.401" fill="white"/>
</clipPath>
</defs>
</svg>
