<svg width="40" height="31" viewBox="0 0 40 31" fill="none" xmlns="http://www.w3.org/2000/svg">
<path d="M39.7851 10.6659L32.4549 6.62124V3.66706C32.4545 3.5916 32.4338 3.51763 32.3948 3.45296C32.3559 3.38829 32.3004 3.33529 32.2339 3.29954L28.0165 0.998048C27.9464 0.959924 27.8672 0.941559 27.7874 0.944919C27.7077 0.94828 27.6304 0.973236 27.5637 1.01713L25.3546 2.47815L21.5388 0.478901C21.4909 0.453888 21.4388 0.437894 21.3852 0.431709L17.6167 0.00594995C17.5396 -0.00147263 17.462 0.0114022 17.3916 0.0432896C17.3211 0.0751771 17.2602 0.124972 17.215 0.187707L14.3944 4.23942C14.3488 4.30472 14.323 4.38176 14.3201 4.46133L14.2859 5.38915L12.6522 4.51656C12.5569 4.4656 12.4461 4.45166 12.3412 4.47743C12.2364 4.5032 12.1446 4.56685 12.0838 4.65614L10.8046 6.57002L9.73111 5.98862C9.62967 5.93348 9.51049 5.92084 9.39975 5.95349C9.34528 5.96909 9.29444 5.99532 9.25016 6.03065C9.20587 6.06597 9.169 6.10971 9.14168 6.15934L8.21285 7.86638L7.09725 7.18256C7.04477 7.15073 6.98624 7.13018 6.92538 7.12223C6.86453 7.11428 6.80268 7.1191 6.74379 7.13637C6.68512 7.15327 6.63074 7.18254 6.58433 7.2222C6.53791 7.26186 6.50053 7.311 6.47468 7.36631L5.63622 9.17377L4.59694 8.58836C4.54581 8.55958 4.48941 8.54136 4.43111 8.53481C4.3728 8.52826 4.31378 8.53349 4.25754 8.5502C4.20173 8.56644 4.1498 8.59388 4.10492 8.63082C4.06003 8.66775 4.02314 8.71344 3.99646 8.76508L3.06361 10.5906L2.05947 10.0062C2.00821 9.9764 1.95147 9.95721 1.89265 9.94979C1.83383 9.94238 1.7741 9.94687 1.71706 9.96302C1.66041 9.97918 1.60767 10.0068 1.56208 10.044C1.51649 10.0814 1.47902 10.1276 1.45196 10.1799L0.046163 12.9323C0.0166507 12.9901 0.00117098 13.0541 0.000976562 13.119V18.8426C0.00134053 18.9206 0.0233118 18.9968 0.0644422 19.0628C0.105572 19.129 0.164248 19.1824 0.233938 19.2172L7.0129 22.6383C7.07553 22.6691 7.14453 22.6847 7.21432 22.6838C7.28412 22.683 7.35271 22.6656 7.41456 22.6333L11.5316 20.4242L11.5105 25.5373C11.5107 25.6153 11.5325 25.6918 11.5736 25.7581C11.6148 25.8244 11.6735 25.878 11.7434 25.9128L19.9935 30.078C19.9935 30.078 20.0035 30.078 20.0085 30.078C20.0659 30.1055 20.1286 30.1203 20.1923 30.1212C20.2564 30.1194 20.3195 30.1037 20.377 30.075C20.377 30.075 20.3861 30.075 20.3911 30.075L32.2259 23.9005C32.2941 23.8653 32.3514 23.8119 32.3916 23.7465C32.4318 23.681 32.4532 23.6058 32.4539 23.529V22.4104L33.1879 22.7508C33.2512 22.7803 33.3207 22.7942 33.3906 22.7914C33.4605 22.7886 33.5287 22.7691 33.5895 22.7347L39.7871 19.2061C39.8517 19.1699 39.9056 19.1172 39.9431 19.0533C39.9807 18.9894 40.0007 18.9167 40.001 18.8426V11.0324C40.0011 10.9576 39.9811 10.8841 39.9431 10.8196C39.9052 10.7552 39.8506 10.7021 39.7851 10.6659ZM38.1132 10.7111L36.4795 10.4872L32.4559 8.12042V7.58922L38.1132 10.7111ZM33.1849 14.6373L32.4559 14.2186V8.39456L36.2565 10.6298L33.1849 14.6373ZM12.3991 14.4806L13.5127 11.7484L14.7599 12.9604L14.7508 14.7116L12.4021 15.9547L12.4122 14.5118C12.4162 14.5047 12.4072 14.4967 12.4032 14.4857L12.3991 14.4806ZM16.0653 10.2833L17.3224 11.2875C17.2796 11.3374 17.2552 11.4004 17.2532 11.4662V13.3922C17.2368 13.3958 17.2206 13.4005 17.205 13.4062L14.9958 14.576L15.0049 12.9292L16.0653 10.2833ZM15.1123 6.09106L15.1575 4.84692L22.06 8.81328L20.0266 9.86361L18.9903 8.38251C18.9794 8.36801 18.9653 8.35623 18.9491 8.34804C18.9329 8.33986 18.915 8.3355 18.8969 8.33531C18.8869 8.32627 18.8819 8.31222 18.8698 8.30619L14.9537 6.39832C15.0012 6.36276 15.0403 6.31732 15.0686 6.26514C15.0969 6.21297 15.1135 6.15528 15.1173 6.09607L15.1123 6.09106ZM31.5893 6.72667L28.4764 8.52208V7.22573L31.5893 5.43032V6.72667ZM31.5893 13.0267L28.4764 14.8231V13.5327L31.5893 11.7373V13.0267ZM27.8649 11.6901L24.3946 9.85357V8.54819L27.8649 10.3838V11.6901ZM24.3946 10.1277L27.8649 11.9643V13.2697L24.3946 11.4341V10.1277ZM31.5903 11.4522L28.4775 13.2476V11.9522L31.5903 10.1558V11.4522ZM31.5903 9.87666L28.4775 11.6721V10.3757L31.5903 8.57931V9.87666ZM27.8659 10.1146L24.3956 8.27908V6.9737L27.8659 8.81027V10.1146ZM24.3956 11.7032L27.8659 13.5398V14.8452L24.3956 13.0096V11.7032ZM28.4825 15.1022L31.5953 13.3058V14.6021L28.4825 16.3986V15.1022ZM28.4825 10.0976V8.80123L31.5953 7.00481V8.30116L28.4825 10.0976ZM27.8659 8.54015L24.3986 6.70459V5.39919L27.8689 7.23578L27.8659 8.54015ZM24.3956 13.2797L27.8659 15.1153V15.5551L24.3956 13.8018V13.2797ZM28.4825 16.6787L31.5953 14.8833V16.1797L28.4825 17.9751V16.6787ZM31.5953 5.15217L28.4825 6.94758V6.11213L31.5953 4.27054V5.15217ZM27.8709 6.96566L24.4006 5.13009V4.31674L27.8709 6.12418V6.96566ZM23.5381 13.7747L17.8878 16.6938L17.8767 11.651L23.5381 8.72592V13.7747ZM18.8628 8.62852L19.8057 9.97607L18.0053 10.9059L18.8628 8.62852ZM17.2632 14.3461L17.2692 17.1979C17.2697 17.25 17.2839 17.3011 17.3101 17.3462C17.3363 17.3913 17.3738 17.4287 17.4188 17.4549C17.4669 17.4831 17.5217 17.498 17.5775 17.4981C17.6278 17.498 17.6773 17.4859 17.7221 17.4629L18.185 17.224V17.6929C18.1903 17.8037 18.2381 17.9082 18.3183 17.9847C18.3987 18.0612 18.5053 18.1039 18.6163 18.1039C18.7271 18.1039 18.8338 18.0612 18.9141 17.9847C18.9944 17.9082 19.0421 17.8037 19.0476 17.6929V16.9197C19.0455 16.8761 19.0368 16.8331 19.0215 16.7922L22.9848 14.7447V15.3874C22.9901 15.4981 23.0379 15.6027 23.1181 15.6792C23.1985 15.7557 23.3051 15.7984 23.4161 15.7984C23.5269 15.7984 23.6336 15.7557 23.7139 15.6792C23.7942 15.6027 23.842 15.4981 23.8474 15.3874V14.5841C23.8455 14.5436 23.8374 14.5035 23.8233 14.4656L27.0978 16.1194L20.0959 19.666L13.5167 16.3313L17.2632 14.3461ZM20.5287 20.393L27.8679 16.6777V25.2209L20.613 29.0066L20.5287 20.393ZM28.4845 18.2572L31.5973 16.4618V17.7582L28.4845 19.5536V18.2572ZM27.8278 1.8606L31.2911 3.7504L28.1672 5.60003L24.8063 3.84981L25.6287 3.31762L26.2965 2.88584C26.3086 2.87564 26.3201 2.86457 26.3306 2.8527L27.8278 1.8606ZM17.7743 0.868509L21.2014 1.25611L24.5452 3.00934L23.7279 3.53853C23.6689 3.57631 23.6203 3.62828 23.5867 3.68968C23.5529 3.75107 23.5353 3.81995 23.5351 3.88998V8.05013L22.314 8.68073L15.1846 4.58786L17.7743 0.868509ZM12.5819 5.43736L14.2026 6.30393L14.2417 6.323L14.4747 6.44752C14.4888 6.45555 14.5058 6.45254 14.5209 6.45957L18.6559 8.46785L17.6759 11.0706L17.5283 11.1469L16.0894 9.99415C16.0833 9.99415 16.0753 9.99415 16.0693 9.99415C16.0632 9.99415 16.0632 9.9821 16.0562 9.97909L11.1982 7.45368C11.237 7.4261 11.271 7.39215 11.2986 7.35325L12.5819 5.43736ZM8.74906 8.65865L9.68994 6.92751L10.7313 7.49182C10.7486 7.49868 10.7664 7.50437 10.7845 7.50889L15.8604 10.1468L14.8462 12.7013L13.5629 11.4552C13.5559 11.4481 13.5439 11.4552 13.5358 11.4471C13.5263 11.4195 13.507 11.3962 13.4816 11.3819L8.63459 8.79621C8.68243 8.75909 8.72079 8.71219 8.74906 8.65865ZM6.21862 9.94093L7.04905 8.14954L8.13854 8.81829C8.15903 8.82754 8.18018 8.83526 8.2018 8.8414L13.3229 11.5737L12.2184 14.2848L10.8397 12.7124C10.8319 12.7062 10.8234 12.7009 10.8146 12.6963C10.8146 12.6963 10.8146 12.6883 10.8066 12.6862L6.07503 10.1026C6.13687 10.0623 6.18707 10.0066 6.22063 9.94093H6.21862ZM3.6189 11.3688L4.55476 9.53727L5.61011 10.1317C5.62062 10.1357 5.63134 10.139 5.64225 10.1418L10.6027 12.8529L9.79236 15.8262L8.42974 14.2296C8.42171 14.2206 8.40765 14.2246 8.39661 14.2176C8.39276 14.2015 8.38559 14.1864 8.37556 14.1733C8.36553 14.1601 8.35286 14.1492 8.33837 14.1412L3.48736 11.5184C3.54297 11.48 3.58744 11.4287 3.6189 11.3688ZM2.01228 10.9571L3.01642 11.5415C3.02847 11.5486 3.04252 11.5486 3.05457 11.5546L8.18875 14.3361L7.15047 16.746L0.862529 13.2174L2.01228 10.9571ZM0.863536 18.5886V13.4976L7.08922 16.991V21.7295L0.863536 18.5886ZM7.33423 21.7195V16.9468L8.3715 14.5369L9.72509 16.1234V20.4322L9.39171 20.6109V18.3436C9.39134 18.3233 9.38579 18.3034 9.37561 18.2858C9.36541 18.2683 9.35091 18.2536 9.33347 18.2432C9.31548 18.2327 9.29523 18.2267 9.27445 18.2257C9.25366 18.2246 9.23293 18.2286 9.21398 18.2371L7.84433 18.8999C7.82378 18.9096 7.80639 18.925 7.79414 18.9442C7.7819 18.9633 7.77527 18.9855 7.77504 19.0083L7.78207 21.4785L7.33423 21.7195ZM8.0311 21.345V21.0166C8.04 21.0151 8.04874 21.0128 8.05721 21.0096L9.14871 20.4452V20.7465L8.0311 21.345ZM8.02508 19.0806L9.14871 18.5374V19.5917L8.0301 20.1942L8.02508 19.0806ZM8.02508 20.4653H8.0321L9.14469 19.8628V20.1711L8.02608 20.7505L8.02508 20.4653ZM10.5535 17.7933L11.6772 17.2501V18.3466L10.5565 18.9029L10.5535 17.7933ZM10.5535 19.172L11.6731 18.6167V18.8858L10.5545 19.4722L10.5535 19.172ZM10.5535 19.7444L11.6721 19.1589V19.3829L10.5545 19.9854L10.5535 19.7444ZM11.9182 19.3005V17.0563C11.9179 17.036 11.9123 17.016 11.9022 16.9984C11.8919 16.9809 11.8774 16.9662 11.8599 16.9559C11.8419 16.9449 11.8215 16.9386 11.8004 16.9376C11.7794 16.9365 11.7584 16.9407 11.7394 16.9498L10.3698 17.6126C10.3493 17.6223 10.3319 17.6377 10.3199 17.6568C10.3077 17.676 10.3014 17.6983 10.3015 17.721L10.3085 20.1179L9.96508 20.3017V16.0983L10.7975 13.0467L12.1561 14.5971L12.1441 16.3373L12.124 19.3347C12.062 19.3075 11.9947 19.2955 11.9272 19.2995L11.9182 19.3005ZM12.361 19.6158C12.361 19.6058 12.372 19.5998 12.372 19.5887L12.3911 16.7129L19.6571 20.396L19.7414 29.0086L12.362 25.2832L12.3861 19.7122C12.385 19.6789 12.3796 19.6458 12.37 19.6138L12.361 19.6158ZM29.2336 20.6621L31.2188 19.5757V20.4543L29.2356 21.5588L29.2336 20.6621ZM31.2188 21.606L29.2386 22.7106V21.836L31.2208 20.7314V21.607L31.2188 21.606ZM29.2406 22.9827L31.2188 21.8782V22.7548L29.2426 23.8543L29.2406 22.9827ZM29.2406 24.1345L31.2157 23.0359V23.4697L29.2416 24.5L29.2406 24.1345ZM31.5903 23.2749L31.4628 23.3412V19.3708C31.4619 19.3502 31.4558 19.3303 31.4451 19.3127C31.4343 19.2951 31.4194 19.2805 31.4015 19.2704C31.3825 19.2606 31.3615 19.2554 31.3403 19.2554C31.3189 19.2554 31.2979 19.2606 31.279 19.2704L29.0478 20.4914C29.0286 20.5018 29.0126 20.5171 29.0014 20.5359C28.9903 20.5547 28.9844 20.5761 28.9845 20.5979L28.9956 24.6335L28.4825 24.9016V19.8357L31.5953 18.0403V23.2729L31.5903 23.2749ZM32.4528 21.4765V14.5017L33.0915 14.8693L33.2381 21.841L32.4528 21.4765ZM34.8738 17.0713L37.332 15.4647V18.7874C37.3328 18.808 37.3388 18.8281 37.3494 18.8457C37.3602 18.8632 37.3752 18.8777 37.3932 18.8878L38.0088 19.2413L34.9612 20.9764L34.8738 17.0713ZM38.2538 19.1037L37.578 18.7171V15.303L38.4436 14.7377L38.4787 18.9772L38.2538 19.1037ZM39.1394 18.6016L38.7227 18.8386L38.6876 14.5138C38.6865 14.4928 38.6798 14.4724 38.6684 14.4548C38.6569 14.4372 38.6411 14.4229 38.6223 14.4134C38.6024 14.4032 38.5803 14.3985 38.558 14.3997C38.5358 14.401 38.5143 14.4081 38.4958 14.4204L34.68 16.9157C34.6634 16.9266 34.6497 16.9416 34.6403 16.9591C34.6308 16.9766 34.6258 16.9962 34.6258 17.0161L34.7172 21.122L33.4841 21.8249L33.3415 14.8381L36.4925 10.7292L38.7016 11.0304L39.1434 11.2744V18.5976L39.1394 18.6016Z" fill="black"/>
<path d="M5.73553 17.6137L1.73201 15.518C1.71319 15.5082 1.69214 15.5034 1.67091 15.504C1.64968 15.5047 1.62897 15.5108 1.61081 15.5218C1.59263 15.5328 1.57761 15.5483 1.56718 15.5668C1.55675 15.5853 1.55127 15.6062 1.55127 15.6275V17.6809C1.55145 17.7033 1.55772 17.7252 1.56938 17.7444C1.58106 17.7635 1.59771 17.779 1.61754 17.7894L5.62105 19.884C5.63875 19.8932 5.65837 19.898 5.67829 19.8981C5.71097 19.8978 5.74222 19.8847 5.76533 19.8616C5.78845 19.8385 5.80154 19.8072 5.8018 19.7746V17.7231C5.80191 17.7005 5.79579 17.6783 5.78409 17.659C5.77239 17.6398 5.75559 17.624 5.73553 17.6137ZM5.55478 18.5023L5.07079 18.2513L5.07882 17.5484L5.55478 17.7974V18.5023ZM3.14484 17.2542L2.51625 16.9298V16.2059L3.15388 16.5392L3.14484 17.2542ZM3.39889 16.6678L3.97426 16.969L3.96623 17.6799L3.39086 17.3787L3.39889 16.6678ZM3.14183 17.5303L3.13279 18.3035L2.51625 17.9802V17.206L3.14183 17.5303ZM3.38684 17.6568L3.96221 17.9581L3.95318 18.7353L3.3778 18.434L3.38684 17.6568ZM4.20823 18.0816L4.82377 18.4009L4.81473 19.1831L4.19819 18.8608L4.20823 18.0816ZM4.20823 17.8054L4.21626 17.0965L4.8318 17.4189L4.82377 18.1218L4.20823 17.8054ZM2.26622 16.0753V16.8003L1.79528 16.5563V15.8283L2.26622 16.0753ZM1.79528 16.8344L2.26622 17.0774V17.8496L1.79528 17.6036V16.8344ZM5.05673 19.3097L5.06576 18.5264L5.55277 18.7785V19.5697L5.05673 19.3097Z" fill="black"/>
<path d="M13.6374 24.427L17.6419 26.5216C17.6607 26.5315 17.6818 26.5363 17.703 26.5357C17.7243 26.535 17.7449 26.5289 17.7631 26.5178C17.7813 26.5069 17.7963 26.4913 17.8067 26.4728C17.8171 26.4543 17.8227 26.4335 17.8227 26.4122V25.16C17.8225 25.1376 17.8161 25.1157 17.8045 25.0967C17.7928 25.0775 17.7762 25.0619 17.7564 25.0516L13.7519 22.9559C13.7336 22.9452 13.7128 22.9395 13.6916 22.9395C13.6704 22.9395 13.6495 22.9452 13.6314 22.9559C13.6139 22.9664 13.5993 22.9811 13.589 22.9986C13.5787 23.0162 13.5728 23.036 13.5721 23.0563V24.3095C13.5703 24.3333 13.5755 24.3571 13.5872 24.378C13.5987 24.3989 13.6162 24.4159 13.6374 24.427ZM14.9649 23.8687L16.3245 24.5806L16.3054 25.5456L14.9388 24.8307C14.9388 24.8256 14.9448 24.8226 14.9448 24.8176L14.9649 23.8687ZM17.5756 26.2093L16.5504 25.6731L16.5695 24.7092L17.5736 25.2363L17.5756 26.2093ZM13.8181 23.2682L14.7219 23.7402L14.7018 24.7051L13.8201 24.2432V23.2672L13.8181 23.2682Z" fill="black"/>
<path d="M14.056 20.394L18.0596 22.4887C18.0778 22.4992 18.0986 22.5048 18.1198 22.5048C18.1409 22.5048 18.1617 22.4992 18.1801 22.4887C18.1974 22.4781 18.212 22.4635 18.2223 22.446C18.2327 22.4284 18.2385 22.4085 18.2393 22.3883V21.1361C18.2393 21.1135 18.2331 21.0914 18.2214 21.0721C18.2097 21.0529 18.193 21.0371 18.173 21.0266L14.1685 18.931C14.1501 18.9206 14.1293 18.915 14.1083 18.915C14.0871 18.915 14.0663 18.9206 14.048 18.931C14.0305 18.9415 14.016 18.9562 14.0056 18.9737C13.9953 18.9913 13.9895 19.011 13.9888 19.0314V20.2856C13.9892 20.3081 13.9956 20.33 14.0074 20.3491C14.0193 20.3681 14.0361 20.3837 14.056 20.394ZM15.3614 20.7957L15.3815 19.8317L16.7401 20.5427L16.721 21.5066L15.3614 20.7957ZM17.9913 22.1714L16.965 21.6352L16.9841 20.6712L17.9883 21.1984L17.9913 22.1714ZM14.2338 19.2302L15.1375 19.7032L15.1174 20.6672L14.2338 20.2053V19.2302Z" fill="black"/>
<path d="M26.6303 22.9193C26.6119 22.9088 26.5911 22.9033 26.57 22.9033C26.5489 22.9033 26.5281 22.9088 26.5098 22.9193L22.5053 25.0149C22.4853 25.0254 22.4685 25.0411 22.4569 25.0604C22.4452 25.0797 22.439 25.1018 22.439 25.1244V26.3765C22.4387 26.3979 22.444 26.4189 22.4543 26.4376C22.4647 26.4563 22.4797 26.4719 22.498 26.483C22.5163 26.4941 22.5371 26.5002 22.5585 26.5007C22.5799 26.5013 22.6009 26.4961 22.6197 26.486L26.6242 24.3914C26.6443 24.381 26.6611 24.3653 26.6728 24.346C26.6845 24.3267 26.6906 24.3045 26.6905 24.2819V23.0277C26.6909 23.0059 26.6856 22.9845 26.675 22.9654C26.6644 22.9464 26.6489 22.9304 26.6303 22.9193ZM23.9362 24.545L25.2988 23.8321L25.3178 24.797L23.9572 25.509L23.9362 24.545ZM22.686 25.1947L23.6901 24.6685L23.7102 25.6325L22.685 26.1687L22.686 25.1947ZM26.4435 24.2036L25.5598 24.6655L25.5408 23.6995L26.4445 23.2276L26.4435 24.2036Z" fill="black"/>
<path d="M26.2715 20.2453V18.9911C26.2705 18.9707 26.2646 18.9508 26.2541 18.9333C26.2435 18.9158 26.2289 18.9011 26.2113 18.8907C26.193 18.8801 26.1722 18.8745 26.151 18.8745C26.1298 18.8745 26.1091 18.8801 26.0908 18.8907L22.0873 20.9863C22.0672 20.9967 22.0504 21.0124 22.0387 21.0317C22.027 21.051 22.0209 21.0732 22.021 21.0958V22.3479C22.0211 22.3692 22.0267 22.3901 22.0373 22.4086C22.0478 22.4271 22.063 22.4424 22.0812 22.4534C22.0996 22.4637 22.1204 22.4692 22.1415 22.4692C22.1626 22.4692 22.1834 22.4637 22.2017 22.4534L26.2053 20.3557C26.2253 20.3451 26.2421 20.3292 26.2538 20.3097C26.2655 20.2903 26.2716 20.268 26.2715 20.2453ZM24.8778 19.7954L24.8969 20.7604L23.5362 21.4723L23.5172 20.5073L24.8778 19.7954ZM22.267 21.162L23.2712 20.6349L23.2892 21.5988L22.264 22.1351L22.267 21.162ZM26.0245 20.17L25.1409 20.6319L25.1218 19.6659L26.0255 19.1939L26.0245 20.17Z" fill="black"/>
<path d="M29.8974 22.7388L29.6584 22.8794C29.6397 22.8901 29.6243 22.9057 29.6134 22.9243C29.6027 22.943 29.5971 22.9642 29.5972 22.9858V23.3041C29.5971 23.3256 29.6026 23.3467 29.6131 23.3654C29.6238 23.3839 29.6389 23.3996 29.6574 23.4105C29.6767 23.4215 29.6985 23.4273 29.7207 23.4276C29.7414 23.4275 29.7616 23.4223 29.7799 23.4126L30.0189 23.282C30.0384 23.2714 30.0546 23.2557 30.0659 23.2366C30.0772 23.2176 30.0832 23.1958 30.0832 23.1736V22.8452C30.0835 22.8234 30.0779 22.8019 30.067 22.783C30.0562 22.764 30.0405 22.7482 30.0215 22.7374C30.0026 22.7265 29.9812 22.7209 29.9593 22.7212C29.9375 22.7214 29.9161 22.7275 29.8974 22.7388Z" fill="black"/>
<path d="M30.8983 22.269C30.8796 22.2582 30.8583 22.2524 30.8366 22.2524C30.8149 22.2524 30.7936 22.2582 30.7748 22.269L30.5368 22.4096C30.5183 22.4204 30.5028 22.436 30.4921 22.4547C30.4813 22.4734 30.4756 22.4945 30.4756 22.516V22.8343C30.4757 22.8556 30.4813 22.8765 30.4919 22.895C30.5024 22.9135 30.5176 22.9289 30.5358 22.9398C30.555 22.9512 30.5768 22.9575 30.5991 22.9579C30.6198 22.9578 30.6401 22.9526 30.6583 22.9428L30.8963 22.8123C30.9159 22.8018 30.9323 22.7861 30.9436 22.7671C30.955 22.7479 30.9608 22.726 30.9606 22.7038V22.3755C30.9606 22.3538 30.9548 22.3326 30.9438 22.3138C30.9329 22.2951 30.9172 22.2797 30.8983 22.269Z" fill="black"/>
<path d="M31.0211 20.1259C31.0132 20.1116 31.0028 20.0991 30.9901 20.0889C30.9775 20.0787 30.9629 20.0711 30.9474 20.0665C30.9318 20.062 30.9155 20.0605 30.8994 20.0622C30.8832 20.064 30.8675 20.0689 30.8534 20.0767L29.6123 20.7504C29.5882 20.7636 29.5691 20.7844 29.5581 20.8096C29.5472 20.8347 29.5449 20.8629 29.5517 20.8895C29.5584 20.9161 29.5739 20.9396 29.5956 20.9565C29.6173 20.9734 29.644 20.9824 29.6715 20.9824C29.6922 20.9824 29.7126 20.9772 29.7307 20.9673L30.9719 20.2936C31.0004 20.2777 31.0216 20.2512 31.0308 20.2199C31.04 20.1884 31.0365 20.1547 31.0211 20.1259Z" fill="black"/>
<path d="M38.1171 13.8185L34.5403 16.2234C34.5239 16.231 34.5094 16.2419 34.4977 16.2556C34.4861 16.2693 34.4776 16.2854 34.4727 16.3028C34.4679 16.32 34.467 16.3383 34.4699 16.356C34.4728 16.3738 34.4798 16.3906 34.4899 16.4055C34.5 16.4204 34.5133 16.4328 34.5289 16.4419C34.5443 16.4512 34.5616 16.4568 34.5795 16.4586C34.5974 16.4604 34.6155 16.4582 34.6325 16.4523C34.6495 16.4464 34.6649 16.4368 34.6779 16.4243L38.2546 14.0193C38.2712 14.012 38.2861 14.0012 38.298 13.9875C38.3099 13.9739 38.3187 13.9578 38.3237 13.9404C38.3287 13.9229 38.3298 13.9047 38.3269 13.8867C38.3241 13.8688 38.3174 13.8518 38.3071 13.8368C38.297 13.8218 38.2836 13.8092 38.268 13.7999C38.2524 13.7907 38.235 13.7851 38.2169 13.7833C38.1988 13.7816 38.1806 13.7838 38.1636 13.7899C38.1465 13.796 38.1299 13.8058 38.1171 13.8185Z" fill="black"/>
<path d="M8.87083 18.8336L8.20106 19.1619C8.17626 19.1744 8.15635 19.1948 8.14455 19.2199C8.13275 19.245 8.12974 19.2733 8.13601 19.3003C8.14226 19.3273 8.15743 19.3514 8.17907 19.3688C8.20071 19.3861 8.22755 19.3957 8.25529 19.3959C8.27409 19.3955 8.29258 19.3911 8.30951 19.3828L8.97927 19.0555C9.00825 19.0408 9.03028 19.0154 9.04063 18.9846C9.05097 18.9539 9.04878 18.9202 9.03453 18.891C9.02027 18.8619 8.9951 18.8395 8.96446 18.8288C8.93383 18.818 8.90019 18.8197 8.87083 18.8336Z" fill="black"/>
<path d="M11.5775 17.6224C11.563 17.5932 11.5376 17.5709 11.5068 17.5603C11.4759 17.5498 11.4421 17.5519 11.4128 17.5662L10.743 17.8935C10.7182 17.906 10.6984 17.9263 10.6865 17.9515C10.6748 17.9766 10.6717 18.0049 10.678 18.0319C10.6843 18.0589 10.6995 18.083 10.721 18.1004C10.7427 18.1177 10.7695 18.1273 10.7973 18.1275C10.816 18.1274 10.8345 18.1234 10.8515 18.1154L11.5212 17.7871C11.5505 17.7726 11.5728 17.7472 11.5833 17.7163C11.5938 17.6855 11.5917 17.6517 11.5775 17.6224Z" fill="black"/>
<path d="M18.8117 13.8358L18.8217 13.8308C18.8217 14.2566 18.8217 14.4685 18.8217 14.8932C18.8217 15.2075 18.8217 15.6805 19.2093 15.4957C19.6652 15.2798 19.8871 15.1714 20.3359 14.9404H20.344C20.7075 14.7476 20.7065 14.3118 20.7065 13.9614C20.7065 13.8037 20.7065 13.7244 20.7065 13.5667C20.7529 13.4954 20.7786 13.4128 20.7808 13.3277C20.7557 13.157 20.7426 13.0717 20.7175 12.902L20.8651 12.8247L20.9655 12.7705C20.9414 12.9562 20.9314 13.0496 20.9073 13.2354C20.9077 13.2418 20.9077 13.2481 20.9073 13.2544C20.9037 13.2856 20.9087 13.3172 20.9219 13.3457C20.9349 13.3741 20.9556 13.3985 20.9816 13.4161C20.9816 13.5768 20.9816 13.6561 20.9816 13.8178C20.9816 14.112 20.9816 14.602 21.3782 14.3941C21.8301 14.1471 22.05 14.0226 22.4979 13.7585C22.8664 13.5416 22.8654 13.1048 22.8644 12.7544C22.8644 12.3296 22.8644 12.1168 22.8644 11.692L22.8734 11.687C22.9319 11.6436 22.9796 11.5872 23.0128 11.5222C23.0459 11.4571 23.0635 11.3853 23.0642 11.3124C23.0642 11.1176 23.0642 11.0192 23.0642 10.8244C23.0642 10.6919 22.9909 10.6236 22.8955 10.6648C22.6428 10.7614 22.3778 10.8221 22.1083 10.8455C21.7919 10.8967 21.4546 10.954 21.1322 10.9881C20.8099 11.0222 20.4916 11.0935 20.1703 11.1528C19.9062 11.1805 19.6484 11.2511 19.4071 11.3616L19.381 11.3757C19.2606 11.4366 19.1572 11.5263 19.0798 11.6368C18.9972 11.7539 18.9348 11.8838 18.895 12.0214C18.8528 12.188 18.8287 12.416 18.9352 12.4833C18.9479 12.4908 18.9625 12.4947 18.9773 12.4947C18.9921 12.4947 19.0067 12.4908 19.0195 12.4833C19.0738 12.4487 19.1187 12.4011 19.1501 12.3447C19.1882 12.2794 19.2133 12.171 19.2505 12.0977C19.2827 12.0165 19.3414 11.9486 19.4172 11.9049C19.4603 11.8824 19.508 11.8697 19.5567 11.8677C20.0896 11.8277 20.6201 11.7607 21.1463 11.6669C20.8832 11.8089 20.6201 11.9475 20.357 12.0826L20.4805 11.9701L20.6553 11.8145C20.3319 11.8748 20.1713 11.8868 19.8519 11.937C19.378 12.3336 19.3127 12.408 18.7795 12.8528C18.7509 12.875 18.7258 12.9014 18.7052 12.9311C18.6546 13.0048 18.6271 13.0918 18.6259 13.1811C18.6259 13.3759 18.6259 13.4744 18.6259 13.6692C18.6189 13.8067 18.7052 13.884 18.8117 13.8358ZM19.5889 11.6669C19.5264 11.6702 19.4655 11.687 19.4101 11.7161C19.2932 11.786 19.2021 11.8916 19.1501 12.0173C19.129 12.0645 19.1119 12.1178 19.0968 12.1579C19.0878 12.184 19.0757 12.2232 19.0697 12.2332C19.057 12.2564 19.0387 12.2761 19.0165 12.2905H19.0115C18.9542 12.2523 19.0045 12.0505 19.0115 12.0264C19.0416 11.9258 19.0881 11.8308 19.149 11.7452C19.2109 11.6636 19.291 11.5976 19.383 11.5524L19.4061 11.5394C19.6028 11.4462 19.8134 11.3858 20.0297 11.3606L20.1401 11.3406L20.4012 11.2914C20.6302 11.2472 20.8671 11.201 21.0971 11.1769C21.2979 11.1558 21.4987 11.1237 21.6925 11.0925C21.8201 11.0724 21.9486 11.0514 22.0751 11.0343C22.1695 11.0222 22.2488 11.0102 22.3171 10.9981C22.0922 11.1297 21.8663 11.2582 21.6393 11.3847L21.2045 11.457C20.6695 11.5546 20.131 11.6246 19.5889 11.6669ZM18.8096 13.0074C19.4814 12.7062 20.1652 12.3668 20.839 12.0103C21.5128 11.6538 22.1976 11.2652 22.8754 10.8556C22.9096 10.8365 22.9367 10.8556 22.9367 10.8907C22.9367 11.0865 22.9367 11.1839 22.9367 11.3797C22.9348 11.4047 22.9272 11.429 22.9148 11.4507C22.9022 11.4724 22.885 11.4911 22.8644 11.5052C22.8467 11.5152 22.8302 11.5269 22.8152 11.5404L22.7961 11.5524L22.7358 11.5876C22.7358 12.0806 22.7358 12.3276 22.7358 12.8207C22.7358 13.2544 22.7148 13.4442 22.4898 13.5758C22.043 13.8379 21.8231 13.9674 21.3682 14.2124C21.1483 14.3299 21.1071 14.1562 21.1061 13.7495C21.1061 13.5436 21.1061 13.4402 21.1061 13.2334H21.066C21.0567 13.2327 21.0481 13.2283 21.042 13.2214C21.0357 13.2145 21.0325 13.2054 21.0328 13.1962C21.067 12.9201 21.084 12.7825 21.1182 12.5074L20.8631 12.6429L20.5619 12.8026C20.598 13.0426 20.6171 13.1641 20.6533 13.4051C20.6493 13.4299 20.6382 13.453 20.6211 13.4713L20.5789 13.5145C20.5789 13.7204 20.5789 13.8238 20.5789 14.0306C20.5868 14.1884 20.5757 14.3466 20.5458 14.5016C20.534 14.5567 20.5097 14.6084 20.4749 14.6528C20.4401 14.6972 20.3957 14.733 20.345 14.7576C20.345 14.7948 20.345 14.8129 20.345 14.85L20.338 14.7597C19.8901 14.9896 19.6702 15.0981 19.2153 15.3119C18.9884 15.4184 18.9502 15.2487 18.9492 14.8269C18.9492 14.3339 18.9492 14.0879 18.9492 13.5949L18.889 13.622L18.8689 13.63C18.8516 13.6329 18.835 13.6386 18.8197 13.6471C18.8118 13.6514 18.8027 13.6534 18.7938 13.653C18.7847 13.6525 18.776 13.6496 18.7685 13.6446C18.761 13.6394 18.7551 13.6324 18.7514 13.6242C18.7477 13.6159 18.7463 13.6068 18.7474 13.5979C18.7474 13.4031 18.7474 13.3047 18.7474 13.1099C18.7483 13.0891 18.7544 13.0689 18.7652 13.051C18.7758 13.0331 18.7918 13.0182 18.8096 13.0074Z" fill="black"/>
<path d="M22.118 10.5492C22.1346 10.5399 22.1498 10.5285 22.1632 10.515C22.2274 10.4497 22.374 10.3363 22.4343 10.3564C22.4433 10.3564 22.4724 10.3704 22.4724 10.4789C22.4724 10.5873 22.5357 10.6225 22.614 10.5793C22.6562 10.5492 22.6908 10.5096 22.715 10.4637C22.7392 10.4179 22.7525 10.367 22.7536 10.3152C22.7536 10.0722 22.6693 9.99386 22.599 9.97077C22.3981 9.9065 22.1079 10.1937 22.0748 10.2268C21.63 10.5974 21.5727 10.6405 21.1289 10.993C21.4402 10.9046 21.4834 10.9337 21.7947 10.8363C21.9453 10.6948 21.9674 10.6887 22.118 10.5492Z" fill="black"/>
<path d="M19.3809 15.0088C19.6901 14.8612 19.8447 14.7849 20.154 14.6282L20.1832 14.6142C20.4011 14.4987 20.4212 14.4184 20.4202 13.9805C20.4202 13.6693 20.4202 13.5136 20.4202 13.2033C20.4202 12.7786 20.403 12.7013 20.158 12.8248C19.8356 12.9875 19.675 13.0678 19.3547 13.2204L19.2884 13.2535C19.1076 13.354 19.1016 13.4212 19.1026 13.856C19.1026 14.1663 19.1026 14.322 19.1026 14.6332C19.1056 15.0761 19.1399 15.1253 19.3809 15.0088ZM19.2051 13.4393C19.2276 13.4157 19.255 13.3972 19.2854 13.3851L19.3477 13.354C19.6701 13.2013 19.8286 13.122 20.1509 12.9523C20.3237 12.8649 20.3227 12.8649 20.3248 13.2455C20.3248 13.4012 20.3248 13.4785 20.3248 13.6341C20.3248 13.7898 20.3248 13.8671 20.3248 14.0237C20.3248 14.4003 20.3248 14.4003 20.1782 14.4776L20.1509 14.4907C19.8407 14.6483 19.689 14.7226 19.3798 14.8712C19.188 14.9636 19.1881 14.9636 19.1871 14.577C19.1871 14.2667 19.1871 14.1111 19.1871 13.7998C19.1838 13.6796 19.1912 13.5593 19.2092 13.4403L19.2051 13.4393Z" fill="black"/>
<path d="M19.3667 14.6805C19.436 14.567 19.7744 13.842 19.7894 13.8119C19.7932 13.8064 19.7952 13.8 19.7952 13.7933C19.7952 13.7867 19.7932 13.7802 19.7894 13.7748C19.7824 13.7687 19.7704 13.7748 19.7643 13.7908C19.7583 13.8069 19.4149 14.5419 19.3466 14.6504C19.3434 14.6562 19.3418 14.6628 19.3418 14.6694C19.3418 14.6761 19.3434 14.6826 19.3466 14.6885C19.3486 14.6899 19.3511 14.6907 19.3536 14.6907C19.3562 14.6907 19.3587 14.6899 19.3607 14.6885C19.3632 14.6863 19.3653 14.6835 19.3667 14.6805Z" fill="black"/>
<path d="M19.414 14.7468C19.4158 14.7487 19.4183 14.7497 19.421 14.7497C19.4236 14.7497 19.4261 14.7487 19.428 14.7468C19.4327 14.7442 19.4365 14.7403 19.4391 14.7357C19.5084 14.6212 19.8468 13.8972 19.8618 13.8651C19.8652 13.8597 19.867 13.8535 19.867 13.847C19.867 13.8407 19.8652 13.8344 19.8618 13.829C19.8538 13.8229 19.8438 13.829 19.8367 13.844C19.8297 13.8591 19.4882 14.5941 19.4199 14.7046C19.4152 14.7104 19.4122 14.7174 19.4111 14.7249C19.41 14.7323 19.411 14.7399 19.414 14.7468Z" fill="black"/>
<path d="M21.4715 14.0077L21.5368 13.9725C21.8531 13.7988 22.0117 13.7084 22.3281 13.5237C22.5801 13.3781 22.6022 13.3128 22.6012 12.8439C22.6012 12.5286 22.6012 12.3709 22.6012 12.0556C22.6012 11.6128 22.5269 11.5877 22.3391 11.6871L22.2537 11.7343C21.9254 11.9261 21.837 11.9793 21.5067 12.1611C21.2556 12.2996 21.2476 12.3689 21.2486 12.8218C21.2486 13.1371 21.2486 13.2937 21.2486 13.609C21.2516 14.079 21.2797 14.1091 21.4715 14.0077ZM21.3581 12.401C21.3721 12.3609 21.4745 12.3006 21.5077 12.2866C21.7959 12.1279 21.8963 12.0697 22.1383 11.9291L22.2558 11.8608C22.2849 11.8427 22.312 11.8287 22.3371 11.8156C22.4676 11.7463 22.5078 11.7253 22.5088 12.0998C22.5088 12.4151 22.5088 12.5728 22.5088 12.8881C22.5153 13.0131 22.5072 13.1385 22.4847 13.2616C22.4686 13.3018 22.3943 13.35 22.322 13.3901C22.0067 13.5739 21.8521 13.6612 21.5328 13.838L21.4685 13.8731C21.4424 13.8872 21.3681 13.9243 21.3621 13.9083C21.3402 13.7931 21.332 13.6758 21.338 13.5588C21.338 13.2435 21.338 13.0859 21.338 12.7706C21.332 12.6487 21.3388 12.5266 21.3581 12.4061V12.401Z" fill="black"/>
<path d="M22.3374 12.6521C22.3419 12.6494 22.3457 12.6457 22.3485 12.6411C22.3516 12.6352 22.3532 12.6286 22.3532 12.622C22.3532 12.6153 22.3516 12.6088 22.3485 12.6029C22.2696 12.4976 22.1972 12.3876 22.1316 12.2735C22.1265 12.2625 22.1155 12.2635 22.1075 12.2735C22.1029 12.2789 22.0999 12.2853 22.0985 12.2921C22.0971 12.2989 22.0974 12.306 22.0994 12.3127C22.1673 12.4285 22.241 12.5408 22.3203 12.6491L22.3238 12.6525L22.3283 12.6542L22.3331 12.6541L22.3374 12.6521Z" fill="black"/>
<path d="M22.2559 12.7828C22.2609 12.7803 22.2648 12.776 22.267 12.7708C22.2702 12.765 22.2719 12.7584 22.2719 12.7517C22.2719 12.7451 22.2702 12.7385 22.267 12.7326C22.1886 12.6271 22.1158 12.5174 22.0491 12.4043C22.0491 12.3932 22.034 12.3932 22.025 12.4043C22.0208 12.4098 22.0179 12.4162 22.0165 12.423C22.0152 12.4298 22.0153 12.4367 22.0169 12.4434C22.0848 12.5589 22.1586 12.6709 22.2378 12.7788L22.2412 12.7828L22.2459 12.7851H22.2512L22.2559 12.7828Z" fill="black"/>
</svg>
