<svg width="37" height="28" viewBox="0 0 37 28" fill="none" xmlns="http://www.w3.org/2000/svg">
<g id="bedroom" clip-path="url(#clip0_311_286)">
<g id="bedroom_2">
<path id="Trac&#195;&#169; 311" d="M36.5883 17.254V7.805C36.5886 7.76041 36.58 7.71621 36.5631 7.67496C36.5461 7.63371 36.5212 7.59623 36.4897 7.5647C36.4581 7.53316 36.4206 7.50821 36.3794 7.49126C36.3381 7.47432 36.2939 7.46573 36.2493 7.466H32.1083V4.75999H33.5953C33.6399 4.76026 33.6841 4.75168 33.7254 4.73473C33.7666 4.71779 33.8041 4.69283 33.8356 4.6613C33.8672 4.62977 33.8921 4.59229 33.9091 4.55104C33.926 4.50979 33.9346 4.46559 33.9343 4.421C33.9356 4.39678 33.9332 4.37252 33.9273 4.349L33.1583 0.848999C33.103 0.607844 32.968 0.392379 32.7751 0.237419C32.5822 0.0824597 32.3427 -0.00294711 32.0953 -0.00500488H29.9823C29.7349 -0.00294711 29.4954 0.0824597 29.3026 0.237419C29.1097 0.392379 28.9747 0.607844 28.9193 0.848999L28.1563 4.338C28.1391 4.42554 28.1567 4.51637 28.2054 4.5911C28.2542 4.66583 28.3302 4.71855 28.4173 4.738C28.4409 4.74358 28.4651 4.74593 28.4893 4.745H29.9823V7.46H27.7003C27.6104 7.46 27.5242 7.49571 27.4606 7.55929C27.3971 7.62286 27.3613 7.70909 27.3613 7.799C27.3613 7.8889 27.3971 7.97513 27.4606 8.0387C27.5242 8.10228 27.6104 8.138 27.7003 8.138H35.9003V11.066H31.0423C30.9524 11.066 30.8662 11.1017 30.8026 11.1653C30.7391 11.2289 30.7033 11.3151 30.7033 11.405C30.7033 11.4949 30.7391 11.5811 30.8026 11.6447C30.8662 11.7083 30.9524 11.744 31.0423 11.744H35.9003V14.672H31.6913C31.6005 14.6712 31.5131 14.7065 31.4483 14.7702C31.3835 14.8339 31.3466 14.9207 31.3458 15.0115C31.345 15.1023 31.3804 15.1898 31.444 15.2546C31.5077 15.3194 31.5945 15.3562 31.6853 15.357H33.3933C33.4205 15.3765 33.4515 15.3898 33.4843 15.396C33.8925 15.4802 34.2554 15.7114 34.5043 16.0456C34.7532 16.3799 34.8706 16.7939 34.8344 17.209C34.8248 17.2997 34.8517 17.3905 34.9091 17.4613C34.9665 17.5322 35.0497 17.5774 35.1404 17.587H36.2403C36.2851 17.5887 36.3299 17.5814 36.3718 17.5655C36.4137 17.5495 36.4519 17.5253 36.4843 17.4942C36.5166 17.4631 36.5423 17.4258 36.5598 17.3845C36.5774 17.3432 36.5864 17.2988 36.5863 17.254H36.5883ZM29.5883 0.990997C29.6086 0.901738 29.658 0.821784 29.7289 0.763817C29.7997 0.70585 29.8878 0.673186 29.9793 0.670998H32.0923C32.1844 0.671209 32.2735 0.703158 32.3448 0.761452C32.416 0.819745 32.4649 0.900816 32.4833 0.990997L33.1613 4.075H28.9164L29.5883 0.990997ZM30.6643 4.75999H31.4143V7.466H30.6613V4.75999H30.6643ZM35.5023 16.908C35.4629 16.3255 35.2143 15.7768 34.8023 15.363H35.8913V16.908H35.5023Z" fill="black"/>
<path id="Trac&#195;&#169; 312" d="M5.85461 21.616H7.25461C7.33902 21.6161 7.42047 21.5849 7.48313 21.5284C7.54578 21.4718 7.58517 21.394 7.59361 21.31C7.60661 21.21 7.87361 18.839 9.93461 18.369C9.94761 18.369 9.95461 18.362 9.96761 18.356H26.0186C26.0236 18.3561 26.0286 18.3573 26.0331 18.3596C26.0376 18.3618 26.0415 18.365 26.0446 18.369C28.1056 18.838 28.3786 21.212 28.3916 21.31C28.4 21.394 28.4394 21.4718 28.5021 21.5284C28.5647 21.5849 28.6462 21.6161 28.7306 21.616H30.1306C30.1752 21.6162 30.2194 21.6077 30.2607 21.5907C30.3019 21.5738 30.3394 21.5488 30.3709 21.5173C30.4024 21.4857 30.4274 21.4483 30.4443 21.407C30.4613 21.3658 30.4699 21.3216 30.4696 21.277V13.777C30.4712 13.0877 30.2156 12.4226 29.7526 11.912C28.7247 10.8381 27.5529 9.91196 26.2706 9.15997C26.3969 9.04106 26.4975 8.89756 26.5663 8.73831C26.6351 8.57907 26.6706 8.40745 26.6706 8.23398C26.6699 7.92147 26.6047 7.61247 26.4791 7.32632C26.3535 7.04017 26.1702 6.78302 25.9406 6.57097V4.67097C25.9396 4.15943 25.7359 3.66914 25.3742 3.30742C25.0124 2.9457 24.5222 2.74202 24.0106 2.74097H11.9776C11.4661 2.74202 10.9758 2.9457 10.6141 3.30742C10.2523 3.66914 10.0487 4.15943 10.0476 4.67097V6.57097C9.81753 6.7826 9.63386 7.03967 9.5082 7.32591C9.38255 7.61216 9.31765 7.92137 9.31761 8.23398C9.31761 8.40745 9.3531 8.57907 9.42189 8.73831C9.49068 8.89756 9.59132 9.04106 9.71761 9.15997C8.43532 9.91195 7.26349 10.8381 6.23561 11.912C5.77266 12.4226 5.51698 13.0877 5.51861 13.777V21.277C5.5178 21.3217 5.52601 21.3662 5.54276 21.4077C5.55951 21.4492 5.58444 21.4869 5.61608 21.5185C5.64773 21.5501 5.68543 21.5751 5.72692 21.5918C5.76842 21.6086 5.81286 21.6168 5.85761 21.616H5.85461ZM29.7796 17.678H6.19361V15.467H29.7796V17.678ZM6.95661 20.932H6.19361V18.356H8.4046C7.64305 19.0246 7.13227 19.9329 6.95661 20.931V20.932ZM29.0226 20.932C28.8472 19.9335 28.3364 19.0248 27.5746 18.356H29.7856V20.932H29.0226ZM25.3906 8.82297H18.3286V8.33397C18.3227 7.86371 18.4971 7.40904 18.8161 7.06346C19.1351 6.71788 19.5744 6.50764 20.0436 6.47597H23.1346C23.8113 6.46086 24.4839 6.5851 25.1106 6.84097C25.3724 6.96883 25.5928 7.16811 25.7462 7.41583C25.8996 7.66355 25.9798 7.9496 25.9776 8.24097C25.9772 8.31761 25.9617 8.39343 25.932 8.46408C25.9023 8.53473 25.8589 8.59882 25.8044 8.65269C25.7499 8.70657 25.6852 8.74916 25.6142 8.77803C25.5432 8.80691 25.4672 8.8215 25.3906 8.82097V8.82297ZM11.9776 3.42998H24.0086C24.3388 3.42998 24.6555 3.56113 24.889 3.79462C25.1224 4.0281 25.2536 4.34478 25.2536 4.67497V6.14497C24.5729 5.88828 23.8488 5.76634 23.1216 5.78596H20.1616C20.1138 5.78506 20.0661 5.7874 20.0186 5.79297C19.6036 5.81452 19.2007 5.94059 18.8473 6.15947C18.494 6.37835 18.2017 6.68293 17.9976 7.04497C17.7928 6.68348 17.5004 6.37933 17.1472 6.16054C16.794 5.94174 16.3915 5.81534 15.9766 5.79297C15.9306 5.79297 15.8766 5.78596 15.8336 5.78596H12.8736C12.1464 5.76601 11.4222 5.88796 10.7416 6.14497V4.67497C10.7399 4.5115 10.7707 4.34933 10.8323 4.19789C10.8939 4.04645 10.985 3.90878 11.1003 3.79291C11.2156 3.67703 11.3528 3.58526 11.504 3.52295C11.6551 3.46064 11.8171 3.42904 11.9806 3.42998H11.9776ZM10.8686 6.82997C11.4652 6.58134 12.1063 6.45713 12.7526 6.46497H15.9346C16.4046 6.49449 16.8452 6.7041 17.1646 7.05016C17.484 7.39622 17.6577 7.85209 17.6496 8.32297V8.81197H10.5886C10.5114 8.81236 10.4349 8.79746 10.3635 8.7681C10.2921 8.73874 10.2272 8.69552 10.1726 8.64093C10.1181 8.58634 10.0748 8.52147 10.0455 8.45007C10.0161 8.37868 10.0012 8.30217 10.0016 8.22498C10.0008 7.93481 10.0818 7.65029 10.2353 7.40407C10.3888 7.15785 10.6087 6.95991 10.8696 6.83298L10.8686 6.82997ZM6.73461 12.366C7.83538 11.2319 9.09645 10.2653 10.4776 9.49696C10.5106 9.49696 10.5496 9.50397 10.5776 9.50397H25.3776C25.4111 9.50461 25.4446 9.50227 25.4776 9.49696C26.8588 10.2653 28.1198 11.2319 29.2206 12.366C29.5682 12.7527 29.7608 13.254 29.7616 13.774V14.774H6.19361V13.774C6.19439 13.254 6.38703 12.7527 6.73461 12.366Z" fill="black"/>
<path id="Ellipse 114" d="M31.8732 9.86599C32.0604 9.86599 32.2122 9.71421 32.2122 9.52699C32.2122 9.33976 32.0604 9.18799 31.8732 9.18799C31.686 9.18799 31.5342 9.33976 31.5342 9.52699C31.5342 9.71421 31.686 9.86599 31.8732 9.86599Z" fill="black"/>
<path id="Ellipse 115" d="M31.8732 13.641C32.0604 13.641 32.2122 13.4892 32.2122 13.302C32.2122 13.1148 32.0604 12.963 31.8732 12.963C31.686 12.963 31.5342 13.1148 31.5342 13.302C31.5342 13.4892 31.686 13.641 31.8732 13.641Z" fill="black"/>
<path id="Trac&#195;&#169; 313" d="M1.93703 18.982C1.88481 18.9829 1.83299 18.9729 1.7848 18.9528C1.73662 18.9326 1.69312 18.9028 1.65703 18.865L0.118026 17.326C0.0808028 17.2895 0.0512708 17.246 0.0311751 17.1979C0.0110794 17.1498 0.000827615 17.0981 0.00102562 17.046C0.000185501 16.9938 0.0101447 16.942 0.0302784 16.8938C0.0504121 16.8456 0.080286 16.8021 0.118026 16.766C0.154511 16.7288 0.198087 16.6993 0.246179 16.6792C0.294272 16.6591 0.345904 16.6488 0.398026 16.649C0.45024 16.6482 0.502064 16.6581 0.550247 16.6783C0.59843 16.6984 0.641933 16.7283 0.678026 16.766L1.53203 17.62V2.12603L0.678026 2.98003C0.641541 3.01725 0.597964 3.04678 0.549872 3.06687C0.50178 3.08697 0.450147 3.09722 0.398026 3.09703C0.345812 3.09787 0.293988 3.08791 0.245804 3.06778C0.197621 3.04764 0.154119 3.01777 0.118026 2.98003C0.0808028 2.94354 0.0512708 2.89996 0.0311751 2.85187C0.0110794 2.80378 0.000827615 2.75214 0.00102562 2.70002C0.000185501 2.64781 0.0101447 2.59599 0.0302784 2.54781C0.0504121 2.49963 0.080286 2.45612 0.118026 2.42002L1.65703 0.881023C1.69351 0.8438 1.73709 0.814273 1.78518 0.794177C1.83327 0.774082 1.8849 0.763828 1.93703 0.764026C1.98924 0.763186 2.04106 0.773144 2.08925 0.793277C2.13743 0.813411 2.18093 0.843283 2.21703 0.881023L3.75603 2.42002C3.79325 2.45651 3.82278 2.50009 3.84288 2.54818C3.86297 2.59628 3.87322 2.6479 3.87303 2.70002C3.87387 2.75224 3.86391 2.80406 3.84377 2.85224C3.82364 2.90043 3.79377 2.94394 3.75603 2.98003C3.71954 3.01725 3.67596 3.04678 3.62787 3.06687C3.57978 3.08697 3.52815 3.09722 3.47603 3.09703C3.42381 3.09787 3.37199 3.08791 3.3238 3.06778C3.27562 3.04764 3.23212 3.01777 3.19603 2.98003L2.33503 2.12603V17.613L3.18903 16.763C3.22551 16.7258 3.26909 16.6963 3.31718 16.6762C3.36527 16.6561 3.4169 16.6458 3.46903 16.646C3.52124 16.6452 3.57306 16.6551 3.62125 16.6753C3.66943 16.6954 3.71293 16.7253 3.74903 16.763C3.78625 16.7995 3.81578 16.8431 3.83588 16.8912C3.85597 16.9393 3.86622 16.9909 3.86603 17.043C3.86687 17.0952 3.85691 17.1471 3.83677 17.1952C3.81664 17.2434 3.78677 17.2869 3.74903 17.323L2.21103 18.863C2.17654 18.9017 2.13435 18.9327 2.08715 18.954C2.03996 18.9754 1.98882 18.9866 1.93703 18.987V18.982Z" fill="black"/>
<path id="Trac&#195;&#169; 314" d="M9.79399 26.064C9.79315 26.0118 9.80313 25.9599 9.82326 25.9118C9.84339 25.8636 9.87326 25.8201 9.911 25.784L11.45 24.245C11.4865 24.2078 11.5301 24.1782 11.5782 24.1581C11.6263 24.138 11.6779 24.1278 11.73 24.128C11.7822 24.1271 11.834 24.1371 11.8822 24.1572C11.9304 24.1774 11.9739 24.2072 12.01 24.245C12.0472 24.2815 12.0768 24.325 12.0969 24.3731C12.1169 24.4212 12.1272 24.4729 12.127 24.525C12.1278 24.5772 12.1179 24.629 12.0978 24.6772C12.0776 24.7254 12.0477 24.7689 12.01 24.805L11.156 25.659H26.644L25.79 24.805C25.7528 24.7685 25.7232 24.7249 25.7031 24.6768C25.683 24.6287 25.6728 24.5771 25.673 24.525C25.6722 24.4728 25.6821 24.4209 25.7023 24.3728C25.7224 24.3246 25.7523 24.2811 25.79 24.245C25.8265 24.2078 25.8701 24.1782 25.9182 24.1581C25.9662 24.138 26.0179 24.1278 26.07 24.128C26.1222 24.1271 26.174 24.1371 26.2222 24.1572C26.2704 24.1774 26.3139 24.2072 26.35 24.245L27.889 25.784C27.9262 25.8205 27.9558 25.864 27.9758 25.9121C27.9959 25.9602 28.0062 26.0119 28.006 26.064C28.0068 26.1162 27.9969 26.168 27.9767 26.2162C27.9566 26.2644 27.9267 26.3079 27.889 26.344L26.35 27.883C26.3135 27.9202 26.2699 27.9497 26.2219 27.9698C26.1738 27.9899 26.1221 28.0002 26.07 28C26.0178 28.0008 25.966 27.9909 25.9178 27.9707C25.8696 27.9506 25.8261 27.9207 25.79 27.883C25.7528 27.8465 25.7232 27.8029 25.7031 27.7548C25.683 27.7067 25.6728 27.6551 25.673 27.603C25.6722 27.5508 25.6821 27.4989 25.7023 27.4508C25.7224 27.4026 25.7523 27.3591 25.79 27.323L26.644 26.469H11.164L12.018 27.323C12.0552 27.3595 12.0848 27.403 12.1048 27.4511C12.1249 27.4992 12.1352 27.5509 12.135 27.603C12.1358 27.6552 12.1259 27.707 12.1057 27.7552C12.0856 27.8034 12.0557 27.8469 12.018 27.883C11.9815 27.9202 11.9379 27.9497 11.8898 27.9698C11.8418 27.9899 11.7901 28.0002 11.738 28C11.6858 28.0008 11.634 27.9909 11.5858 27.9707C11.5376 27.9506 11.4941 27.9207 11.458 27.883L9.91899 26.344C9.87979 26.3087 9.84849 26.2655 9.82712 26.2172C9.80575 26.169 9.79481 26.1168 9.795 26.064H9.79399Z" fill="black"/>
</g>
</g>
<defs>
<clipPath id="clip0_311_286">
<rect width="36.588" height="28" fill="white"/>
</clipPath>
</defs>
</svg>
