<svg width="24" height="24" viewBox="0 0 24 24" fill="none" xmlns="http://www.w3.org/2000/svg">
<g id="Page-1" clip-path="url(#clip0_321_727)">
<g id="Page-1_2">
<g id="026---Mopping">
<path id="Shape" d="M7.648 13.691C7.53652 13.5791 7.40404 13.4904 7.25818 13.4298C7.11232 13.3692 6.95594 13.3381 6.798 13.3381C6.64006 13.3381 6.48368 13.3692 6.33782 13.4298C6.19196 13.4904 6.05948 13.5791 5.948 13.691C5.75159 13.8891 5.63121 14.15 5.608 14.428C5.47153 14.4125 5.33434 14.4042 5.197 14.403C4.3565 14.4013 3.53688 14.6648 2.85484 15.156C2.1728 15.6472 1.6631 16.341 1.3983 17.1387C1.13351 17.9364 1.12712 18.7973 1.38005 19.5989C1.63297 20.4004 2.13232 21.1018 2.807 21.603H1.2C0.88174 21.603 0.576516 21.7294 0.351472 21.9545C0.126428 22.1795 0 22.4848 0 22.803C0 23.1213 0.126428 23.4265 0.351472 23.6515C0.576516 23.8766 0.88174 24.003 1.2 24.003H22.8C23.1183 24.003 23.4235 23.8766 23.6485 23.6515C23.8736 23.4265 24 23.1213 24 22.803C24 22.4848 23.8736 22.1795 23.6485 21.9545C23.4235 21.7294 23.1183 21.603 22.8 21.603H21.28L22.341 15.949C22.614 15.8643 22.8478 15.6849 23.0003 15.4432C23.1528 15.2014 23.214 14.9132 23.1729 14.6303C23.1318 14.3475 22.991 14.0886 22.776 13.9002C22.561 13.7119 22.2858 13.6065 22 13.603C22 13.2483 21.8821 12.9037 21.6649 12.6233C21.4476 12.3429 21.1434 12.1427 20.8 12.054V12.004C20.7994 11.5802 20.6641 11.1674 20.4137 10.8254C20.1633 10.4835 19.8108 10.2298 19.4069 10.1012C19.003 9.97261 18.5687 9.97563 18.1667 10.1099C17.7646 10.2441 17.4156 10.5026 17.17 10.848C17.0487 10.8195 16.9246 10.8051 16.8 10.805C16.4381 10.8048 16.0867 10.9273 15.8034 11.1525C15.52 11.3777 15.3214 11.6923 15.24 12.045C14.8877 12.1264 14.5733 12.3247 14.3481 12.6076C14.1229 12.8905 14.0002 13.2414 14 13.603C13.7152 13.6077 13.4414 13.7136 13.2274 13.9016C13.0135 14.0897 12.8735 14.3477 12.8324 14.6296C12.7912 14.9115 12.8517 15.1987 13.003 15.4401C13.1542 15.6815 13.3864 15.8611 13.658 15.947L14.72 21.601H12C12 20.9645 11.7471 20.354 11.2971 19.904C10.847 19.4539 10.2365 19.201 9.6 19.201H9.116C9.20265 18.8034 9.22259 18.3942 9.175 17.99C9.40152 17.9696 9.61752 17.885 9.79761 17.7461C9.97771 17.6072 10.1144 17.4198 10.1917 17.2059C10.269 16.992 10.2836 16.7605 10.2339 16.5386C10.1842 16.3166 10.0722 16.1135 9.911 15.953L9.628 15.67L23.248 2.05501C23.3596 1.94339 23.4482 1.81087 23.5086 1.66503C23.569 1.51918 23.6001 1.36287 23.6001 1.20501C23.6001 1.04715 23.569 0.890838 23.5086 0.744994C23.4482 0.599151 23.3596 0.466635 23.248 0.355011C23.1364 0.243388 23.0039 0.154843 22.858 0.0944327C22.7122 0.0340224 22.5559 0.00292968 22.398 0.00292969C22.2401 0.00292969 22.0838 0.0340224 21.938 0.0944327C21.7921 0.154843 21.6596 0.243388 21.548 0.355011L7.932 13.975L7.648 13.691ZM15.6 12.803C15.7061 12.803 15.8078 12.7609 15.8828 12.6859C15.9579 12.6108 16 12.5091 16 12.403C15.9999 12.2658 16.0351 12.1309 16.1022 12.0112C16.1692 11.8915 16.266 11.7911 16.3831 11.7196C16.5002 11.6481 16.6337 11.6079 16.7708 11.6029C16.9079 11.5979 17.044 11.6282 17.166 11.691C17.2141 11.7156 17.2667 11.7302 17.3206 11.7339C17.3745 11.7377 17.4286 11.7304 17.4796 11.7127C17.5306 11.6949 17.5775 11.667 17.6175 11.6306C17.6574 11.5942 17.6896 11.5502 17.712 11.501C17.827 11.2538 18.0228 11.0531 18.2672 10.932C18.5115 10.8109 18.7898 10.7766 19.0562 10.8349C19.3226 10.8931 19.5612 11.0403 19.7328 11.2523C19.9044 11.4642 19.9986 11.7283 20 12.001C19.9994 12.1046 19.986 12.2077 19.96 12.308C19.9441 12.3716 19.9441 12.4381 19.9599 12.5017C19.9758 12.5652 20.007 12.6239 20.0508 12.6726C20.0947 12.7213 20.1498 12.7585 20.2114 12.7809C20.273 12.8033 20.3391 12.8102 20.404 12.801C20.5091 12.801 20.6131 12.8217 20.7101 12.8619C20.8072 12.9021 20.8954 12.961 20.9697 13.0353C21.044 13.1096 21.1029 13.1978 21.1431 13.2949C21.1833 13.3919 21.204 13.496 21.204 13.601H14.8C14.8 13.3888 14.8843 13.1854 15.0343 13.0353C15.1843 12.8853 15.3878 12.801 15.6 12.801V12.803ZM14 14.403H22C22.1061 14.403 22.2078 14.4452 22.2828 14.5202C22.3579 14.5952 22.4 14.6969 22.4 14.803C22.4 14.9091 22.3579 15.0108 22.2828 15.0859C22.2078 15.1609 22.1061 15.203 22 15.203H14C13.8939 15.203 13.7922 15.1609 13.7172 15.0859C13.6421 15.0108 13.6 14.9091 13.6 14.803C13.6 14.6969 13.6421 14.5952 13.7172 14.5202C13.7922 14.4452 13.8939 14.403 14 14.403ZM14.48 16.003H21.52L20.468 21.603H15.532L14.48 16.003ZM15.2 22.403H22.8C22.9061 22.403 23.0078 22.4452 23.0828 22.5202C23.1579 22.5952 23.2 22.6969 23.2 22.803C23.2 22.9091 23.1579 23.0108 23.0828 23.0859C23.0078 23.1609 22.9061 23.203 22.8 23.203H1.2C1.09391 23.203 0.992172 23.1609 0.917157 23.0859C0.842143 23.0108 0.8 22.9091 0.8 22.803C0.8 22.6969 0.842143 22.5952 0.917157 22.5202C0.992172 22.4452 1.09391 22.403 1.2 22.403H15.2ZM7.6 19.203C7.49391 19.203 7.39217 19.2452 7.31716 19.3202C7.24214 19.3952 7.2 19.4969 7.2 19.603C7.2 19.7091 7.24214 19.8108 7.31716 19.8859C7.39217 19.9609 7.49391 20.003 7.6 20.003H9.6C10.0243 20.003 10.4313 20.1716 10.7314 20.4716C11.0314 20.7717 11.2 21.1787 11.2 21.603H5.2C4.35131 21.603 3.53737 21.2659 2.93726 20.6658C2.33714 20.0656 2 19.2517 2 18.403C2 17.5543 2.33714 16.7404 2.93726 16.1403C3.53737 15.5402 4.35131 15.203 5.2 15.203C5.42194 15.2053 5.64307 15.2301 5.86 15.277C5.88795 15.3162 5.91834 15.3536 5.951 15.389L8.213 17.651C8.24847 17.6839 8.28587 17.7146 8.325 17.743C8.37211 17.9599 8.39691 18.1811 8.399 18.403C8.40003 18.6729 8.36642 18.9417 8.299 19.203H7.6ZM9.346 17.086C9.30885 17.1232 9.26474 17.1527 9.21618 17.1728C9.16762 17.193 9.11557 17.2033 9.063 17.2033C9.01043 17.2033 8.95838 17.193 8.90982 17.1728C8.86126 17.1527 8.81715 17.1232 8.78 17.086L6.517 14.823C6.44522 14.7473 6.40584 14.6466 6.40727 14.5423C6.40869 14.438 6.45081 14.3384 6.52464 14.2647C6.59846 14.191 6.69816 14.149 6.80247 14.1478C6.90677 14.1465 7.00744 14.1861 7.083 14.258L7.648 14.823L7.988 15.163L9.345 16.517C9.41981 16.592 9.46181 16.6936 9.46181 16.7995C9.46181 16.9054 9.41981 17.007 9.345 17.082L9.346 17.086ZM22.117 0.924011C22.1537 0.885273 22.1979 0.854281 22.2468 0.832863C22.2957 0.811446 22.3484 0.800035 22.4018 0.799305C22.4551 0.798575 22.5081 0.808539 22.5576 0.828611C22.6071 0.848683 22.652 0.878456 22.6898 0.916175C22.7276 0.953894 22.7575 0.998796 22.7776 1.04823C22.7978 1.09767 22.8078 1.15065 22.8072 1.20403C22.8066 1.25742 22.7952 1.31014 22.7739 1.35908C22.7526 1.40802 22.7217 1.4522 22.683 1.48901L9.063 15.105L8.906 14.948L8.5 14.54L22.117 0.924011Z" fill="black"/>
<path id="Shape_2" d="M16.7957 16.8H15.9957C15.8896 16.8 15.7879 16.8422 15.7129 16.9172C15.6378 16.9922 15.5957 17.094 15.5957 17.2001C15.5957 17.3061 15.6378 17.4079 15.7129 17.4829C15.7879 17.5579 15.8896 17.6 15.9957 17.6H16.7957C16.9018 17.6 17.0035 17.5579 17.0785 17.4829C17.1536 17.4079 17.1957 17.3061 17.1957 17.2001C17.1957 17.094 17.1536 16.9922 17.0785 16.9172C17.0035 16.8422 16.9018 16.8 16.7957 16.8Z" fill="black"/>
<path id="Shape_3" d="M19.6001 16.8H18.3941C18.2881 16.8 18.1863 16.8422 18.1113 16.9172C18.0363 16.9922 17.9941 17.094 17.9941 17.2001C17.9941 17.3061 18.0363 17.4079 18.1113 17.4829C18.1863 17.5579 18.2881 17.6 18.3941 17.6H19.5941C19.7002 17.6 19.802 17.5579 19.877 17.4829C19.952 17.4079 19.9941 17.3061 19.9941 17.2001C19.9941 17.094 19.952 16.9922 19.877 16.9172C19.802 16.8422 19.7002 16.8 19.5941 16.8H19.6001Z" fill="black"/>
<path id="Shape_4" d="M22.3905 11.209C22.6274 11.209 22.8591 11.1388 23.0562 11.0073C23.2533 10.8759 23.4071 10.689 23.4982 10.4702C23.5893 10.2515 23.6136 10.0107 23.568 9.77814C23.5224 9.54561 23.409 9.33178 23.2421 9.16361C23.0752 8.99543 22.8622 8.88044 22.63 8.83313C22.3979 8.78581 22.1569 8.8083 21.9374 8.89774C21.718 8.98719 21.53 9.1396 21.3971 9.33575C21.2641 9.5319 21.1922 9.76302 21.1905 9.99996C21.1893 10.1583 21.2194 10.3153 21.2792 10.4619C21.339 10.6086 21.4272 10.7419 21.5387 10.8543C21.6503 10.9667 21.783 11.0559 21.9292 11.1168C22.0753 11.1776 22.2321 11.209 22.3905 11.209ZM22.3905 9.60296C22.4696 9.60296 22.5469 9.62642 22.6127 9.67037C22.6785 9.71433 22.7297 9.7768 22.76 9.84989C22.7903 9.92298 22.7982 10.0034 22.7828 10.081C22.7673 10.1586 22.7292 10.2299 22.6733 10.2858C22.6174 10.3417 22.5461 10.3798 22.4685 10.3953C22.3909 10.4107 22.3105 10.4028 22.2374 10.3725C22.1643 10.3422 22.1018 10.291 22.0579 10.2252C22.0139 10.1594 21.9905 10.0821 21.9905 10.003C21.9901 9.95018 22.0001 9.89784 22.02 9.84897C22.04 9.80009 22.0694 9.75564 22.1066 9.71818C22.1437 9.68072 22.188 9.65098 22.2367 9.63069C22.2854 9.6104 22.3377 9.59996 22.3905 9.59996V9.60296Z" fill="black"/>
<path id="Shape_5" d="M20.3816 6.40198C20.1443 6.40198 19.9123 6.47236 19.715 6.60421C19.5176 6.73607 19.3638 6.92349 19.273 7.14276C19.1822 7.36203 19.1584 7.60331 19.2047 7.83609C19.251 8.06886 19.3653 8.28268 19.5331 8.45051C19.7009 8.61833 19.9148 8.73262 20.1475 8.77892C20.3803 8.82522 20.6216 8.80146 20.8409 8.71063C21.0601 8.61981 21.2476 8.466 21.3794 8.26866C21.5113 8.07132 21.5816 7.83932 21.5816 7.60198C21.5816 7.28372 21.4552 6.97849 21.2302 6.75345C21.0051 6.5284 20.6999 6.40198 20.3816 6.40198ZM20.3816 8.00798C20.3025 8.00798 20.2252 7.98452 20.1594 7.94057C20.0936 7.89661 20.0424 7.83414 20.0121 7.76105C19.9818 7.68796 19.9739 7.60753 19.9893 7.52994C20.0048 7.45235 20.0429 7.38108 20.0988 7.32513C20.1547 7.26919 20.226 7.2311 20.3036 7.21566C20.3812 7.20023 20.4616 7.20815 20.5347 7.23843C20.6078 7.2687 20.6703 7.31997 20.7142 7.38575C20.7582 7.45153 20.7816 7.52886 20.7816 7.60798C20.7816 7.71406 20.7395 7.8158 20.6645 7.89082C20.5895 7.96583 20.4877 8.00798 20.3816 8.00798Z" fill="black"/>
<path id="Shape_6" d="M10.7992 0.00695803C10.6948 0.0069254 10.5946 0.0476927 10.5198 0.120558C10.4451 0.193423 10.4018 0.292614 10.3992 0.396958V0.406958C10.3992 0.554958 10.3622 4.01996 7.1832 4.01996C7.07712 4.01996 6.97538 4.0621 6.90036 4.13712C6.82535 4.21213 6.7832 4.31387 6.7832 4.41996C6.7832 4.52604 6.82535 4.62779 6.90036 4.7028C6.97538 4.77782 7.07712 4.81996 7.1832 4.81996C10.3502 4.81996 10.3982 8.28596 10.3992 8.43296C10.3977 8.53904 10.4385 8.64137 10.5125 8.71741C10.5865 8.79346 10.6876 8.837 10.7937 8.83846C10.8998 8.83992 11.0021 8.79917 11.0782 8.72519C11.1542 8.65121 11.1977 8.55005 11.1992 8.44396V8.43796C11.1992 8.28996 11.2362 4.82496 14.4142 4.82496C14.4667 4.82496 14.5187 4.81461 14.5673 4.79451C14.6158 4.77441 14.6599 4.74494 14.697 4.7078C14.7342 4.67066 14.7637 4.62656 14.7838 4.57803C14.8039 4.5295 14.8142 4.47749 14.8142 4.42496C14.8142 4.37243 14.8039 4.32041 14.7838 4.27188C14.7637 4.22335 14.7342 4.17926 14.697 4.14212C14.6599 4.10497 14.6158 4.07551 14.5673 4.05541C14.5187 4.0353 14.4667 4.02496 14.4142 4.02496C11.2562 4.02196 11.1992 0.568958 11.1992 0.406958C11.1992 0.300871 11.1571 0.19913 11.082 0.124115C11.007 0.0491008 10.9053 0.00695803 10.7992 0.00695803ZM12.5862 4.42296C11.764 4.85667 11.1286 5.57571 10.7992 6.44496C10.4698 5.57571 9.83437 4.85667 9.0122 4.42296C9.83437 3.98924 10.4698 3.2702 10.7992 2.40096C11.1283 3.27004 11.7634 3.98905 12.5852 4.42296H12.5862Z" fill="black"/>
<path id="Shape_7" d="M2.40895 12.02C2.40895 12.126 2.4511 12.2278 2.52611 12.3028C2.60113 12.3778 2.70287 12.42 2.80895 12.42C2.91504 12.42 3.01678 12.3778 3.0918 12.3028C3.16681 12.2278 3.20895 12.126 3.20895 12.02C3.20895 11.92 3.24295 9.61095 5.21595 9.61095C5.32204 9.61095 5.42378 9.56881 5.4988 9.4938C5.57381 9.41878 5.61595 9.31704 5.61595 9.21095C5.61595 9.10487 5.57381 9.00312 5.4988 8.92811C5.42378 8.8531 5.32204 8.81095 5.21595 8.81095C3.24195 8.81095 3.20895 6.49995 3.20895 6.40195C3.20895 6.29587 3.16681 6.19412 3.0918 6.11911C3.01678 6.0441 2.91504 6.00195 2.80895 6.00195C2.70287 6.00195 2.60113 6.0441 2.52611 6.11911C2.4511 6.19412 2.40895 6.29587 2.40895 6.40195C2.40895 6.50195 2.37495 8.81095 0.401953 8.81095C0.295867 8.81095 0.194125 8.8531 0.11911 8.92811C0.0440959 9.00312 0.00195313 9.10487 0.00195312 9.21095C0.00195313 9.31704 0.0440959 9.41878 0.11911 9.4938C0.194125 9.56881 0.295867 9.61095 0.401953 9.61095C2.37595 9.61095 2.40895 11.922 2.40895 12.02ZM1.86895 9.20795C2.27537 8.93678 2.60059 8.56041 2.80995 8.11895C3.01931 8.56041 3.34453 8.93678 3.75095 9.20795C3.3444 9.4794 3.01916 9.85613 2.80995 10.298C2.60075 9.85613 2.27551 9.4794 1.86895 9.20795Z" fill="black"/>
<path id="Shape_8" d="M4.31588 3.30197L4.91588 3.90197C4.9912 3.97729 5.09336 4.01961 5.19988 4.01961C5.3064 4.01961 5.40856 3.97729 5.48388 3.90197C5.5592 3.82665 5.60152 3.72449 5.60152 3.61797C5.60152 3.51145 5.5592 3.40929 5.48388 3.33397L4.88388 2.73397C4.80856 2.65865 4.7064 2.61633 4.59988 2.61633C4.49336 2.61633 4.3912 2.65865 4.31588 2.73397C4.24056 2.80929 4.19824 2.91145 4.19824 3.01797C4.19824 3.12449 4.24056 3.22665 4.31588 3.30197Z" fill="black"/>
<path id="Shape_9" d="M3.12779 2.09704C3.20311 2.17236 3.30527 2.21467 3.41179 2.21467C3.51831 2.21467 3.62047 2.17236 3.69579 2.09704C3.77111 2.02172 3.81343 1.91956 3.81343 1.81304C3.81343 1.70652 3.77111 1.60436 3.69579 1.52904L3.09579 0.929038C3.02047 0.853717 2.91831 0.811401 2.81179 0.811401C2.70527 0.811401 2.60311 0.853717 2.52779 0.929038C2.45247 1.00436 2.41016 1.10652 2.41016 1.21304C2.41016 1.31956 2.45247 1.42172 2.52779 1.49704L3.12779 2.09704Z" fill="black"/>
<path id="Shape_10" d="M2.52652 3.90405C2.56371 3.94154 2.60795 3.97129 2.65669 3.9916C2.70544 4.01191 2.75772 4.02236 2.81052 4.02236C2.86333 4.02236 2.91561 4.01191 2.96435 3.9916C3.0131 3.97129 3.05734 3.94154 3.09452 3.90405L3.69452 3.30404C3.76984 3.22872 3.81216 3.12657 3.81216 3.02004C3.81216 2.91352 3.76984 2.81137 3.69452 2.73604C3.6192 2.66072 3.51704 2.61841 3.41052 2.61841C3.304 2.61841 3.20184 2.66072 3.12652 2.73604L2.52652 3.33605C2.48903 3.37323 2.45927 3.41747 2.43897 3.46621C2.41866 3.51496 2.4082 3.56724 2.4082 3.62004C2.4082 3.67285 2.41866 3.72513 2.43897 3.77388C2.45927 3.82262 2.48903 3.86686 2.52652 3.90405Z" fill="black"/>
<path id="Shape_11" d="M4.59871 2.21699C4.65149 2.21703 4.70376 2.20663 4.7525 2.18638C4.80125 2.16612 4.8455 2.13642 4.88271 2.09899L5.48271 1.49899C5.52001 1.4617 5.54959 1.41742 5.56978 1.36869C5.58996 1.31996 5.60035 1.26773 5.60035 1.21499C5.60035 1.16225 5.58996 1.11002 5.56978 1.06129C5.54959 1.01256 5.52001 0.968287 5.48271 0.930991C5.44542 0.893696 5.40114 0.864111 5.35241 0.843927C5.30368 0.823743 5.25145 0.813354 5.19871 0.813354C5.14597 0.813354 5.09374 0.823743 5.04501 0.843927C4.99628 0.864111 4.95201 0.893696 4.91471 0.930991L4.31471 1.53099C4.2576 1.58683 4.21851 1.65848 4.20248 1.73672C4.18644 1.81497 4.1942 1.89622 4.22476 1.97002C4.25531 2.04382 4.30725 2.10678 4.3739 2.15079C4.44055 2.19481 4.51884 2.21786 4.59871 2.21699Z" fill="black"/>
</g>
</g>
</g>
<defs>
<clipPath id="clip0_321_727">
<rect width="24" height="24" fill="white"/>
</clipPath>
</defs>
</svg>
