<svg width="18" height="24" viewBox="0 0 18 24" fill="none" xmlns="http://www.w3.org/2000/svg">
<g id="tumble-dryer" clip-path="url(#clip0_321_797)">
<g id="tumble-dryer_2">
<path id="Trac&#195;&#169; 933" d="M16.6386 0H1.35642C0.996298 0.00158588 0.65145 0.145855 0.397272 0.401267C0.143094 0.656679 0.000260537 1.00245 0 1.363V22.157C0 22.2506 0.037148 22.3404 0.103271 22.4066C0.169394 22.4728 0.259077 22.51 0.352589 22.51H1.08573V23.643C1.08573 23.6894 1.09485 23.7353 1.11257 23.7781C1.13029 23.8209 1.15626 23.8598 1.189 23.8926C1.22175 23.9254 1.26062 23.9514 1.30339 23.9691C1.34617 23.9869 1.39202 23.996 1.43832 23.996H3.06542C3.11173 23.996 3.15758 23.9869 3.20035 23.9691C3.24313 23.9514 3.282 23.9254 3.31474 23.8926C3.34748 23.8598 3.37345 23.8209 3.39117 23.7781C3.40889 23.7353 3.41801 23.6894 3.41801 23.643V22.511H14.581V23.643C14.581 23.7366 14.6181 23.8264 14.6843 23.8926C14.7504 23.9588 14.8401 23.996 14.9336 23.996H16.5607C16.6071 23.9961 16.653 23.9871 16.6959 23.9694C16.7388 23.9517 16.7778 23.9258 16.8106 23.893C16.8435 23.8602 16.8696 23.8212 16.8873 23.7783C16.9051 23.7354 16.9143 23.6894 16.9143 23.643V22.511H17.6474C17.7409 22.511 17.8306 22.4738 17.8967 22.4076C17.9629 22.3414 18 22.2516 18 22.158V1.363C17.9997 1.00159 17.8562 0.65506 17.601 0.399506C17.3457 0.143951 16.9996 0.000264865 16.6386 0ZM17.2938 1.363V4.416H9.35309V0.707H16.6396C16.8133 0.707264 16.9798 0.776463 17.1026 0.89943C17.2254 1.0224 17.2936 1.1891 17.2938 1.363ZM1.36141 0.707H8.64791V4.416H0.706177V1.363C0.706441 1.1891 0.77556 1.0224 0.898383 0.89943C1.02121 0.776463 1.18771 0.707264 1.36141 0.707ZM2.71184 23.293H1.79191V22.51H2.71284L2.71184 23.293ZM16.2071 23.293H15.2872V22.51H16.2081L16.2071 23.293ZM0.705179 21.804V5.123H17.2928V21.804H0.705179Z" fill="black"/>
<path id="Trac&#195;&#169; 934" d="M9.00083 7.42995C7.80766 7.40691 6.63466 7.74009 5.63134 8.38703C4.62802 9.03396 3.83983 9.96533 3.36724 11.0624C2.89464 12.1596 2.75904 13.3727 2.97773 14.5473C3.19642 15.7218 3.75949 16.8046 4.59516 17.6575C5.43084 18.5105 6.50127 19.095 7.67002 19.3366C8.83876 19.5782 10.0529 19.4658 11.1576 19.014C12.2624 18.5621 13.2077 17.7911 13.8731 16.7993C14.5386 15.8075 14.8939 14.6397 14.894 13.445C14.9091 11.8649 14.2968 10.3436 13.1916 9.21558C12.0865 8.08757 10.579 7.44526 9.00083 7.42995ZM9.00083 18.745C7.94979 18.7648 6.91664 18.4709 6.03303 17.9008C5.14943 17.3306 4.45538 16.51 4.03935 15.5434C3.62331 14.5769 3.50412 13.5082 3.69696 12.4736C3.88981 11.439 4.38595 10.4853 5.12217 9.73409C5.85839 8.98284 6.80136 8.46804 7.83089 8.2553C8.86042 8.04256 9.92991 8.14151 10.9031 8.53955C11.8762 8.93759 12.709 9.61669 13.2952 10.4903C13.8814 11.3639 14.1946 12.3925 14.1948 13.445C14.2015 14.1344 14.0725 14.8185 13.8151 15.458C13.5576 16.0976 13.1769 16.6801 12.6946 17.1723C12.2122 17.6644 11.6378 18.0567 11.004 18.3265C10.3702 18.5964 9.68952 18.7385 9.00083 18.745Z" fill="black"/>
<path id="Trac&#195;&#169; 935" d="M8.99929 9.18799C8.15674 9.18799 7.33311 9.43813 6.63255 9.90677C5.93199 10.3754 5.38597 11.0415 5.06353 11.8208C4.7411 12.6002 4.65674 13.4577 4.82112 14.285C4.98549 15.1124 5.39122 15.8723 5.987 16.4688C6.58277 17.0653 7.34184 17.4715 8.1682 17.636C8.99457 17.8006 9.85112 17.7161 10.6295 17.3933C11.408 17.0705 12.0733 16.5239 12.5414 15.8225C13.0095 15.1211 13.2593 14.2965 13.2593 13.453C13.2593 12.3218 12.8105 11.237 12.0116 10.4372C11.2127 9.63734 10.1291 9.18799 8.99929 9.18799ZM8.99929 17.002C8.29818 17.002 7.61282 16.7938 7.02987 16.4039C6.44692 16.0139 5.99257 15.4596 5.72426 14.8111C5.45596 14.1626 5.38576 13.4491 5.52254 12.7606C5.65932 12.0722 5.99693 11.4398 6.49269 10.9435C6.98845 10.4471 7.62009 10.1091 8.30772 9.97218C8.99536 9.83524 9.70811 9.90553 10.3559 10.1741C11.0036 10.4428 11.5572 10.8976 11.9467 11.4813C12.3363 12.0649 12.5442 12.7511 12.5442 13.453C12.5442 14.3942 12.1707 15.2969 11.5059 15.9625C10.8411 16.6281 9.93945 17.002 8.99929 17.002Z" fill="black"/>
<path id="Trac&#195;&#169; 936" d="M14.8745 3.84399C15.1215 3.84399 15.3629 3.77068 15.5682 3.63333C15.7735 3.49598 15.9335 3.30076 16.028 3.07235C16.1225 2.84394 16.1472 2.59261 16.0991 2.35013C16.0509 2.10766 15.932 1.88493 15.7574 1.71011C15.5828 1.53529 15.3603 1.41624 15.1181 1.36801C14.8759 1.31978 14.6249 1.34454 14.3967 1.43914C14.1686 1.53375 13.9736 1.69397 13.8364 1.89953C13.6992 2.10509 13.626 2.34677 13.626 2.59399C13.626 2.92551 13.7575 3.24346 13.9917 3.47788C14.2258 3.7123 14.5434 3.84399 14.8745 3.84399ZM14.8745 2.05999C14.98 2.05999 15.0831 2.09129 15.1707 2.14992C15.2584 2.20855 15.3268 2.29189 15.3672 2.38941C15.4076 2.48693 15.4182 2.59425 15.3977 2.69781C15.3772 2.80136 15.3265 2.89652 15.252 2.97124C15.1775 3.04596 15.0826 3.09689 14.9792 3.11761C14.8758 3.13833 14.7686 3.1279 14.6711 3.08763C14.5736 3.04737 14.4902 2.97908 14.4315 2.8914C14.3728 2.80371 14.3413 2.70057 14.3411 2.59499C14.341 2.52478 14.3547 2.45524 14.3815 2.39033C14.4082 2.32543 14.4475 2.26645 14.497 2.21675C14.5465 2.16706 14.6054 2.12764 14.6702 2.10074C14.735 2.07384 14.8044 2.05999 14.8745 2.05999Z" fill="black"/>
<path id="Trac&#195;&#169; 937" d="M11.7261 3.84399C11.973 3.84399 12.2144 3.77068 12.4197 3.63333C12.6251 3.49598 12.7851 3.30076 12.8796 3.07235C12.9741 2.84394 12.9988 2.59261 12.9506 2.35013C12.9025 2.10766 12.7836 1.88493 12.6089 1.71011C12.4343 1.53529 12.2119 1.41624 11.9697 1.36801C11.7275 1.31978 11.4764 1.34454 11.2483 1.43914C11.0202 1.53375 10.8251 1.69397 10.688 1.89953C10.5508 2.10509 10.4775 2.34677 10.4775 2.59399C10.4775 2.92551 10.6091 3.24346 10.8432 3.47788C11.0774 3.7123 11.3949 3.84399 11.7261 3.84399ZM11.7261 2.05999C11.8315 2.05999 11.9346 2.09129 12.0223 2.14992C12.11 2.20855 12.1784 2.29189 12.2188 2.38941C12.2592 2.48693 12.2698 2.59425 12.2493 2.69781C12.2288 2.80136 12.1781 2.89652 12.1036 2.97124C12.0291 3.04596 11.9341 3.09689 11.8308 3.11761C11.7274 3.13833 11.6201 3.1279 11.5227 3.08763C11.4252 3.04737 11.3418 2.97908 11.2831 2.8914C11.2244 2.80371 11.1929 2.70057 11.1927 2.59499C11.1926 2.52478 11.2063 2.45524 11.233 2.39033C11.2598 2.32543 11.299 2.26645 11.3486 2.21675C11.3981 2.16706 11.457 2.12764 11.5217 2.10074C11.5865 2.07384 11.656 2.05999 11.7261 2.05999Z" fill="black"/>
<path id="Trac&#195;&#169; 938" d="M2.23356 3.69002H7.23972C7.33455 3.69002 7.42551 3.65231 7.49257 3.58517C7.55963 3.51803 7.5973 3.42697 7.5973 3.33202V1.85702C7.5973 1.76208 7.55963 1.67102 7.49257 1.60388C7.42551 1.53674 7.33455 1.49902 7.23972 1.49902H2.23356C2.13872 1.49902 2.04777 1.53674 1.98071 1.60388C1.91365 1.67102 1.87598 1.76208 1.87598 1.85702V3.33202C1.87598 3.42697 1.91365 3.51803 1.98071 3.58517C2.04777 3.65231 2.13872 3.69002 2.23356 3.69002ZM2.59114 2.21502H6.88613V2.97502H2.59114V2.21502Z" fill="black"/>
<path id="Trac&#195;&#169; 939" d="M9.30838 12.049C9.35659 11.9672 9.37037 11.8695 9.34667 11.7775C9.32297 11.6855 9.26375 11.6067 9.18202 11.5585C9.1003 11.5102 9.00277 11.4964 8.91089 11.5201C8.81901 11.5439 8.74031 11.6032 8.6921 11.685C8.51774 11.9813 8.42578 12.319 8.42578 12.663C8.42578 13.0069 8.51774 13.3446 8.6921 13.641C8.80173 13.8272 8.85955 14.0393 8.85955 14.2555C8.85955 14.4716 8.80173 14.6838 8.6921 14.87C8.64622 14.9517 8.63418 15.0481 8.65855 15.1386C8.68293 15.2291 8.74179 15.3064 8.82248 15.354C8.90317 15.4015 8.99926 15.4154 9.09011 15.3928C9.18096 15.3702 9.25933 15.3128 9.30838 15.233C9.48274 14.9366 9.57469 14.5989 9.57469 14.255C9.57469 13.911 9.48274 13.5733 9.30838 13.277C9.19893 13.0909 9.14122 12.8789 9.14122 12.663C9.14122 12.447 9.19893 12.235 9.30838 12.049Z" fill="black"/>
<path id="Trac&#195;&#169; 940" d="M10.8113 12.049C10.8352 12.0085 10.8508 11.9636 10.8574 11.9171C10.864 11.8705 10.8613 11.8231 10.8496 11.7775C10.8379 11.732 10.8173 11.6892 10.789 11.6516C10.7608 11.614 10.7254 11.5824 10.685 11.5585C10.6445 11.5346 10.5997 11.5189 10.5532 11.5123C10.5067 11.5057 10.4593 11.5084 10.4138 11.5201C10.3683 11.5319 10.3256 11.5525 10.288 11.5808C10.2505 11.6091 10.2189 11.6445 10.195 11.685C10.0207 11.9813 9.92871 12.319 9.92871 12.663C9.92871 13.0069 10.0207 13.3446 10.195 13.641C10.3047 13.8272 10.3625 14.0393 10.3625 14.2555C10.3625 14.4716 10.3047 14.6838 10.195 14.87C10.1701 14.9105 10.1535 14.9556 10.1462 15.0027C10.139 15.0497 10.1411 15.0978 10.1526 15.144C10.1641 15.1901 10.1846 15.2336 10.2131 15.2717C10.2415 15.3099 10.2773 15.342 10.3183 15.3661C10.3593 15.3902 10.4046 15.406 10.4518 15.4123C10.4989 15.4187 10.5468 15.4156 10.5927 15.4032C10.6386 15.3908 10.6816 15.3694 10.7191 15.3401C10.7567 15.3109 10.788 15.2745 10.8113 15.233C10.9857 14.9366 11.0776 14.5989 11.0776 14.255C11.0776 13.911 10.9857 13.5733 10.8113 13.277C10.7019 13.0909 10.6441 12.8789 10.6441 12.663C10.6441 12.447 10.7019 12.235 10.8113 12.049Z" fill="black"/>
<path id="Trac&#195;&#169; 941" d="M7.80633 12.049C7.84366 11.9685 7.84978 11.877 7.82351 11.7922C7.79725 11.7074 7.74047 11.6355 7.66419 11.5902C7.58791 11.545 7.49757 11.5298 7.4107 11.5475C7.32382 11.5652 7.24661 11.6145 7.19405 11.686C7.01969 11.9824 6.92773 12.3201 6.92773 12.664C6.92773 13.008 7.01969 13.3456 7.19405 13.642C7.30368 13.8282 7.3615 14.0404 7.3615 14.2565C7.3615 14.4726 7.30368 14.6848 7.19405 14.871C7.14817 14.9527 7.13613 15.0492 7.16051 15.1397C7.18488 15.2302 7.24374 15.3075 7.32443 15.355C7.40512 15.4025 7.50121 15.4165 7.59206 15.3939C7.68291 15.3712 7.76128 15.3138 7.81033 15.234C7.98469 14.9376 8.07664 14.6 8.07664 14.256C8.07664 13.9121 7.98469 13.5744 7.81033 13.278C7.70009 13.0922 7.64158 12.8802 7.64087 12.6641C7.64017 12.4479 7.6973 12.2355 7.80633 12.049Z" fill="black"/>
</g>
</g>
<defs>
<clipPath id="clip0_321_797">
<rect width="18" height="24" fill="white"/>
</clipPath>
</defs>
</svg>
