<svg width="24" height="24" viewBox="0 0 24 24" fill="none" xmlns="http://www.w3.org/2000/svg">
<g id="coffee-cups" clip-path="url(#clip0_321_707)">
<g id="coffee-cups_2">
<path id="Trac&#195;&#169; 888" d="M0.356907 24.0001H23.7015C23.7808 24.0001 23.857 23.9684 23.9131 23.9122C23.9692 23.8559 24.0008 23.7796 24.0008 23.7001V20.968C24.0008 20.8885 23.9692 20.8122 23.9131 20.7559C23.857 20.6997 23.7808 20.668 23.7015 20.668H19.2869C19.549 20.4312 19.7583 20.1416 19.9011 19.8182C20.044 19.4947 20.1172 19.1448 20.116 18.791V18.6911C20.1183 18.4131 20.0326 18.1416 19.8713 17.9156C19.7099 17.6896 19.4813 17.5206 19.2181 17.433C19.5011 17.1957 19.7283 16.8987 19.8835 16.5632C20.0387 16.2276 20.1181 15.8619 20.116 15.4921V15.3921C20.1203 15.0486 19.9888 14.7175 19.7503 14.4709C19.5117 14.2243 19.1856 14.0824 18.843 14.076H5.21237C4.86874 14.0824 4.54166 14.2251 4.30298 14.473C4.06429 14.7209 3.93352 15.0536 3.9394 15.398V15.4981C3.93728 15.8679 4.01666 16.2336 4.17187 16.5692C4.32708 16.9047 4.55429 17.2017 4.83727 17.439C4.57411 17.5266 4.34543 17.6956 4.1841 17.9216C4.02277 18.1476 3.9371 18.4191 3.9394 18.697V18.7971C3.9382 19.1508 4.01141 19.5007 4.15426 19.8242C4.29711 20.1476 4.50638 20.4372 4.76843 20.674H0.356907C0.27753 20.674 0.201404 20.7057 0.145277 20.7619C0.0891491 20.8182 0.0576172 20.8945 0.0576172 20.974V23.705C0.0576172 23.7846 0.0891491 23.8609 0.145277 23.9172C0.201404 23.9734 0.27753 24.0051 0.356907 24.0051V24.0001ZM4.53997 15.494V15.3941C4.53432 15.2089 4.60213 15.029 4.72854 14.8939C4.85495 14.7587 5.02966 14.6793 5.21437 14.673H18.843C19.0277 14.6793 19.2024 14.7587 19.3288 14.8939C19.4552 15.029 19.5231 15.2089 19.5174 15.3941V15.494C19.5305 15.9797 19.3508 16.4508 19.0176 16.8037C18.6845 17.1566 18.2251 17.3624 17.7406 17.376H6.31476C5.83112 17.3624 5.37258 17.1573 5.03956 16.8055C4.70653 16.4536 4.52617 15.9839 4.53798 15.4991L4.53997 15.494ZM4.53997 18.794V18.694C4.53432 18.5089 4.60213 18.329 4.72854 18.1939C4.85495 18.0587 5.02966 17.9793 5.21437 17.973H18.843C19.0277 17.9793 19.2024 18.0587 19.3288 18.1939C19.4552 18.329 19.5231 18.5089 19.5174 18.694V18.794C19.5292 19.2789 19.3488 19.7486 19.0158 20.1004C18.6828 20.4523 18.2243 20.6574 17.7406 20.6711H6.31476C5.83112 20.6574 5.37258 20.4523 5.03956 20.1004C4.70653 19.7486 4.52617 19.2789 4.53798 18.794H4.53997ZM0.656196 21.2681H23.4022V23.398H0.656196V21.2681Z" fill="black"/>
<path id="Trac&#195;&#169; 889" d="M0.754837 11.705C1.21734 12.1984 1.78074 12.5858 2.40646 12.8407C3.03218 13.0957 3.70546 13.2121 4.38023 13.182C5.11632 13.1788 5.84717 13.0576 6.54509 12.823L7.35616 12.554C7.39362 12.5417 7.42828 12.522 7.45815 12.4963C7.48802 12.4705 7.51251 12.439 7.53022 12.4037C7.54792 12.3684 7.5585 12.3299 7.56133 12.2905C7.56416 12.2511 7.55919 12.2115 7.54671 12.174L5.17534 4.974C5.16303 4.93657 5.14349 4.90193 5.11783 4.87207C5.09216 4.84221 5.06088 4.81771 5.02577 4.79997C4.99066 4.78223 4.9524 4.7716 4.91319 4.76869C4.87397 4.76578 4.83457 4.77064 4.79724 4.783L3.98616 5.053C3.91234 5.078 3.84051 5.106 3.76768 5.133L3.73576 5.033C3.65715 4.78681 3.50989 4.56832 3.31136 4.40334C3.11283 4.23837 2.87134 4.1338 2.61542 4.102V3.335H10.3361V4.108C10.1386 4.13699 9.94997 4.2095 9.78377 4.3203C9.61758 4.4311 9.47794 4.57744 9.37492 4.7488C9.27189 4.92015 9.20802 5.11227 9.18792 5.31132C9.16781 5.51038 9.19197 5.71142 9.25864 5.9L9.50705 6.656C8.73425 7.40284 8.25636 8.4042 8.16125 9.476C8.15911 9.51395 8.16419 9.55195 8.17621 9.588L8.87455 11.716C8.88629 11.7525 8.90492 11.7865 8.92942 11.816C9.39501 12.3246 9.96569 12.7253 10.6017 12.9901C11.2377 13.2548 11.9236 13.3773 12.6117 13.349C13.335 13.3473 14.0534 13.2295 14.7396 13L15.5507 12.73C15.5882 12.7177 15.6228 12.698 15.6527 12.6723C15.6826 12.6465 15.7071 12.615 15.7248 12.5797C15.7425 12.5444 15.753 12.5059 15.7559 12.4665C15.7587 12.4271 15.7537 12.3875 15.7412 12.35L13.312 4.97C13.2997 4.93257 13.2802 4.89793 13.2545 4.86807C13.2288 4.83821 13.1976 4.81371 13.1624 4.79597C13.1273 4.77823 13.0891 4.7676 13.0499 4.76469C13.0107 4.76178 12.9712 4.76664 12.9339 4.779L12.1228 5.049C12.049 5.074 11.9772 5.102 11.9044 5.129L11.8724 5.029C11.8161 4.85667 11.7263 4.69724 11.6081 4.55992C11.49 4.42261 11.3459 4.31013 11.1841 4.229C11.1044 4.18766 11.0208 4.15417 10.9347 4.129V3.329H18.6603V4.085C18.4459 4.09139 18.236 4.14803 18.0475 4.2504C17.8589 4.35276 17.6968 4.49799 17.5743 4.67444C17.4518 4.8509 17.3723 5.05367 17.3421 5.2665C17.3118 5.47933 17.3318 5.69629 17.4003 5.9L17.6487 6.655C16.8762 7.40123 16.3983 8.40186 16.3029 9.473C16.3008 9.51095 16.3059 9.54895 16.3179 9.585L17.0162 11.711C17.028 11.7475 17.0466 11.7815 17.0711 11.811C17.5366 12.3191 18.107 12.7192 18.7426 12.9836C19.3783 13.2481 20.0638 13.3704 20.7513 13.342C21.4745 13.3392 22.1926 13.2204 22.8783 12.99L23.6894 12.72C23.7268 12.7077 23.7615 12.688 23.7914 12.6623C23.8212 12.6365 23.8457 12.605 23.8634 12.5697C23.8811 12.5344 23.8917 12.4959 23.8945 12.4565C23.8974 12.4171 23.8924 12.3775 23.8799 12.34L21.4547 4.97C21.4424 4.93257 21.4228 4.89793 21.3972 4.86807C21.3715 4.83821 21.3402 4.81371 21.3051 4.79597C21.27 4.77823 21.2317 4.7676 21.1925 4.76469C21.1533 4.76178 21.1139 4.76664 21.0766 4.779L20.2655 5.049C20.1917 5.074 20.1198 5.102 20.047 5.129L20.0151 5.029C19.9588 4.85667 19.869 4.69724 19.7508 4.55992C19.6327 4.42261 19.4885 4.31013 19.3267 4.229C19.3048 4.218 19.2818 4.213 19.2599 4.203V3.332H23.7013C23.7807 3.332 23.8568 3.30039 23.913 3.24413C23.9691 3.18787 24.0006 3.11156 24.0006 3.032V0.3C24.0006 0.220435 23.9691 0.144129 23.913 0.0878677C23.8568 0.0316068 23.7807 0 23.7013 0H0.356782C0.277406 0 0.201281 0.0316068 0.145153 0.0878677C0.0890255 0.144129 0.0574926 0.220435 0.0574926 0.3V3.031C0.0574926 3.11057 0.0890255 3.18687 0.145153 3.24313C0.201281 3.29939 0.277406 3.331 0.356782 3.331H2.01385V4.146H1.9929C1.64581 4.26176 1.35873 4.51085 1.19469 4.83858C1.03065 5.16631 1.00306 5.5459 1.11797 5.894L1.3614 6.635C0.589772 7.36391 0.106572 8.34752 0.000628438 9.405C-0.00189316 9.44394 0.00318935 9.48301 0.0155923 9.52L0.699967 11.598C0.712305 11.6347 0.731615 11.6687 0.756832 11.698L0.754837 11.705ZM12.3114 5.619L12.8381 5.444L15.0778 12.25L14.5511 12.425C13.6944 12.7687 12.7579 12.8616 11.8507 12.6927C10.9434 12.5238 10.1027 12.1001 9.42624 11.471L8.76282 9.455C8.93226 8.54499 9.35541 7.70171 9.98325 7.02282C10.6111 6.34393 11.419 5.8572 12.3114 5.619ZM11.3048 5.219L11.3507 5.357C10.8649 5.58441 10.4089 5.8709 9.9929 6.21L9.82829 5.71C9.76373 5.51268 9.78002 5.29773 9.87356 5.11245C9.96711 4.92716 10.1303 4.78672 10.3271 4.722C10.4244 4.68987 10.527 4.67732 10.6291 4.68508C10.7312 4.69284 10.8308 4.72076 10.9221 4.76722C11.0135 4.81369 11.0947 4.87778 11.1612 4.95583C11.2278 5.03388 11.2782 5.12433 11.3098 5.222L11.3048 5.219ZM20.4531 5.619L20.9798 5.444L23.2175 12.244L22.6907 12.419C21.8343 12.7626 20.8982 12.8555 19.9913 12.6869C19.0843 12.5184 18.2436 12.0954 17.5669 11.467L16.9045 9.453C17.0743 8.54323 17.4978 7.70029 18.1258 7.02177C18.7538 6.34324 19.5607 5.85688 20.4531 5.619ZM19.4464 5.219L19.4923 5.357C19.0066 5.58446 18.5506 5.87094 18.1346 6.21L17.97 5.71C17.9305 5.6112 17.9116 5.50535 17.9144 5.39896C17.9173 5.29257 17.9418 5.18789 17.9866 5.09136C18.0313 4.99484 18.0952 4.90851 18.1745 4.83769C18.2538 4.76687 18.3466 4.71305 18.4474 4.67956C18.5482 4.64607 18.6548 4.63361 18.7605 4.64294C18.8663 4.65227 18.969 4.6832 19.0624 4.73383C19.1558 4.78445 19.2379 4.8537 19.3036 4.93731C19.3693 5.02092 19.4172 5.11713 19.4444 5.22L19.4464 5.219ZM0.655073 0.6H23.4011V2.73H0.655073V0.6ZM1.72952 5.113C1.79843 4.97491 1.90673 4.86045 2.04066 4.78418C2.1746 4.7079 2.32812 4.67324 2.48175 4.6846C2.63537 4.69596 2.78216 4.75282 2.90348 4.84797C3.0248 4.94312 3.11517 5.07226 3.16312 5.219L3.20801 5.356C2.72217 5.58178 2.26527 5.8655 1.84724 6.201L1.68563 5.709C1.6529 5.61107 1.63992 5.50759 1.64746 5.40458C1.65499 5.30158 1.68289 5.2011 1.72952 5.109V5.113ZM4.16973 5.618L4.69648 5.443L6.8743 12.077L6.34756 12.252C4.37624 12.907 2.28919 12.539 1.24268 11.358L0.596213 9.394C0.734884 7.82 2.19242 6.274 4.16374 5.618H4.16973Z" fill="black"/>
</g>
</g>
<defs>
<clipPath id="clip0_321_707">
<rect width="24" height="24" fill="white"/>
</clipPath>
</defs>
</svg>
