<svg width="28" height="28" viewBox="0 0 28 28" fill="none" xmlns="http://www.w3.org/2000/svg">
<g clip-path="url(#clip0_1835_21)">
<path d="M27.5702 0.00212372C20.8737 -0.0128575 7.18335 0.0570732 0.429437 0.0358589C0.1969 0.034492 0.00722827 0.221867 0.00586137 0.454459V0.459489C0.0120944 8.35302 0.00586137 19.8278 0.00586137 27.5752C0.00515058 27.8092 0.194275 27.9994 0.428234 28H19.1943C19.4283 28.0008 19.6185 27.8116 19.6192 27.5777C19.6192 27.5769 19.6192 27.576 19.6192 27.5752V20.7637H27.5702C27.8048 20.7637 27.995 20.5735 27.995 20.3389V0.428214C27.9957 0.193599 27.8061 0.00277983 27.5714 0.00212372C27.571 0.00212372 27.5705 0.00212372 27.5702 0.00212372ZM27.149 19.9128H19.6241V18.2884C19.6241 18.0544 19.4345 17.8647 19.2005 17.8647C18.9665 17.8647 18.7769 18.0544 18.7769 18.2884V27.1416H6.29618V25.5172C6.29602 25.2825 6.10563 25.0924 5.87102 25.0926C5.63662 25.0928 5.44668 25.2828 5.44646 25.5172V27.1416H0.85427V20.7637H5.44646V22.3594C5.44662 22.5941 5.63701 22.7842 5.87162 22.784C6.10602 22.7838 6.29596 22.5938 6.29618 22.3594V18.2846C6.29602 18.05 6.10563 17.8599 5.87102 17.86C5.63662 17.8602 5.44668 18.0502 5.44646 18.2846V19.909H0.85427V13.5312H5.44646V15.1669C5.44662 15.4015 5.63701 15.5916 5.87162 15.5915C6.10602 15.5913 6.29596 15.4013 6.29618 15.1669V13.5312H9.074C9.30828 13.5185 9.4879 13.3183 9.47521 13.084C9.46346 12.8675 9.29052 12.6945 9.074 12.6828H0.85427V0.883065H14.9182V12.6828H12.1692C11.9349 12.6955 11.7553 12.8957 11.7679 13.13C11.7797 13.3465 11.9526 13.5195 12.1692 13.5312H18.7781V15.1557C18.7779 15.3896 18.9673 15.5795 19.2012 15.5798C19.4352 15.58 19.6251 15.3906 19.6253 15.1567C19.6253 15.1564 19.6253 15.156 19.6253 15.1557V13.5313H21.8533C22.0876 13.5185 22.2672 13.3183 22.2545 13.084C22.2428 12.8675 22.0698 12.6946 21.8533 12.6828H15.7679V0.853102H27.149V12.6828H24.8811C24.6468 12.6701 24.4465 12.8497 24.4338 13.084C24.4211 13.3183 24.6007 13.5186 24.835 13.5313C24.8504 13.5321 24.8658 13.5321 24.8811 13.5313H27.1491L27.149 19.9128Z" fill="black"/>
</g>
<defs>
<clipPath id="clip0_1835_21">
<rect width="28" height="28" fill="white"/>
</clipPath>
</defs>
</svg>
