<svg width="24" height="24" viewBox="0 0 24 24" fill="none" xmlns="http://www.w3.org/2000/svg">
<path d="M15.7015 15.2691H14.807V14.0764C14.807 13.9273 14.6833 13.8037 14.5342 13.8037H12.9997V12.9346C15.8579 12.4546 18.0433 9.97093 18.0433 6.97821C18.0433 3.64366 15.3306 0.93457 11.9997 0.93457C8.66878 0.93457 5.95605 3.6473 5.95605 6.97821C5.95605 9.97093 8.14151 12.4546 10.9997 12.9346V13.8037H9.46515C9.31606 13.8037 9.19242 13.9273 9.19242 14.0764V15.2691H8.29787C7.74515 15.2691 7.29787 15.7164 7.29787 16.2691V22.0655C7.29787 22.6182 7.74515 23.0655 8.29787 23.0655H15.7051C16.2579 23.0655 16.7051 22.6182 16.7051 22.0655V16.2691C16.7015 15.7164 16.2542 15.2691 15.7015 15.2691ZM6.50151 6.97821C6.50151 3.94548 8.96696 1.48002 11.9997 1.48002C15.0324 1.48002 17.4979 3.94548 17.4979 6.97821C17.4979 10.0109 15.0324 12.48 11.9997 12.48C8.96696 12.48 6.50151 10.0109 6.50151 6.97821ZM11.5451 13C11.6942 13.0109 11.847 13.0218 11.9997 13.0218C12.1524 13.0218 12.3051 13.0109 12.4542 13V13.8H11.5451V13ZM9.73787 14.3491H14.2615V15.2582H9.73787V14.3491ZM16.1561 22.0655C16.1561 22.3164 15.9524 22.52 15.7015 22.52H8.29787C8.04696 22.52 7.84333 22.3164 7.84333 22.0655V16.2691C7.84333 16.0182 8.04696 15.8146 8.29787 15.8146H15.7051C15.9561 15.8146 16.1597 16.0182 16.1597 16.2691V22.0655H16.1561Z" fill="black"/>
<path d="M23.2725 15.2692H21.818C21.6689 15.2692 21.5453 15.3928 21.5453 15.5419V16.2001H17.5198C17.3707 16.2001 17.2471 16.3237 17.2471 16.4728C17.2471 16.6219 17.3707 16.7455 17.5198 16.7455H21.5453V21.5892H17.5198C17.3707 21.5892 17.2471 21.7128 17.2471 21.8619C17.2471 22.011 17.3707 22.1346 17.5198 22.1346H21.5453V22.7928C21.5453 22.9419 21.6689 23.0655 21.818 23.0655H23.2725C23.4216 23.0655 23.5453 22.9419 23.5453 22.7928V15.5419C23.5453 15.3892 23.4216 15.2692 23.2725 15.2692ZM22.9998 22.5201H22.0907V15.8146H22.9998V22.5201Z" fill="black"/>
<path d="M16.5883 6.97825C16.5883 4.44734 14.5302 2.38916 11.9992 2.38916C9.46834 2.38916 7.41016 4.44734 7.41016 6.97825C7.41016 9.50916 9.46834 11.5673 11.9992 11.5673C14.5302 11.5673 16.5883 9.50916 16.5883 6.97825ZM7.95561 6.97825C7.95561 4.74916 9.77016 2.93461 11.9992 2.93461C14.2283 2.93461 16.0429 4.74916 16.0429 6.97825C16.0429 9.20734 14.2283 11.0219 11.9992 11.0219C9.77016 11.0219 7.95561 9.21098 7.95561 6.97825Z" fill="black"/>
<path d="M13 8.76363C13 8.30908 12.6909 7.92726 12.2727 7.80726V5.44363C12.2727 5.29453 12.1491 5.1709 12 5.1709C11.8509 5.1709 11.7273 5.29453 11.7273 5.44363V7.80726C11.3091 7.92726 11 8.30908 11 8.76363C11 9.31635 11.4473 9.76363 12 9.76363C12.5527 9.76363 13 9.31272 13 8.76363ZM11.5455 8.76363C11.5455 8.51272 11.7491 8.30908 12 8.30908C12.2509 8.30908 12.4545 8.51272 12.4545 8.76363C12.4545 9.01453 12.2509 9.21817 12 9.21817C11.7491 9.21817 11.5455 9.01453 11.5455 8.76363Z" fill="black"/>
<path d="M11.9993 4.49452C12.1484 4.49452 12.272 4.37089 12.272 4.2218V3.54543C12.272 3.39634 12.1484 3.27271 11.9993 3.27271C11.8502 3.27271 11.7266 3.39634 11.7266 3.54543V4.2218C11.7266 4.37089 11.8502 4.49452 11.9993 4.49452Z" fill="black"/>
<path d="M11.1959 4.32731L10.9377 3.70185C10.8795 3.56367 10.7195 3.49821 10.5814 3.55276C10.4432 3.61094 10.3777 3.77094 10.4323 3.90912L10.6905 4.53458C10.7341 4.64003 10.8359 4.70185 10.9414 4.70185C10.9777 4.70185 11.0105 4.69458 11.0468 4.68003C11.1886 4.62549 11.2541 4.46549 11.1959 4.32731Z" fill="black"/>
<path d="M9.76337 4.35997C9.65792 4.25452 9.48337 4.25452 9.37792 4.35997C9.27246 4.46543 9.27246 4.63997 9.37792 4.74543L9.85792 5.22543C9.91246 5.27997 9.98155 5.30543 10.0506 5.30543C10.1197 5.30543 10.1888 5.27997 10.2434 5.22543C10.3488 5.11997 10.3488 4.94543 10.2434 4.83997L9.76337 4.35997Z" fill="black"/>
<path d="M9.55575 5.67275L8.93029 5.41457C8.79211 5.36002 8.63211 5.42184 8.57393 5.56366C8.51575 5.70184 8.5812 5.86184 8.72302 5.92002L9.34848 6.17821C9.3812 6.19275 9.41757 6.20002 9.45393 6.20002C9.55939 6.20002 9.6612 6.13821 9.70484 6.03275C9.76302 5.89093 9.69393 5.73093 9.55575 5.67275Z" fill="black"/>
<path d="M15.2755 8.04366L14.65 7.78548C14.5118 7.7273 14.3518 7.79275 14.2937 7.93457C14.2355 8.07275 14.3009 8.23275 14.4427 8.29093L15.0682 8.54911C15.1009 8.56366 15.1373 8.57093 15.1737 8.57093C15.2791 8.57093 15.3809 8.50912 15.4246 8.40366C15.4827 8.25821 15.4173 8.09821 15.2755 8.04366Z" fill="black"/>
<path d="M9.24304 7.2509C9.39213 7.2509 9.51576 7.12726 9.51576 6.97817C9.51576 6.82908 9.39213 6.70544 9.24304 6.70544H8.56667C8.41758 6.70544 8.29395 6.82908 8.29395 6.97817C8.29395 7.12726 8.41758 7.2509 8.56667 7.2509H9.24304Z" fill="black"/>
<path d="M14.7561 6.70544C14.607 6.70544 14.4834 6.82908 14.4834 6.97817C14.4834 7.12726 14.607 7.2509 14.7561 7.2509H15.4325C15.5816 7.2509 15.7052 7.12726 15.7052 6.97817C15.7052 6.82908 15.5816 6.70544 15.4325 6.70544H14.7561Z" fill="black"/>
<path d="M9.34842 7.78181L8.72297 8.04C8.58479 8.09818 8.51933 8.25818 8.57388 8.39636C8.61751 8.50181 8.71933 8.56363 8.82479 8.56363C8.86115 8.56363 8.89388 8.55636 8.93024 8.54181L9.5557 8.28363C9.69388 8.22545 9.75933 8.06545 9.70479 7.92727C9.64661 7.79272 9.48661 7.72727 9.34842 7.78181Z" fill="black"/>
<path d="M14.2946 6.0291C14.3382 6.13455 14.44 6.19637 14.5455 6.19637C14.5819 6.19637 14.6146 6.1891 14.6509 6.17455L15.2764 5.91637C15.4146 5.85819 15.48 5.69819 15.4255 5.56001C15.3673 5.42182 15.2073 5.35637 15.0691 5.41091L14.4437 5.6691C14.3055 5.73091 14.24 5.89091 14.2946 6.0291Z" fill="black"/>
<path d="M13.9486 5.30189C14.0177 5.30189 14.0868 5.27643 14.1413 5.22189L14.6213 4.74189C14.7268 4.63643 14.7268 4.46189 14.6213 4.35643C14.5158 4.25098 14.3413 4.25098 14.2358 4.35643L13.7558 4.83643C13.6504 4.94189 13.6504 5.11643 13.7558 5.22189C13.8104 5.27643 13.8795 5.30189 13.9486 5.30189Z" fill="black"/>
<path d="M12.9525 4.68369C12.9852 4.69823 13.0216 4.70551 13.058 4.70551C13.1634 4.70551 13.2652 4.64369 13.3089 4.53823L13.5671 3.91278C13.6252 3.7746 13.5598 3.6146 13.418 3.55642C13.2798 3.50187 13.1198 3.56369 13.0616 3.70551L12.8034 4.33096C12.7452 4.46551 12.8107 4.62551 12.9525 4.68369Z" fill="black"/>
<path d="M6.47956 16.7455C6.62865 16.7455 6.75228 16.6219 6.75228 16.4728C6.75228 16.3237 6.62865 16.2001 6.47956 16.2001H2.4541V15.5419C2.4541 15.3928 2.33047 15.2692 2.18137 15.2692H0.726829C0.577738 15.2692 0.454102 15.3928 0.454102 15.5419V22.7928C0.454102 22.9419 0.577738 23.0655 0.726829 23.0655H2.18137C2.33047 23.0655 2.4541 22.9419 2.4541 22.7928V22.1346H6.47956C6.62865 22.1346 6.75228 22.011 6.75228 21.8619C6.75228 21.7128 6.62865 21.5892 6.47956 21.5892H2.4541V16.7455H6.47956ZM0.999556 22.5201V15.8146H1.90865V22.5201H0.999556Z" fill="black"/>
</svg>
