<svg xmlns="http://www.w3.org/2000/svg" width="32.651" height="28.705" viewBox="0 0 32.651 28.705">
  <g id="Groupe_1" data-name="Groupe 1" transform="translate(-0.65 -0.649)">
    <path id="Tracé_1" data-name="Tracé 1" d="M17.181,10.888a3.259,3.259,0,1,0,2.3.955A3.259,3.259,0,0,0,17.181,10.888Zm0,4.966a1.707,1.707,0,1,1,1.207-.5A1.707,1.707,0,0,1,17.181,15.854Z" fill="#35ce92" stroke="#fff" stroke-width="0.7"/>
    <path id="Tracé_2" data-name="Tracé 2" d="M30.176,3.439,8.995,1.029a2.909,2.909,0,0,0-2.289.66A2.948,2.948,0,0,0,5.581,3.706L5.193,6.887h-1.2A3.118,3.118,0,0,0,1,10.112V25.978A2.948,2.948,0,0,0,3.872,29H25.288a3.184,3.184,0,0,0,3.259-3.026v-.621a3.877,3.877,0,0,0,1.474-.621,3.22,3.22,0,0,0,1.125-2.095L32.931,6.889a3.142,3.142,0,0,0-2.755-3.45Zm-3.181,22.54a1.633,1.633,0,0,1-1.707,1.474H3.99A1.4,1.4,0,0,1,2.553,26.1v-2.99l6.013-4.423a1.862,1.862,0,0,1,2.4.116L15.2,22.529a3.647,3.647,0,0,0,2.289.853,3.529,3.529,0,0,0,1.862-.5l7.642-4.423v7.52Zm0-9.349-8.457,4.927a1.978,1.978,0,0,1-2.289-.194L11.982,17.6a3.453,3.453,0,0,0-4.306-.155L2.555,21.168V10.112A1.566,1.566,0,0,1,3.99,8.444h21.3A1.785,1.785,0,0,1,27,10.112ZM31.38,6.683V6.7l-1.824,15.75a1.319,1.319,0,0,1-.5,1.047c-.155.155-.5.233-.5.31V10.112A3.336,3.336,0,0,0,25.3,6.892H6.745l.349-3.026a1.785,1.785,0,0,1,.582-1.009,1.784,1.784,0,0,1,1.164-.31L29.982,4.991a1.552,1.552,0,0,1,1.4,1.691Z" fill="#35ce92" stroke="#fff" stroke-width="0.7"/>
  </g>
</svg>
