<svg width="32" height="32" viewBox="0 0 32 32" fill="none" xmlns="http://www.w3.org/2000/svg">
<g id="man">
<g id="Groupe 496">
<path id="Trac&#195;&#169; 408" d="M15.9985 20.183C14.9408 20.2845 13.8827 19.9949 13.0335 19.3714C12.9072 19.269 12.7673 19.1837 12.6175 19.1178C11.7751 18.5912 11.0536 17.9001 10.4985 17.088C9.94345 16.2759 9.56688 15.3605 9.39252 14.3994C8.82883 14.173 8.35625 13.7735 8.04654 13.2613C7.73683 12.7492 7.60692 12.1524 7.67652 11.5617C7.63381 11.207 7.67747 10.8475 7.80397 10.5124C7.93047 10.1773 8.13622 9.87608 8.40452 9.63314C8.52021 9.5768 8.6531 9.56391 8.7779 9.59694C8.90269 9.62997 9.01068 9.7066 9.08132 9.81225C9.15196 9.9179 9.18032 10.0452 9.16099 10.1699C9.14167 10.2946 9.07601 10.4081 8.97652 10.4886C8.71652 10.6408 8.66452 10.7423 8.66452 11.6046C8.66452 13.3302 9.75652 13.5331 9.86452 13.5331C9.97183 13.5555 10.0713 13.6047 10.1534 13.6758C10.2354 13.747 10.2971 13.8376 10.3325 13.9389C10.4593 14.8122 10.7696 15.6506 11.244 16.4014C11.7184 17.1522 12.3467 17.7994 13.0895 18.3023C13.2696 18.3924 13.4433 18.4941 13.6095 18.6066C14.2829 19.0909 15.1194 19.3084 15.9505 19.2153C16.7824 19.3179 17.6224 19.0994 18.2915 18.6066C18.4578 18.4941 18.6315 18.3924 18.8115 18.3023C19.5666 17.812 20.2039 17.1683 20.6798 16.4151C21.1557 15.6619 21.4589 14.8172 21.5685 13.9389C21.5953 13.8331 21.6544 13.7376 21.738 13.6652C21.8215 13.5927 21.9256 13.5467 22.0365 13.5331C22.1365 13.5331 23.2365 13.3302 23.2365 11.6046C23.2365 10.7423 22.9245 10.4886 22.9245 10.4886C22.8634 10.4538 22.8112 10.4059 22.7719 10.3485C22.7325 10.2911 22.7071 10.2257 22.6974 10.1573C22.6878 10.0889 22.6942 10.0192 22.7163 9.95361C22.7383 9.88799 22.7753 9.8281 22.8245 9.77848C22.8608 9.71945 22.9101 9.66911 22.969 9.63118C23.0278 9.59325 23.0946 9.56869 23.1645 9.55933C23.2344 9.54996 23.3056 9.55603 23.3727 9.57708C23.4399 9.59813 23.5013 9.63362 23.5525 9.68094C23.8139 9.92887 24.015 10.2308 24.141 10.5646C24.267 10.8983 24.3147 11.2554 24.2805 11.6095C24.351 12.2008 24.2216 12.7985 23.9118 13.3114C23.602 13.8244 23.1289 14.2246 22.5645 14.4511C22.3919 15.4143 22.0147 16.3317 21.4573 17.1444C20.8998 17.9572 20.1744 18.6473 19.3275 19.1704C19.1934 19.2618 19.0545 19.3465 18.9115 19.4241C18.0665 20.0124 17.0318 20.2827 15.9985 20.1849V20.183Z" fill="black"/>
</g>
<g id="Groupe 497">
<path id="Trac&#195;&#169; 409" d="M8.71698 10.6047C8.61668 10.6056 8.51841 10.5771 8.43495 10.5228C8.35149 10.4685 8.28669 10.391 8.24898 10.3003C8.19486 10.1791 8.1918 10.042 8.24045 9.91866C8.2891 9.79527 8.38555 9.69551 8.50898 9.64092C9.86098 9.03222 10.902 7.71239 11.89 5.32831C11.9232 5.25406 11.9732 5.18812 12.0362 5.13541C12.0992 5.0827 12.1737 5.04459 12.254 5.02395C12.3385 4.99777 12.4293 4.99839 12.5134 5.02574C12.5975 5.05308 12.6705 5.10574 12.722 5.17613C14.23 6.54181 16.363 6.24136 17.767 6.03846C18.1117 5.98816 18.4588 5.9556 18.807 5.94091C20.888 5.94091 21.72 7.41194 22.292 8.47717C22.656 9.18732 22.916 9.64775 23.28 9.64775C23.3483 9.64775 23.4159 9.66087 23.479 9.68636C23.5421 9.71185 23.5994 9.74922 23.6477 9.79632C23.696 9.84342 23.7343 9.89934 23.7604 9.96088C23.7865 10.0224 23.8 10.0884 23.8 10.155C23.8 10.2216 23.7865 10.2876 23.7604 10.3491C23.7343 10.4107 23.696 10.4666 23.6477 10.5137C23.5994 10.5608 23.5421 10.5981 23.479 10.6236C23.4159 10.6491 23.3483 10.6623 23.28 10.6623C22.292 10.6623 21.824 9.79992 21.355 8.98832C20.783 7.97382 20.263 7.00906 18.806 7.00906C18.5096 7.02508 18.2145 7.05765 17.922 7.10661C16.57 7.30951 14.333 7.61386 12.564 6.44719C11.524 8.68007 10.379 9.99892 8.92298 10.6583C8.86287 10.6175 8.78997 10.5985 8.71698 10.6047Z" fill="black"/>
</g>
<g id="Groupe 498">
<path id="Trac&#195;&#169; 410" d="M31.4796 31.2158C31.4117 31.2207 31.3435 31.2117 31.2795 31.1892C31.2154 31.1667 31.1569 31.1313 31.1078 31.0853C31.0588 31.0393 31.0202 30.9836 30.9947 30.9221C30.9691 30.8605 30.9572 30.7944 30.9596 30.728C30.9596 28.0259 30.9596 25.8652 26.9026 24.9317C23.5206 24.1913 19.5156 22.7173 19.5156 20.2123V18.195C19.5156 18.0605 19.5704 17.9314 19.6679 17.8363C19.7654 17.7412 19.8977 17.6877 20.0356 17.6877C20.1735 17.6877 20.3058 17.7412 20.4033 17.8363C20.5008 17.9314 20.5556 18.0605 20.5556 18.195V20.2094C20.5556 21.6336 22.9486 23.009 27.1096 23.9913C31.9986 25.0722 31.9986 28.0688 31.9986 30.6714C32.0031 30.7409 31.993 30.8104 31.9691 30.8759C31.9451 30.9415 31.9076 31.0015 31.8591 31.0524C31.8105 31.1034 31.7518 31.1441 31.6866 31.1722C31.6213 31.2003 31.5509 31.2151 31.4796 31.2158Z" fill="black"/>
</g>
<g id="Groupe 499">
<path id="Trac&#195;&#169; 411" d="M0.52 30.7085H0C0 28.0591 0 25.0663 4.889 23.9874C9.05 23.0549 11.443 21.6814 11.443 20.2094V18.195C11.443 18.0605 11.4978 17.9314 11.5953 17.8363C11.6928 17.7412 11.8251 17.6877 11.963 17.6877C12.1009 17.6877 12.2332 17.7412 12.3307 17.8363C12.4282 17.9314 12.483 18.0605 12.483 18.195V20.2064C12.483 22.7086 8.478 24.1806 5.097 24.9161C1.04 25.8486 1.04 28.0064 1.04 30.6558L0.52 30.7085Z" fill="black"/>
</g>
<g id="Groupe 500">
<path id="Trac&#195;&#169; 412" d="M15.8446 27.1568C14.4066 27.1571 12.9843 26.8663 11.6675 26.3028C10.3507 25.7393 9.16813 24.9153 8.19457 23.883C8.14993 23.8395 8.11548 23.7871 8.09358 23.7294C8.07168 23.6717 8.06285 23.6101 8.0677 23.5487C8.07254 23.4873 8.09095 23.4277 8.12165 23.374C8.15236 23.3202 8.19463 23.2736 8.24557 23.2373C8.34827 23.155 8.47924 23.1139 8.61186 23.1224C8.74448 23.131 8.8688 23.1884 8.95957 23.2831C9.83519 24.2132 10.8993 24.9557 12.0845 25.4636C13.2697 25.9716 14.5501 26.2338 15.8446 26.2338C17.1391 26.2338 18.4195 25.9716 19.6047 25.4636C20.7898 24.9557 21.8539 24.2132 22.7296 23.2831C22.8203 23.1884 22.9447 23.131 23.0773 23.1224C23.2099 23.1139 23.3409 23.155 23.4436 23.2373C23.4945 23.2736 23.5368 23.3202 23.5675 23.374C23.5982 23.4277 23.6166 23.4873 23.6214 23.5487C23.6263 23.6101 23.6175 23.6717 23.5956 23.7294C23.5737 23.7871 23.5392 23.8395 23.4946 23.883C22.521 24.9153 21.3384 25.7393 20.0216 26.3028C18.7048 26.8663 17.2825 27.1571 15.8446 27.1568Z" fill="black"/>
</g>
<g id="Groupe 501">
<path id="Trac&#195;&#169; 413" d="M8.56106 10.8077C8.45937 10.8154 8.35795 10.7897 8.27308 10.7345C8.1882 10.6793 8.12481 10.5979 8.09306 10.5033C7.67706 9.43809 7.67706 9.08301 7.67706 6.5965C7.66678 5.67606 7.9192 4.77098 8.40609 3.98248C8.89299 3.19399 9.59515 2.55317 10.4341 2.13171C11.5261 0.659707 13.2431 0.000279544 15.9991 0.000279544C17.2835 -0.00939379 18.5569 0.232076 19.7441 0.710432C20.8597 1.01591 22.0233 1.11906 23.1771 1.01478C23.3075 0.998393 23.4394 1.0313 23.5458 1.10675C23.6521 1.18221 23.7249 1.29449 23.7491 1.42058C23.8886 2.15681 23.7402 2.91731 23.3331 3.55202C23.9585 4.67228 24.2806 5.92964 24.2691 7.2052C24.3304 8.31989 24.1895 9.43637 23.8531 10.5033C23.8005 10.6253 23.7017 10.7227 23.5773 10.7755C23.4529 10.8282 23.3124 10.8321 23.1851 10.7863C23.0578 10.7406 22.9535 10.6487 22.8939 10.5299C22.8343 10.411 22.824 10.2743 22.8651 10.1482C23.171 9.19744 23.2944 8.19971 23.2291 7.2052C23.2399 6.02604 22.916 4.86697 22.2931 3.85637C22.2173 3.76235 22.1761 3.64623 22.1761 3.52665C22.1761 3.40707 22.2173 3.29096 22.2931 3.19694C22.5609 2.8625 22.7072 2.45074 22.7091 2.02636C21.6054 2.05149 20.5032 1.93207 19.4321 1.67128C19.3801 1.67128 19.3801 1.67128 19.3321 1.62056C18.2774 1.19561 17.1439 0.988352 16.0031 1.01186C12.9341 1.01186 11.8941 1.87418 11.2181 2.83894C11.1566 2.93259 11.0652 3.0039 10.9581 3.04184C10.2724 3.35979 9.69584 3.86472 9.29813 4.49556C8.90043 5.1264 8.6986 5.85613 8.71706 6.5965C8.71706 9.03521 8.71706 9.23031 9.08106 10.0975C9.12548 10.2255 9.11789 10.3652 9.05984 10.4879C9.00179 10.6106 8.89772 10.7069 8.76906 10.7569C8.70801 10.7972 8.63435 10.8152 8.56106 10.8077Z" fill="black"/>
</g>
</g>
</svg>
