<svg width="34" height="24" viewBox="0 0 34 24" fill="none" xmlns="http://www.w3.org/2000/svg">
<g id="microwave" clip-path="url(#clip0_321_845)">
<g id="microwave_2">
<g id="Groupe 1234">
<g id="Groupe 1233">
<path id="Trac&#195;&#169; 907" d="M13.0512 7.51873L10.3803 10.1896C10.2831 10.2868 10.2285 10.4186 10.2285 10.556C10.2285 10.6935 10.2831 10.8253 10.3803 10.9225C10.4775 11.0197 10.6093 11.0743 10.7468 11.0743C10.8842 11.0743 11.016 11.0197 11.1132 10.9225L13.7841 8.25165C13.8322 8.20353 13.8704 8.1464 13.8964 8.08352C13.9225 8.02064 13.9359 7.95324 13.9359 7.88518C13.9359 7.81713 13.9225 7.74974 13.8964 7.68686C13.8704 7.62398 13.8322 7.56685 13.7841 7.51873C13.736 7.47061 13.6788 7.43243 13.616 7.40638C13.5531 7.38034 13.4857 7.36694 13.4176 7.36694C13.3496 7.36694 13.2822 7.38034 13.2193 7.40638C13.1564 7.43243 13.0993 7.47061 13.0512 7.51873Z" fill="black" stroke="#F5F5F5" stroke-width="0.2"/>
<path id="Trac&#195;&#169; 908" d="M16.9722 7.09724L11.4242 12.6452C11.3271 12.7424 11.2725 12.8742 11.2725 13.0117C11.2725 13.1491 11.3271 13.281 11.4242 13.3781C11.5214 13.4753 11.6533 13.5299 11.7907 13.5299C11.9282 13.5299 12.06 13.4753 12.1572 13.3781L17.7052 7.83016C17.8024 7.73297 17.857 7.60114 17.857 7.46369C17.857 7.32624 17.8024 7.19443 17.7052 7.09724C17.608 7.00005 17.4762 6.94543 17.3387 6.94543C17.2013 6.94543 17.0694 7.00005 16.9722 7.09724Z" fill="black" stroke="#F5F5F5" stroke-width="0.2"/>
<path id="Trac&#195;&#169; 909" d="M10.0939 14.7081C10.142 14.7563 10.1991 14.7945 10.262 14.8206C10.3249 14.8467 10.3923 14.8601 10.4604 14.8601C10.5284 14.8601 10.5959 14.8467 10.6587 14.8206C10.7216 14.7945 10.7787 14.7563 10.8268 14.7081L11.0113 14.5236C11.0594 14.4756 11.0976 14.4185 11.1237 14.3557C11.1498 14.2929 11.1632 14.2255 11.1632 14.1575C11.1633 14.0895 11.1499 14.0222 11.1239 13.9593C11.098 13.8965 11.0599 13.8393 11.0118 13.7912C10.9637 13.7431 10.9067 13.7049 10.8439 13.6788C10.781 13.6528 10.7137 13.6393 10.6457 13.6393C10.5777 13.6392 10.5103 13.6526 10.4475 13.6786C10.3846 13.7046 10.3275 13.7427 10.2794 13.7907L10.0949 13.9752C10.0466 14.0232 10.0083 14.0803 9.98217 14.1431C9.956 14.206 9.94248 14.2734 9.94238 14.3415C9.94229 14.4095 9.95562 14.4769 9.98162 14.5399C10.0076 14.6028 10.0458 14.66 10.0939 14.7081Z" fill="black" stroke="#F5F5F5" stroke-width="0.2"/>
<path id="Trac&#195;&#169; 910" d="M17.2999 10.2689L13.7573 13.8145C13.6601 13.9116 13.6055 14.0435 13.6055 14.1809C13.6055 14.3184 13.6601 14.4502 13.7573 14.5474C13.8544 14.6446 13.9863 14.6992 14.1237 14.6992C14.2612 14.6992 14.393 14.6446 14.4902 14.5474L18.0358 11.0018C18.133 10.9046 18.1876 10.7728 18.1876 10.6353C18.1876 10.4979 18.133 10.366 18.0358 10.2689C17.9386 10.1717 17.8068 10.1171 17.6693 10.1171C17.5319 10.1171 17.4001 10.1717 17.3029 10.2689H17.2999Z" fill="black" stroke="#F5F5F5" stroke-width="0.2"/>
<path id="Trac&#195;&#169; 911" d="M30.0066 0.099202H24.6957C24.5582 0.099202 24.4264 0.1538 24.3292 0.250982C24.2321 0.348163 24.1775 0.479968 24.1775 0.617404C24.1775 0.75484 24.2321 0.886645 24.3292 0.983827C24.4264 1.08101 24.5582 1.13561 24.6957 1.13561H30.0027C30.4963 1.13613 30.9696 1.3324 31.3188 1.68137C31.6679 2.03034 31.8644 2.50352 31.8652 2.99717V18.7843C31.8647 19.2781 31.6683 19.7515 31.3191 20.1007C30.9699 20.4499 30.4965 20.6463 30.0027 20.6468H2.99758C2.50393 20.646 2.03074 20.4495 1.68178 20.1004C1.33281 19.7512 1.13654 19.2779 1.13602 18.7843V2.99717C1.13549 2.50283 1.33129 2.02853 1.68037 1.67851C2.02946 1.3285 2.50325 1.13144 2.99758 1.13065H22.9968C23.1342 1.13065 23.266 1.07605 23.3632 0.978871C23.4604 0.881689 23.515 0.749877 23.515 0.612441C23.515 0.475005 23.4604 0.3432 23.3632 0.246018C23.266 0.148836 23.1342 0.0942383 22.9968 0.0942383H2.99758C2.22837 0.095027 1.49097 0.401284 0.947524 0.945661C0.404078 1.49004 0.0990837 2.22796 0.0996101 2.99717V18.7843C0.10056 19.5232 0.383376 20.234 0.890374 20.7716C1.39737 21.3092 2.09036 21.6331 2.82799 21.6773V22.553C2.82825 22.9101 2.97023 23.2526 3.22276 23.5051C3.47528 23.7576 3.8177 23.8996 4.17482 23.8999H7.28305C7.64 23.8993 7.98216 23.7572 8.23447 23.5047C8.48678 23.2522 8.62863 22.91 8.62889 22.553V21.6852H24.3753V22.553C24.3756 22.9101 24.5176 23.2526 24.7701 23.5051C25.0226 23.7576 25.365 23.8996 25.7222 23.8999H28.8304C29.1873 23.8993 29.5295 23.7572 29.7818 23.5047C30.0341 23.2522 30.176 22.91 30.1762 22.553V21.6793C30.9142 21.635 31.6075 21.3108 32.1145 20.7728C32.6216 20.2348 32.9042 19.5236 32.9046 18.7843V2.99717C32.9038 2.22882 32.5982 1.49217 32.0549 0.948869C31.5116 0.405565 30.775 0.0999897 30.0066 0.099202ZM7.59347 22.553C7.59321 22.6353 7.56042 22.7141 7.50226 22.7722C7.4441 22.8304 7.3653 22.8632 7.28305 22.8634H4.17482C4.09326 22.8621 4.01547 22.8289 3.95816 22.7709C3.90085 22.7128 3.86861 22.6346 3.86836 22.553V21.6852H7.59744V22.553H7.59347ZM28.8294 22.8634H25.7222C25.6399 22.8632 25.5611 22.8304 25.5029 22.7722C25.4448 22.7141 25.412 22.6353 25.4117 22.553V21.6852H29.1408V22.553C29.1409 22.594 29.133 22.6346 29.1174 22.6725C29.1018 22.7104 29.0789 22.7448 29.0499 22.7739C29.021 22.8029 28.9866 22.8259 28.9488 22.8416C28.9109 22.8573 28.8704 22.8654 28.8294 22.8654V22.8634Z" fill="black" stroke="#F5F5F5" stroke-width="0.2"/>
<path id="Trac&#195;&#169; 912" d="M8.9654 18.6524C8.9654 18.7897 9.01994 18.9214 9.11703 19.0185C9.21412 19.1155 9.3458 19.1701 9.48311 19.1701H23.9263C24.2833 19.1696 24.6255 19.0275 24.8778 18.775C25.1301 18.5225 25.2719 18.1802 25.2722 17.8233V3.93839C25.2719 3.58127 25.1299 3.23884 24.8774 2.98632C24.6249 2.7338 24.2825 2.59182 23.9254 2.59155H4.03726C3.68014 2.59182 3.33772 2.7338 3.0852 2.98632C2.83267 3.23884 2.69069 3.58127 2.69043 3.93839V17.8233C2.69069 18.1804 2.83267 18.5228 3.0852 18.7753C3.33772 19.0278 3.68014 19.1698 4.03726 19.1701H7.82585C7.96329 19.1701 8.09509 19.1155 8.19227 19.0183C8.28945 18.9211 8.34405 18.7893 8.34405 18.6519C8.34405 18.5144 8.28945 18.3826 8.19227 18.2855C8.09509 18.1883 7.96329 18.1337 7.82585 18.1337H4.03726C3.95501 18.1334 3.87621 18.1006 3.81805 18.0425C3.75989 17.9843 3.7271 17.9055 3.72684 17.8233V3.93839C3.7271 3.85614 3.75989 3.77733 3.81805 3.71917C3.87621 3.66101 3.95501 3.62822 4.03726 3.62796H23.9263C24.0086 3.62822 24.0874 3.66101 24.1456 3.71917C24.2037 3.77733 24.2365 3.85614 24.2368 3.93839V17.8233C24.2365 17.9055 24.2037 17.9843 24.1456 18.0425C24.0874 18.1006 24.0086 18.1334 23.9263 18.1337H9.48311C9.41504 18.1337 9.34764 18.1471 9.28476 18.1732C9.22189 18.1993 9.16477 18.2375 9.11668 18.2857C9.0686 18.3338 9.03048 18.391 9.00452 18.454C8.97856 18.5169 8.96527 18.5843 8.9654 18.6524Z" fill="black" stroke="#F5F5F5" stroke-width="0.2"/>
<path id="Trac&#195;&#169; 913" d="M28.5575 6.78176C28.9716 6.78176 29.3764 6.65897 29.7207 6.42892C30.065 6.19887 30.3333 5.87189 30.4918 5.48932C30.6502 5.10676 30.6917 4.6858 30.6109 4.27967C30.5302 3.87355 30.3308 3.5005 30.038 3.2077C29.7452 2.9149 29.3721 2.7155 28.966 2.63471C28.5599 2.55393 28.1389 2.59539 27.7563 2.75385C27.3737 2.91231 27.0468 3.18066 26.8167 3.52496C26.5867 3.86926 26.4639 4.27404 26.4639 4.68812C26.4644 5.24323 26.6852 5.77545 27.0777 6.16797C27.4702 6.56049 28.0024 6.78124 28.5575 6.78176ZM28.5575 3.63089C28.7666 3.63089 28.971 3.69289 29.1449 3.80907C29.3187 3.92524 29.4542 4.09035 29.5343 4.28353C29.6143 4.47672 29.6352 4.6893 29.5944 4.89438C29.5536 5.09946 29.4529 5.28784 29.3051 5.4357C29.1572 5.58356 28.9689 5.68425 28.7638 5.72504C28.5587 5.76583 28.3461 5.7449 28.1529 5.66488C27.9597 5.58486 27.7946 5.44935 27.6785 5.27549C27.5623 5.10163 27.5003 4.89722 27.5003 4.68812C27.5008 4.40798 27.6124 4.13947 27.8106 3.94147C28.0088 3.74348 28.2774 3.63115 28.5575 3.63089Z" fill="black" stroke="#F5F5F5" stroke-width="0.2"/>
<path id="Trac&#195;&#169; 914" d="M28.5575 11.8389C28.9716 11.8389 29.3764 11.7161 29.7207 11.486C30.065 11.256 30.3333 10.929 30.4918 10.5465C30.6502 10.1639 30.6917 9.74293 30.6109 9.3368C30.5302 8.93067 30.3308 8.55763 30.038 8.26483C29.7452 7.97203 29.3721 7.77262 28.966 7.69184C28.5599 7.61106 28.1389 7.65252 27.7563 7.81098C27.3737 7.96945 27.0468 8.23779 26.8167 8.58209C26.5867 8.92638 26.4639 9.33117 26.4639 9.74525C26.4644 10.3004 26.6852 10.8326 27.0777 11.2251C27.4702 11.6176 28.0024 11.8384 28.5575 11.8389ZM28.5575 8.68802C28.7666 8.68802 28.971 8.75003 29.1449 8.8662C29.3187 8.98237 29.4542 9.14749 29.5343 9.34067C29.6143 9.53386 29.6352 9.74643 29.5944 9.95152C29.5536 10.1566 29.4529 10.345 29.3051 10.4928C29.1572 10.6407 28.9689 10.7414 28.7638 10.7822C28.5587 10.823 28.3461 10.802 28.1529 10.722C27.9597 10.642 27.7946 10.5065 27.6785 10.3326C27.5623 10.1588 27.5003 9.95435 27.5003 9.74525C27.4999 9.60611 27.5269 9.46827 27.5799 9.3396C27.6328 9.21093 27.7106 9.09398 27.8088 8.99541C27.907 8.89684 28.0237 8.81859 28.1522 8.76517C28.2806 8.71174 28.4184 8.68419 28.5575 8.68406V8.68802Z" fill="black" stroke="#F5F5F5" stroke-width="0.2"/>
<path id="Trac&#195;&#169; 915" d="M26.8307 18.4114H30.2841C30.4215 18.4114 30.5533 18.3568 30.6505 18.2596C30.7477 18.1625 30.8023 18.0306 30.8023 17.8932C30.8023 17.7558 30.7477 17.624 30.6505 17.5268C30.5533 17.4296 30.4215 17.375 30.2841 17.375H26.8307C26.6933 17.375 26.5615 17.4296 26.4643 17.5268C26.3671 17.624 26.3125 17.7558 26.3125 17.8932C26.3125 18.0306 26.3671 18.1625 26.4643 18.2596C26.5615 18.3568 26.6933 18.4114 26.8307 18.4114Z" fill="black" stroke="#F5F5F5" stroke-width="0.2"/>
<path id="Trac&#195;&#169; 916" d="M26.8312 16.292H30.2845C30.4219 16.292 30.5535 16.2374 30.6506 16.1403C30.7477 16.0433 30.8023 15.9116 30.8023 15.7743C30.8023 15.637 30.7477 15.5053 30.6506 15.4082C30.5535 15.3111 30.4219 15.2566 30.2845 15.2566H26.8312C26.6939 15.2566 26.5622 15.3111 26.4651 15.4082C26.368 15.5053 26.3135 15.637 26.3135 15.7743C26.3135 15.9116 26.368 16.0433 26.4651 16.1403C26.5622 16.2374 26.6939 16.292 26.8312 16.292Z" fill="black" stroke="#F5F5F5" stroke-width="0.2"/>
<path id="Trac&#195;&#169; 917" d="M26.8307 14.1725H30.2841C30.4215 14.1725 30.5533 14.1179 30.6505 14.0207C30.7477 13.9236 30.8023 13.7918 30.8023 13.6543C30.8023 13.5169 30.7477 13.3851 30.6505 13.2879C30.5533 13.1907 30.4215 13.1361 30.2841 13.1361H26.8307C26.6933 13.1361 26.5615 13.1907 26.4643 13.2879C26.3671 13.3851 26.3125 13.5169 26.3125 13.6543C26.3125 13.7918 26.3671 13.9236 26.4643 14.0207C26.5615 14.1179 26.6933 14.1725 26.8307 14.1725Z" fill="black" stroke="#F5F5F5" stroke-width="0.2"/>
</g>
</g>
</g>
</g>
<defs>
<clipPath id="clip0_321_845">
<rect width="33.0033" height="24" fill="white"/>
</clipPath>
</defs>
</svg>
