<svg width="24" height="24" viewBox="0 0 24 24" fill="none" xmlns="http://www.w3.org/2000/svg">
<g id="pillow" clip-path="url(#clip0_321_741)">
<g id="pillow_2">
<path id="Trac&#195;&#169; 964" d="M24.0005 17.004C23.9999 16.4709 23.8354 15.951 23.5293 15.5145C23.2233 15.0781 22.7905 14.7463 22.2895 14.564C22.3843 14.1387 22.3869 13.6981 22.2972 13.2717C22.2075 12.8453 22.0276 12.4431 21.7695 12.092C22.1965 10.6345 22.409 9.12268 22.4005 7.60399C22.4096 6.08573 22.1977 4.57424 21.7715 3.11699C22.4885 1.77499 22.5925 0.834988 22.0805 0.324988C21.3925 -0.365012 20.0265 0.191988 18.9455 0.824988C16.6752 0.255345 14.3411 -0.020575 12.0005 0.00398824C9.66 -0.0209019 7.32593 0.254682 5.05555 0.823988C3.97355 0.187988 2.60655 -0.368012 1.91955 0.321988C1.40755 0.831988 1.51155 1.77199 2.22855 3.11399C1.80245 4.57225 1.5909 6.08478 1.60055 7.60399C1.59152 9.12224 1.8034 10.6337 2.22955 12.091C1.51255 13.433 1.40855 14.373 1.92055 14.883C2.02628 14.9873 2.1536 15.0672 2.29355 15.117C1.40087 15.6623 0.71099 16.4845 0.329074 17.4583C-0.0528428 18.4321 -0.105842 19.5041 0.178157 20.5108C0.462156 21.5176 1.06757 22.4038 1.90211 23.0345C2.73664 23.6652 3.75452 24.0056 4.80055 24.004H21.4005C21.9642 24.0036 22.5125 23.8201 22.9628 23.4811C23.413 23.1421 23.741 22.6659 23.8971 22.1243C24.0533 21.5827 24.0292 21.0051 23.8286 20.4783C23.6279 19.9516 23.2615 19.5044 22.7845 19.204C23.1567 18.97 23.4634 18.6454 23.6761 18.2607C23.8887 17.876 24.0004 17.4436 24.0005 17.004ZM3.01355 2.88299C2.38955 1.76099 2.29755 1.07199 2.48355 0.882988C2.69155 0.678988 3.50055 0.813988 4.79055 1.59599C4.83819 1.6245 4.89124 1.64278 4.94634 1.64967C5.00143 1.65655 5.05735 1.65189 5.11055 1.63599C6.38904 1.283 7.69773 1.05032 9.01955 0.940988C8.48965 1.19073 8.01854 1.5497 7.63715 1.99434C7.25576 2.43898 6.9727 2.95924 6.80655 3.52099C6.79603 3.57247 6.79576 3.62551 6.80575 3.6771C6.81574 3.72868 6.83579 3.77779 6.86476 3.82162C6.89374 3.86546 6.93106 3.90315 6.97461 3.93255C7.01815 3.96196 7.06706 3.98249 7.11855 3.99299C7.1454 3.99964 7.17289 4.00332 7.20055 4.00399C7.29276 4.00401 7.38214 3.97217 7.45358 3.91385C7.52501 3.85554 7.5741 3.77434 7.59255 3.68399C7.93755 1.94899 10.8935 0.803988 12.0005 0.803988C14.3229 0.774395 16.6388 1.05555 18.8865 1.63999C18.9397 1.65589 18.9957 1.66055 19.0508 1.65367C19.1058 1.64678 19.1589 1.6285 19.2065 1.59999C20.4965 0.817988 21.3065 0.683988 21.5135 0.890988C21.6995 1.07699 21.6075 1.76699 20.9835 2.89099C20.9556 2.94101 20.9387 2.99645 20.9341 3.05355C20.9294 3.11066 20.9371 3.1681 20.9565 3.22199C21.4054 4.63853 21.6229 6.1182 21.6005 7.60399C21.6247 9.09123 21.4086 10.5726 20.9605 11.991C20.9411 12.0449 20.9334 12.1023 20.9381 12.1594C20.9427 12.2165 20.9596 12.272 20.9875 12.322C21.6115 13.442 21.7035 14.133 21.5175 14.322C21.4453 14.3803 21.3543 14.4105 21.2615 14.407H21.2205C20.4946 14.3102 19.8033 14.0376 19.2065 13.613C19.145 13.5732 19.0738 13.5511 19.0005 13.549C18.962 13.5489 18.9236 13.5543 18.8865 13.565C17.608 13.9176 16.2993 14.15 14.9775 14.259C15.5079 14.0099 15.9794 13.6513 16.361 13.2068C16.7426 12.7623 17.0257 12.2419 17.1915 11.68C17.2038 11.6278 17.2054 11.5736 17.1963 11.5208C17.1873 11.4679 17.1676 11.4174 17.1386 11.3723C17.1096 11.3272 17.0718 11.2883 17.0275 11.2581C16.9832 11.2279 16.9333 11.2069 16.8807 11.1964C16.8281 11.1858 16.7739 11.186 16.7214 11.1968C16.6688 11.2076 16.619 11.2289 16.5749 11.2594C16.5307 11.2899 16.4932 11.3289 16.4644 11.3742C16.4357 11.4195 16.4163 11.4701 16.4075 11.523C16.0595 13.254 13.1005 14.404 12.0005 14.404C9.67821 14.4336 7.36234 14.1524 5.11455 13.568C5.06135 13.5521 5.00543 13.5474 4.95034 13.5543C4.89524 13.5612 4.84219 13.5795 4.79455 13.608C3.50255 14.391 2.69455 14.524 2.48655 14.319C2.30055 14.133 2.39255 13.443 3.01655 12.319C3.04449 12.269 3.06136 12.2135 3.06602 12.1564C3.07068 12.0993 3.06301 12.0419 3.04355 11.988C2.59482 10.5707 2.3777 9.09039 2.40055 7.60399C2.3764 6.11674 2.59252 4.63535 3.04055 3.21699C3.06047 3.16268 3.06837 3.10469 3.06371 3.04702C3.05904 2.98936 3.04193 2.9334 3.01355 2.88299ZM18.9785 14.404H18.8675L18.9435 14.384L18.9785 14.404ZM5.13055 14.404H5.01955L5.05355 14.384L5.13055 14.404ZM21.4005 18.804H6.00055C5.89446 18.804 5.79272 18.8461 5.7177 18.9211C5.64269 18.9962 5.60055 19.0979 5.60055 19.204C5.60055 19.3101 5.64269 19.4118 5.7177 19.4868C5.79272 19.5618 5.89446 19.604 6.00055 19.604H21.4005C21.8779 19.604 22.3358 19.7936 22.6733 20.1312C23.0109 20.4688 23.2005 20.9266 23.2005 21.404C23.2005 21.8814 23.0109 22.3392 22.6733 22.6768C22.3358 23.0143 21.8779 23.204 21.4005 23.204H4.80055C3.73968 23.204 2.72226 22.7826 1.97212 22.0324C1.22197 21.2823 0.800545 20.2649 0.800545 19.204C0.800545 18.1431 1.22197 17.1257 1.97212 16.3756C2.72226 15.6254 3.73968 15.204 4.80055 15.204H21.4005C21.8779 15.204 22.3358 15.3936 22.6733 15.7312C23.0109 16.0688 23.2005 16.5266 23.2005 17.004C23.2005 17.4814 23.0109 17.9392 22.6733 18.2768C22.3358 18.6143 21.8779 18.804 21.4005 18.804Z" fill="black"/>
<path id="Trac&#195;&#169; 965" d="M4.39922 18.8H3.59922C3.49313 18.8 3.39139 18.8422 3.31638 18.9172C3.24136 18.9922 3.19922 19.094 3.19922 19.2001C3.19922 19.3061 3.24136 19.4079 3.31638 19.4829C3.39139 19.5579 3.49313 19.6 3.59922 19.6H4.39922C4.50531 19.6 4.60705 19.5579 4.68206 19.4829C4.75708 19.4079 4.79922 19.3061 4.79922 19.2001C4.79922 19.094 4.75708 18.9922 4.68206 18.9172C4.60705 18.8422 4.50531 18.8 4.39922 18.8Z" fill="black"/>
</g>
</g>
<defs>
<clipPath id="clip0_321_741">
<rect width="23.999" height="24" fill="white"/>
</clipPath>
</defs>
</svg>
