<svg width="22" height="24" viewBox="0 0 22 24" fill="none" xmlns="http://www.w3.org/2000/svg">
<g id="shower" clip-path="url(#clip0_321_828)">
<g id="shower_2">
<path id="Trac&#195;&#169; 918" d="M7.09408 12.645L16.6923 8.22303C16.9971 8.07964 17.2409 7.83029 17.3793 7.52037C17.5176 7.21045 17.5414 6.86057 17.4462 6.53443C17.3509 6.20829 17.1431 5.92759 16.8605 5.74343C16.5779 5.55926 16.2393 5.48389 15.9063 5.53103C15.4034 4.45838 14.5633 3.58458 13.5172 3.0463C12.4712 2.50801 11.2783 2.3356 10.1251 2.55603C9.4827 1.5463 8.53457 0.773919 7.42237 0.354295C6.31017 -0.0653283 5.09359 -0.109671 3.95442 0.227892C2.81524 0.565455 1.81462 1.2668 1.10205 2.22715C0.389482 3.18749 0.00321998 4.35528 0.000976562 5.55603V23.6C0.000976562 23.7061 0.0426399 23.8079 0.116798 23.8829C0.190957 23.9579 0.291537 24 0.396413 24C0.501288 24 0.601869 23.9579 0.676027 23.8829C0.750185 23.8079 0.791847 23.7061 0.791847 23.6V5.55603C0.796385 4.55222 1.11381 3.57542 1.69895 2.76467C2.28409 1.95392 3.10712 1.35051 4.05092 1.04033C4.99473 0.730146 6.0112 0.728992 6.95569 1.03703C7.90017 1.34507 8.72455 1.9466 9.31148 2.75603C8.79626 2.9197 8.30338 3.14815 7.84442 3.43603C7.41928 2.95668 6.86045 2.619 6.24167 2.46756C5.62289 2.31613 4.97326 2.35805 4.37852 2.58779C3.78378 2.81754 3.27189 3.22431 2.91041 3.75442C2.54893 4.28452 2.35486 4.91305 2.35381 5.55703V23.6C2.35381 23.7061 2.39547 23.8079 2.46963 23.8829C2.54379 23.9579 2.64437 24 2.74925 24C2.85412 24 2.9547 23.9579 3.02886 23.8829C3.10302 23.8079 3.14468 23.7061 3.14468 23.6V5.55603C3.1466 5.08172 3.28812 4.61873 3.55118 4.2261C3.81424 3.83346 4.18694 3.52896 4.62175 3.35142C5.05656 3.17388 5.53379 3.13134 5.99259 3.22922C6.4514 3.32711 6.87099 3.56098 7.19789 3.90103C6.27195 4.63563 5.61321 5.66032 5.32499 6.81441C5.03676 7.9685 5.13534 9.18672 5.60527 10.278C5.34971 10.5003 5.18189 10.8083 5.13255 11.1456C5.08321 11.4829 5.15566 11.8269 5.33663 12.1145C5.51759 12.4021 5.79496 12.6142 6.11791 12.7118C6.44086 12.8094 6.78776 12.7861 7.09507 12.646L7.09408 12.645ZM6.26169 10.8C6.30913 10.7784 6.35188 10.7476 6.3875 10.7092C6.42313 10.6708 6.45092 10.6258 6.46928 10.5765C6.48765 10.5273 6.49623 10.4749 6.49454 10.4223C6.49284 10.3697 6.48091 10.3179 6.45941 10.27C3.84164 4.44703 12.3118 0.410027 15.1639 5.82203L7.37979 9.40803C7.28715 9.45369 7.21579 9.53412 7.18091 9.63221C7.14602 9.73029 7.15037 9.83828 7.19302 9.93317C7.23567 10.0281 7.31326 10.1024 7.40926 10.1403C7.50526 10.1781 7.61209 10.1766 7.70701 10.136L15.8628 6.37903C15.9356 6.34574 16.0141 6.32727 16.094 6.32468C16.1738 6.32209 16.2533 6.33543 16.3281 6.36394C16.4028 6.39245 16.4712 6.43557 16.5295 6.49083C16.5877 6.54609 16.6346 6.61242 16.6676 6.68603C16.7005 6.75963 16.7187 6.83908 16.7213 6.91982C16.7238 7.00056 16.7106 7.08102 16.6825 7.15661C16.6543 7.2322 16.6117 7.30143 16.557 7.36035C16.5024 7.41928 16.4368 7.46674 16.3641 7.50003L6.76587 11.922C6.61878 11.9897 6.45116 11.9954 6.29988 11.938C6.1486 11.8806 6.02604 11.7648 5.95919 11.616C5.89233 11.4672 5.88664 11.2977 5.94337 11.1447C6.0001 10.9916 6.11461 10.8677 6.26169 10.8Z" fill="black"/>
<path id="Trac&#195;&#169; 919" d="M13.2335 13.122L12.8648 12.138C12.8276 12.0386 12.7528 11.9581 12.6569 11.9144C12.5611 11.8707 12.452 11.8674 12.3537 11.905C12.2554 11.9427 12.1759 12.0183 12.1327 12.1153C12.0895 12.2122 12.0861 12.3226 12.1233 12.422L12.4921 13.406C12.5105 13.4553 12.5383 13.5003 12.574 13.5387C12.6097 13.5771 12.6525 13.608 12.6999 13.6296C12.7474 13.6512 12.7986 13.6632 12.8506 13.6648C12.9027 13.6664 12.9545 13.6577 13.0032 13.639C13.0519 13.6204 13.0965 13.5922 13.1344 13.5561C13.1723 13.5201 13.2028 13.4768 13.2242 13.4288C13.2456 13.3808 13.2574 13.329 13.259 13.2763C13.2606 13.2237 13.2519 13.1713 13.2335 13.122Z" fill="black"/>
<path id="Trac&#195;&#169; 920" d="M16.0335 20.597L15.3316 18.721C15.2943 18.6216 15.2196 18.5411 15.1237 18.4974C15.0279 18.4538 14.9188 18.4504 14.8205 18.488C14.7222 18.5257 14.6427 18.6013 14.5995 18.6983C14.5563 18.7952 14.5529 18.9056 14.5901 19.005L15.2921 20.881C15.3105 20.9303 15.3383 20.9754 15.374 21.0137C15.4097 21.0521 15.4524 21.083 15.4999 21.1046C15.5474 21.1262 15.5986 21.1382 15.6506 21.1398C15.7026 21.1414 15.7545 21.1327 15.8032 21.114C15.8518 21.0954 15.8964 21.0672 15.9343 21.0311C15.9723 20.9951 16.0028 20.9518 16.0242 20.9038C16.0456 20.8558 16.0574 20.804 16.059 20.7513C16.0606 20.6987 16.0519 20.6462 16.0335 20.597Z" fill="black"/>
<path id="Trac&#195;&#169; 921" d="M14.635 16.864L13.9331 14.988C13.9147 14.9387 13.8869 14.8937 13.8512 14.8553C13.8155 14.8169 13.7728 14.786 13.7253 14.7644C13.6778 14.7428 13.6266 14.7308 13.5746 14.7292C13.5225 14.7276 13.4707 14.7363 13.422 14.755C13.3734 14.7736 13.3288 14.8018 13.2909 14.8379C13.2529 14.8739 13.2224 14.9172 13.201 14.9652C13.1796 15.0132 13.1678 15.065 13.1662 15.1177C13.1646 15.1703 13.1733 15.2227 13.1917 15.272L13.8936 17.148C13.912 17.1972 13.9399 17.2423 13.9755 17.2807C14.0112 17.319 14.054 17.3499 14.1014 17.3716C14.1489 17.3932 14.2001 17.4052 14.2521 17.4068C14.3042 17.4084 14.356 17.3996 14.4047 17.381C14.4534 17.3623 14.4979 17.3342 14.5359 17.2981C14.5738 17.262 14.6043 17.2187 14.6257 17.1707C14.6471 17.1227 14.6589 17.0709 14.6605 17.0183C14.6621 16.9657 14.6535 16.9132 14.635 16.864Z" fill="black"/>
<path id="Trac&#195;&#169; 922" d="M16.7339 22.473C16.7155 22.4238 16.6876 22.3786 16.652 22.3403C16.6163 22.3019 16.5735 22.2711 16.5261 22.2494C16.4786 22.2278 16.4274 22.2158 16.3754 22.2142C16.3234 22.2126 16.2715 22.2213 16.2228 22.24C16.1741 22.2586 16.1296 22.2868 16.0916 22.3229C16.0537 22.359 16.0232 22.4022 16.0018 22.4502C15.9804 22.4982 15.9686 22.55 15.967 22.6027C15.9654 22.6553 15.9741 22.7077 15.9925 22.757L16.3612 23.741C16.3797 23.7902 16.4075 23.8353 16.4432 23.8737C16.4788 23.9121 16.5216 23.9429 16.5691 23.9646C16.6165 23.9862 16.6677 23.9982 16.7198 23.9998C16.7718 24.0014 16.8236 23.9926 16.8723 23.974C16.921 23.9553 16.9656 23.9272 17.0035 23.8911C17.0414 23.855 17.072 23.8117 17.0934 23.7637C17.1147 23.7157 17.1266 23.6639 17.1282 23.6113C17.1298 23.5587 17.1211 23.5062 17.1027 23.457L16.7339 22.473Z" fill="black"/>
<path id="Trac&#195;&#169; 923" d="M10.265 14.5341L10.0949 13.4951C10.0864 13.4431 10.0679 13.3934 10.0404 13.3487C10.0129 13.304 9.97693 13.2652 9.93461 13.2346C9.89229 13.2039 9.84441 13.182 9.79372 13.1701C9.74303 13.1582 9.69052 13.1565 9.63918 13.1651C9.58783 13.1737 9.53866 13.1924 9.49447 13.2202C9.45029 13.2481 9.41196 13.2844 9.38167 13.3272C9.35138 13.37 9.32972 13.4184 9.31792 13.4697C9.30613 13.521 9.30444 13.5741 9.31294 13.6261L9.48298 14.6651C9.50015 14.7699 9.55782 14.8636 9.64328 14.9255C9.6856 14.9562 9.73347 14.9781 9.78416 14.99C9.83485 15.002 9.88737 15.0037 9.93872 14.9951C9.99006 14.9865 10.0392 14.9677 10.0834 14.9399C10.1276 14.9121 10.1659 14.8757 10.1962 14.8329C10.2265 14.7901 10.2482 14.7417 10.26 14.6904C10.2718 14.6391 10.2735 14.586 10.265 14.5341Z" fill="black"/>
<path id="Trac&#195;&#169; 924" d="M11.0705 19.468L10.6672 16.996C10.65 16.8911 10.5923 16.7974 10.5069 16.7356C10.4214 16.6737 10.3151 16.6487 10.2114 16.666C10.1077 16.6834 10.0151 16.7418 9.95394 16.8282C9.89276 16.9147 9.86804 17.0221 9.88521 17.127L10.2885 19.599C10.297 19.651 10.3156 19.7007 10.3431 19.7454C10.3706 19.7901 10.4065 19.8289 10.4488 19.8595C10.4912 19.8902 10.539 19.9121 10.5897 19.924C10.6404 19.9359 10.6929 19.9376 10.7443 19.929C10.7956 19.9204 10.8448 19.9017 10.889 19.8739C10.9332 19.846 10.9715 19.8097 11.0018 19.7669C11.0321 19.7241 11.0537 19.6757 11.0655 19.6244C11.0773 19.5731 11.079 19.52 11.0705 19.468Z" fill="black"/>
<path id="Trac&#195;&#169; 925" d="M11.4719 21.928C11.4634 21.8761 11.4448 21.8264 11.4173 21.7817C11.3898 21.737 11.3539 21.6982 11.3116 21.6676C11.2692 21.6369 11.2214 21.615 11.1707 21.6031C11.12 21.5911 11.0675 21.5894 11.0161 21.598C10.9648 21.6066 10.9156 21.6254 10.8714 21.6532C10.8273 21.681 10.7889 21.7174 10.7586 21.7602C10.7283 21.803 10.7067 21.8514 10.6949 21.9027C10.6831 21.954 10.6814 22.0071 10.6899 22.059L10.8599 23.098C10.8684 23.15 10.887 23.1997 10.9145 23.2444C10.942 23.2891 10.9779 23.3279 11.0202 23.3585C11.0626 23.3892 11.1104 23.4111 11.1611 23.423C11.2118 23.4349 11.2643 23.4366 11.3157 23.428C11.367 23.4194 11.4162 23.4007 11.4604 23.3729C11.5045 23.345 11.5429 23.3087 11.5732 23.2659C11.6035 23.2231 11.6251 23.1746 11.6369 23.1234C11.6487 23.0721 11.6504 23.019 11.6419 22.967L11.4719 21.928Z" fill="black"/>
<path id="Trac&#195;&#169; 926" d="M7.04503 14.397C6.993 14.394 6.9409 14.4015 6.89174 14.419C6.84257 14.4364 6.79731 14.4636 6.75854 14.4988C6.71977 14.534 6.68828 14.5766 6.66585 14.6242C6.64342 14.6718 6.6305 14.7234 6.62785 14.776L6.52108 16.776C6.51544 16.8821 6.5517 16.9861 6.62187 17.0651C6.69205 17.1442 6.79038 17.1918 6.89525 17.1975C7.00013 17.2032 7.10295 17.1665 7.18109 17.0955C7.25924 17.0246 7.30631 16.9251 7.31195 16.819L7.41872 14.819C7.42166 14.7665 7.41431 14.7138 7.3971 14.6642C7.3799 14.6145 7.35317 14.5688 7.31845 14.5296C7.28374 14.4904 7.24172 14.4585 7.1948 14.4357C7.14788 14.413 7.09698 14.3998 7.04503 14.397Z" fill="black"/>
<path id="Trac&#195;&#169; 927" d="M6.80772 18.827C6.7557 18.8241 6.70361 18.8316 6.65445 18.849C6.60528 18.8665 6.56 18.8936 6.52124 18.9288C6.48247 18.964 6.45097 19.0067 6.42854 19.0543C6.40611 19.1018 6.3932 19.1534 6.39054 19.206L6.28377 21.206C6.28098 21.2586 6.28844 21.3112 6.30574 21.3608C6.32303 21.4104 6.34982 21.4561 6.38457 21.4952C6.41932 21.5343 6.46134 21.5662 6.50825 21.5889C6.55516 21.6116 6.60602 21.6247 6.65795 21.6276C6.70988 21.6304 6.76185 21.6228 6.81089 21.6053C6.85994 21.5878 6.90509 21.5607 6.94379 21.5256C6.98248 21.4905 7.01396 21.448 7.03641 21.4005C7.05886 21.3531 7.07186 21.3016 7.07465 21.249L7.18142 19.249C7.18435 19.1965 7.177 19.1439 7.1598 19.0942C7.14259 19.0446 7.11586 18.9988 7.08115 18.9596C7.04643 18.9204 7.00442 18.8885 6.9575 18.8658C6.91058 18.843 6.85968 18.8299 6.80772 18.827Z" fill="black"/>
<path id="Trac&#195;&#169; 928" d="M15.1409 10.628C15.0981 10.658 15.0616 10.6963 15.0335 10.7406C15.0053 10.7849 14.9861 10.8344 14.9769 10.8863C14.9677 10.9381 14.9687 10.9913 14.9799 11.0427C14.9911 11.0942 15.0122 11.1429 15.0421 11.186L15.6352 12.052C15.695 12.1395 15.7867 12.1995 15.8902 12.2186C15.9936 12.2377 16.1003 12.2145 16.1868 12.154C16.2734 12.0936 16.3326 12.0008 16.3515 11.8962C16.3704 11.7915 16.3475 11.6835 16.2877 11.596L15.6945 10.73C15.665 10.6863 15.6272 10.6489 15.5833 10.6201C15.5394 10.5913 15.4903 10.5715 15.4388 10.562C15.3873 10.5525 15.3345 10.5535 15.2833 10.5648C15.2322 10.5761 15.1838 10.5976 15.1409 10.628Z" fill="black"/>
<path id="Trac&#195;&#169; 929" d="M17.7286 13.719C17.699 13.6757 17.6613 13.6387 17.6175 13.6101C17.5738 13.5815 17.5249 13.5619 17.4737 13.5524C17.3703 13.5333 17.2635 13.5565 17.177 13.617C17.0905 13.6775 17.0312 13.7702 17.0123 13.8749C16.9934 13.9795 17.0164 14.0875 17.0762 14.175L18.5343 16.309C18.5639 16.3523 18.6017 16.3894 18.6454 16.4179C18.6892 16.4465 18.738 16.4661 18.7893 16.4756C18.8405 16.485 18.893 16.4842 18.9439 16.4732C18.9948 16.4621 19.0431 16.441 19.0859 16.411C19.1288 16.3811 19.1654 16.3429 19.1936 16.2986C19.2219 16.2544 19.2412 16.205 19.2506 16.1531C19.26 16.1013 19.2591 16.0481 19.2482 15.9967C19.2372 15.9452 19.2164 15.8963 19.1868 15.853L17.7286 13.719Z" fill="black"/>
<path id="Trac&#195;&#169; 930" d="M20.6456 17.9711C20.5858 17.8836 20.4941 17.8236 20.3907 17.8045C20.2872 17.7854 20.1805 17.8086 20.094 17.8691C20.0075 17.9296 19.9482 18.0223 19.9293 18.127C19.9104 18.2316 19.9334 18.3396 19.9932 18.4271L20.5863 19.2931C20.6159 19.3364 20.6537 19.3734 20.6974 19.402C20.7411 19.4306 20.79 19.4502 20.8412 19.4597C20.8925 19.4691 20.945 19.4683 20.9959 19.4572C21.0469 19.4461 21.0951 19.425 21.1379 19.3951C21.1808 19.3651 21.2174 19.327 21.2456 19.2827C21.2739 19.2385 21.2932 19.189 21.3026 19.1372C21.312 19.0854 21.3112 19.0322 21.3002 18.9807C21.2893 18.9292 21.2684 18.8804 21.2388 18.8371L20.6456 17.9711Z" fill="black"/>
<path id="Trac&#195;&#169; 931" d="M19.4353 9.93099L18.6355 9.25799C18.5955 9.22431 18.5493 9.19893 18.4995 9.18331C18.4498 9.1677 18.3975 9.16214 18.3456 9.16697C18.2937 9.1718 18.2433 9.18693 18.1972 9.21147C18.1512 9.236 18.1103 9.26948 18.077 9.30999C18.0437 9.3505 18.0186 9.39726 18.0032 9.44758C17.9877 9.4979 17.9822 9.5508 17.987 9.60327C17.9918 9.65573 18.0068 9.70673 18.031 9.75335C18.0553 9.79998 18.0883 9.84131 18.1284 9.87499L18.9282 10.548C18.9682 10.5817 19.0144 10.6071 19.0642 10.6227C19.1139 10.6383 19.1662 10.6438 19.2181 10.639C19.27 10.6342 19.3204 10.6191 19.3665 10.5945C19.4126 10.57 19.4534 10.5365 19.4867 10.496C19.52 10.4555 19.5451 10.4087 19.5606 10.3584C19.576 10.3081 19.5815 10.2552 19.5767 10.2027C19.5719 10.1503 19.557 10.0993 19.5327 10.0526C19.5085 10.006 19.4754 9.96468 19.4353 9.93099Z" fill="black"/>
<path id="Trac&#195;&#169; 932" d="M21.8562 11.963L21.0564 11.29C21.0164 11.2563 20.9702 11.2309 20.9204 11.2153C20.8707 11.1997 20.8184 11.1941 20.7665 11.199C20.7146 11.2038 20.6642 11.2189 20.6181 11.2434C20.572 11.268 20.5312 11.3015 20.4979 11.342C20.4646 11.3825 20.4395 11.4292 20.4241 11.4795C20.4086 11.5299 20.4031 11.5828 20.4079 11.6352C20.4127 11.6877 20.4276 11.7387 20.4519 11.7853C20.4762 11.832 20.5092 11.8733 20.5493 11.907L21.3491 12.58C21.3891 12.6136 21.4353 12.639 21.4851 12.6546C21.5348 12.6703 21.5871 12.6758 21.639 12.671C21.6908 12.6662 21.7413 12.651 21.7874 12.6265C21.8335 12.602 21.8743 12.5685 21.9076 12.528C21.9409 12.4875 21.966 12.4407 21.9814 12.3904C21.9969 12.3401 22.0024 12.2872 21.9976 12.2347C21.9928 12.1822 21.9779 12.1312 21.9536 12.0846C21.9294 12.038 21.8963 11.9967 21.8562 11.963Z" fill="black"/>
</g>
</g>
<defs>
<clipPath id="clip0_321_828">
<rect width="22" height="24" fill="white"/>
</clipPath>
</defs>
</svg>
