<svg width="46" height="51" viewBox="0 0 46 51" fill="none" xmlns="http://www.w3.org/2000/svg">
<g id="surface1 1" clip-path="url(#clip0_333_951)">
<path id="Trac&#195;&#169; 1043" d="M34.4611 21.888V12.319C34.452 12.0475 34.3435 11.7887 34.1561 11.592L23.4271 0.327C23.3274 0.223648 23.208 0.141428 23.0759 0.0852467C22.9437 0.0290652 22.8017 7.29943e-05 22.6581 0L5.6481 0C4.90271 0.00248644 4.16514 0.151997 3.47762 0.43997C2.79011 0.727942 2.16616 1.14872 1.64151 1.6782C1.11686 2.20768 0.701816 2.83546 0.420157 3.52558C0.138497 4.21571 -0.00424842 4.95462 9.62752e-05 5.7V37.865C-0.00360302 38.6083 0.139881 39.3449 0.422273 40.0324C0.704665 40.72 1.12038 41.3448 1.64544 41.8709C2.17049 42.3969 2.79451 42.8139 3.48149 43.0976C4.16847 43.3813 4.90483 43.5263 5.6481 43.524H19.0751C20.3125 45.59 22.0453 47.3152 24.1168 48.5434C26.1884 49.7717 28.5333 50.4644 30.9397 50.5589C33.3461 50.6534 35.7382 50.1468 37.8997 49.0848C40.0611 48.0228 41.9239 46.4389 43.3196 44.4762C44.7152 42.5136 45.5999 40.2341 45.8934 37.8438C46.187 35.4535 45.8803 33.0277 45.001 30.7857C44.1218 28.5436 42.6977 26.5561 40.8574 25.0026C39.0172 23.4491 36.8189 22.3786 34.4611 21.888ZM23.7121 3.7L30.9121 11.277H26.2411C25.5698 11.2728 24.9273 11.0035 24.4536 10.5277C23.9799 10.052 23.7134 9.40835 23.7121 8.737V3.7ZM5.6481 41.416C5.18187 41.4173 4.72 41.3263 4.28913 41.1482C3.85826 40.9701 3.46694 40.7084 3.13773 40.3783C2.80852 40.0481 2.54795 39.6561 2.37106 39.2247C2.19417 38.7934 2.10445 38.3312 2.1071 37.865V5.7C2.10288 5.2314 2.19122 4.76658 2.36705 4.3322C2.54287 3.89783 2.80273 3.50243 3.13172 3.16871C3.4607 2.83499 3.85234 2.5695 4.28416 2.38748C4.71598 2.20546 5.17949 2.11048 5.6481 2.108H21.6001V8.736C21.5998 9.96681 22.088 11.1474 22.9573 12.0187C23.8267 12.8899 25.0063 13.3806 26.2371 13.383H32.3491V21.613C32.0331 21.603 31.7801 21.571 31.5061 21.571C27.972 21.5866 24.5617 22.8749 21.9001 25.2H8.5151C8.37402 25.1957 8.2335 25.2197 8.10189 25.2707C7.97027 25.3217 7.85024 25.3986 7.74891 25.4968C7.64758 25.5951 7.56702 25.7127 7.512 25.8427C7.45698 25.9726 7.42863 26.1124 7.42863 26.2535C7.42863 26.3946 7.45698 26.5344 7.512 26.6643C7.56702 26.7943 7.64758 26.9119 7.74891 27.0102C7.85024 27.1084 7.97027 27.1853 8.10189 27.2363C8.2335 27.2873 8.37402 27.3113 8.5151 27.307H19.9391C19.2003 28.3231 18.5781 29.4189 18.0841 30.574H8.5151C8.23556 30.574 7.96747 30.685 7.76981 30.8827C7.57214 31.0804 7.4611 31.3485 7.4611 31.628C7.4611 31.9075 7.57214 32.1756 7.76981 32.3733C7.96747 32.571 8.23556 32.682 8.5151 32.682H17.4001C16.7004 35.5928 16.9212 38.649 18.0321 41.429H5.6481V41.416ZM31.5001 48.466C29.0509 48.4662 26.6567 47.7401 24.6202 46.3796C22.5837 45.019 20.9964 43.0851 20.059 40.8225C19.1216 38.5598 18.8762 36.0699 19.3539 33.6678C19.8316 31.2657 21.0109 29.0591 22.7426 27.3272C24.4744 25.5954 26.6808 24.4159 29.0829 23.938C31.485 23.4601 33.9749 23.7053 36.2376 24.6425C38.5004 25.5797 40.4344 27.1669 41.7951 29.2033C43.1558 31.2397 43.8821 33.6338 43.8821 36.083C43.8776 39.3656 42.5717 42.5125 40.2506 44.8338C37.9295 47.155 34.7827 48.4612 31.5001 48.466Z" fill="black"/>
<path id="Trac&#195;&#169; 1044" d="M8.49903 22.0361H19.269C19.551 22.0361 19.8213 21.9242 20.0207 21.7248C20.22 21.5255 20.332 21.2551 20.332 20.9731C20.332 20.6912 20.22 20.4208 20.0207 20.2215C19.8213 20.0221 19.551 19.9102 19.269 19.9102H8.49903C8.21711 19.9102 7.94673 20.0221 7.74738 20.2215C7.54802 20.4208 7.43604 20.6912 7.43604 20.9731C7.43604 21.2551 7.54802 21.5255 7.74738 21.7248C7.94673 21.9242 8.21711 22.0361 8.49903 22.0361Z" fill="black"/>
<path id="Trac&#195;&#169; 1045" d="M32.2192 28.1088C32.1203 28.0016 32.0004 27.9159 31.8668 27.8574C31.7332 27.7988 31.589 27.7686 31.4432 27.7686C31.2973 27.7686 31.1531 27.7988 31.0195 27.8574C30.8859 27.9159 30.766 28.0016 30.6671 28.1088L24.4372 34.7958C24.3419 34.8977 24.2676 35.0173 24.2187 35.1479C24.1697 35.2785 24.1471 35.4175 24.152 35.5569C24.157 35.6962 24.1894 35.8332 24.2474 35.9601C24.3054 36.0869 24.3879 36.201 24.4901 36.2958C24.7 36.4878 24.9768 36.5897 25.261 36.5798C25.5452 36.5699 25.8142 36.4489 26.0102 36.2428L30.4101 31.5328V43.1428C30.4101 43.4247 30.5221 43.6951 30.7215 43.8945C30.9209 44.0938 31.1912 44.2058 31.4731 44.2058C31.7551 44.2058 32.0255 44.0938 32.2248 43.8945C32.4242 43.6951 32.5362 43.4247 32.5362 43.1428V31.5328L36.9051 36.2428C37.099 36.4399 37.3621 36.5536 37.6385 36.5597C37.9149 36.5657 38.1827 36.4637 38.3849 36.2752C38.5872 36.0868 38.7079 35.8268 38.7214 35.5507C38.7349 35.2746 38.6401 35.0041 38.4571 34.7968L32.2192 28.1088Z" fill="black"/>
</g>
<defs>
<clipPath id="clip0_333_951">
<rect width="46" height="50.563" fill="white"/>
</clipPath>
</defs>
</svg>
