<svg width="25" height="24" viewBox="0 0 25 24" fill="none" xmlns="http://www.w3.org/2000/svg">
<g id="outline" clip-path="url(#clip0_319_575)">
<g id="outline_2">
<path id="Trac&#195;&#169; 863" d="M18.3069 9.15889C18.4168 9.15889 18.5223 9.11553 18.6 9.03835C18.6777 8.96117 18.7214 8.8565 18.7214 8.74735V7.92329C18.7214 6.28504 18.0659 4.7139 16.899 3.55548C15.7322 2.39707 14.1496 1.74628 12.4994 1.74628C10.8492 1.74628 9.26659 2.39707 8.09974 3.55548C6.93288 4.7139 6.27734 6.28504 6.27734 7.92329V8.74735C6.27734 8.8565 6.32102 8.96117 6.39876 9.03835C6.4765 9.11553 6.58193 9.15889 6.69187 9.15889H18.3069ZM17.8923 8.33482H13.5692L17.1042 5.14467C17.6184 5.98082 17.8901 6.94166 17.8893 7.92131L17.8923 8.33482ZM16.6188 4.46737L12.9139 7.81123V2.58522C13.6267 2.63992 14.3214 2.83496 14.9575 3.15895C15.5936 3.48295 16.1583 3.92942 16.6188 4.47233V4.46737ZM12.0848 2.58323V7.75074L8.56878 4.26012C9.48861 3.28499 10.7431 2.6874 12.0848 2.58522V2.58323ZM7.10741 7.92131C7.10604 6.84497 7.43342 5.79351 8.04636 4.90569L11.4985 8.33284H7.10341L7.10741 7.92131Z" fill="black" stroke="#F5F5F5" stroke-width="0.2"/>
<path id="Trac&#195;&#169; 864" d="M5.12901 11.532L2.22527 11.168C2.16688 11.1607 2.1076 11.1658 2.05136 11.183C1.99512 11.2002 1.94321 11.2291 1.89908 11.2677C1.85495 11.3064 1.81962 11.3539 1.79543 11.4072C1.77124 11.4604 1.75875 11.5182 1.75879 11.5766V15.6949C1.75879 15.8041 1.80246 15.9088 1.8802 15.9859C1.95795 16.0631 2.06338 16.1065 2.17333 16.1065H5.07707C5.18701 16.1065 5.29245 16.0631 5.37019 15.9859C5.44793 15.9088 5.49161 15.8041 5.49161 15.6949V11.9376C5.49164 11.8372 5.4547 11.7402 5.38773 11.6649C5.32076 11.5897 5.22839 11.5413 5.12802 11.529L5.12901 11.532ZM4.66254 15.2864H2.58886V12.0466L4.66254 12.3045V15.2864Z" fill="black" stroke="#F5F5F5" stroke-width="0.2"/>
<path id="Trac&#195;&#169; 865" d="M5.07707 16.8977H2.17333C2.06338 16.8977 1.95795 16.9411 1.8802 17.0182C1.80246 17.0954 1.75879 17.2001 1.75879 17.3093V21.4276C1.7589 21.4907 1.77363 21.553 1.80184 21.6095C1.83005 21.6661 1.87099 21.7154 1.92149 21.7538C1.97199 21.7921 2.0307 21.8184 2.09307 21.8306C2.15545 21.8429 2.21982 21.8407 2.2812 21.8242L5.18495 21.0517C5.27303 21.0284 5.3509 20.9769 5.40652 20.9052C5.46214 20.8335 5.49239 20.7456 5.49261 20.6551V17.3093C5.49261 17.2551 5.48185 17.2015 5.46096 17.1515C5.44006 17.1015 5.40944 17.0561 5.37084 17.0179C5.33224 16.9797 5.28642 16.9494 5.23602 16.9288C5.18561 16.9081 5.13159 16.8976 5.07707 16.8977ZM4.66254 20.3397L2.58886 20.8911V17.7178H4.66254V20.3397Z" fill="black" stroke="#F5F5F5" stroke-width="0.2"/>
<path id="Trac&#195;&#169; 866" d="M24.758 9.2283C24.7138 9.18963 24.6618 9.16078 24.6054 9.14367C24.5491 9.12657 24.4898 9.12162 24.4313 9.12914L20.3529 9.66959V7.89453C20.3529 5.8268 19.5255 3.84376 18.0528 2.38165C16.58 0.919548 14.5825 0.0981445 12.4997 0.0981445C10.4169 0.0981445 8.41941 0.919548 6.94665 2.38165C5.47388 3.84376 4.64649 5.8268 4.64649 7.89453V9.66959L0.568063 9.12914C0.509743 9.12152 0.450456 9.12634 0.394162 9.14328C0.337869 9.16022 0.285865 9.18889 0.241619 9.22737C0.197374 9.26585 0.161907 9.31326 0.137587 9.36643C0.113267 9.4196 0.100652 9.47732 0.100586 9.53571V23.4883C0.100617 23.5511 0.115185 23.6131 0.143167 23.6695C0.17115 23.7259 0.211802 23.7752 0.261986 23.8135C0.31217 23.8518 0.370549 23.8782 0.432621 23.8906C0.494693 23.903 0.558801 23.901 0.620005 23.8849L4.64649 22.8189V23.4883C4.64649 23.5972 4.69006 23.7016 4.76762 23.7786C4.84517 23.8556 4.95035 23.8988 5.06003 23.8988H19.9434C20.053 23.8988 20.1582 23.8556 20.2358 23.7786C20.3133 23.7016 20.3569 23.5972 20.3569 23.4883V22.8189L24.3834 23.8849C24.4446 23.901 24.5087 23.903 24.5708 23.8906C24.6328 23.8782 24.6912 23.8518 24.7414 23.8135C24.7916 23.7752 24.8322 23.7259 24.8602 23.6695C24.8882 23.6131 24.9028 23.5511 24.9028 23.4883V9.5367C24.9028 9.47831 24.8902 9.4206 24.8659 9.36741C24.8416 9.31423 24.8062 9.2668 24.762 9.2283H24.758ZM5.47257 7.89552C5.47257 6.04542 6.21287 4.2711 7.53062 2.96289C8.84837 1.65468 10.6356 0.919729 12.4992 0.919729C14.3628 0.919729 16.15 1.65468 17.4678 2.96289C18.7855 4.2711 19.5258 6.04542 19.5258 7.89552V9.77966L18.2582 9.94725H6.74015L5.47257 9.77966V7.89552ZM17.8727 21.4365H12.4587C12.3905 21.0919 12.2369 20.7696 12.0117 20.4986C11.7866 20.2277 11.497 20.0167 11.1692 19.8846C11.0211 19.5221 10.7746 19.2075 10.4572 18.9757C10.1398 18.7439 9.76388 18.604 9.3712 18.5717L9.16244 18.3644C8.96485 18.1671 8.72981 18.0106 8.47091 17.904C8.21201 17.7975 7.93439 17.743 7.65413 17.7436H7.12672V16.1024H17.8727V21.4365ZM7.12572 10.7683H17.8727V12.4095H14.6992C14.3344 12.4093 13.976 12.5047 13.6603 12.6861C13.3445 12.8676 13.0827 13.1286 12.9012 13.4428L12.7794 13.6541C12.5158 13.4167 12.1821 13.2701 11.8279 13.2361C11.4737 13.2021 11.1179 13.2824 10.8133 13.4652C10.5088 13.648 10.2718 13.9235 10.1376 14.2507C10.0034 14.5779 9.97915 14.9394 10.0684 15.2814H7.12572V10.7683ZM10.8466 14.8748C10.8469 14.7002 10.9034 14.5303 11.0076 14.3897C11.1119 14.2492 11.2586 14.1452 11.4264 14.0931C11.5942 14.0409 11.7744 14.0432 11.9408 14.0996C12.1073 14.156 12.2512 14.2636 12.3519 14.4067L11.8464 15.2853H10.9574C10.8844 15.1607 10.8461 15.019 10.8466 14.8748ZM14.6363 14.2371L13.9371 15.2853H12.7984L13.6224 13.8544C13.7312 13.6662 13.888 13.5098 14.077 13.401C14.2661 13.2922 14.4807 13.2348 14.6992 13.2346H16.2195L15.5992 14.0557H14.9829C14.9149 14.0557 14.848 14.0724 14.7881 14.1042C14.7282 14.136 14.6771 14.182 14.6393 14.2381L14.6363 14.2371ZM14.926 15.2853L15.2017 14.8748H15.807C15.8712 14.8747 15.9345 14.8598 15.9919 14.8312C16.0493 14.8026 16.0992 14.7612 16.1376 14.7102L17.2534 13.2326H17.8737V15.2814L14.926 15.2853ZM7.12772 18.5677H7.65512C7.82678 18.5672 7.99682 18.6006 8.15541 18.6658C8.31401 18.7309 8.45801 18.8267 8.57909 18.9475L8.90173 19.2678C8.94018 19.3059 8.98582 19.3361 9.03604 19.3567C9.08626 19.3773 9.14007 19.3879 9.1944 19.3878C9.46875 19.3877 9.73618 19.4733 9.9587 19.6327C10.1812 19.792 10.3475 20.0168 10.434 20.2753L10.455 20.3388C10.4753 20.3993 10.5095 20.4543 10.5549 20.4994C10.6004 20.5445 10.6557 20.5785 10.7167 20.5986L10.7806 20.6194C10.9733 20.683 11.1484 20.7903 11.292 20.9329C11.4355 21.0754 11.5436 21.2492 11.6077 21.4405H7.12572L7.12772 18.5677ZM0.92666 10.0058L6.29964 10.7168V21.5317L0.92666 22.9548V10.0058ZM19.5258 23.0777H5.47257V22.5998L6.77112 22.2576H18.2323L19.5308 22.5998L19.5258 23.0777ZM24.0727 22.9548L18.6998 21.5327V10.7168L24.0727 10.0058V22.9548Z" fill="black" stroke="#F5F5F5" stroke-width="0.2"/>
<path id="Trac&#195;&#169; 867" d="M19.9214 16.1104H22.8251C22.9351 16.1104 23.0405 16.067 23.1183 15.9898C23.196 15.9127 23.2397 15.808 23.2397 15.6988V11.5805C23.2397 11.5221 23.2272 11.4643 23.203 11.4111C23.1789 11.3578 23.1435 11.3103 23.0994 11.2716C23.0553 11.233 23.0033 11.2041 22.9471 11.1869C22.8909 11.1697 22.8316 11.1646 22.7732 11.1719L19.8695 11.5319C19.7691 11.5443 19.6767 11.5926 19.6097 11.6678C19.5428 11.7431 19.5058 11.8401 19.5059 11.9405V15.6978C19.5057 15.7521 19.5164 15.8058 19.5372 15.8559C19.5581 15.906 19.5887 15.9515 19.6273 15.9899C19.6659 16.0282 19.7118 16.0586 19.7622 16.0792C19.8127 16.0999 19.8668 16.1105 19.9214 16.1104ZM20.3359 12.3044L22.4096 12.0466V15.2863H20.3359V12.3044Z" fill="black" stroke="#F5F5F5" stroke-width="0.2"/>
<path id="Trac&#195;&#169; 868" d="M19.8145 21.0538L22.7182 21.8263C22.7796 21.8427 22.844 21.8449 22.9063 21.8327C22.9687 21.8205 23.0274 21.7942 23.0779 21.7558C23.1284 21.7175 23.1694 21.6681 23.1976 21.6116C23.2258 21.555 23.2405 21.4928 23.2406 21.4296V17.3113C23.2406 17.2021 23.197 17.0975 23.1192 17.0203C23.0415 16.9431 22.936 16.8998 22.8261 16.8998H19.9223C19.8124 16.8998 19.707 16.9431 19.6292 17.0203C19.5515 17.0975 19.5078 17.2021 19.5078 17.3113V20.6571C19.508 20.7475 19.5381 20.8353 19.5935 20.907C19.6489 20.9787 19.7266 21.0303 19.8145 21.0538ZM20.3369 17.7218H22.4106V20.8951L20.3369 20.3438V17.7218Z" fill="black" stroke="#F5F5F5" stroke-width="0.2"/>
<path id="Trac&#195;&#169; 869" d="M10.8471 16.9205H10.4326C10.3225 16.9205 10.217 16.9639 10.1391 17.0412C10.0613 17.1185 10.0176 17.2233 10.0176 17.3326C10.0176 17.4418 10.0613 17.5466 10.1391 17.6239C10.217 17.7012 10.3225 17.7446 10.4326 17.7446H10.8471C10.9572 17.7446 11.0628 17.7012 11.1406 17.6239C11.2185 17.5466 11.2622 17.4418 11.2622 17.3326C11.2622 17.2233 11.2185 17.1185 11.1406 17.0412C11.0628 16.9639 10.9572 16.9205 10.8471 16.9205Z" fill="black" stroke="#F5F5F5" stroke-width="0.2"/>
<path id="Trac&#195;&#169; 870" d="M14.1543 16.9205H12.4951C12.385 16.9205 12.2795 16.9639 12.2016 17.0412C12.1238 17.1185 12.0801 17.2233 12.0801 17.3326C12.0801 17.4418 12.1238 17.5466 12.2016 17.6239C12.2795 17.7012 12.385 17.7446 12.4951 17.7446H14.1543C14.2643 17.7446 14.3699 17.7012 14.4477 17.6239C14.5256 17.5466 14.5693 17.4418 14.5693 17.3326C14.5693 17.2233 14.5256 17.1185 14.4477 17.0412C14.3699 16.9639 14.2643 16.9205 14.1543 16.9205Z" fill="black" stroke="#F5F5F5" stroke-width="0.2"/>
<path id="Trac&#195;&#169; 871" d="M13.3276 18.5618H12.083C11.9729 18.5618 11.8674 18.6052 11.7895 18.6825C11.7117 18.7597 11.668 18.8645 11.668 18.9738C11.668 19.0831 11.7117 19.1879 11.7895 19.2651C11.8674 19.3424 11.9729 19.3858 12.083 19.3858H13.3276C13.4377 19.3858 13.5433 19.3424 13.6211 19.2651C13.6989 19.1879 13.7427 19.0831 13.7427 18.9738C13.7427 18.8645 13.6989 18.7597 13.6211 18.6825C13.5433 18.6052 13.4377 18.5618 13.3276 18.5618Z" fill="black" stroke="#F5F5F5" stroke-width="0.2"/>
<path id="Trac&#195;&#169; 872" d="M15.3916 19.3858H15.8061C15.9162 19.3858 16.0218 19.3424 16.0996 19.2651C16.1774 19.1879 16.2212 19.0831 16.2212 18.9738C16.2212 18.8645 16.1774 18.7597 16.0996 18.6825C16.0218 18.6052 15.9162 18.5618 15.8061 18.5618H15.3916C15.2815 18.5618 15.1759 18.6052 15.0981 18.6825C15.0203 18.7597 14.9766 18.8645 14.9766 18.9738C14.9766 19.0831 15.0203 19.1879 15.0981 19.2651C15.1759 19.3424 15.2815 19.3858 15.3916 19.3858Z" fill="black" stroke="#F5F5F5" stroke-width="0.2"/>
<path id="Trac&#195;&#169; 873" d="M15.8037 17.7446H16.2182C16.3283 17.7446 16.4339 17.7012 16.5117 17.6239C16.5895 17.5466 16.6333 17.4418 16.6333 17.3326C16.6333 17.2233 16.5895 17.1185 16.5117 17.0412C16.4339 16.9639 16.3283 16.9205 16.2182 16.9205H15.8037C15.6936 16.9205 15.588 16.9639 15.5102 17.0412C15.4324 17.1185 15.3887 17.2233 15.3887 17.3326C15.3887 17.4418 15.4324 17.5466 15.5102 17.6239C15.588 17.7012 15.6936 17.7446 15.8037 17.7446Z" fill="black" stroke="#F5F5F5" stroke-width="0.2"/>
</g>
</g>
<defs>
<clipPath id="clip0_319_575">
<rect width="25" height="24" fill="white"/>
</clipPath>
</defs>
</svg>
