<svg width="21" height="24" viewBox="0 0 21 24" fill="none" xmlns="http://www.w3.org/2000/svg">
<g id="washer" clip-path="url(#clip0_321_808)">
<g id="washer_2">
<g id="Groupe 451">
<g id="Groupe 450">
<path id="Trac&#195;&#169; 376" d="M8.06896 1.69299C7.76695 1.69299 7.47174 1.78026 7.22063 1.94377C6.96952 2.10727 6.7738 2.33966 6.65822 2.61156C6.54265 2.88346 6.51242 3.18264 6.57133 3.47129C6.63025 3.75993 6.77568 4.02507 6.98923 4.23317C7.20278 4.44127 7.47487 4.58299 7.77107 4.6404C8.06727 4.69782 8.3743 4.66835 8.65331 4.55573C8.93233 4.4431 9.1708 4.25238 9.33859 4.00768C9.50638 3.76298 9.59594 3.47529 9.59594 3.18099C9.59539 2.78651 9.43433 2.40834 9.14809 2.1294C8.86184 1.85046 8.47377 1.69352 8.06896 1.69299ZM8.06896 3.967C7.90963 3.967 7.7539 3.92095 7.62142 3.8347C7.48895 3.74844 7.3857 3.62584 7.32473 3.4824C7.26375 3.33896 7.24779 3.18112 7.27888 3.02885C7.30996 2.87657 7.38669 2.7367 7.49935 2.62691C7.61201 2.51713 7.75554 2.44237 7.91181 2.41208C8.06807 2.38179 8.23004 2.39733 8.37724 2.45675C8.52444 2.51616 8.65025 2.61678 8.73876 2.74587C8.82728 2.87497 8.87452 3.02674 8.87452 3.182C8.87425 3.39011 8.78929 3.58962 8.63828 3.73678C8.48727 3.88394 8.28252 3.96673 8.06896 3.967Z" fill="black"/>
</g>
</g>
<g id="Groupe 453">
<g id="Groupe 452">
<path id="Trac&#195;&#169; 377" d="M3.93718 1.69299C3.63513 1.6928 3.3398 1.7799 3.08856 1.94328C2.83731 2.10666 2.64144 2.33899 2.52571 2.61087C2.40998 2.88275 2.37959 3.18197 2.4384 3.47068C2.4972 3.75939 2.64254 4.02461 2.85605 4.23282C3.06956 4.44102 3.34165 4.58283 3.63788 4.64033C3.93411 4.69782 4.24119 4.66841 4.52027 4.55582C4.79934 4.44323 5.03788 4.25251 5.20571 4.00779C5.37355 3.76306 5.46313 3.47533 5.46313 3.18099C5.46259 2.78669 5.30168 2.40867 5.01565 2.12976C4.72963 1.85085 4.34182 1.69379 3.93718 1.69299ZM3.93718 3.967C3.77786 3.967 3.62211 3.92095 3.48963 3.8347C3.35716 3.74844 3.25391 3.62584 3.19294 3.4824C3.13197 3.33896 3.11602 3.18112 3.1471 3.02885C3.17818 2.87657 3.2549 2.7367 3.36756 2.62692C3.48022 2.51713 3.62376 2.44237 3.78002 2.41208C3.93628 2.38179 4.09825 2.39733 4.24545 2.45675C4.39265 2.51616 4.51847 2.61678 4.60698 2.74587C4.6955 2.87497 4.74274 3.02674 4.74274 3.182C4.74247 3.39011 4.65752 3.58962 4.5065 3.73678C4.35549 3.88394 4.15075 3.96673 3.93718 3.967Z" fill="black"/>
</g>
</g>
<g id="Groupe 455">
<g id="Groupe 454">
<path id="Trac&#195;&#169; 378" d="M17.1828 1.69299H13.0329C12.8151 1.69299 12.6063 1.77728 12.4524 1.92731C12.2984 2.07734 12.2119 2.28082 12.2119 2.49299V3.86699C12.2119 4.07917 12.2984 4.28265 12.4524 4.43268C12.6063 4.58271 12.8151 4.66699 13.0329 4.66699H17.1828C17.4005 4.66699 17.6093 4.58271 17.7633 4.43268C17.9172 4.28265 18.0037 4.07917 18.0037 3.86699V2.49399C18.0039 2.38885 17.9827 2.28471 17.9415 2.18754C17.9003 2.09036 17.8399 2.00205 17.7636 1.92766C17.6874 1.85327 17.5968 1.79425 17.4972 1.75399C17.3975 1.71372 17.2907 1.69299 17.1828 1.69299ZM17.2854 3.86799C17.2854 3.88112 17.2827 3.89413 17.2776 3.90626C17.2724 3.91839 17.2649 3.92942 17.2553 3.93871C17.2458 3.94799 17.2345 3.95536 17.2221 3.96038C17.2096 3.96541 17.1963 3.96799 17.1828 3.96799H13.0329C13.0194 3.96799 13.006 3.96541 12.9936 3.96038C12.9811 3.95536 12.9698 3.94799 12.9603 3.93871C12.9508 3.92942 12.9432 3.91839 12.9381 3.90626C12.9329 3.89413 12.9302 3.88112 12.9302 3.86799V2.49399C12.9302 2.46747 12.941 2.44204 12.9603 2.42328C12.9795 2.40453 13.0056 2.39399 13.0329 2.39399H17.1828C17.1963 2.39399 17.2096 2.39658 17.2221 2.40161C17.2345 2.40663 17.2458 2.414 17.2553 2.42328C17.2649 2.43257 17.2724 2.44359 17.2776 2.45573C17.2827 2.46786 17.2854 2.48086 17.2854 2.49399V3.86799Z" fill="black"/>
</g>
</g>
<g id="Groupe 457">
<g id="Groupe 456">
<path id="Trac&#195;&#169; 379" d="M10.4993 7.20204C9.03333 7.1974 7.60788 7.67087 6.44997 8.54704C6.41079 8.57469 6.37771 8.60972 6.35269 8.65005C6.32767 8.69039 6.31122 8.73522 6.30431 8.78188C6.2974 8.82853 6.30018 8.87606 6.31247 8.92165C6.32477 8.96723 6.34634 9.00995 6.3759 9.04726C6.40546 9.08457 6.4424 9.11571 6.48455 9.13884C6.52669 9.16197 6.57317 9.17662 6.62124 9.18192C6.6693 9.18721 6.71796 9.18305 6.76434 9.16968C6.81072 9.1563 6.85387 9.13398 6.89123 9.10405C7.92266 8.32261 9.19285 7.90017 10.4993 7.90405C11.8407 7.90404 13.1422 8.34871 14.1899 9.16499C15.2376 9.98127 15.9691 11.1206 16.2643 12.3957C16.5595 13.6708 16.4008 15.0059 15.8142 16.1814C15.2276 17.357 14.2481 18.3031 13.0366 18.8643C11.8252 19.4255 10.4538 19.5684 9.14796 19.2695C7.84211 18.9705 6.67946 18.2476 5.85108 17.2195C5.02271 16.1914 4.5779 14.9192 4.58976 13.6121C4.60162 12.305 5.06945 11.0407 5.91635 10.0271C5.97076 9.95426 5.99445 9.8639 5.98257 9.7746C5.9707 9.68529 5.92415 9.60382 5.8525 9.54694C5.78085 9.49006 5.68956 9.46209 5.59741 9.46881C5.50525 9.47553 5.41924 9.51642 5.35707 9.58305C4.40675 10.7205 3.88177 12.1391 3.86843 13.6057C3.85508 15.0724 4.35415 16.4999 5.28363 17.6535C6.2131 18.8072 7.51767 19.6184 8.98293 19.9538C10.4482 20.2892 11.987 20.1289 13.3463 19.4992C14.7057 18.8695 15.8048 17.8079 16.463 16.4889C17.1212 15.1698 17.2993 13.6718 16.9681 12.241C16.6369 10.8103 15.816 9.53183 14.6404 8.61591C13.4649 7.69998 12.0045 7.20202 10.4993 7.20204Z" fill="black"/>
</g>
</g>
<g id="Groupe 459">
<g id="Groupe 458">
<path id="Trac&#195;&#169; 380" d="M20.9989 21.271V2.7C20.9989 1.98392 20.707 1.29716 20.1874 0.790812C19.6678 0.284464 18.963 0 18.2282 0H2.7717C2.03686 0 1.33211 0.284464 0.812503 0.790812C0.292893 1.29716 0.000976562 1.98392 0.000976562 2.7V21.3C0.000976562 21.6546 0.0726425 22.0057 0.211884 22.3332C0.351126 22.6608 0.555218 22.9585 0.812503 23.2092C1.06979 23.4599 1.37523 23.6588 1.71139 23.7945C2.04755 23.9302 2.40784 24 2.7717 24H18.2262C18.9543 24.0001 19.6532 23.7208 20.1717 23.2227C20.6902 22.7245 20.9866 22.0475 20.9969 21.338C20.9999 21.325 21 21.28 20.9989 21.271ZM20.2806 20.947H17.2944C17.2057 20.9562 17.1237 20.9971 17.0641 21.0617C17.0046 21.1263 16.9716 21.2101 16.9716 21.297C16.9716 21.3839 17.0046 21.4677 17.0641 21.5323C17.1237 21.5969 17.2057 21.6378 17.2944 21.647H20.2498C20.166 22.1103 19.9173 22.5301 19.5474 22.8324C19.1775 23.1348 18.71 23.3003 18.2272 23.3H2.7717C2.29048 23.2996 1.8247 23.1345 1.45574 22.8334C1.08678 22.5324 0.838112 22.1146 0.753177 21.653H15.8474C15.8978 21.6583 15.9488 21.6531 15.997 21.6379C16.0452 21.6227 16.0896 21.5978 16.1273 21.5648C16.165 21.5318 16.1952 21.4914 16.2158 21.4463C16.2364 21.4012 16.2471 21.3524 16.2471 21.303C16.2471 21.2536 16.2364 21.2048 16.2158 21.1597C16.1952 21.1146 16.165 21.0742 16.1273 21.0412C16.0896 21.0082 16.0452 20.9833 15.997 20.9681C15.9488 20.9529 15.8978 20.9477 15.8474 20.953H0.721363V6.364H20.2775L20.2806 20.947ZM20.2806 5.661H0.721363V2.7C0.721363 2.16957 0.937598 1.66086 1.3225 1.28579C1.70739 0.910714 2.22942 0.7 2.77375 0.7H18.2282C18.7725 0.7 19.2946 0.910714 19.6795 1.28579C20.0644 1.66086 20.2806 2.16957 20.2806 2.7V5.661Z" fill="black"/>
</g>
</g>
<g id="Groupe 461">
<g id="Groupe 460">
<path id="Trac&#195;&#169; 381" d="M10.4995 8.83398C9.78858 8.83425 9.08603 8.98355 8.43954 9.27174C7.79305 9.55994 7.21775 9.98027 6.75267 10.5042C6.28759 11.0282 5.94362 11.6436 5.74411 12.3085C5.54459 12.9734 5.49421 13.6724 5.59636 14.358C5.76805 15.5056 6.35795 16.5547 7.25819 17.3134C8.15842 18.072 9.30882 18.4895 10.499 18.4895C11.6892 18.4895 12.8395 18.072 13.7398 17.3134C14.64 16.5547 15.2299 15.5056 15.4016 14.358C15.5038 13.6724 15.4534 12.9734 15.2539 12.3085C15.0543 11.6436 14.7104 11.0282 14.2453 10.5042C13.7802 9.98027 13.2049 9.55994 12.5584 9.27174C11.9119 8.98355 11.2094 8.83425 10.4985 8.83398H10.4995ZM13.2815 16.77C12.7224 17.245 12.0451 17.5685 11.3174 17.7081C10.5896 17.8478 9.83699 17.7987 9.13484 17.5658C8.43268 17.3329 7.80562 16.9243 7.31645 16.381C6.82728 15.8377 6.49315 15.1787 6.34752 14.47L6.57022 14.322C6.75457 14.2014 6.97159 14.137 7.19363 14.137C7.41567 14.137 7.63268 14.2014 7.81704 14.322C8.12143 14.521 8.47972 14.6273 8.8463 14.6273C9.21288 14.6273 9.57118 14.521 9.87558 14.322C10.06 14.2017 10.277 14.1374 10.499 14.1374C10.721 14.1374 10.9379 14.2017 11.1224 14.322C11.4268 14.521 11.7851 14.6273 12.1517 14.6273C12.5183 14.6273 12.8765 14.521 13.1809 14.322C13.3652 14.2011 13.5823 14.1366 13.8044 14.1366C14.0265 14.1366 14.2435 14.2011 14.4278 14.322L14.6504 14.47C14.4677 15.3637 13.9863 16.1732 13.2815 16.772V16.77ZM14.7315 13.679H14.7233C14.5295 13.5708 14.3176 13.497 14.0973 13.461C13.819 13.4152 13.5335 13.4341 13.2641 13.516C13.0897 13.5684 12.9244 13.6459 12.7735 13.746C12.5892 13.8666 12.3722 13.931 12.1501 13.931C11.9281 13.931 11.7111 13.8666 11.5267 13.746C11.2232 13.5446 10.8646 13.4369 10.4975 13.4369C10.1303 13.4369 9.77165 13.5446 9.46817 13.746C9.28387 13.8667 9.06683 13.9312 8.84476 13.9312C8.62269 13.9312 8.40566 13.8667 8.22135 13.746C7.93604 13.5565 7.60149 13.4496 7.25642 13.4378C6.91135 13.4259 6.5699 13.5095 6.27159 13.679H6.26337C6.26337 13.673 6.26337 13.668 6.26337 13.662C6.28068 12.5792 6.73422 11.5465 7.52609 10.7868C8.31796 10.027 9.38466 9.60121 10.4959 9.60121C11.6072 9.60121 12.6739 10.027 13.4657 10.7868C14.2576 11.5465 14.7111 12.5792 14.7284 13.662C14.7315 13.669 14.7315 13.675 14.7315 13.681V13.679Z" fill="black"/>
</g>
</g>
</g>
</g>
<defs>
<clipPath id="clip0_321_808">
<rect width="21" height="24" fill="white"/>
</clipPath>
</defs>
</svg>
