<svg width="23" height="32" viewBox="0 0 23 32" fill="none" xmlns="http://www.w3.org/2000/svg">
<path id="woman" d="M21.6713 27.6218V30.6946C21.6713 30.8309 21.6158 30.9617 21.517 31.0581C21.4181 31.1545 21.2841 31.2087 21.1443 31.2087C21.0046 31.2087 20.8705 31.1545 20.7717 31.0581C20.6729 30.9617 20.6173 30.8309 20.6173 30.6946V27.6218C20.6211 27.0566 20.5107 26.4962 20.2924 25.9726C20.074 25.4491 19.752 24.9726 19.3447 24.5706C18.9375 24.1685 18.453 23.8487 17.9189 23.6294C17.3849 23.4101 16.8118 23.2957 16.2323 23.2926C15.6713 23.2942 15.1195 23.153 14.6315 22.8831C14.1435 22.6131 13.736 22.2237 13.4493 21.7533C13.3765 21.6354 13.3542 21.4944 13.3871 21.3606C13.42 21.2268 13.5056 21.111 13.6253 21.0383C13.6844 21.0027 13.7501 20.979 13.8187 20.9686C13.8872 20.9581 13.9572 20.961 14.0246 20.9771C14.092 20.9933 14.1554 21.0224 14.2112 21.0627C14.2669 21.103 14.3139 21.1537 14.3493 21.2119C14.5431 21.5306 14.8186 21.7945 15.1489 21.9775C15.4791 22.1605 15.8525 22.2564 16.2323 22.2557C16.9507 22.2595 17.6613 22.4014 18.3234 22.6731C18.9856 22.9449 19.5864 23.3413 20.0914 23.8396C20.5965 24.3379 20.996 24.9284 21.2671 25.5774C21.5382 26.2263 21.6755 26.921 21.6713 27.6218ZM12.8803 23.5931L11.0013 25.029L7.80633 22.5903C8.15445 22.3156 8.44123 21.9743 8.64898 21.5875C8.85674 21.2006 8.98108 20.7763 9.01433 20.3408C9.65918 20.5281 10.3285 20.6231 11.0013 20.6227C12.8809 20.609 14.6782 19.8689 15.9992 18.5645C17.3202 17.2602 18.0571 15.4981 18.0483 13.6646C18.0483 13.6246 18.0483 10.0221 18.0483 9.98213C18.0409 9.8509 17.9825 9.72737 17.885 9.63673C17.7874 9.54609 17.6581 9.49518 17.5233 9.49438C17.0492 9.56304 16.5651 9.47478 16.1483 9.24368C15.8424 9.02568 15.5928 8.74115 15.4192 8.41267C15.2456 8.08418 15.1529 7.72077 15.1483 7.35125C15.1499 7.25632 15.1245 7.16282 15.075 7.08112C15.0254 6.99941 14.9536 6.93268 14.8676 6.88834C14.7815 6.84399 14.6846 6.82376 14.5874 6.82988C14.4903 6.836 14.3968 6.86823 14.3173 6.92301C12.1057 8.47252 9.54233 9.47661 6.84633 9.84946C6.71374 9.86893 6.59351 9.93634 6.50953 10.0383C6.42555 10.1403 6.38396 10.2693 6.39303 10.3998C6.4021 10.5303 6.46116 10.6527 6.55848 10.7427C6.6558 10.8326 6.78426 10.8836 6.91833 10.8854C8.19377 10.7218 9.44631 10.4188 10.6523 9.98213C11.9065 9.5318 13.1052 8.94647 14.2263 8.23699C14.3613 8.86602 14.7058 9.43384 15.2061 9.85199C15.7064 10.2702 16.3344 10.5152 16.9923 10.5489V13.6636C17.0026 14.4377 16.8551 15.2062 16.5585 15.9243C16.2619 16.6424 15.8221 17.2959 15.2645 17.8468C14.707 18.3978 14.0428 18.8353 13.3105 19.1338C12.5782 19.4324 11.7925 19.5862 10.9988 19.5862C10.2052 19.5862 9.41942 19.4324 8.68716 19.1338C7.9549 18.8353 7.29072 18.3978 6.73315 17.8468C6.17558 17.2959 5.73574 16.6424 5.43914 15.9243C5.14253 15.2062 4.99508 14.4377 5.00533 13.6636V10.0153C5.00533 9.87895 4.94981 9.74819 4.85098 9.65178C4.75215 9.55537 4.6181 9.50121 4.47833 9.50121C4.33856 9.50121 4.20452 9.55537 4.10569 9.65178C4.00685 9.74819 3.95133 9.87895 3.95133 10.0153V13.6656C3.94887 14.9751 4.32443 16.2588 5.03501 17.3698C5.7456 18.4808 6.76251 19.3742 7.96933 19.9477V20.0852C7.97105 20.3686 7.91548 20.6495 7.8058 20.9119C7.69613 21.1742 7.53451 21.413 7.33018 21.6144C7.12585 21.8158 6.88283 21.9759 6.615 22.0856C6.34718 22.1953 6.0598 22.2524 5.76933 22.2537C5.10419 22.2531 4.4447 22.3728 3.82433 22.6068L3.48433 22.3396C2.21878 21.3384 1.37987 19.9142 1.13057 18.3435C0.881274 16.7728 1.23938 15.1677 2.13533 13.8402C2.93678 12.653 3.36278 11.2622 3.36033 9.84068V7.02348C3.35128 5.44649 3.98434 3.93049 5.12043 2.80854C6.25652 1.68658 7.80272 1.05044 9.41933 1.03987H12.5803C14.1973 1.04993 15.744 1.68584 16.8805 2.80785C18.017 3.92986 18.6504 5.44616 18.6413 7.02348V9.84166C18.637 11.2592 19.061 12.6466 19.8603 13.8304C20.5787 14.8915 20.9579 16.1369 20.9497 17.4085C20.9415 18.6801 20.5463 19.9207 19.8143 20.9729C19.7348 21.0866 19.7044 21.2264 19.7297 21.3618C19.7549 21.4973 19.8338 21.6176 19.9493 21.6967C20.0063 21.7354 20.0705 21.7627 20.1384 21.777C20.2062 21.7912 20.2763 21.7921 20.3445 21.7797C20.4128 21.7673 20.4778 21.7417 20.5358 21.7045C20.5938 21.6673 20.6436 21.6192 20.6823 21.5631C21.5351 20.3393 21.9961 18.8961 22.0068 17.4164C22.0175 15.9367 21.5774 14.4873 20.7423 13.2519C20.0586 12.2385 19.6965 11.0509 19.7013 9.83775V7.02348C19.7106 5.17164 18.9662 3.39188 17.6314 2.07502C16.2967 0.758168 14.4807 0.0118669 12.5823 0L9.42133 0C7.524 0.0134103 5.70959 0.760391 4.37612 2.07708C3.04266 3.39377 2.29901 5.17264 2.30833 7.02348V9.84166C2.31074 11.059 1.94593 12.2501 1.25933 13.2666C0.220803 14.8052 -0.196929 16.6644 0.0867039 18.4857C0.370336 20.307 1.33524 21.9614 2.79533 23.1297C2.03502 23.6214 1.41183 24.2896 0.981746 25.0744C0.551667 25.8592 0.328173 26.7358 0.331333 27.6257V30.6985C0.331333 30.8348 0.386851 30.9656 0.485683 31.062C0.584515 31.1584 0.718564 31.2126 0.858333 31.2126C0.998102 31.2126 1.13214 31.1584 1.23098 31.062C1.32981 30.9656 1.38533 30.8348 1.38533 30.6985V27.6257C1.38151 27.0605 1.49194 26.5001 1.7103 25.9765C1.92866 25.453 2.25068 24.9765 2.65793 24.5745C3.06518 24.1724 3.54969 23.8526 4.08374 23.6333C4.61779 23.414 5.1909 23.2996 5.77033 23.2965C6.11876 23.2965 6.4649 23.2415 6.79533 23.1336L10.6793 26.102C10.7713 26.1725 10.8849 26.2108 11.0018 26.2108C11.1188 26.2108 11.2324 26.1725 11.3243 26.102L13.5243 24.4193C13.6349 24.3339 13.7067 24.2097 13.7243 24.0732C13.7418 23.9367 13.7038 23.799 13.6183 23.6896C13.5767 23.6354 13.5245 23.5898 13.4646 23.5555C13.4048 23.5212 13.3386 23.4989 13.2698 23.4898C13.201 23.4807 13.1311 23.4851 13.064 23.5026C12.997 23.5202 12.9342 23.5506 12.8793 23.5921L12.8803 23.5931Z" fill="black"/>
</svg>
