<svg width="38" height="50" viewBox="0 0 38 50" fill="none" xmlns="http://www.w3.org/2000/svg">
<g id="Groupe 1262" clip-path="url(#clip0_322_1417)">
<g id="Groupe 1262_2">
<g id="g3793">
<path id="path3795" d="M10.5648 0.490234H34.0206C34.3867 0.49062 34.749 0.563097 35.087 0.703527C35.4251 0.843956 35.7321 1.04959 35.9907 1.30868C36.2492 1.56778 36.4542 1.87526 36.5939 2.21357C36.7336 2.55188 36.8053 2.9144 36.8049 3.28043V46.7196C36.8053 47.0859 36.7335 47.4487 36.5936 47.7872C36.4537 48.1257 36.2485 48.4333 35.9896 48.6924C35.7308 48.9516 35.4234 49.1571 35.085 49.2974C34.7466 49.4377 34.384 49.5098 34.0177 49.5098H3.27554C2.90951 49.5095 2.54713 49.437 2.20911 49.2965C1.8711 49.1561 1.56406 48.9505 1.30551 48.6914C1.04696 48.4323 0.841978 48.1248 0.702263 47.7865C0.562547 47.4482 0.490826 47.0857 0.491212 46.7196V3.28043C0.490432 2.54137 0.783216 1.83226 1.30516 1.30903C1.82711 0.785793 2.53549 0.491274 3.27455 0.490234L7.6569 0.490234" stroke="#A0A9B2" stroke-miterlimit="10" stroke-linecap="round" stroke-linejoin="round"/>
</g>
<g id="g3797">
<path id="path3799" d="M6.98633 21.7344H32.9667" stroke="#A0A9B2" stroke-miterlimit="10" stroke-linecap="round" stroke-linejoin="round"/>
</g>
<g id="g3801">
<path id="path3803" d="M6.98633 25.7236H32.9667" stroke="#A0A9B2" stroke-miterlimit="10" stroke-linecap="round" stroke-linejoin="round"/>
</g>
<g id="g3805">
<path id="path3807" d="M7.203 29.7119H18.7128" stroke="#A0A9B2" stroke-miterlimit="10" stroke-linecap="round" stroke-linejoin="round"/>
</g>
<g id="g3809">
<path id="path3811" d="M7.203 33.7012H18.7128" stroke="#A0A9B2" stroke-miterlimit="10" stroke-linecap="round" stroke-linejoin="round"/>
</g>
<g id="g3813">
<path id="path3815" d="M6.98633 13.7578H32.9667" stroke="#A0A9B2" stroke-miterlimit="10" stroke-linecap="round" stroke-linejoin="round"/>
</g>
<g id="g3817">
<path id="path3819" d="M6.98633 17.7461H32.9667" stroke="#A0A9B2" stroke-miterlimit="10" stroke-linecap="round" stroke-linejoin="round"/>
</g>
<g id="g3821">
<path id="path3823" d="M5.28245 21.7344C5.28245 21.9325 5.20374 22.1225 5.06364 22.2626C4.92354 22.4027 4.73352 22.4814 4.53539 22.4814C4.33726 22.4814 4.14724 22.4027 4.00714 22.2626C3.86704 22.1225 3.78833 21.9325 3.78833 21.7344C3.78833 21.5362 3.86704 21.3462 4.00714 21.2061C4.14724 21.066 4.33726 20.9873 4.53539 20.9873C4.73352 20.9873 4.92354 21.066 5.06364 21.2061C5.20374 21.3462 5.28245 21.5362 5.28245 21.7344Z" fill="#A0A9B2"/>
</g>
<g id="g3825">
<path id="path3827" d="M5.28245 13.7588C5.28245 13.9569 5.20374 14.1469 5.06364 14.287C4.92354 14.4271 4.73352 14.5058 4.53539 14.5058C4.33726 14.5058 4.14724 14.4271 4.00714 14.287C3.86704 14.1469 3.78833 13.9569 3.78833 13.7588C3.78833 13.5606 3.86704 13.3706 4.00714 13.2305C4.14724 13.0904 4.33726 13.0117 4.53539 13.0117C4.73352 13.0117 4.92354 13.0904 5.06364 13.2305C5.20374 13.3706 5.28245 13.5606 5.28245 13.7588Z" fill="#A0A9B2"/>
</g>
<g id="g3829">
<path id="path3831" d="M5.28245 17.7471C5.28245 17.9452 5.20374 18.1352 5.06364 18.2753C4.92354 18.4154 4.73352 18.4941 4.53539 18.4941C4.33726 18.4941 4.14724 18.4154 4.00714 18.2753C3.86704 18.1352 3.78833 17.9452 3.78833 17.7471C3.78833 17.5489 3.86704 17.3589 4.00714 17.2188C4.14724 17.0787 4.33726 17 4.53539 17C4.73352 17 4.92354 17.0787 5.06364 17.2188C5.20374 17.3589 5.28245 17.5489 5.28245 17.7471Z" fill="#A0A9B2"/>
</g>
<g id="g3833">
<path id="path3835" d="M5.28245 25.7226C5.28245 25.9208 5.20374 26.1108 5.06364 26.2509C4.92354 26.391 4.73352 26.4697 4.53539 26.4697C4.33726 26.4697 4.14724 26.391 4.00714 26.2509C3.86704 26.1108 3.78833 25.9208 3.78833 25.7226C3.78833 25.5245 3.86704 25.3345 4.00714 25.1944C4.14724 25.0543 4.33726 24.9756 4.53539 24.9756C4.73352 24.9756 4.92354 25.0543 5.06364 25.1944C5.20374 25.3345 5.28245 25.5245 5.28245 25.7226Z" fill="#A0A9B2"/>
</g>
<g id="g3837">
<path id="path3839" d="M5.28245 29.7109C5.28245 29.9091 5.20374 30.0991 5.06364 30.2392C4.92354 30.3793 4.73352 30.458 4.53539 30.458C4.33726 30.458 4.14724 30.3793 4.00714 30.2392C3.86704 30.0991 3.78833 29.9091 3.78833 29.7109C3.78833 29.5128 3.86704 29.3228 4.00714 29.1827C4.14724 29.0426 4.33726 28.9639 4.53539 28.9639C4.73352 28.9639 4.92354 29.0426 5.06364 29.1827C5.20374 29.3228 5.28245 29.5128 5.28245 29.7109Z" fill="#A0A9B2"/>
</g>
<g id="g3841">
<path id="path3843" d="M5.28245 33.6992C5.28245 33.8973 5.20374 34.0874 5.06364 34.2275C4.92354 34.3676 4.73352 34.4463 4.53539 34.4463C4.33726 34.4463 4.14724 34.3676 4.00714 34.2275C3.86704 34.0874 3.78833 33.8973 3.78833 33.6992C3.78833 33.6011 3.80765 33.504 3.8452 33.4133C3.88274 33.3227 3.93777 33.2403 4.00714 33.171C4.07651 33.1016 4.15886 33.0466 4.2495 33.009C4.34014 32.9715 4.43728 32.9521 4.53539 32.9521C4.63349 32.9521 4.73064 32.9715 4.82128 33.009C4.91191 33.0466 4.99427 33.1016 5.06364 33.171C5.13301 33.2403 5.18804 33.3227 5.22558 33.4133C5.26312 33.504 5.28245 33.6011 5.28245 33.6992Z" fill="#A0A9B2"/>
</g>
<g id="g3845">
<path id="path3847" d="M7.203 37.6895H18.7128" stroke="#A0A9B2" stroke-miterlimit="10" stroke-linecap="round" stroke-linejoin="round"/>
</g>
<g id="g3849">
<path id="path3851" d="M5.28245 37.6875C5.28245 37.8856 5.20374 38.0756 5.06364 38.2157C4.92354 38.3558 4.73352 38.4345 4.53539 38.4345C4.33726 38.4345 4.14724 38.3558 4.00714 38.2157C3.86704 38.0756 3.78833 37.8856 3.78833 37.6875C3.78833 37.5894 3.80765 37.4922 3.8452 37.4016C3.88274 37.311 3.93777 37.2286 4.00714 37.1592C4.07651 37.0899 4.15886 37.0348 4.2495 36.9973C4.34014 36.9598 4.43728 36.9404 4.53539 36.9404C4.63349 36.9404 4.73064 36.9598 4.82128 36.9973C4.91191 37.0348 4.99427 37.0899 5.06364 37.1592C5.13301 37.2286 5.18804 37.311 5.22558 37.4016C5.26312 37.4922 5.28245 37.5894 5.28245 37.6875Z" fill="#A0A9B2"/>
</g>
<g id="g3853">
<path id="path3855" d="M7.203 41.6333H18.7128" stroke="#A0A9B2" stroke-miterlimit="10" stroke-linecap="round" stroke-linejoin="round"/>
</g>
<g id="g3857">
<path id="path3859" d="M4.53638 45.645H8.71089" stroke="#A0A9B2" stroke-miterlimit="10" stroke-linecap="round" stroke-linejoin="round"/>
</g>
<g id="g3861">
<path id="path3863" d="M28.0343 45.645H32.2088" stroke="#A0A9B2" stroke-miterlimit="10" stroke-linecap="round" stroke-linejoin="round"/>
</g>
<g id="g3865">
<path id="path3867" d="M5.28245 41.6323C5.28245 41.8304 5.20374 42.0205 5.06364 42.1606C4.92354 42.3007 4.73352 42.3794 4.53539 42.3794C4.33726 42.3794 4.14724 42.3007 4.00714 42.1606C3.86704 42.0205 3.78833 41.8304 3.78833 41.6323C3.78833 41.4342 3.86704 41.2442 4.00714 41.1041C4.14724 40.964 4.33726 40.8853 4.53539 40.8853C4.73352 40.8853 4.92354 40.964 5.06364 41.1041C5.20374 41.2442 5.28245 41.4342 5.28245 41.6323Z" fill="#A0A9B2"/>
</g>
<g id="g3869">
<path id="path3871" d="M15.3658 4.31396H13.157V9.76298" stroke="#A0A9B2" stroke-miterlimit="10" stroke-linecap="round" stroke-linejoin="round"/>
</g>
<g id="g3873">
<path id="path3875" d="M13.158 6.98633H15.1913" stroke="#A0A9B2" stroke-miterlimit="10" stroke-linecap="round" stroke-linejoin="round"/>
</g>
<g id="g3877">
<path id="path3879" d="M20.9442 4.31396H18.7354V9.76298" stroke="#A0A9B2" stroke-miterlimit="10" stroke-linecap="round" stroke-linejoin="round"/>
</g>
<g id="g3881">
<path id="path3883" d="M18.7363 6.98633H20.7697" stroke="#A0A9B2" stroke-miterlimit="10" stroke-linecap="round" stroke-linejoin="round"/>
</g>
<g id="g3885">
<path id="path3887" d="M26.203 4.2666H23.9109V9.70582H26.203" stroke="#A0A9B2" stroke-miterlimit="10" stroke-linecap="round" stroke-linejoin="round"/>
</g>
<g id="g3889">
<path id="path3891" d="M26.0354 6.98633H23.9119" stroke="#A0A9B2" stroke-miterlimit="10" stroke-linecap="round" stroke-linejoin="round"/>
</g>
<g id="g3893">
<path id="path3895" d="M30.3922 7.11084L32.6981 9.73045" stroke="#A0A9B2" stroke-miterlimit="10" stroke-linecap="round" stroke-linejoin="round"/>
</g>
<g id="g3897">
<path id="path3899" d="M29.7303 4.24121V9.73141" stroke="#A0A9B2" stroke-miterlimit="10" stroke-linecap="round" stroke-linejoin="round"/>
</g>
<g id="g3901">
<path id="path3903" d="M32.6992 5.66743C32.6854 6.05552 32.5195 6.42261 32.2374 6.68948C31.9553 6.95636 31.5796 7.10161 31.1914 7.0939C30.7865 7.0939 29.7423 7.09979 29.7423 7.09979C29.7423 7.09979 29.7355 6.06449 29.7355 5.66645C29.7355 5.33998 29.7355 4.23998 29.7355 4.23998H31.1943C31.5822 4.23306 31.9573 4.3788 32.2388 4.6458C32.5203 4.9128 32.6856 5.27969 32.6992 5.66743Z" stroke="#A0A9B2" stroke-miterlimit="10" stroke-linecap="round" stroke-linejoin="round"/>
</g>
<g id="g3905">
<path id="path3907" d="M9.89328 7.03709C9.89328 7.76513 9.60406 8.46336 9.08925 8.97817C8.57445 9.49297 7.87622 9.78219 7.14818 9.78219C6.42013 9.78219 5.72191 9.49297 5.2071 8.97817C4.6923 8.46336 4.40308 7.76513 4.40308 7.03709C4.40308 6.30904 4.6923 5.61082 5.2071 5.09601C5.72191 4.58121 6.42013 4.29199 7.14818 4.29199C7.87622 4.29199 8.57445 4.58121 9.08925 5.09601C9.60406 5.61082 9.89328 6.30904 9.89328 7.03709Z" stroke="#A0A9B2" stroke-miterlimit="10" stroke-linecap="round" stroke-linejoin="round"/>
</g>
<path id="euro-sign" d="M32.3177 39.6881C31.3194 40.6185 30.0068 41.1381 28.6422 41.143C27.4885 41.1429 26.3658 40.7701 25.4413 40.08C24.5168 39.3899 23.84 38.4196 23.5118 37.3136H28.2598C28.358 37.3086 28.4505 37.2661 28.5183 37.1949C28.586 37.1236 28.6238 37.0291 28.6238 36.9308C28.6238 36.8324 28.586 36.7379 28.5183 36.6666C28.4505 36.5954 28.358 36.5529 28.2598 36.5479H23.3579C23.3579 36.3185 23.2814 36.0116 23.2814 35.7822C23.2688 35.5246 23.2946 35.2666 23.3579 35.0165H28.2598C28.358 35.0116 28.4505 34.9691 28.5183 34.8978C28.586 34.8266 28.6238 34.732 28.6238 34.6337C28.6238 34.5354 28.586 34.4408 28.5183 34.3696C28.4505 34.2983 28.358 34.2558 28.2598 34.2509H23.5118C23.8402 33.1451 24.517 32.1749 25.4415 31.4851C26.366 30.7952 27.4887 30.4225 28.6422 30.4224C30.0068 30.4274 31.3194 30.9469 32.3177 31.8773C32.3896 31.9446 32.4848 31.9813 32.5832 31.9797C32.6816 31.978 32.7756 31.9382 32.8452 31.8686C32.9148 31.799 32.9546 31.705 32.9563 31.6066C32.9579 31.5082 32.9212 31.4129 32.8539 31.3411C31.7109 30.2713 30.2076 29.6702 28.6422 29.6567C27.2922 29.6704 25.9841 30.1275 24.9194 30.9577C23.8547 31.7878 23.0925 32.9449 22.75 34.2509H21.3687C21.3168 34.2482 21.2649 34.2562 21.2161 34.2742C21.1674 34.2923 21.1228 34.3201 21.0852 34.3559C21.0475 34.3917 21.0175 34.4348 20.997 34.4825C20.9765 34.5303 20.9659 34.5817 20.9659 34.6337C20.9659 34.6857 20.9765 34.7371 20.997 34.7849C21.0175 34.8326 21.0475 34.8757 21.0852 34.9115C21.1228 34.9473 21.1674 34.9751 21.2161 34.9932C21.2649 35.0112 21.3168 35.0192 21.3687 35.0165H22.5932C22.5932 35.246 22.5167 35.5528 22.5167 35.7822C22.5041 36.0398 22.5299 36.2979 22.5932 36.5479H21.3687C21.3168 36.5453 21.2649 36.5532 21.2161 36.5713C21.1674 36.5893 21.1228 36.6171 21.0852 36.6529C21.0475 36.6887 21.0175 36.7318 20.997 36.7796C20.9765 36.8274 20.9659 36.8788 20.9659 36.9308C20.9659 36.9827 20.9765 37.0342 20.997 37.0819C21.0175 37.1297 21.0475 37.1728 21.0852 37.2086C21.1228 37.2444 21.1674 37.2722 21.2161 37.2902C21.2649 37.3083 21.3168 37.3162 21.3687 37.3136H22.75C23.0096 38.336 23.5302 39.2735 24.2608 40.0344C24.9913 40.7954 25.9069 41.3536 26.9179 41.6546C27.9289 41.9555 29.0008 41.9889 30.0285 41.7515C31.0563 41.514 32.0049 41.0138 32.7814 40.2999C32.8178 40.2653 32.8468 40.2238 32.8666 40.1777C32.8864 40.1316 32.8966 40.0819 32.8966 40.0317C32.8966 39.9816 32.8864 39.9319 32.8666 39.8858C32.8468 39.8397 32.8178 39.7981 32.7814 39.7636C32.761 39.723 32.7314 39.6877 32.6948 39.6607C32.6582 39.6337 32.6158 39.6158 32.571 39.6083C32.5261 39.6009 32.4802 39.6041 32.4368 39.6178C32.3935 39.6315 32.354 39.6553 32.3216 39.6871L32.3177 39.6881Z" fill="#A0A9B2"/>
</g>
</g>
<defs>
<clipPath id="clip0_322_1417">
<rect width="37.2912" height="50" fill="white"/>
</clipPath>
</defs>
</svg>
