<svg width="55" height="50" viewBox="0 0 55 50" fill="none" xmlns="http://www.w3.org/2000/svg">
<g id="_x32_28_x2C__Construction_x2C__renovation_x2C__Building" clip-path="url(#clip0_322_1392)">
<g id="_x32_28_x2C__Construction_x2C__renovation_x2C__Building_2">
<g id="XMLID_611_">
<g id="XMLID_650_">
<path id="XMLID_651_" d="M4.83105 25.2691L0.619049 21.0571C0.22304 20.6605 0.000610352 20.123 0.000610352 19.5625C0.000610352 19.0021 0.22304 18.4646 0.619049 18.0681L3.34305 15.3421C3.74042 14.9472 4.27786 14.7256 4.83805 14.7256C5.39824 14.7256 5.93568 14.9472 6.33305 15.3421L10.546 19.5551C10.9418 19.9517 11.1641 20.4892 11.1641 21.0496C11.1641 21.6099 10.9418 22.1474 10.546 22.5441L7.81805 25.2711C7.62317 25.4676 7.39118 25.6234 7.13557 25.7295C6.87995 25.8356 6.6058 25.8898 6.32905 25.8891C6.05087 25.8891 5.77541 25.8344 5.51838 25.7281C5.26135 25.6217 5.02779 25.4657 4.83105 25.2691ZM4.30305 16.302L1.57905 19.028C1.43817 19.1699 1.3591 19.3617 1.3591 19.5616C1.3591 19.7615 1.43817 19.9532 1.57905 20.095L5.79205 24.3081C5.93365 24.4486 6.12506 24.5274 6.32455 24.5274C6.52404 24.5274 6.71544 24.4486 6.85705 24.3081L9.58705 21.58C9.72847 21.4383 9.8079 21.2463 9.8079 21.0461C9.8079 20.8458 9.72847 20.6538 9.58705 20.5121L5.37505 16.3C5.23237 16.1586 5.03951 16.0795 4.83863 16.0798C4.63776 16.0802 4.44519 16.1601 4.30305 16.302Z" fill="#A0A9B2"/>
</g>
<g id="XMLID_648_">
<path id="XMLID_70_" d="M9.39503 20.3404C9.26777 20.2131 9.19629 20.0404 9.19629 19.8604C9.19629 19.6804 9.26777 19.5077 9.39503 19.3804L11.772 17.0024C11.8993 16.875 12.0721 16.8033 12.2522 16.8032C12.4323 16.8031 12.6051 16.8746 12.7325 17.0019C12.86 17.1292 12.9316 17.3019 12.9317 17.482C12.9318 17.6622 12.8603 17.835 12.733 17.9624L10.356 20.3404C10.293 20.4036 10.2181 20.4537 10.1356 20.4879C10.0532 20.522 9.96479 20.5396 9.87553 20.5396C9.78628 20.5396 9.6979 20.522 9.61545 20.4879C9.533 20.4537 9.4581 20.4036 9.39503 20.3404Z" fill="#A0A9B2"/>
</g>
<g id="XMLID_646_">
<path id="XMLID_69_" d="M5.54604 16.4854C5.41878 16.3581 5.34729 16.1854 5.34729 16.0054C5.34729 15.8254 5.41878 15.6527 5.54604 15.5254L7.92504 13.1484C7.98814 13.0854 8.06304 13.0354 8.14545 13.0013C8.22787 12.9672 8.3162 12.9497 8.4054 12.9497C8.49459 12.9498 8.58289 12.9674 8.66528 13.0015C8.74766 13.0357 8.8225 13.0858 8.88554 13.1489C8.94857 13.212 8.99856 13.2869 9.03265 13.3693C9.06674 13.4517 9.08426 13.5401 9.08421 13.6292C9.08417 13.7184 9.06655 13.8067 9.03238 13.8891C8.9982 13.9715 8.94814 14.0464 8.88504 14.1094L6.50604 16.4864C6.37858 16.6135 6.20585 16.6848 6.02583 16.6846C5.84581 16.6844 5.67323 16.6128 5.54604 16.4854Z" fill="#A0A9B2"/>
</g>
<g id="XMLID_642_">
<path id="XMLID_643_" d="M12.8171 19.0193L7.21007 13.4143C6.72564 12.9283 6.45361 12.27 6.45361 11.5838C6.45361 10.8976 6.72564 10.2393 7.21007 9.7533L13.6421 3.3213C14.1279 2.83723 14.7857 2.56543 15.4716 2.56543C16.1574 2.56543 16.8152 2.83723 17.3011 3.3213L22.9071 8.9283C23.392 9.41407 23.6643 10.0724 23.6643 10.7588C23.6643 11.4452 23.392 12.1035 22.9071 12.5893L16.4761 19.0203C15.9904 19.5047 15.3323 19.7767 14.6464 19.7765C13.9604 19.7763 13.3025 19.504 12.8171 19.0193ZM14.6021 4.2823L8.17007 10.7143C7.93997 10.9454 7.81078 11.2582 7.81078 11.5843C7.81078 11.9104 7.93997 12.2232 8.17007 12.4543L13.7771 18.0593C14.0078 18.2893 14.3203 18.4184 14.6461 18.4184C14.9718 18.4184 15.2843 18.2893 15.5151 18.0593L21.9461 11.6283C22.1759 11.3973 22.3048 11.0847 22.3048 10.7588C22.3048 10.4329 22.1759 10.1203 21.9461 9.8893L16.3401 4.2813C16.1091 4.0517 15.7965 3.92292 15.4709 3.9231C15.1452 3.92329 14.8328 4.05243 14.6021 4.2823Z" fill="#A0A9B2"/>
</g>
<g id="XMLID_640_">
<path id="XMLID_66_" d="M21.896 9.76621C21.8112 9.73866 21.7326 9.69466 21.6647 9.63673C21.5969 9.57879 21.5411 9.50806 21.5006 9.42856C21.4601 9.34906 21.4357 9.26237 21.4288 9.17343C21.4218 9.08448 21.4324 8.99504 21.46 8.9102C22.3676 5.95715 24.1192 3.3341 26.499 1.36421C23.158 1.26421 19.988 2.8642 17.266 4.5082C17.1897 4.55915 17.1038 4.59408 17.0135 4.61089C16.9232 4.62769 16.8305 4.62602 16.7409 4.60597C16.6513 4.58593 16.5668 4.54792 16.4923 4.49425C16.4178 4.44058 16.355 4.37237 16.3076 4.29373C16.2602 4.2151 16.2293 4.12767 16.2167 4.03674C16.204 3.94581 16.21 3.85326 16.2341 3.76469C16.2583 3.67612 16.3002 3.59338 16.3572 3.52145C16.4142 3.44952 16.4853 3.3899 16.566 3.34621C19.948 1.30121 23.997 -0.669797 28.39 0.218203C28.5206 0.244546 28.6405 0.308718 28.7349 0.40272C28.8293 0.496722 28.8939 0.616407 28.9208 0.746874C28.9476 0.877341 28.9355 1.01282 28.886 1.13646C28.8364 1.2601 28.7516 1.36643 28.642 1.44221C25.8312 3.31678 23.7519 6.10237 22.754 9.33021C22.7265 9.41529 22.6824 9.49409 22.6243 9.5621C22.5663 9.6301 22.4953 9.68596 22.4156 9.72647C22.3359 9.76698 22.249 9.79135 22.1598 9.79817C22.0706 9.80499 21.981 9.79413 21.896 9.76621Z" fill="#A0A9B2"/>
</g>
<g id="XMLID_635_">
<path id="XMLID_636_" d="M34.7071 36.2042L31.8671 33.3642C31.7445 33.2359 31.6771 33.0648 31.6791 32.8874C31.6811 32.7101 31.7525 32.5405 31.8779 32.4151C32.0034 32.2896 32.1729 32.2183 32.3503 32.2162C32.5277 32.2142 32.6988 32.2817 32.8271 32.4042L35.6671 35.2442C35.7945 35.3715 35.8662 35.5442 35.8663 35.7244C35.8664 35.9045 35.7949 36.0773 35.6676 36.2047C35.5403 36.3321 35.3676 36.4038 35.1874 36.4039C35.0073 36.404 34.8345 36.3325 34.7071 36.2052V36.2042ZM39.1241 31.7872L36.2351 28.8982C36.1697 28.8357 36.1174 28.7608 36.0813 28.6778C36.0453 28.5948 36.0262 28.5055 36.0251 28.415C36.0241 28.3245 36.0412 28.2348 36.0753 28.151C36.1095 28.0672 36.16 27.9911 36.224 27.9271C36.2879 27.8631 36.3641 27.8126 36.4478 27.7784C36.5316 27.7443 36.6214 27.7273 36.7119 27.7283C36.8023 27.7293 36.8917 27.7484 36.9747 27.7845C37.0576 27.8205 37.1326 27.8728 37.1951 27.9382L40.0841 30.8272C40.1495 30.8897 40.2018 30.9647 40.2378 31.0476C40.2739 31.1306 40.293 31.22 40.294 31.3104C40.295 31.4009 40.278 31.4907 40.2439 31.5744C40.2097 31.6582 40.1592 31.7344 40.0952 31.7983C40.0312 31.8623 39.9551 31.9128 39.8713 31.947C39.7875 31.9811 39.6978 31.9982 39.6073 31.9971C39.5168 31.9961 39.4275 31.977 39.3445 31.941C39.2615 31.9049 39.1866 31.8526 39.1241 31.7872ZM23.6921 25.1872L16.4771 17.9742C16.4139 17.9111 16.3638 17.8362 16.3296 17.7538C16.2954 17.6714 16.2778 17.583 16.2778 17.4937C16.2778 17.4045 16.2954 17.3161 16.3296 17.2336C16.3638 17.1512 16.4139 17.0763 16.4771 17.0132L20.8961 12.5962C21.0234 12.469 21.1961 12.3975 21.3761 12.3975C21.5561 12.3975 21.7288 12.469 21.8561 12.5962L29.0421 19.7802C29.1695 19.9075 29.2412 20.0802 29.2413 20.2604C29.2414 20.4405 29.1699 20.6133 29.0426 20.7407C28.9795 20.8038 28.9047 20.8539 28.8223 20.8881C28.7399 20.9222 28.6516 20.9398 28.5624 20.9399C28.3823 20.94 28.2095 20.8685 28.0821 20.7412L21.3761 14.0412L17.9181 17.4982L24.6531 24.2312C24.7805 24.3585 24.8522 24.5312 24.8522 24.7114C24.8523 24.8915 24.7809 25.0643 24.6536 25.1917C24.5905 25.2548 24.5157 25.3049 24.4333 25.3391C24.3509 25.3732 24.2626 25.3908 24.1734 25.3909C23.9933 25.391 23.8205 25.3195 23.6931 25.1922L23.6921 25.1872Z" fill="#A0A9B2"/>
</g>
<g id="XMLID_631_">
<path id="XMLID_632_" d="M43.299 46.9525L33.59 37.2445C33.4627 37.1171 33.3912 36.9445 33.3912 36.7645C33.3912 36.5844 33.4627 36.4118 33.59 36.2845L40.058 29.8145C40.121 29.7513 40.196 29.7012 40.2784 29.667C40.3609 29.6328 40.4493 29.6152 40.5385 29.6152C40.6278 29.6152 40.7161 29.6328 40.7986 29.667C40.881 29.7012 40.9559 29.7513 41.019 29.8145L50.593 39.3895C51.2921 40.0902 51.6847 41.0397 51.6847 42.0295C51.6847 43.0193 51.2921 43.9687 50.593 44.6695L48.31 46.9525C47.6449 47.6158 46.7439 47.9883 45.8045 47.9883C44.8651 47.9883 43.9641 47.6158 43.299 46.9525ZM35.03 36.7645L44.259 45.9925C44.6695 46.4007 45.225 46.6299 45.804 46.6299C46.383 46.6299 46.9385 46.4007 47.349 45.9925L49.632 43.7095C50.076 43.2633 50.3253 42.6594 50.3253 42.03C50.3253 41.4005 50.076 40.7966 49.632 40.3505L40.538 31.2565L35.03 36.7645Z" fill="#A0A9B2"/>
</g>
<g id="XMLID_627_">
<path id="XMLID_628_" d="M12.6301 49.19C12.5309 49.1442 12.4443 49.0751 12.3776 48.9887C12.3109 48.9022 12.2661 48.8009 12.2469 48.6934C12.2278 48.5859 12.2349 48.4753 12.2676 48.3711C12.3004 48.2669 12.3578 48.1722 12.4351 48.095L17.7801 42.752L17.6681 39.429L14.2831 39.265L8.94507 44.606C8.86786 44.6832 8.77314 44.7407 8.66896 44.7734C8.56478 44.8062 8.45423 44.8133 8.34671 44.7942C8.23919 44.775 8.13789 44.7302 8.05142 44.6635C7.96495 44.5968 7.89588 44.5102 7.85008 44.411C7.08458 42.5747 6.8629 40.5571 7.21145 38.5984C7.56 36.6397 8.46409 34.8225 9.81608 33.363C10.7823 32.3127 11.9844 31.5073 13.3232 31.0131C14.6621 30.519 16.0992 30.3503 17.5161 30.521L34.7921 13.237C34.6576 11.5317 34.9718 9.82091 35.7035 8.27469C36.4352 6.72848 37.5588 5.40073 38.9627 4.42342C40.3667 3.44612 42.002 2.85331 43.706 2.70394C45.4101 2.55457 47.1235 2.85385 48.6761 3.572C48.7752 3.6178 48.8618 3.68688 48.9285 3.77334C48.9953 3.85981 49.0401 3.96111 49.0592 4.06863C49.0784 4.17615 49.0713 4.2867 49.0385 4.39088C49.0058 4.49506 48.9483 4.5898 48.8711 4.66701L43.5331 10.007L43.6981 13.391L47.0211 13.503L52.3631 8.16C52.4403 8.08277 52.535 8.02532 52.6392 7.99256C52.7434 7.9598 52.8539 7.95269 52.9614 7.97184C53.069 7.99099 53.1703 8.03583 53.2567 8.10254C53.3432 8.16925 53.4123 8.25586 53.4581 8.355C54.1764 9.90742 54.4758 11.6208 54.3266 13.3248C54.1775 15.0288 53.5849 16.6642 52.6078 18.0682C51.6307 19.4722 50.3031 20.596 48.7571 21.3278C47.211 22.0597 45.5003 22.3742 43.7951 22.24L26.5121 39.525C26.6828 40.9419 26.5141 42.379 26.0199 43.7178C25.5258 45.0567 24.7204 46.2588 23.6701 47.225C22.2115 48.5757 20.3956 49.479 18.4384 49.8273C16.4812 50.1757 14.4652 49.9545 12.6301 49.19ZM14.1351 48.313C15.6209 48.7349 17.1902 48.7681 18.6925 48.4095C20.1949 48.0509 21.58 47.3125 22.7151 46.265C23.661 45.4035 24.3775 44.3202 24.8002 43.1126C25.2229 41.9051 25.3383 40.6113 25.1361 39.348C25.1247 39.2469 25.1362 39.1445 25.1698 39.0484C25.2034 38.9523 25.2582 38.865 25.3301 38.793L43.0661 21.055C43.1381 20.9831 43.2254 20.9283 43.3215 20.8947C43.4175 20.8611 43.5199 20.8496 43.6211 20.861C45.0255 21.0184 46.4469 20.8208 47.7551 20.2865C49.0633 19.7522 50.2166 18.8981 51.1093 17.8026C52.0019 16.7071 52.6054 15.4051 52.8645 14.0159C53.1235 12.6266 53.0299 11.1946 52.5921 9.851L47.7731 14.671C47.7077 14.7366 47.6297 14.7881 47.5437 14.8225C47.4577 14.8569 47.3656 14.8734 47.2731 14.871L43.0321 14.728C42.862 14.7222 42.7004 14.6526 42.5792 14.5331C42.4581 14.4136 42.3863 14.253 42.3781 14.083L42.1671 9.775C42.1628 9.68042 42.1784 9.58601 42.2129 9.49782C42.2473 9.40964 42.2998 9.32965 42.3671 9.263L47.1861 4.442C45.8421 4.00394 44.4097 3.91024 43.0202 4.16947C41.6306 4.4287 40.3284 5.03258 39.2328 5.92575C38.1372 6.81892 37.2833 7.97281 36.7495 9.28164C36.2156 10.5905 36.0188 12.0124 36.1771 13.417C36.1885 13.5181 36.1769 13.6205 36.1434 13.7166C36.1098 13.8127 36.055 13.9 35.9831 13.972L18.2471 31.709C18.1752 31.7808 18.0881 31.8355 17.9922 31.8691C17.8963 31.9026 17.7941 31.9142 17.6931 31.903C16.4301 31.7012 15.1367 31.8169 13.9296 32.2395C12.7224 32.6622 11.6394 33.3785 10.7781 34.324C9.73041 35.4598 8.99192 36.8456 8.63332 38.3486C8.27473 39.8516 8.30804 41.4216 8.73008 42.908L13.5401 38.096C13.6068 38.0288 13.6868 37.9763 13.7749 37.9419C13.8631 37.9074 13.9575 37.8918 14.0521 37.896L18.3611 38.105C18.531 38.1132 18.6917 38.185 18.8112 38.3061C18.9307 38.4273 19.0003 38.5889 19.0061 38.759L19.1491 43C19.1517 43.0926 19.1352 43.1847 19.1009 43.2707C19.0665 43.3567 19.0148 43.4347 18.9491 43.5L14.1351 48.313Z" fill="#A0A9B2"/>
</g>
<g id="XMLID_612_">
<path id="XMLID_52_" d="M22.843 34.2502C22.7158 34.1229 22.6443 33.9502 22.6443 33.7702C22.6443 33.5902 22.7158 33.4175 22.843 33.2902L37.556 18.5772C37.6843 18.4546 37.8554 18.3872 38.0328 18.3892C38.2102 18.3912 38.3798 18.4626 38.5052 18.588C38.6306 18.7135 38.702 18.883 38.704 19.0604C38.706 19.2378 38.6386 19.4089 38.516 19.5372L23.807 34.2502C23.7439 34.3138 23.6688 34.3643 23.5861 34.3987C23.5034 34.4332 23.4147 34.4509 23.325 34.4509C23.2354 34.4509 23.1467 34.4332 23.064 34.3987C22.9812 34.3643 22.9062 34.3138 22.843 34.2502Z" fill="#A0A9B2"/>
</g>
</g>
</g>
</g>
<defs>
<clipPath id="clip0_322_1392">
<rect width="54.36" height="50" fill="white"/>
</clipPath>
</defs>
</svg>
