<svg width="54" height="50" viewBox="0 0 54 50" fill="none" xmlns="http://www.w3.org/2000/svg">
<g id="_x35_36_x2C__Accept_x2C__Employee_x2C__Man_x2C__Office_x2C__Right" clip-path="url(#clip0_322_1386)">
<g id="_x35_36_x2C__Accept_x2C__Employee_x2C__Man_x2C__Office_x2C__Right_2">
<g id="Groupe 1275">
<path id="Trac&#195;&#169; 1038" d="M24.091 21.14C24.0291 21.0781 23.9557 21.029 23.8749 20.9955C23.794 20.9621 23.7074 20.9448 23.6199 20.9448C23.5325 20.9448 23.4459 20.9621 23.3651 20.9955C23.2842 21.029 23.2108 21.0781 23.149 21.14C22.9745 21.3145 22.7674 21.453 22.5395 21.5475C22.3115 21.6419 22.0672 21.6906 21.8204 21.6906C21.5737 21.6906 21.3294 21.6419 21.1014 21.5475C20.8735 21.453 20.6664 21.3145 20.492 21.14C20.367 21.015 20.1976 20.9449 20.021 20.9449C19.8443 20.9449 19.6749 21.015 19.55 21.14C19.425 21.2649 19.3549 21.4343 19.3549 21.611C19.3549 21.7876 19.425 21.957 19.55 22.082C19.8481 22.3804 20.2021 22.6171 20.5918 22.7787C20.9814 22.9402 21.3991 23.0233 21.821 23.0233C22.2428 23.0233 22.6605 22.9402 23.0501 22.7787C23.4398 22.6171 23.7938 22.3804 24.0919 22.082C24.2165 21.9568 24.2864 21.7873 24.2862 21.6107C24.286 21.4342 24.2158 21.2649 24.091 21.14Z" fill="#A0A9B2"/>
<path id="Trac&#195;&#169; 1039" d="M43.059 20.6928C41.4564 20.6945 39.8749 21.0592 38.4334 21.7595C36.9919 22.4599 35.7278 23.4777 34.7359 24.7366C33.7441 25.9954 33.0503 27.4626 32.7067 29.028C32.3631 30.5934 32.3786 32.2163 32.752 33.7748L31.752 33.3468C30.6349 32.8686 29.5944 32.2284 28.664 31.4468C27.9541 30.878 27.3235 30.2168 26.789 29.4808C26.778 29.4658 26.765 29.4548 26.753 29.4408C26.741 29.4268 26.733 29.4138 26.721 29.4018L26.71 29.3928C26.6781 29.3638 26.6447 29.3364 26.61 29.3108C26.591 29.2988 26.51 29.2598 26.494 29.2528C26.478 29.2458 26.394 29.2228 26.371 29.2188C26.348 29.2148 26.271 29.2088 26.245 29.2088C26.219 29.2088 26.14 29.2188 26.119 29.2228C26.098 29.2268 26.019 29.2518 25.996 29.2618C25.973 29.2718 25.961 29.2798 25.944 29.2888L25.922 29.3008V27.6738C27.5492 26.901 28.9243 25.6831 29.8879 24.1611C30.8516 22.6391 31.3644 20.8752 31.367 19.0738V14.7068C31.4161 14.8522 31.477 14.9933 31.549 15.1288C31.5934 15.1981 31.65 15.2588 31.716 15.3078L31.734 15.3218C31.8001 15.3685 31.8744 15.4024 31.953 15.4218L31.97 15.4278C32.0159 15.4365 32.0623 15.4416 32.109 15.4428C32.1489 15.4427 32.1888 15.4391 32.228 15.4318L32.255 15.4248C32.2853 15.4183 32.315 15.4096 32.344 15.3988H32.354L32.378 15.3868C32.4557 15.3523 32.526 15.3031 32.585 15.2418C32.6118 15.2123 32.6369 15.1813 32.66 15.1488C32.6779 15.1211 32.6936 15.092 32.707 15.0618C32.707 15.0548 32.714 15.0488 32.717 15.0418C32.7334 15.0034 32.7461 14.9636 32.755 14.9228C34.127 8.52281 32.738 4.83181 31.333 2.86581C30.4591 1.57887 29.2107 0.591628 27.757 0.0378077C27.6579 0.00747404 27.553 0.000807658 27.4508 0.0183451C27.3487 0.0358826 27.252 0.0771366 27.1687 0.13879C27.0854 0.200444 27.0176 0.280779 26.971 0.373348C26.9243 0.465918 26.9 0.568141 26.9 0.671807V1.43481C24.7392 0.748144 22.4797 0.424093 20.213 0.475807C17.6422 0.482921 15.1324 1.2593 13.0066 2.705C10.8808 4.1507 9.23641 6.19955 8.285 8.58781C8.285 8.59581 8.285 8.60281 8.277 8.61081C8.269 8.61881 8.268 8.62781 8.264 8.63781C8.26 8.64781 8.25701 8.66681 8.25301 8.68081C8.21135 8.82741 8.22188 8.98393 8.2828 9.12363C8.34371 9.26334 8.45124 9.37756 8.58701 9.44681C8.59701 9.45181 8.606 9.45981 8.617 9.46381L8.653 9.47781L8.666 9.48381C9.86325 9.91207 11.0815 10.2792 12.316 10.5838V19.0688C12.3177 20.8484 12.8174 22.592 13.7587 24.1023C14.6999 25.6126 16.0451 26.8294 17.642 27.6148V29.2348C17.6016 29.2201 17.559 29.212 17.516 29.2108C17.4733 29.204 17.4297 29.204 17.387 29.2108C17.3443 29.2124 17.3021 29.2208 17.262 29.2358C17.248 29.2358 17.234 29.2428 17.22 29.2478C17.206 29.2528 17.12 29.2978 17.104 29.3058C17.0632 29.3345 17.0238 29.3652 16.986 29.3978C16.971 29.4128 16.96 29.4298 16.946 29.4468C16.932 29.4638 16.927 29.4658 16.918 29.4778C16.3482 30.2664 15.6679 30.969 14.898 31.5638C14.0029 32.2911 13.0115 32.8912 11.952 33.3468L5.728 36.0158C2.04 37.5968 0 43.5258 0 47.0158V49.3348C0 49.5106 0.0698544 49.6793 0.194191 49.8036C0.318528 49.928 0.487163 49.9978 0.663002 49.9978H43.046C43.2218 49.9978 43.3905 49.928 43.5148 49.8036C43.6392 49.6793 43.709 49.5106 43.709 49.3348V47.0188C43.6639 45.2615 43.314 43.5254 42.675 41.8878C45.4863 41.9389 48.2027 40.871 50.2267 38.9193C52.2507 36.9675 53.4165 34.2916 53.4675 31.4803C53.5186 28.669 52.4507 25.9526 50.499 23.9286C48.5472 21.9046 45.8713 20.7389 43.06 20.6878L43.059 20.6928ZM17.516 30.8698L20.975 34.3288L18.457 37.6168L16.098 32.2958C16.6127 31.8642 17.0873 31.387 17.516 30.8698ZM26.193 30.8698C26.6221 31.3825 27.0956 31.8564 27.608 32.2858L25.129 37.6128L22.729 34.3378L26.193 30.8698ZM20.215 1.80281C22.6314 1.74769 25.0365 2.14765 27.305 2.98181C27.339 2.99481 27.33 2.98881 27.351 2.99581C27.4067 3.01811 27.466 3.02965 27.526 3.02981C27.577 3.03702 27.629 3.03431 27.679 3.02181H27.698C27.7629 3.00965 27.8249 2.98558 27.881 2.95081C27.899 2.94081 27.917 2.93381 27.933 2.92281C27.949 2.91181 27.958 2.90181 27.972 2.89081C28.0085 2.86336 28.042 2.83219 28.072 2.79781C28.0883 2.77995 28.1036 2.76125 28.118 2.74181C28.118 2.73481 28.126 2.72581 28.131 2.71881C28.1501 2.6892 28.1669 2.6581 28.181 2.62581C28.186 2.61281 28.188 2.59981 28.193 2.58681C28.215 2.53246 28.2266 2.47444 28.227 2.41581C28.227 2.40181 28.227 2.38881 28.227 2.37481V1.72281C29.0496 2.23213 29.7578 2.90629 30.307 3.70281C31.759 5.78381 32.28 8.74181 31.848 12.3418L31.32 11.0228C31.313 11.0068 31.266 10.9178 31.255 10.9008C31.244 10.8838 31.235 10.8758 31.225 10.8638C31.215 10.8518 31.201 10.8318 31.187 10.8168L31.173 10.8008H31.168C31.158 10.7908 31.147 10.7838 31.136 10.7748C31.125 10.7658 31.107 10.7488 31.092 10.7378L31.075 10.7248L31.032 10.7008C31.016 10.6918 31 10.6818 30.983 10.6738L30.964 10.6638L30.917 10.6488C30.899 10.6428 30.881 10.6358 30.863 10.6318L30.841 10.6258L30.795 10.6208C30.7528 10.6122 30.7092 10.6122 30.667 10.6208C30.62 10.6208 30.5734 10.6286 30.529 10.6438C30.517 10.6438 30.504 10.6438 30.492 10.6528L29.226 11.0848L29.539 9.67981C29.5649 9.56257 29.5586 9.4405 29.5205 9.32661C29.4825 9.21272 29.4143 9.11129 29.3231 9.03316C29.2319 8.95503 29.1212 8.90312 29.0029 8.88298C28.8845 8.86284 28.7629 8.87523 28.651 8.91881L25.698 10.0608L25.798 9.16881C25.8121 9.03963 25.7881 8.90914 25.7287 8.79351C25.6694 8.67788 25.5775 8.5822 25.4643 8.51833C25.3512 8.45445 25.2217 8.42518 25.0921 8.43415C24.9625 8.44313 24.8383 8.48995 24.735 8.56881C23.619 9.26669 22.3615 9.70735 21.054 9.85881C18.833 10.2168 15.107 10.2498 9.807 8.47781C10.7143 6.48087 12.1791 4.78856 14.0254 3.60439C15.8716 2.42021 18.0216 1.79461 20.215 1.80281ZM13.641 19.0688V10.8788C19.194 11.9858 22.654 11.0408 24.332 10.2948L24.25 11.0028C24.2368 11.1164 24.2532 11.2316 24.2977 11.337C24.3421 11.4424 24.4131 11.5345 24.5037 11.6044C24.5943 11.6742 24.7014 11.7194 24.8147 11.7356C24.9279 11.7518 25.0435 11.7385 25.15 11.6968L27.972 10.5968L27.672 11.9398C27.6466 12.0547 27.6521 12.1742 27.6882 12.2862C27.7242 12.3982 27.7894 12.4986 27.877 12.5771C27.9647 12.6556 28.0716 12.7093 28.1869 12.7328C28.3022 12.7563 28.4216 12.7487 28.533 12.7108L30.04 12.1968V19.0738C30.04 21.2486 29.1761 23.3343 27.6383 24.8721C26.1005 26.4099 24.0148 27.2738 21.84 27.2738C19.6652 27.2738 17.5795 26.4099 16.0417 24.8721C14.5039 23.3343 13.64 21.2486 13.64 19.0738L13.641 19.0688ZM24.598 28.1858V30.5938L21.854 33.3348L18.967 30.4478V28.1478C20.7964 28.7271 22.7583 28.7397 24.595 28.1838L24.598 28.1858ZM1.325 47.0198C1.325 43.4708 3.476 38.4198 6.249 37.2338L12.475 34.5658C13.3712 34.1806 14.2237 33.7009 15.018 33.1348L17.699 39.1738C17.7457 39.2789 17.8189 39.37 17.9115 39.4382C18.004 39.5064 18.1127 39.5493 18.2269 39.5628C18.3411 39.5764 18.4568 39.56 18.5627 39.5152C18.6686 39.4705 18.7611 39.399 18.831 39.3078L20.567 37.0408L18.008 48.6748H8.43501V43.5428C8.43847 43.4536 8.4239 43.3647 8.39217 43.2813C8.36043 43.1979 8.31219 43.1218 8.25033 43.0574C8.18847 42.9931 8.11426 42.942 8.03216 42.907C7.95005 42.8721 7.86173 42.8541 7.7725 42.8541C7.68327 42.8541 7.59495 42.8721 7.51285 42.907C7.43074 42.942 7.35654 42.9931 7.29468 43.0574C7.23282 43.1218 7.18457 43.1979 7.15284 43.2813C7.12111 43.3647 7.10654 43.4536 7.11 43.5428V48.6748H1.325V47.0198ZM21.854 37.3568L24.343 48.6748H19.365L21.854 37.3568ZM42.383 47.0188V48.6748H36.829V43.5428C36.8325 43.4536 36.8179 43.3647 36.7862 43.2813C36.7544 43.1979 36.7062 43.1218 36.6443 43.0574C36.5825 42.9931 36.5083 42.942 36.4262 42.907C36.344 42.8721 36.2557 42.8541 36.1665 42.8541C36.0773 42.8541 35.989 42.8721 35.9068 42.907C35.8247 42.942 35.7505 42.9931 35.6887 43.0574C35.6268 43.1218 35.5786 43.1979 35.5468 43.2813C35.5151 43.3647 35.5005 43.4536 35.504 43.5428V48.6748H25.704L23.178 37.1898L24.727 39.2998C24.7952 39.3925 24.8864 39.4658 24.9915 39.5126C25.0967 39.5594 25.2122 39.578 25.3267 39.5666C25.4412 39.5552 25.5508 39.5142 25.6446 39.4476C25.7385 39.381 25.8134 39.2911 25.862 39.1868L28.681 33.1288C29.4785 33.6977 30.3347 34.1795 31.235 34.5658L33.31 35.4548C34.0023 37.0697 35.0839 38.4879 36.4581 39.5827C37.8323 40.6775 39.4563 41.4148 41.185 41.7288C41.9218 43.3988 42.3293 45.1953 42.385 47.0198L42.383 47.0188ZM43.059 40.5728C41.2242 40.5728 39.4306 40.0287 37.905 39.0093C36.3794 37.99 35.1903 36.5411 34.4882 34.846C33.786 33.1508 33.6023 31.2855 33.9603 29.486C34.3182 27.6864 35.2018 26.0334 36.4992 24.736C37.7966 23.4386 39.4496 22.555 41.2492 22.1971C43.0487 21.8391 44.914 22.0228 46.6092 22.725C48.3043 23.4271 49.7532 24.6162 50.7725 26.1418C51.7919 27.6674 52.336 29.461 52.336 31.2958C52.3331 33.7553 51.3548 36.1133 49.6156 37.8524C47.8765 39.5916 45.5185 40.5699 43.059 40.5728Z" fill="#A0A9B2"/>
<path id="Trac&#195;&#169; 1042" d="M48.9799 26.0087C48.7634 25.7917 48.5062 25.6196 48.2231 25.5021C47.94 25.3847 47.6365 25.3242 47.33 25.3242C47.0234 25.3242 46.7199 25.3847 46.4368 25.5021C46.1536 25.6196 45.8964 25.7917 45.6799 26.0087L40.7329 30.9557L40.0259 30.2487C39.8093 30.032 39.552 29.8601 39.2689 29.7429C38.9858 29.6256 38.6824 29.5652 38.3759 29.5652C38.0695 29.5652 37.7661 29.6256 37.483 29.7429C37.1999 29.8601 36.9426 30.032 36.726 30.2487C36.5093 30.4654 36.3374 30.7226 36.2201 31.0057C36.1029 31.2888 36.0425 31.5922 36.0425 31.8987C36.0425 32.2051 36.1029 32.5085 36.2201 32.7917C36.3374 33.0748 36.5093 33.332 36.726 33.5487L40.2599 37.0827C40.3218 37.1446 40.3952 37.1936 40.476 37.2271C40.5569 37.2606 40.6435 37.2778 40.731 37.2778C40.8184 37.2778 40.9051 37.2606 40.9859 37.2271C41.0667 37.1936 41.1401 37.1446 41.2019 37.0827L48.976 29.3087C49.4137 28.8714 49.66 28.2783 49.6608 27.6595C49.6615 27.0408 49.4166 26.447 48.9799 26.0087ZM48.0379 28.3647L40.7379 35.6647L37.675 32.6017C37.4928 32.4131 37.392 32.1605 37.3943 31.8983C37.3965 31.6361 37.5017 31.3853 37.6871 31.1999C37.8725 31.0145 38.1234 30.9093 38.3856 30.907C38.6478 30.9047 38.9004 31.0055 39.089 31.1877L40.2669 32.3657C40.3288 32.4275 40.4022 32.4766 40.483 32.5101C40.5638 32.5436 40.6505 32.5608 40.7379 32.5608C40.8254 32.5608 40.912 32.5436 40.9929 32.5101C41.0737 32.4766 41.1471 32.4275 41.209 32.3657L46.627 26.9477C46.7192 26.8522 46.8295 26.776 46.9515 26.7236C47.0735 26.6712 47.2048 26.6436 47.3376 26.6424C47.4703 26.6413 47.602 26.6666 47.7249 26.7169C47.8478 26.7671 47.9595 26.8414 48.0533 26.9353C48.1472 27.0292 48.2215 27.1408 48.2718 27.2637C48.322 27.3866 48.3473 27.5183 48.3462 27.6511C48.345 27.7839 48.3175 27.9151 48.265 28.0371C48.2126 28.1591 48.1365 28.2694 48.041 28.3617L48.0379 28.3647Z" fill="#A0A9B2"/>
</g>
</g>
</g>
<defs>
<clipPath id="clip0_322_1386">
<rect width="53.662" height="50" fill="white"/>
</clipPath>
</defs>
</svg>
