<svg width="40" height="50" viewBox="0 0 40 50" fill="none" xmlns="http://www.w3.org/2000/svg">
<g id="paint-roller" clip-path="url(#clip0_322_1413)">
<g id="paint-roller_2">
<path id="Trac&#195;&#169; 1021" d="M35.0126 5.28518H33.7161V4.82228C33.7148 3.6608 33.2528 2.54726 32.4315 1.72597C31.6102 0.904676 30.4967 0.442704 29.3352 0.441406H4.82213C3.6615 0.444001 2.54922 0.906545 1.72899 1.7277C0.90876 2.54885 0.447462 3.66165 0.446167 4.82228V7.50258C0.448346 8.49624 0.788034 9.45968 1.40955 10.235C2.03106 11.0103 2.89753 11.5514 3.86691 11.7697V24.5789C3.87443 25.1203 4.04032 25.6476 4.34411 26.0959C4.6479 26.5441 5.07629 26.8935 5.5764 27.1011C6.07651 27.3087 6.62645 27.3652 7.15834 27.2638C7.69023 27.1624 8.18079 26.9075 8.56946 26.5305C8.82633 26.2746 9.02998 25.9705 9.16868 25.6355C9.30738 25.3005 9.37838 24.9414 9.37757 24.5789V19.944C9.37757 19.7879 9.43957 19.6383 9.54992 19.5279C9.66028 19.4175 9.80995 19.3556 9.96601 19.3556C10.1221 19.3556 10.2717 19.4175 10.3821 19.5279C10.4924 19.6383 10.5544 19.7879 10.5544 19.944V20.3118C10.5544 20.6448 10.62 20.9746 10.7475 21.2823C10.8749 21.59 11.0618 21.8696 11.2973 22.1051C11.5328 22.3406 11.8123 22.5274 12.12 22.6548C12.4277 22.7823 12.7575 22.8479 13.0906 22.8479C13.4236 22.8479 13.7534 22.7823 14.0611 22.6548C14.3688 22.5274 14.6484 22.3406 14.8839 22.1051C15.1194 21.8696 15.3062 21.59 15.4337 21.2823C15.5611 20.9746 15.6267 20.6448 15.6267 20.3118V11.8776H29.3352C30.4957 11.8763 31.6083 11.4151 32.4294 10.5951C33.2506 9.77507 33.7132 8.66304 33.7161 7.50258V7.03968H35.0136C35.5133 7.0402 35.9925 7.23896 36.3459 7.59234C36.6992 7.94573 36.898 8.42487 36.8985 8.92463V12.8632C36.8975 13.2182 36.7968 13.5658 36.6078 13.8663C36.4188 14.1668 36.1491 14.4082 35.8295 14.5628L19.7752 22.2791C19.0424 22.6346 18.4242 23.1886 17.9908 23.8782C17.5573 24.5677 17.3261 25.365 17.3234 26.1794V29.9581H16.5761C15.9024 29.9579 15.2543 30.2164 14.7656 30.6801C14.2769 31.1438 13.9849 31.7774 13.9497 32.4501L13.326 44.3757C13.2889 45.0371 13.3881 45.6992 13.6176 46.3207C13.847 46.9422 14.2017 47.5099 14.6597 47.9886C15.3503 48.7024 16.2415 49.1893 17.2152 49.3848C18.1889 49.5803 19.1991 49.4751 20.1116 49.0831C21.0241 48.6912 21.7959 48.031 22.3245 47.1903C22.8531 46.3495 23.1136 45.3679 23.0714 44.3757L22.4476 32.4482C22.4122 31.7756 22.12 31.1422 21.6313 30.6787C21.1427 30.2152 20.4948 29.9569 19.8213 29.9571H19.0798V26.1755C19.0816 25.6909 19.2192 25.2165 19.4772 24.8063C19.7352 24.3961 20.1031 24.0665 20.5391 23.8551L36.5925 16.1388C37.2083 15.8399 37.7278 15.3741 38.0919 14.7945C38.456 14.2149 38.6501 13.5447 38.652 12.8603V8.92266C38.651 7.95826 38.2674 7.03366 37.5855 6.35172C36.9036 5.66978 35.979 5.28622 35.0146 5.28518H35.0126ZM13.8683 20.3127C13.8683 20.5208 13.7856 20.7204 13.6385 20.8675C13.4914 21.0147 13.2918 21.0973 13.0837 21.0973C12.8756 21.0973 12.6761 21.0147 12.5289 20.8675C12.3818 20.7204 12.2991 20.5208 12.2991 20.3127V19.945C12.2991 19.3244 12.0526 18.7292 11.6138 18.2903C11.1749 17.8515 10.5797 17.605 9.95914 17.605C9.33854 17.605 8.74335 17.8515 8.30451 18.2903C7.86568 18.7292 7.61915 19.3244 7.61915 19.945V24.5798C7.61915 24.7116 7.5932 24.8421 7.54278 24.9638C7.49236 25.0855 7.41846 25.1961 7.32529 25.2893C7.23213 25.3824 7.12153 25.4563 6.99981 25.5067C6.87808 25.5572 6.74762 25.5831 6.61587 25.5831C6.48412 25.5831 6.35366 25.5572 6.23193 25.5067C6.11021 25.4563 5.99961 25.3824 5.90645 25.2893C5.81328 25.1961 5.73938 25.0855 5.68896 24.9638C5.63855 24.8421 5.6126 24.7116 5.6126 24.5798V11.8815H13.8663L13.8683 20.3127ZM31.9635 7.50258C31.9628 8.19942 31.6856 8.86749 31.1929 9.36023C30.7001 9.85297 30.032 10.1301 29.3352 10.1309H4.82213C4.1253 10.1301 3.45723 9.85297 2.96449 9.36023C2.47175 8.86749 2.19459 8.19942 2.19381 7.50258V4.82228C2.19459 4.12544 2.47175 3.45737 2.96449 2.96463C3.45723 2.47189 4.1253 2.19473 4.82213 2.19395H29.3352C30.032 2.19473 30.7001 2.47189 31.1929 2.96463C31.6856 3.45737 31.9628 4.12544 31.9635 4.82228V7.50258ZM20.697 32.5364L21.3208 44.4629C21.3419 45.0968 21.1713 45.7222 20.8313 46.2575C20.4912 46.7928 19.9976 47.213 19.4149 47.4633C18.8322 47.7135 18.1875 47.7821 17.5652 47.6601C16.9429 47.5381 16.3719 47.2311 15.9268 46.7794C15.6332 46.4725 15.4058 46.1085 15.2588 45.71C15.1119 45.3115 15.0485 44.887 15.0726 44.4629L15.6963 32.5374C15.7079 32.3132 15.8051 32.102 15.9679 31.9474C16.1307 31.7928 16.3467 31.7067 16.5711 31.7067H19.8173C20.0418 31.7064 20.2579 31.7923 20.4209 31.9467C20.5838 32.1011 20.6813 32.3122 20.6931 32.5364H20.697Z" fill="#A0A9B2" stroke="white" stroke-width="0.9"/>
<path id="Trac&#195;&#169; 1022" d="M15.7032 44.3729C15.7032 44.8665 15.8496 45.3491 16.1239 45.7595C16.3981 46.17 16.788 46.4899 17.244 46.6788C17.7001 46.8677 18.2019 46.9172 18.6861 46.8209C19.1703 46.7245 19.615 46.4868 19.9641 46.1378C20.3131 45.7887 20.5508 45.344 20.6471 44.8598C20.7435 44.3757 20.694 43.8738 20.5051 43.4177C20.3162 42.9617 19.9963 42.5718 19.5858 42.2976C19.1754 42.0233 18.6928 41.877 18.1992 41.877C17.5372 41.877 16.9024 42.1399 16.4343 42.608C15.9662 43.0761 15.7032 43.7109 15.7032 44.3729ZM18.9396 44.3729C18.9396 44.5199 18.896 44.6636 18.8143 44.7859C18.7327 44.9081 18.6166 45.0034 18.4807 45.0597C18.3449 45.1159 18.1954 45.1307 18.0512 45.102C17.907 45.0733 17.7745 45.0025 17.6706 44.8985C17.5666 44.7946 17.4958 44.6621 17.4671 44.5179C17.4385 44.3737 17.4532 44.2242 17.5094 44.0884C17.5657 43.9526 17.661 43.8365 17.7832 43.7548C17.9055 43.6731 18.0492 43.6295 18.1962 43.6295C18.3934 43.6295 18.5825 43.7078 18.7219 43.8472C18.8613 43.9866 18.9396 44.1757 18.9396 44.3729Z" fill="#A0A9B2" stroke="white" stroke-width="0.9"/>
</g>
</g>
<defs>
<clipPath id="clip0_322_1413">
<rect width="39.0915" height="50" fill="white"/>
</clipPath>
</defs>
</svg>
