<svg width="91" height="80" viewBox="0 0 91 80" fill="none" xmlns="http://www.w3.org/2000/svg">
<g clip-path="url(#clip0_46_48)">
<path d="M89.2064 64.0002C89.4169 64.0002 89.6187 63.9155 89.7676 63.7646C89.9164 63.6138 90 63.4093 90 63.196V0.804212C90 0.590922 89.9164 0.386368 89.7676 0.235549C89.6187 0.0847296 89.4169 0 89.2064 0H26.0519C25.9183 0.00426896 25.7879 0.0426504 25.6729 0.111584L0.410689 14.512C0.288734 14.58 0.186587 14.6794 0.114501 14.8001C0.0424152 14.9208 0.0029274 15.0586 1.43237e-06 15.1996V77.5994C-0.000261529 77.7392 0.0356865 77.8765 0.104251 77.9978C0.172815 78.119 0.271592 78.2199 0.390703 78.2904C0.509814 78.3608 0.645084 78.3983 0.782986 78.3991C0.920887 78.3999 1.05659 78.3641 1.17651 78.2951L26.2572 64.0002H30.7886V71.1999C30.79 71.6951 30.9425 72.1777 31.2253 72.5816C31.508 72.9855 31.9071 73.2908 32.3679 73.4557V75.998C32.3679 76.2113 32.4515 76.4159 32.6003 76.5667C32.7492 76.7175 32.951 76.8022 33.1615 76.8022H35.5294C35.7399 76.8022 35.9417 76.7175 36.0906 76.5667C36.2394 76.4159 36.323 76.2113 36.323 75.998V73.5995H58.4188V75.998C58.4188 76.2113 58.5024 76.4159 58.6512 76.5667C58.8 76.7175 59.0019 76.8022 59.2124 76.8022H61.5803C61.7907 76.8022 61.9926 76.7175 62.1414 76.5667C62.2902 76.4159 62.3739 76.2113 62.3739 75.998V73.4557C62.8346 73.2908 63.2337 72.9855 63.5165 72.5816C63.7992 72.1777 63.9517 71.6951 63.9531 71.1999V64.0002H74.995V75.5678L70.6134 78.5353C70.4762 78.6323 70.3727 78.7706 70.3178 78.9307C70.2628 79.0908 70.2591 79.2644 70.3073 79.4267C70.3555 79.589 70.4531 79.7317 70.5861 79.8345C70.719 79.9373 70.8807 79.9949 71.0479 79.999H83.681C83.8482 79.9949 84.0098 79.9373 84.1428 79.8345C84.2758 79.7317 84.3734 79.589 84.4215 79.4267C84.4697 79.2644 84.4661 79.0908 84.4111 78.9307C84.3561 78.7706 84.2527 78.6323 84.1155 78.5353L79.7338 75.5678V64.0002H89.2064ZM18.1536 66.7838L8.67998 72.1841V42.8635L18.1536 37.3758V66.7838ZM25.2583 62.7356L19.7408 65.88V35.9995C19.74 35.8593 19.7031 35.7217 19.6337 35.6004C19.5643 35.4791 19.4648 35.3783 19.3451 35.308C19.2254 35.2377 19.0896 35.2003 18.9513 35.1996C18.8129 35.1989 18.6767 35.2348 18.5563 35.3039L7.49951 41.7034C7.37898 41.7739 7.27888 41.8753 7.20923 41.9974C7.13959 42.1195 7.10285 42.258 7.10271 42.3991V73.0828L1.57926 76.2323V15.664L25.2622 2.16836L25.2583 62.7356ZM34.7318 75.2009H33.9382V73.5995H34.7318V75.2009ZM60.7837 75.2009H59.9901V73.5995H60.7837V75.2009ZM62.3629 71.2009C62.3629 71.4142 62.2793 71.6188 62.1305 71.7696C61.9817 71.9204 61.7798 72.0051 61.5693 72.0051H33.1565C32.9461 72.0051 32.7442 71.9204 32.5954 71.7696C32.4465 71.6188 32.3629 71.4142 32.3629 71.2009V63.2C32.3577 62.9865 32.3946 62.7741 32.4716 62.5754C32.5485 62.3766 32.664 62.1954 32.8111 62.0425C32.9582 61.8896 33.134 61.7682 33.3282 61.6852C33.5224 61.6023 33.731 61.5595 33.9417 61.5595C34.1524 61.5595 34.361 61.6023 34.5552 61.6852C34.7494 61.7682 34.9252 61.8896 35.0723 62.0425C35.2194 62.1954 35.3349 62.3766 35.4118 62.5754C35.4888 62.7741 35.5257 62.9865 35.5205 63.2V68.0001C35.5205 68.2134 35.6041 68.418 35.7529 68.5688C35.9017 68.7196 36.1036 68.8044 36.3141 68.8044H58.4188C58.6292 68.8044 58.8311 68.7196 58.9799 68.5688C59.1287 68.418 59.2124 68.2134 59.2124 68.0001V63.2C59.2071 62.9865 59.244 62.7741 59.321 62.5754C59.3979 62.3766 59.5134 62.1954 59.6605 62.0425C59.8076 61.8896 59.9835 61.7682 60.1776 61.6852C60.3718 61.6023 60.5804 61.5595 60.7911 61.5595C61.0018 61.5595 61.2104 61.6023 61.4046 61.6852C61.5988 61.7682 61.7746 61.8896 61.9217 62.0425C62.0689 62.1954 62.1843 62.3766 62.2613 62.5754C62.3382 62.7741 62.3752 62.9865 62.3699 63.2L62.3629 71.2009ZM48.1555 60.7994V55.2001H59.2084C59.4189 55.2001 59.6207 55.2848 59.7695 55.4357C59.9184 55.5865 60.002 55.791 60.002 56.0043V60.1148C59.3259 60.2918 58.7267 60.6909 58.2983 61.2497C57.8698 61.8085 57.6362 62.4954 57.6341 63.203V64.0072H48.9452C48.3608 64.0107 47.7983 64.233 47.3659 64.6315C46.9336 64.233 46.3711 64.0107 45.7867 64.0072H37.1007V63.203C37.0987 62.4958 36.8656 61.8092 36.4377 61.2504C36.0098 60.6917 35.4114 60.2924 34.7358 60.1148V56.0033C34.7358 55.79 34.8194 55.5855 34.9682 55.4347C35.1171 55.2838 35.3189 55.1991 35.5294 55.1991H46.5773V60.7994H48.1555ZM57.6291 65.5996V67.2H48.1555V66.3957C48.1555 66.1824 48.2392 65.9779 48.388 65.8271C48.5368 65.6763 48.7387 65.5915 48.9491 65.5915L57.6291 65.5996ZM46.5773 66.4038V67.208H37.1007V65.5996H45.7847C45.9943 65.5998 46.1953 65.6841 46.3438 65.8341C46.4923 65.984 46.5762 66.1873 46.5773 66.3998V66.4038ZM63.838 62.4038C63.6961 61.8529 63.4117 61.3503 63.0141 60.9479C62.6165 60.5455 62.1202 60.2579 61.5763 60.1148V56.0033C61.5763 55.3669 61.3268 54.7566 60.8827 54.3066C60.4387 53.8566 59.8364 53.6037 59.2084 53.6037H35.5244C34.8964 53.6037 34.2941 53.8566 33.8501 54.3066C33.406 54.7566 33.1565 55.3669 33.1565 56.0033V60.1148C32.6135 60.2585 32.1181 60.5462 31.7212 60.9483C31.3244 61.3505 31.0405 61.8525 30.8988 62.4028H26.8415V1.60038H88.4178V62.3998H79.7338V49.5998H82.1017V55.2001H83.681V49.5998H85.2602C85.3954 49.5978 85.5279 49.5615 85.6456 49.4941C85.7633 49.4268 85.8624 49.3305 85.9339 49.2143C86.0053 49.098 86.0469 48.9655 86.0546 48.8287C86.0624 48.692 86.0362 48.5555 85.9784 48.4317L80.451 36.4318C80.3828 36.2992 80.2795 36.1885 80.1526 36.1122C80.0257 36.0358 79.8804 35.9968 79.7328 35.9995H74.995C74.8372 35.9999 74.6831 36.0479 74.5523 36.1374C74.4216 36.2269 74.3201 36.3539 74.261 36.5022L69.5262 48.504C69.4795 48.6255 69.4627 48.7566 69.4772 48.886C69.4917 49.0155 69.537 49.1395 69.6092 49.2473C69.6814 49.3551 69.7784 49.4435 69.8918 49.5049C70.0052 49.5663 70.1317 49.5989 70.2602 49.5998H74.995V62.3998L63.838 62.4038ZM81.079 78.4036H73.6549L76.2202 76.6675C76.3285 76.5947 76.4176 76.4961 76.4795 76.3802C76.5415 76.2643 76.5743 76.1348 76.5753 76.0031V49.5998H78.1546V75.998C78.1555 76.1298 78.1884 76.2593 78.2503 76.3752C78.3122 76.491 78.4013 76.5897 78.5097 76.6625L81.079 78.4036ZM71.4239 47.9994L75.5337 37.5969H79.2279L84.0222 47.9994H71.4239Z" fill="#A0A9B2"/>
<path d="M12.1242 57.3001C12.946 57.3001 13.6122 56.4 13.6122 55.2896C13.6122 54.1792 12.946 53.2791 12.1242 53.2791C11.3024 53.2791 10.6362 54.1792 10.6362 55.2896C10.6362 56.4 11.3024 57.3001 12.1242 57.3001Z" fill="#A0A9B2"/>
<path d="M45.7916 19.1995H55.2652C55.4757 19.1995 55.6776 19.1148 55.8264 18.964C55.9752 18.8132 56.0588 18.6086 56.0588 18.3953V8.80409C56.0588 8.5908 55.9752 8.38624 55.8264 8.23543C55.6776 8.08461 55.4757 7.99988 55.2652 7.99988H45.7916C45.5812 7.99988 45.3793 8.08461 45.2305 8.23543C45.0817 8.38624 44.998 8.5908 44.998 8.80409V18.4044C45.0004 18.6161 45.085 18.8183 45.2336 18.9672C45.3822 19.1161 45.5827 19.1995 45.7916 19.1995ZM46.5852 9.59925H54.4716V17.6002H46.5773L46.5852 9.59925Z" fill="#A0A9B2"/>
<path d="M45.7916 31.9996H55.2652C55.4757 31.9996 55.6776 31.9149 55.8264 31.764C55.9752 31.6132 56.0588 31.4087 56.0588 31.1954V21.6041C56.0588 21.3908 55.9752 21.1863 55.8264 21.0355C55.6776 20.8847 55.4757 20.7999 55.2652 20.7999H45.7916C45.5812 20.7999 45.3793 20.8847 45.2305 21.0355C45.0817 21.1863 44.998 21.3908 44.998 21.6041V31.2044C45.0004 31.4161 45.085 31.6184 45.2336 31.7672C45.3822 31.9161 45.5827 31.9996 45.7916 31.9996ZM46.5852 22.3993H54.4716V30.4002H46.5773L46.5852 22.3993Z" fill="#A0A9B2"/>
<path d="M58.4228 31.9996H67.8963C68.1068 31.9996 68.3087 31.9149 68.4575 31.764C68.6063 31.6132 68.6899 31.4087 68.6899 31.1954V21.6041C68.6899 21.3908 68.6063 21.1863 68.4575 21.0355C68.3087 20.8847 68.1068 20.7999 67.8963 20.7999H58.4228C58.2123 20.7999 58.0104 20.8847 57.8616 21.0355C57.7128 21.1863 57.6292 21.3908 57.6292 21.6041V31.2044C57.6315 31.4161 57.7161 31.6184 57.8647 31.7672C58.0133 31.9161 58.2138 31.9996 58.4228 31.9996ZM59.2163 22.3993H67.1027V30.4002H59.2084L59.2163 22.3993Z" fill="#A0A9B2"/>
<path d="M58.4228 19.1995H67.8963C68.1068 19.1995 68.3087 19.1148 68.4575 18.964C68.6063 18.8132 68.6899 18.6086 68.6899 18.3953V8.80409C68.6899 8.5908 68.6063 8.38624 68.4575 8.23543C68.3087 8.08461 68.1068 7.99988 67.8963 7.99988H58.4228C58.2123 7.99988 58.0104 8.08461 57.8616 8.23543C57.7128 8.38624 57.6292 8.5908 57.6292 8.80409V18.4044C57.6315 18.6161 57.7161 18.8183 57.8647 18.9672C58.0133 19.1161 58.2138 19.1995 58.4228 19.1995ZM59.2163 9.59925H67.1027V17.6002H59.2084L59.2163 9.59925Z" fill="#A0A9B2"/>
<path d="M71.8395 34.4002V5.60438C71.8395 5.39109 71.7558 5.18654 71.607 5.03572C71.4582 4.8849 71.2563 4.80017 71.0459 4.80017H42.6341C42.4236 4.80017 42.2217 4.8849 42.0729 5.03572C41.9241 5.18654 41.8405 5.39109 41.8405 5.60438V34.4002C41.8405 34.6135 41.9241 34.818 42.0729 34.9689C42.2217 35.1197 42.4236 35.2044 42.6341 35.2044H71.0498C71.2596 35.2034 71.4605 35.1182 71.6084 34.9675C71.7564 34.8167 71.8395 34.6128 71.8395 34.4002ZM70.2602 33.596H43.4197V6.40055H70.2602V33.596Z" fill="#A0A9B2"/>
</g>
<defs>
<clipPath id="clip0_46_48">
<rect width="90.722" height="80" fill="white"/>
</clipPath>
</defs>
</svg>
