<svg width="91" height="80" viewBox="0 0 91 80" fill="none" xmlns="http://www.w3.org/2000/svg">
<path d="M53.9 39.092C53.8 38.9009 53.5 38.8053 53.2 38.8053H9.20002C8.80002 38.8053 8.40002 39.092 8.40002 39.6655V71.3979C8.40002 71.8758 8.80002 72.2581 9.30002 72.2581H53.3C53.7 72.2581 54.1 71.9714 54.1 71.3979V39.5699C54.1 39.4744 54 39.2832 53.9 39.092ZM10.1 70.6333V40.5257H52.4V70.6333H10.1Z" fill="#A0A9B2"/>
<path d="M40.8001 12.2342H79.4001C81.2001 12.2342 82.6001 10.896 82.6001 9.17561C82.6001 7.45518 81.2001 6.11707 79.4001 6.11707H40.8001C39.0001 6.11707 37.6001 7.45518 37.6001 9.17561C37.6001 10.896 39.0001 12.2342 40.8001 12.2342ZM40.8001 7.74192H79.4001C80.2001 7.74192 80.9001 8.41097 80.9001 9.17561C80.9001 9.94024 80.2001 10.6093 79.4001 10.6093H40.8001C40.0001 10.6093 39.3001 9.94024 39.3001 9.17561C39.3001 8.41097 40.0001 7.74192 40.8001 7.74192Z" fill="#A0A9B2"/>
<path d="M82 2.0072H8.30005C5.00005 2.0072 2.30005 4.58785 2.30005 7.74197V72.2581C2.30005 75.4122 5.00005 77.9929 8.30005 77.9929H82C85.3 77.9929 88 75.4122 88 72.2581V7.74197C88 4.58785 85.3 2.0072 82 2.0072ZM82 76.368H8.30005C5.90005 76.368 4.00005 74.552 4.00005 72.2581V16.2485H86.3V72.2581C86.3 74.4564 84.4 76.368 82 76.368ZM8.30005 3.72763H82C84.4 3.72763 86.3 5.54364 86.3 7.83755V14.6237H4.00005V7.74197C4.00005 5.54364 5.90005 3.72763 8.30005 3.72763Z" fill="#A0A9B2"/>
<path d="M43.4001 58.4946L47.2001 56.583C47.4001 56.4875 47.6001 56.2963 47.6001 56.1051C47.7001 55.914 47.6001 55.6272 47.5001 55.4361C47.4001 55.2449 47.2001 55.0538 47.0001 55.0538L32.9001 51.5173C32.8001 51.5173 32.8001 51.5173 32.7001 51.5173C32.5001 51.5173 32.2001 51.6129 32.1001 51.8041C31.9001 51.9952 31.8001 52.3775 31.9001 52.6643L36.2001 65.9498C36.3001 66.3321 36.7001 66.5233 37.0001 66.5233C37.1001 66.5233 37.2001 66.5233 37.2001 66.5233C37.5001 66.4277 37.7001 66.2366 37.8001 66.0454L39.6001 62.3178L45.0001 67.1924C45.2001 67.3835 45.4001 67.4791 45.6001 67.4791C45.8001 67.4791 46.0001 67.3835 46.2001 67.1924L48.8001 64.6117C49.0001 64.4206 49.1001 64.2294 49.1001 64.0382C49.1001 63.8471 49.0001 63.6559 48.8001 63.4648L43.4001 58.4946ZM44.4001 56.1051L41.5001 57.5388C41.3001 57.6344 41.1001 57.8256 41.1001 58.0167C41.0001 58.2079 41.1001 58.4946 41.2001 58.6858C41.2001 58.7814 41.3001 58.8769 41.4001 58.8769L47.1001 64.0382L45.6001 65.4719L39.9001 60.2151C39.7001 60.0239 39.5001 60.0239 39.3001 60.0239C39.1001 60.0239 38.8001 60.1195 38.7001 60.3106C38.6001 60.4062 38.6001 60.4062 38.5001 60.5018L37.1001 63.3692L34.0001 53.4289L44.4001 56.1051Z" fill="#A0A9B2"/>
<path d="M81.1 57.6344H59.3C58.9 57.6344 58.5 57.9211 58.5 58.4946V71.4934C58.5 71.6846 58.6 71.8757 58.7 72.0669C58.8 72.2581 59.1 72.3536 59.4 72.3536H81.2C81.6 72.3536 82 72.0669 82 71.4934V58.4946C81.9 58.1123 81.6 57.73 81.1 57.6344ZM60.2 70.6332V59.3548H80.2V70.7288H60.2V70.6332Z" fill="#A0A9B2"/>
<path d="M13.6 30.1076C14.1 30.3943 14.8 30.5855 15.4 30.5855C16 30.5855 16.5 30.3943 17.1 30.2031L18.4 31.4457C18.6 31.6368 18.8 31.7324 19 31.7324C19.2 31.7324 19.4 31.6368 19.6 31.4457C19.8 31.2545 19.9 31.0634 19.9 30.8722C19.9 30.681 19.8 30.4899 19.6 30.2987L18.3 29.0562C18.7 28.3871 18.8 27.6225 18.7 26.7623C18.5 25.9021 18 25.233 17.3 24.7551C16.8 24.4684 16.1 24.2772 15.5 24.2772C14.4 24.2772 13.3 24.8507 12.7 25.7109C12.2 26.38 12.1 27.2402 12.2 28.1004C12.4 28.9606 12.9 29.6297 13.6 30.1076ZM16.5 26.38C17.1 26.9534 17.1 27.9092 16.5 28.4827C16.2 28.7695 15.8 28.9606 15.4 28.9606C15 28.9606 14.6 28.7695 14.3 28.4827C13.7 27.9092 13.7 26.9534 14.3 26.38C14.6 26.0932 15 25.9021 15.4 25.9021C15.8 25.9021 16.2 26.0932 16.5 26.38Z" fill="#A0A9B2"/>
<path d="M11 12.2342C12.8 12.2342 14.2 10.896 14.2 9.17561C14.2 7.55076 12.7 6.11707 11 6.11707C9.20005 6.11707 7.80005 7.45518 7.80005 9.17561C7.80005 10.896 9.20005 12.2342 11 12.2342ZM11 7.74192C11.8 7.74192 12.5 8.41097 12.5 9.17561C12.5 9.94024 11.8 10.6093 11 10.6093C10.2 10.6093 9.50005 9.94024 9.50005 9.17561C9.50005 8.41097 10.2 7.74192 11 7.74192Z" fill="#A0A9B2"/>
<path d="M27.6 12.2342C29.4 12.2342 30.8 10.896 30.8 9.17561C30.8 8.31539 30.5 7.55076 29.9 6.97728C29.3 6.4038 28.5 6.11707 27.6 6.11707C25.8 6.11707 24.4 7.45518 24.4 9.17561C24.4 10.896 25.8 12.2342 27.6 12.2342ZM27.6 7.74192C28.4 7.74192 29.1 8.41097 29.1 9.17561C29.1 9.55793 29 9.94024 28.7 10.1314C28.4 10.4181 28.1 10.5137 27.6 10.5137C26.8 10.5137 26.1 9.84466 26.1 9.08003C26.1 8.31539 26.8 7.74192 27.6 7.74192Z" fill="#A0A9B2"/>
<path d="M79 21.123H11.3C9.70002 21.123 8.40002 22.3656 8.40002 23.8949V31.9235C8.40002 33.4528 9.80002 34.6953 11.3 34.6953H79C80.6 34.6953 81.9 33.4528 81.9 31.9235V23.9904C82 22.3656 80.7 21.123 79 21.123ZM23.4 22.8435H79C79.7 22.8435 80.2 23.3214 80.2 23.9904V32.0191C80.2 32.6882 79.7 33.1661 79 33.1661H23.4V22.8435ZM10.1 23.9904C10.1 23.3214 10.6 22.8435 11.3 22.8435H21.7V33.0705H11.3C10.6 33.0705 10.1 32.5926 10.1 31.9235V23.9904Z" fill="#A0A9B2"/>
<path d="M81.1 38.9009H59.3C58.9 38.9009 58.5 39.1876 58.5 39.7611V52.7599C58.5 52.9511 58.6 53.1422 58.7 53.3334C58.8 53.5245 59.1 53.6201 59.4 53.6201H81.2C81.6 53.6201 82 53.3334 82 52.7599V39.7611C81.9 39.2832 81.6 38.9009 81.1 38.9009ZM60.2 51.8997V40.5257H80.2V51.8997H60.2Z" fill="#A0A9B2"/>
<path d="M19.2 12.2342C21 12.2342 22.4 10.896 22.4 9.17561C22.4 8.31539 22.1 7.55076 21.5 6.97728C20.9 6.4038 20.1 6.11707 19.2 6.11707C17.4 6.11707 16 7.45518 16 9.17561C16 10.896 17.5 12.2342 19.2 12.2342ZM19.2 7.74192C20 7.74192 20.7 8.41097 20.7 9.17561C20.7 9.94024 20.1 10.6093 19.3 10.6093C18.5 10.6093 17.8 9.94024 17.8 9.17561C17.8 8.41097 18.4 7.74192 19.2 7.74192Z" fill="#A0A9B2"/>
</svg>
