<svg width="80" height="80" viewBox="0 0 80 80" fill="none" xmlns="http://www.w3.org/2000/svg">
<path d="M50.3 50.5689C49.2 50.2655 48.1 49.9621 47 49.5576V43.995C48.8 42.8825 50.4 41.4665 51.6 39.7472H57C58.9 39.7472 60.5 38.129 60.5 36.2074V30.6448C60.8 30.038 61 29.33 61 28.622V27.0038C61 26.2959 60.8 25.5879 60.5 24.9811V24.8799V22.1492C60.5 10.5184 51.1 1.01142 39.5 0.910278C28 0.910278 18.6 10.4172 18.5 22.1492V24.7788C18.5 24.8799 18.5 24.8799 18.5 24.9811C18.2 25.5879 18 26.2959 18 27.105V28.7232C18 31.3528 20.2 33.5778 22.8 33.5778H24.8C25.5 38.0279 28.2 41.8711 32 44.0961V49.5576C31 49.861 29.9 50.1644 28.7 50.5689C20.9 52.794 10.3 55.9292 10.1 66.2453V78.483C10.1 78.8875 10.4 79.2921 10.9 79.2921H15.5C15.9 79.2921 16.3 78.9887 16.3 78.483C16.3 77.9773 16 77.6739 15.5 77.6739H11.7V66.2453C11.8 58.1543 19.4 55.019 26.5 52.794L30.5 60.7839C30.6 60.9861 30.8 61.0873 31 61.1884C31.1 61.1884 31.1 61.1884 31.2 61.1884C31.3 61.1884 31.5 61.1884 31.6 61.0873L34.2 59.3679L36 66.043L33.4 77.6739H29.4C29 77.6739 28.6 77.9773 28.6 78.483C28.6 78.9887 28.9 79.2921 29.4 79.2921H68.2C68.6 79.2921 69 78.9887 69 78.483V66.2453C68.7 55.9292 58.1 52.794 50.3 50.5689ZM49.9 51.9849C50.3 52.086 50.7 52.1871 51.1 52.3894L47.6 59.3679L40.9 54.8167L46.4 51.0746C47.5 51.2769 48.7 51.6815 49.9 51.9849ZM57 38.2301H52.6C53.4 36.8142 53.9 35.196 54.2 33.4767H56.2C57.3 33.4767 58.2 33.0721 59 32.4653V36.1062C59 37.3199 58.1 38.2301 57 38.2301ZM26.2 22.2504C26.2 14.7662 32.2 8.69789 39.6 8.69789C47 8.69789 53 14.7662 53 22.2504V22.8572V23.7674C52.6 23.464 52.1 23.2617 51.7 22.9583C48.6 20.9356 46.1 19.3174 42.1 20.531C41.2 20.8344 40.4 21.239 39.6 21.5424C34.5 23.5651 31.6 24.6777 26.3 24.3743V22.2504H26.2ZM56.2 23.6663C58 23.6663 59.5 25.1834 59.5 27.0038V28.622C59.5 30.4425 58 31.9596 56.2 31.9596H54.4C54.4 31.6562 54.4 31.3528 54.4 31.0493V25.0822V23.6663H56.2ZM39.5 2.32621C50.3 2.32621 59 11.2263 59 22.0481V23.1606C58.2 22.5538 57.2 22.1492 56.2 22.1492H54.5C54.4 13.9571 47.8 7.28196 39.6 7.28196C31.5 7.28196 24.8 13.9571 24.7 22.1492H22.9C21.8 22.1492 20.9 22.5538 20.1 23.1606V22.0481C20.1 11.2263 28.8 2.32621 39.5 2.32621ZM22.9 31.9596C21.1 31.9596 19.6 30.4425 19.6 28.622V27.0038C19.6 25.1834 21.1 23.6663 22.9 23.6663H24.6V24.9811V31.0493C24.6 31.3528 24.6 31.6562 24.6 31.9596H22.9ZM26.2 31.0493V25.7902C31.8 26.0936 35 24.8799 40.1 22.8572C40.9 22.5538 41.7 22.2504 42.6 21.9469C45.9 21.0367 47.8 22.2504 50.9 24.2731C51.5 24.6777 52.2 25.0822 53 25.5879V31.1505C53 33.7801 52.2 36.2074 50.9 38.3313H39.5C39.1 38.3313 38.7 38.6347 38.7 39.1404C38.7 39.6461 39 39.9495 39.5 39.9495H49.7C48.6 41.1631 47.4 42.2756 45.9 43.0847C44 44.1973 41.8 44.8041 39.5 44.8041C37.2 44.8041 35 44.1973 33.1 43.1859C33.1 43.1859 33.1 43.1859 33 43.1859C29 40.5563 26.2 36.1062 26.2 31.0493ZM39.5 46.1189C41.6 46.1189 43.7 45.6132 45.5 44.8041V49.7598L39.5 53.8054L33.5 49.7598V44.8041C35.4 45.6132 37.4 46.1189 39.5 46.1189ZM31.5 59.2668L28 52.3894C28.4 52.2883 28.8 52.1871 29.2 51.9849C30.4 51.5803 31.6 51.2769 32.7 50.9735L38.2 54.7156L31.5 59.2668ZM39.5 55.6258L43.5 58.3566L41.7 65.2339H37.3L35.5 58.3566L39.5 55.6258ZM37.3 66.751H41.7L44.2 77.6739H34.9L37.3 66.751ZM67.4 77.6739H45.7L43.1 66.043L44.9 59.3679L47.5 61.1884C47.6 61.2895 47.8 61.2895 47.9 61.2895C48 61.2895 48 61.2895 48.1 61.2895C48.3 61.1884 48.5 61.0873 48.6 60.885L52.6 52.8951C59.7 55.1201 67.3 58.2554 67.4 66.3464V77.6739Z" fill="#A0A9B2"/>
<path d="M60.5 69.8862H52.7C52.3 69.8862 51.9 70.1896 51.9 70.6953C51.9 71.201 52.2 71.5044 52.7 71.5044H60.5C60.9 71.5044 61.3 71.201 61.3 70.6953C61.3 70.1896 60.9 69.8862 60.5 69.8862Z" fill="#A0A9B2"/>
<path d="M23 77.8761C22.9 77.775 22.7999 77.775 22.7999 77.6739C22.5999 77.5727 22.4 77.5727 22.2 77.6739C22.1 77.6739 22 77.775 22 77.8761C21.9 77.9773 21.8999 77.9773 21.7999 78.0784C21.7999 78.1796 21.7 78.2807 21.7 78.3818C21.7 78.5841 21.8 78.7864 21.9 78.8875C22 78.9887 22.2 79.0898 22.4 79.0898C22.5 79.0898 22.6 79.0898 22.7 78.9887C22.8 78.9887 22.9 78.8875 22.9 78.7864C23 78.6853 23.1 78.483 23.1 78.2807C23.1 78.1796 23.1 78.0784 23 77.9773C23.1 78.0784 23 77.9773 23 77.8761Z" fill="#A0A9B2"/>
</svg>
