<svg width="19" height="20" viewBox="0 0 19 20" fill="none" xmlns="http://www.w3.org/2000/svg">
<g clip-path="url(#clip0_67_46)">
<path d="M17.6891 9.17794C17.5194 9.17767 17.3568 9.11016 17.2368 8.99019C17.1168 8.87023 17.0493 8.70759 17.049 8.53794C17.0523 7.33218 16.8164 6.13775 16.355 5.02375C15.8936 3.90976 15.2159 2.89831 14.3611 2.04794C14.2982 1.98921 14.2479 1.91844 14.213 1.83985C14.1781 1.76126 14.1594 1.67646 14.1579 1.59048C14.1565 1.50451 14.1724 1.41912 14.2046 1.3394C14.2368 1.25968 14.2848 1.18727 14.3456 1.12647C14.4064 1.06566 14.4788 1.01771 14.5585 0.985476C14.6382 0.953238 14.7236 0.937368 14.8096 0.938811C14.8956 0.940254 14.9804 0.958982 15.059 0.993878C15.1375 1.02877 15.2083 1.07913 15.2671 1.14194C16.2414 2.11163 17.0138 3.26497 17.5394 4.53519C18.065 5.80541 18.3334 7.16727 18.3291 8.54194C18.3288 8.71159 18.2613 8.87423 18.1413 8.99419C18.0214 9.11416 17.8587 9.18167 17.6891 9.18194V9.17794Z" fill="white"/>
<path d="M0.640055 9.17811C0.470397 9.17785 0.307765 9.11034 0.187799 8.99037C0.0678325 8.87041 0.00031925 8.70777 5.47797e-05 8.53812C-0.00440949 7.16334 0.26403 5.80136 0.789816 4.5311C1.3156 3.26083 2.08828 2.10756 3.06305 1.13812C3.18451 1.02455 3.34535 0.962631 3.5116 0.965422C3.67785 0.968214 3.83652 1.0355 3.9541 1.15308C4.07167 1.27065 4.13896 1.42932 4.14175 1.59557C4.14454 1.76182 4.08262 1.92266 3.96905 2.04412C3.1139 2.89409 2.4359 3.9053 1.97432 5.01916C1.51274 6.13303 1.27676 7.32741 1.28005 8.53312C1.27979 8.70277 1.21228 8.86541 1.09231 8.98537C0.972345 9.10534 0.809712 9.17285 0.640055 9.17312V9.17811Z" fill="white"/>
<path d="M9.16704 19.9999C8.31835 19.9999 7.50441 19.6628 6.9043 19.0627C6.30418 18.4626 5.96704 17.6486 5.96704 16.7999C5.96704 16.6301 6.03453 16.4671 6.15465 16.347C6.27476 16.2269 6.43767 16.1594 6.60754 16.1594C6.77742 16.1594 6.94032 16.2269 7.06044 16.347C7.18056 16.4671 7.24805 16.6301 7.24805 16.7999C7.24805 17.3094 7.45043 17.798 7.81068 18.1583C8.17094 18.5186 8.65956 18.7209 9.16904 18.7209C9.67852 18.7209 10.1671 18.5186 10.5274 18.1583C10.8876 17.798 11.09 17.3094 11.09 16.7999C11.09 16.6301 11.1575 16.4671 11.2776 16.347C11.3978 16.2269 11.5607 16.1594 11.7305 16.1594C11.9004 16.1594 12.0633 16.2269 12.1834 16.347C12.3036 16.4671 12.371 16.6301 12.371 16.7999C12.371 17.2205 12.2881 17.6369 12.1271 18.0255C11.966 18.414 11.7299 18.7669 11.4324 19.0641C11.1348 19.3613 10.7816 19.5969 10.3929 19.7575C10.0041 19.9181 9.5876 20.0005 9.16704 19.9999Z" fill="white"/>
<path d="M16.0219 17.439H2.30895C2.01232 17.4411 1.72224 17.3518 1.47809 17.1834C1.23394 17.0149 1.04756 16.7754 0.944241 16.4973C0.840924 16.2192 0.825685 15.9161 0.900593 15.6291C0.9755 15.3421 1.13693 15.0851 1.36295 14.893C1.98425 14.3744 2.48407 13.7257 2.82707 12.9927C3.17007 12.2597 3.34789 11.4603 3.34795 10.651V8.35098C3.34795 6.80769 3.96102 5.3276 5.05229 4.23633C6.14357 3.14505 7.62365 2.53198 9.16695 2.53198C10.7102 2.53198 12.1903 3.14505 13.2816 4.23633C14.3729 5.3276 14.9859 6.80769 14.9859 8.35098V10.651C14.9858 11.4586 15.1628 12.2565 15.5044 12.9884C15.846 13.7202 16.3438 14.3683 16.9629 14.887C17.1909 15.0779 17.3544 15.3346 17.431 15.6219C17.5077 15.9093 17.4937 16.2133 17.3911 16.4924C17.2885 16.7715 17.1022 17.0121 16.8576 17.1813C16.6131 17.3506 16.3223 17.4402 16.0249 17.438L16.0219 17.439ZM9.16695 3.80098C7.95823 3.79885 6.79802 4.27629 5.94089 5.12855C5.08376 5.9808 4.59971 7.13827 4.59495 8.34698V10.647C4.59508 11.6351 4.37855 12.6111 3.9606 13.5065C3.54266 14.4018 2.93346 15.1946 2.17595 15.829C2.15249 15.8483 2.1336 15.8726 2.12063 15.9001C2.10767 15.9276 2.10095 15.9576 2.10095 15.988C2.10173 16.0428 2.12392 16.0952 2.16279 16.1338C2.20166 16.1725 2.25412 16.1945 2.30895 16.195H16.0219C16.0768 16.1945 16.1292 16.1725 16.1681 16.1338C16.207 16.0952 16.2292 16.0428 16.2299 15.988C16.2303 15.958 16.224 15.9284 16.2113 15.9012C16.1987 15.874 16.1801 15.85 16.1569 15.831C15.3989 15.1965 14.7893 14.4034 14.371 13.5077C13.9527 12.6121 13.7359 11.6355 13.7359 10.647V8.34698C13.7312 7.13879 13.2475 5.98178 12.3911 5.12961C11.5346 4.27744 10.3751 3.79965 9.16695 3.80098Z" fill="white"/>
<path d="M9.166 3.84201C8.99634 3.84175 8.83371 3.77423 8.71375 3.65427C8.59378 3.5343 8.52627 3.37167 8.526 3.20201V0.640012C8.526 0.470141 8.59348 0.307227 8.71359 0.18711C8.83371 0.0669928 8.99663 -0.000488281 9.1665 -0.000488281C9.33638 -0.000488281 9.49928 0.0669928 9.6194 0.18711C9.73952 0.307227 9.80701 0.470141 9.80701 0.640012V3.20001C9.80714 3.28427 9.79065 3.36773 9.7585 3.44562C9.72634 3.5235 9.67915 3.59429 9.61961 3.65391C9.56008 3.71354 9.48936 3.76085 9.41153 3.79312C9.33369 3.8254 9.25026 3.84201 9.166 3.84201Z" fill="white"/>
</g>
<defs>
<clipPath id="clip0_67_46">
<rect width="18.333" height="20" fill="white"/>
</clipPath>
</defs>
</svg>
