<svg width="36" height="36" viewBox="0 0 36 36" fill="none" xmlns="http://www.w3.org/2000/svg">
<g id="office 1" clip-path="url(#clip0_1816_27)">
<path id="Vector" d="M18.8438 8.28211L25.6419 12.5823V27H18.8438V12.8834V8.28211ZM10.3581 27H17.1562V14.1943L10.3581 17.2873V27ZM36 18C36 27.9252 27.9252 36 18 36C8.07476 36 0 27.9252 0 18C0 8.07476 8.07476 0 18 0C27.9252 0 36 8.07476 36 18ZM27.3294 12.1176C27.3294 11.8283 27.1812 11.5592 26.9367 11.4045L18.4511 6.03689C18.1912 5.8725 17.8623 5.86245 17.593 6.01087C17.3236 6.1593 17.1562 6.44245 17.1562 6.75V12.3403L9.16488 15.9762C8.8638 16.1132 8.67059 16.4135 8.67059 16.7442V27.8438C8.67059 28.3097 9.04838 28.6875 9.51434 28.6875H26.4857C26.9516 28.6875 27.3294 28.3097 27.3294 27.8438V12.1176Z" fill="white"/>
</g>
<defs>
<clipPath id="clip0_1816_27">
<rect width="36" height="36" fill="white"/>
</clipPath>
</defs>
</svg>
