<svg width="58" height="61" viewBox="0 0 58 61" fill="none" xmlns="http://www.w3.org/2000/svg">
<g clip-path="url(#clip0_322_1242)">
<path d="M46.869 31.544C46.6359 31.5013 46.3953 31.5529 46.2003 31.6876C46.0053 31.8222 45.8717 32.0289 45.829 32.262C45.7863 32.4951 45.838 32.7357 45.9726 32.9307C46.1073 33.1257 46.3139 33.2593 46.547 33.302C48.983 33.7501 51.1863 35.034 52.7772 36.9323C54.3682 38.8306 55.2471 41.2244 55.2625 43.7012C55.2779 46.178 54.4288 48.5826 52.8616 50.5005C51.2944 52.4184 49.1072 53.7296 46.677 54.208H46.648C45.266 54.4903 43.8417 54.495 42.4579 54.2218C41.0741 53.9486 39.7584 53.4029 38.5873 52.6166C37.4163 51.8303 36.4133 50.819 35.6367 49.6416C34.8601 48.4641 34.3253 47.144 34.0635 45.758C33.8017 44.3719 33.8181 42.9477 34.1118 41.5681C34.4055 40.1885 34.9705 38.881 35.7741 37.7217C36.5776 36.5625 37.6037 35.5746 38.7925 34.8155C39.9813 34.0564 41.3093 33.5412 42.699 33.3C42.8144 33.2788 42.9246 33.2352 43.0231 33.1715C43.1217 33.1078 43.2067 33.0253 43.2734 32.9287C43.3401 32.8321 43.3871 32.7234 43.4117 32.6086C43.4363 32.4939 43.4381 32.3754 43.417 32.26C43.3959 32.1446 43.3522 32.0344 43.2885 31.9359C43.2248 31.8373 43.1423 31.7523 43.0457 31.6856C42.9491 31.6189 42.8404 31.5719 42.7256 31.5473C42.6109 31.5226 42.4924 31.5208 42.377 31.542C39.6168 32.0468 37.1096 33.4736 35.266 35.589L29.71 33.437V30.337C30.7319 29.5567 31.5871 28.5796 32.2251 27.4634C32.8632 26.3472 33.2712 25.1145 33.425 23.838C34.242 23.8164 35.0359 23.562 35.7133 23.1047C36.3907 22.6474 36.9235 22.0063 37.2491 21.2566C37.5747 20.507 37.6795 19.6799 37.5512 18.8728C37.4229 18.0656 37.0669 17.3118 36.525 16.7V12.782C36.525 9.39212 35.1784 6.1411 32.7814 3.7441C30.3844 1.34711 27.1334 0.000488281 23.7435 0.000488281C20.3536 0.000488281 17.1026 1.34711 14.7056 3.7441C12.3086 6.1411 10.962 9.39212 10.962 12.782V16.8C10.273 17.5449 9.88901 18.5213 9.886 19.536C9.88804 20.6542 10.3246 21.7278 11.1034 22.5301C11.8822 23.3325 12.9424 23.8007 14.06 23.836C14.2137 25.1573 14.6425 26.4317 15.3189 27.5771C15.9953 28.7225 16.9042 29.7134 17.987 30.486V33.437L5.431 38.307L5.414 38.314C3.8003 39.0367 2.43035 40.2112 1.46962 41.6956C0.508894 43.18 -0.00152773 44.9108 3.4348e-06 46.679V58.979C0.00132689 59.5153 0.215227 60.0292 0.594816 60.408C0.974405 60.7868 1.48871 60.9997 2.025 61H45.697C46.2309 60.9992 46.7427 60.7868 47.1202 60.4092C47.4978 60.0317 47.7102 59.5199 47.711 58.986V55.806C50.4549 55.1024 52.876 53.4825 54.5735 51.2147C56.2709 48.947 57.1427 46.1674 57.0444 43.3365C56.9462 40.5055 55.8838 37.7931 54.0332 35.6484C52.1827 33.5038 49.6551 32.0557 46.869 31.544ZM32.325 36.367L29.106 42.818L25.142 40L29.1 35.114L32.325 36.367ZM26.156 42.915L25.236 44.3H22.471L21.551 42.915L23.851 41.28L26.156 42.915ZM19.777 33.725V31.5C21.0748 32.046 22.469 32.3258 23.877 32.323C25.2771 32.3221 26.6601 32.0149 27.929 31.423V33.735L23.859 38.759L19.777 33.725ZM34.952 21.425C34.543 21.7743 34.0357 21.9881 33.5 22.037V17.037C33.9933 17.0744 34.4644 17.2569 34.854 17.5617C35.2437 17.8665 35.5344 18.2798 35.6895 18.7495C35.8445 19.2192 35.8571 19.7244 35.7255 20.2012C35.5939 20.6781 35.3241 21.1053 34.95 21.429L34.952 21.425ZM13.993 22.037C13.3634 21.9875 12.7754 21.7028 12.3461 21.2396C11.9168 20.7764 11.6776 20.1686 11.676 19.537C11.7169 18.922 11.9704 18.3405 12.3932 17.892C12.8159 17.4435 13.3815 17.1561 13.993 17.079V22.037ZM14.022 15.273C13.5875 15.3179 13.1607 15.4188 12.752 15.573V12.773C12.752 9.8572 13.9103 7.06083 15.9721 4.99906C18.0338 2.93728 20.8302 1.77899 23.746 1.77899C26.6618 1.77899 29.4582 2.93728 31.5199 4.99906C33.5817 7.06083 34.74 9.8572 34.74 12.773V15.5C34.3406 15.3582 33.9231 15.2737 33.5 15.249C33.5 14.175 33.631 14.481 30.517 11.14C30.2342 10.7502 29.8243 10.4712 29.358 10.351C29.1389 10.3049 28.9129 10.3026 28.6929 10.3441C28.4729 10.3856 28.2632 10.4702 28.076 10.593C24.4788 12.956 20.2235 14.1141 15.925 13.9C15.4909 13.8374 15.0494 13.9459 14.6938 14.2026C14.3382 14.4594 14.0962 14.8442 14.019 15.276L14.022 15.273ZM15.78 22.688V15.679C20.4498 15.9222 25.0764 14.6786 28.995 12.127C30.61 13.862 31.478 14.763 31.713 15.065C31.713 23.979 31.713 22.393 31.708 22.887C31.6217 24.9583 30.7315 26.9144 29.2264 28.3401C27.7213 29.7657 25.7198 30.5486 23.6469 30.5226C21.5739 30.4966 19.5927 29.6636 18.1239 28.2006C16.6551 26.7377 15.8143 24.7608 15.78 22.688ZM18.601 35.118L22.56 40.005L18.603 42.816L15.384 36.365L18.601 35.118ZM10.06 59.213V48.584C10.064 48.4641 10.0439 48.3447 10.0008 48.2328C9.95767 48.1209 9.8925 48.0188 9.80914 47.9326C9.72577 47.8464 9.62592 47.7778 9.51552 47.731C9.40511 47.6842 9.28642 47.6601 9.1665 47.6601C9.04659 47.6601 8.92789 47.6842 8.81749 47.731C8.70709 47.7778 8.60723 47.8464 8.52387 47.9326C8.4405 48.0188 8.37533 48.1209 8.33223 48.2328C8.28914 48.3447 8.26899 48.4641 8.273 48.584V59.213H2.025C1.96215 59.213 1.90186 59.188 1.85742 59.1436C1.81297 59.0991 1.788 59.0388 1.788 58.976V46.676C1.78673 45.2632 2.1913 43.8797 2.9536 42.6902C3.7159 41.5006 4.80384 40.5551 6.088 39.966L13.707 37.012L17.058 43.729C17.166 43.9457 17.3198 44.1365 17.5087 44.288C17.6975 44.4396 17.917 44.5484 18.152 44.607C18.5048 44.6642 18.8662 44.6341 19.2046 44.5192C19.543 44.4043 19.848 44.2082 20.093 43.948L21.052 45.391L18.713 59.213H10.06ZM37.652 59.213H28.992L28.192 54.474C28.1751 54.3558 28.1347 54.2421 28.0732 54.1398C28.0117 54.0374 27.9303 53.9484 27.8338 53.8781C27.7373 53.8077 27.6277 53.7574 27.5115 53.73C27.3952 53.7027 27.2747 53.699 27.1569 53.719C27.0392 53.7391 26.9267 53.7825 26.826 53.8468C26.7253 53.911 26.6386 53.9948 26.5708 54.0931C26.5031 54.1914 26.4557 54.3023 26.4315 54.4193C26.4073 54.5362 26.4068 54.6568 26.43 54.774L27.182 59.215H20.525L22.746 46.09H24.957L25.725 50.6C25.7419 50.7182 25.7823 50.8319 25.8438 50.9342C25.9053 51.0366 25.9867 51.1255 26.0832 51.1959C26.1797 51.2663 26.2893 51.3166 26.4056 51.3439C26.5218 51.3712 26.6424 51.375 26.7601 51.3549C26.8778 51.3349 26.9903 51.2915 27.091 51.2272C27.1917 51.163 27.2784 51.0792 27.3462 50.9809C27.4139 50.8825 27.4613 50.7716 27.4855 50.6547C27.5097 50.5377 27.5102 50.4171 27.487 50.3L26.656 45.391L27.615 43.948L28.178 44.348C28.3753 44.4882 28.6007 44.5841 28.8386 44.629C29.0766 44.6739 29.3214 44.6667 29.5563 44.608C29.7911 44.5493 30.0105 44.4404 30.1993 44.2888C30.3881 44.1373 30.5419 43.9466 30.65 43.73L34.001 37.014L34.154 37.073C32.411 39.8008 31.8014 43.1012 32.4551 46.2716C33.1088 49.442 34.9741 52.2321 37.654 54.048V59.211L37.652 59.213ZM45.924 58.986C45.924 59.0462 45.9001 59.1039 45.8575 59.1465C45.8149 59.1891 45.7572 59.213 45.697 59.213H39.439V55.06C41.0651 55.8093 42.8346 56.1962 44.625 56.194C45.0592 56.1939 45.4931 56.1712 45.925 56.126V58.985L45.924 58.986Z" fill="#A0A9B2"/>
<path d="M48.848 41.1272C48.6825 40.9575 48.4563 40.8605 48.2193 40.8575C47.9823 40.8545 47.7538 40.9458 47.584 41.1112L44.069 44.5372L42.596 43.0942C42.4267 42.9282 42.1983 42.8363 41.9612 42.8386C41.724 42.8409 41.4975 42.9374 41.3315 43.1067C41.1655 43.2761 41.0735 43.5044 41.0758 43.7416C41.0782 43.9787 41.1747 44.2052 41.344 44.3712L43.444 46.4262C43.611 46.5895 43.8354 46.681 44.069 46.681C44.3026 46.681 44.5269 46.5895 44.694 46.4262L48.835 42.3902C49.004 42.2244 49.1003 41.9982 49.1027 41.7614C49.1051 41.5246 49.0135 41.2966 48.848 41.1272Z" fill="#A0A9B2"/>
<path d="M44.616 34.4678C42.7788 34.4678 40.9829 35.0126 39.4553 36.0333C37.9278 37.054 36.7372 38.5047 36.0341 40.202C35.331 41.8994 35.1471 43.7671 35.5055 45.569C35.8639 47.3709 36.7486 49.026 38.0477 50.3251C39.3468 51.6242 41.0019 52.5089 42.8038 52.8673C44.6057 53.2257 46.4734 53.0417 48.1708 52.3387C49.8681 51.6356 51.3189 50.445 52.3396 48.9175C53.3603 47.3899 53.905 45.594 53.905 43.7568C53.9021 41.2941 52.9225 38.9331 51.1811 37.1917C49.4397 35.4503 47.0787 34.4707 44.616 34.4678ZM44.616 51.2578C43.1327 51.2578 41.6826 50.8179 40.4492 49.9938C39.2159 49.1697 38.2546 47.9983 37.6869 46.6279C37.1193 45.2575 36.9707 43.7495 37.2601 42.2946C37.5495 40.8398 38.2638 39.5034 39.3127 38.4545C40.3616 37.4056 41.698 36.6913 43.1529 36.4019C44.6077 36.1125 46.1157 36.261 47.4861 36.8287C48.8566 37.3963 50.0279 38.3576 50.852 39.591C51.6762 40.8244 52.116 42.2744 52.116 43.7578C52.1136 45.7462 51.3227 47.6524 49.9167 49.0584C48.5107 50.4644 46.6044 51.2554 44.616 51.2578Z" fill="#A0A9B2"/>
</g>
<defs>
<clipPath id="clip0_322_1242">
<rect width="57.05" height="61" fill="white"/>
</clipPath>
</defs>
</svg>
