<svg width="43" height="42" viewBox="0 0 43 42" fill="none" xmlns="http://www.w3.org/2000/svg">
<g clip-path="url(#clip0_257_585)">
<path d="M42.083 0H0.713C0.619367 0 0.526652 0.018442 0.440147 0.0542736C0.353642 0.0901052 0.275041 0.142625 0.208833 0.208833C0.142625 0.275041 0.0901055 0.353641 0.0542739 0.440146C0.0184423 0.526652 0 0.619367 0 0.713L0 29.244C0 29.4331 0.0751194 29.6145 0.208833 29.7482C0.342546 29.8819 0.523901 29.957 0.713 29.957H13.593C13.614 30.195 13.649 30.428 13.693 30.657L9.779 35.323C9.70059 35.4161 9.64733 35.5278 9.6243 35.6473C9.60127 35.7669 9.60923 35.8903 9.64743 36.0059C9.68563 36.1215 9.75279 36.2254 9.84251 36.3077C9.93224 36.39 10.0415 36.4479 10.16 36.476L14.467 37.505L16.228 41.571C16.2763 41.6824 16.3523 41.7797 16.4488 41.8535C16.5453 41.9274 16.659 41.9753 16.7792 41.9928C16.8995 42.0104 17.0221 41.9969 17.1357 41.9537C17.2492 41.9105 17.3498 41.839 17.428 41.746L21.334 37.091H21.461L25.367 41.746C25.4452 41.839 25.5458 41.9105 25.6593 41.9537C25.7729 41.9969 25.8955 42.0104 26.0158 41.9928C26.136 41.9753 26.2497 41.9274 26.3462 41.8535C26.4427 41.7797 26.5187 41.6824 26.567 41.571L28.328 37.505L32.635 36.476C32.7535 36.4479 32.8628 36.39 32.9525 36.3077C33.0422 36.2254 33.1094 36.1215 33.1476 36.0059C33.1858 35.8903 33.1937 35.7669 33.1707 35.6473C33.1477 35.5278 33.0944 35.4161 33.016 35.323L29.1 30.661C29.142 30.429 29.177 30.195 29.2 29.961H42.083C42.2721 29.961 42.4535 29.8859 42.5872 29.7522C42.7209 29.6185 42.796 29.4371 42.796 29.248V0.713C42.796 0.619367 42.7776 0.526652 42.7417 0.440146C42.7059 0.353641 42.6534 0.275041 42.5872 0.208833C42.521 0.142625 42.4424 0.0901052 42.3559 0.0542736C42.2693 0.018442 42.1766 0 42.083 0ZM17.078 39.943L15.634 36.612C15.5899 36.5104 15.5228 36.4204 15.4379 36.3492C15.353 36.2781 15.2528 36.2277 15.145 36.202L11.614 35.358L14.175 32.306C14.189 32.337 14.206 32.366 14.22 32.397C14.313 32.611 14.413 32.814 14.52 33.016C14.566 33.1 14.614 33.183 14.663 33.265C14.761 33.4283 14.8647 33.588 14.974 33.744C15.05 33.853 15.13 33.958 15.212 34.065C15.294 34.172 15.406 34.305 15.512 34.422C15.618 34.539 15.736 34.668 15.855 34.786C15.943 34.874 16.033 34.959 16.126 35.042C16.203 35.113 16.272 35.188 16.353 35.256C16.434 35.324 16.509 35.369 16.586 35.429C16.621 35.456 16.651 35.487 16.686 35.514C16.75 35.563 16.818 35.605 16.886 35.651C16.986 35.722 17.086 35.799 17.196 35.865C17.396 35.995 17.608 36.113 17.819 36.222C17.9 36.263 17.983 36.301 18.066 36.34C18.256 36.4293 18.4473 36.5107 18.64 36.584C18.696 36.605 18.751 36.628 18.806 36.647C19.0763 36.742 19.3518 36.8218 19.631 36.886H19.639L17.078 39.943ZM22.738 35.512C22.4109 35.5813 22.0789 35.6251 21.745 35.643H21.736C21.623 35.649 21.511 35.657 21.397 35.657C21.283 35.657 21.171 35.649 21.058 35.643H21.049C20.7158 35.6251 20.3845 35.5816 20.058 35.513L20 35.501C19.873 35.473 19.748 35.439 19.623 35.401C19.571 35.386 19.523 35.372 19.467 35.356C19.378 35.328 19.29 35.295 19.202 35.264C19.114 35.233 19.031 35.202 18.947 35.164C18.895 35.142 18.847 35.118 18.792 35.093C18.675 35.04 18.559 34.987 18.445 34.928L18.388 34.897C18.0939 34.7397 17.8124 34.5598 17.546 34.359C17.398 34.248 17.261 34.126 17.126 34.006C16.9665 33.8638 16.8143 33.7136 16.67 33.556C16.613 33.495 16.552 33.436 16.497 33.373C16.2976 33.1387 16.1158 32.89 15.953 32.629C15.929 32.59 15.908 32.55 15.882 32.51C15.7301 32.2565 15.5965 31.9925 15.482 31.72C15.472 31.696 15.461 31.671 15.451 31.649C15.326 31.337 15.2257 31.0157 15.151 30.688C15.151 30.675 15.141 30.665 15.137 30.652C14.9244 29.7119 14.9262 28.7359 15.1423 27.7966C15.3584 26.8572 15.7832 25.9786 16.3851 25.2258C16.9871 24.473 17.7508 23.8654 18.6197 23.4481C19.4885 23.0307 20.4401 22.8143 21.404 22.8149C22.3679 22.8156 23.3193 23.0332 24.1875 23.4516C25.0558 23.8701 25.8188 24.4787 26.4198 25.2322C27.0208 25.9858 27.4445 26.865 27.6593 27.8046C27.8742 28.7442 27.8748 29.7201 27.661 30.66C27.661 30.672 27.65 30.683 27.647 30.695C27.5722 31.0227 27.4719 31.344 27.347 31.656C27.337 31.681 27.326 31.706 27.315 31.727C27.2004 31.9978 27.0667 32.2601 26.915 32.512C26.891 32.552 26.87 32.594 26.844 32.634C26.6813 32.8945 26.4998 33.1429 26.301 33.377C26.248 33.44 26.187 33.497 26.131 33.558C25.985 33.7169 25.8311 33.8685 25.67 34.012C25.534 34.133 25.4 34.255 25.252 34.364C25.104 34.473 24.972 34.564 24.828 34.659H24.819C24.69 34.741 24.558 34.817 24.419 34.888L24.341 34.931C24.233 34.987 24.127 35.038 24.014 35.087C23.957 35.113 23.901 35.139 23.843 35.163C23.763 35.197 23.682 35.226 23.6 35.255C23.518 35.284 23.418 35.322 23.325 35.355C23.276 35.371 23.225 35.384 23.176 35.399C23.05 35.435 22.923 35.47 22.794 35.499L22.738 35.512ZM31.182 35.356L27.651 36.2C27.5432 36.2257 27.443 36.2761 27.3581 36.3472C27.2732 36.4184 27.2061 36.5084 27.162 36.61L25.718 39.943L23.157 36.891H23.163C23.443 36.8269 23.7192 36.7467 23.99 36.651C24.043 36.632 24.09 36.61 24.148 36.591C24.348 36.515 24.548 36.433 24.736 36.341C24.814 36.305 24.893 36.27 24.97 36.23C25.184 36.119 25.398 35.998 25.603 35.866C25.703 35.803 25.797 35.733 25.893 35.666C25.964 35.617 26.036 35.572 26.107 35.52C26.145 35.491 26.178 35.458 26.215 35.429C26.286 35.371 26.369 35.321 26.442 35.26C26.515 35.199 26.589 35.117 26.665 35.05C26.759 34.964 26.852 34.878 26.942 34.789C27.0593 34.6717 27.173 34.551 27.283 34.427C27.383 34.31 27.483 34.192 27.583 34.07C27.665 33.97 27.745 33.856 27.821 33.749C27.931 33.594 28.035 33.434 28.131 33.271C28.181 33.188 28.231 33.105 28.274 33.02C28.3847 32.82 28.4847 32.6143 28.574 32.403C28.587 32.367 28.605 32.337 28.619 32.303L31.182 35.356ZM41.37 28.535H29.208C29.0327 26.5846 28.1339 24.7704 26.6886 23.4491C25.2432 22.1279 23.3558 21.3952 21.3975 21.3952C19.4392 21.3952 17.5518 22.1279 16.1064 23.4491C14.6611 24.7704 13.7623 26.5846 13.587 28.535H1.427V1.427H41.37V28.535Z" fill="black"/>
<path d="M3.63618 2.909C3.44337 2.909 3.25845 2.98559 3.12211 3.12193C2.98577 3.25827 2.90918 3.44319 2.90918 3.636V6.54399H4.36418V4.36399H6.54618V2.909H3.63618Z" fill="black"/>
<path d="M39.159 2.909H36.25V4.364H38.432V6.544H39.887V3.636C39.887 3.54044 39.8682 3.44583 39.8316 3.35756C39.795 3.26929 39.7413 3.1891 39.6737 3.12158C39.6061 3.05405 39.5258 3.00053 39.4375 2.96405C39.3492 2.92757 39.2546 2.90887 39.159 2.909Z" fill="black"/>
<path d="M38.432 23.495V25.677H36.25V27.13H39.159C39.3518 27.13 39.5367 27.0534 39.6731 26.9171C39.8094 26.7807 39.886 26.5958 39.886 26.403V23.494L38.432 23.495Z" fill="black"/>
<path d="M4.36418 25.677V23.495H2.90918V26.404C2.90918 26.5968 2.98577 26.7817 3.12211 26.9181C3.25845 27.0544 3.44337 27.131 3.63618 27.131H6.54518V25.676L4.36418 25.677Z" fill="black"/>
<path d="M30.4446 8.34601H12.3496V9.41001H30.4446V8.34601Z" fill="black"/>
<path d="M34.7038 12.519H8.09375V13.583H34.7038V12.519Z" fill="black"/>
<path d="M21.3976 24.102C20.3907 24.102 19.4064 24.4006 18.5692 24.96C17.732 25.5194 17.0795 26.3145 16.6942 27.2448C16.3088 28.175 16.208 29.1986 16.4045 30.1862C16.6009 31.1737 17.0858 32.0809 17.7978 32.7929C18.5098 33.5049 19.4169 33.9897 20.4044 34.1862C21.392 34.3826 22.4156 34.2818 23.3459 33.8965C24.2761 33.5111 25.0712 32.8586 25.6306 32.0214C26.1901 31.1842 26.4886 30.1999 26.4886 29.193C26.4886 28.5244 26.357 27.8624 26.1011 27.2448C25.8453 26.6271 25.4703 26.0659 24.9975 25.5931C24.5248 25.1204 23.9636 24.7454 23.3459 24.4895C22.7282 24.2337 22.0662 24.102 21.3976 24.102ZM21.3976 32.83C20.6783 32.83 19.9751 32.6167 19.377 32.217C18.7789 31.8174 18.3128 31.2494 18.0375 30.5848C17.7622 29.9202 17.6902 29.189 17.8305 28.4835C17.9709 27.778 18.3173 27.1299 18.8259 26.6212C19.3345 26.1126 19.9826 25.7662 20.6881 25.6259C21.3936 25.4856 22.1249 25.5576 22.7895 25.8329C23.454 26.1081 24.0221 26.5743 24.4217 27.1724C24.8213 27.7705 25.0346 28.4737 25.0346 29.193C25.0346 30.1576 24.6515 31.0827 23.9694 31.7647C23.2873 32.4468 22.3622 32.83 21.3976 32.83Z" fill="black"/>
</g>
<defs>
<clipPath id="clip0_257_585">
<rect width="42.796" height="42" fill="white"/>
</clipPath>
</defs>
</svg>
