<svg width="38" height="38" viewBox="0 0 38 38" fill="none" xmlns="http://www.w3.org/2000/svg">
<g clip-path="url(#clip0_2344_2)">
<path d="M37.9984 18.9983C37.9962 22.7555 36.8757 26.427 34.7796 29.5452C34.5608 29.8724 34.221 30.0993 33.8348 30.1759C33.4487 30.2526 33.048 30.1727 32.7207 29.9539C32.3935 29.7351 32.1666 29.3952 32.09 29.0091C32.0133 28.623 32.0932 28.2222 32.312 27.895C33.5701 26.0215 34.4174 23.903 34.7982 21.6786C35.179 19.4543 35.0846 17.1745 34.5213 14.9893C34.4231 14.608 34.4803 14.2032 34.6805 13.8641C34.8806 13.525 35.2073 13.2793 35.5886 13.181C35.9699 13.0828 36.3746 13.14 36.7137 13.3402C37.0528 13.5403 37.2986 13.867 37.3968 14.2483C37.7948 15.7997 37.9958 17.395 37.995 18.9966L37.9984 18.9983ZM27.2918 32.7215C24.8251 34.2115 22.0024 35.0091 19.1206 35.0303C16.2389 35.0514 13.4048 34.2954 10.9165 32.8417C8.42815 31.3881 6.37769 29.2906 4.98088 26.7699C3.58407 24.2492 2.89255 21.3987 2.97911 18.5182C3.06566 15.6377 3.92709 12.8337 5.47273 10.4015C7.01837 7.96925 9.19107 5.99863 11.7622 4.697C14.3333 3.39537 17.2077 2.81088 20.083 3.00504C22.9582 3.19919 25.728 4.16481 28.1007 5.80027C28.4246 6.02406 28.8241 6.11003 29.2113 6.03928C29.4031 6.00424 29.586 5.93179 29.7497 5.82605C29.9135 5.7203 30.0548 5.58335 30.1656 5.42299C30.2764 5.26264 30.3545 5.08203 30.3956 4.89148C30.4366 4.70093 30.4396 4.50417 30.4046 4.31243C30.3696 4.12069 30.2971 3.93773 30.1914 3.774C30.0856 3.61026 29.9487 3.46895 29.7883 3.35815C25.8858 0.664061 21.1168 -0.473275 16.4184 0.169594C11.72 0.812463 7.4319 3.18906 4.39648 6.83245C1.36107 10.4758 -0.202175 15.1226 0.0138874 19.8599C0.22995 24.5971 2.2097 29.0823 5.56417 32.4343C8.56856 35.4376 12.4925 37.3478 16.7095 37.8601C20.9266 38.3724 25.1938 37.4571 28.8298 35.2605C28.9965 35.1595 29.1417 35.0266 29.2571 34.8696C29.3725 34.7125 29.4558 34.5342 29.5023 34.3449C29.5487 34.1556 29.5575 33.959 29.528 33.7663C29.4985 33.5736 29.4313 33.3887 29.3303 33.222C29.2293 33.0553 29.0965 32.9101 28.9394 32.7947C28.7823 32.6793 28.604 32.596 28.4147 32.5495C28.2254 32.5031 28.0288 32.4943 27.8362 32.5238C27.6435 32.5533 27.4585 32.6205 27.2918 32.7215ZM19.1344 23.303C19.0196 23.308 18.905 23.2896 18.7975 23.249C18.69 23.2084 18.5918 23.1464 18.509 23.0668L10.7441 15.6963C10.4555 15.4493 10.0831 15.3225 9.70369 15.3419C9.3243 15.3614 8.96682 15.5256 8.70493 15.8008C8.44304 16.076 8.29668 16.4411 8.29602 16.821C8.29536 17.2009 8.44044 17.5666 8.70138 17.8427L16.4747 25.2132C17.1824 25.8915 18.1253 26.2691 19.1055 26.2669H19.2635C19.7754 26.248 20.278 26.1256 20.7413 25.9071C21.2045 25.6886 21.6187 25.3786 21.9589 24.9957L22.0099 24.9362L37.6721 5.45698C37.9189 5.15026 38.0337 4.75808 37.9913 4.3667C37.9489 3.97532 37.7528 3.61681 37.4461 3.37004C37.1394 3.12327 36.7472 3.00845 36.3558 3.05084C35.9644 3.09323 35.6059 3.28935 35.3592 3.59607L19.7241 23.0396C19.5712 23.1994 19.3621 23.2933 19.1412 23.3013L19.1344 23.303Z" fill="black"/>
</g>
<defs>
<clipPath id="clip0_2344_2">
<rect width="38" height="38" fill="white"/>
</clipPath>
</defs>
</svg>
