<svg width="61" height="61" viewBox="0 0 61 61" fill="none" xmlns="http://www.w3.org/2000/svg">
<g clip-path="url(#clip0_19_26)">
<path d="M32.4619 36.903H43.3699C43.5674 36.8958 43.7544 36.8124 43.8915 36.6702C44.0287 36.5279 44.1053 36.3381 44.1053 36.1405C44.1053 35.9429 44.0287 35.753 43.8915 35.6108C43.7544 35.4686 43.5674 35.3851 43.3699 35.378H32.4619C32.2645 35.3851 32.0775 35.4686 31.9404 35.6108C31.8032 35.753 31.7266 35.9429 31.7266 36.1405C31.7266 36.3381 31.8032 36.5279 31.9404 36.6702C32.0775 36.8124 32.2645 36.8958 32.4619 36.903Z" fill="#A0A9B2"/>
<path d="M18.007 29.737C17.9068 29.7369 17.8075 29.7565 17.7149 29.7948C17.6222 29.8331 17.5381 29.8893 17.4672 29.9602C17.3963 30.0311 17.3401 30.1152 17.3018 30.2079C17.2635 30.3005 17.2439 30.3998 17.244 30.5V32.484C17.244 32.6862 17.3244 32.8802 17.4673 33.0232C17.6103 33.1662 17.8043 33.2465 18.0065 33.2465C18.2087 33.2465 18.4027 33.1662 18.5457 33.0232C18.6887 32.8802 18.769 32.6862 18.769 32.484V30.5C18.7691 30.3998 18.7495 30.3007 18.7113 30.2081C18.6731 30.1155 18.617 30.0314 18.5462 29.9605C18.4754 29.8897 18.3914 29.8335 18.2989 29.7951C18.2063 29.7567 18.1072 29.737 18.007 29.737Z" fill="#A0A9B2"/>
<path d="M22.503 29.737C22.4028 29.7369 22.3035 29.7565 22.2109 29.7948C22.1182 29.8331 22.0341 29.8893 21.9632 29.9602C21.8923 30.0311 21.8361 30.1152 21.7978 30.2079C21.7595 30.3005 21.7399 30.3998 21.74 30.5V32.484C21.7363 32.5865 21.7533 32.6886 21.7899 32.7844C21.8266 32.8801 21.8821 32.9675 21.9533 33.0413C22.0245 33.1151 22.1098 33.1738 22.2041 33.2139C22.2985 33.254 22.4 33.2746 22.5025 33.2746C22.605 33.2746 22.7065 33.254 22.8009 33.2139C22.8952 33.1738 22.9805 33.1151 23.0517 33.0413C23.1229 32.9675 23.1784 32.8801 23.2151 32.7844C23.2517 32.6886 23.2687 32.5865 23.265 32.484V30.5C23.2651 30.3998 23.2455 30.3007 23.2073 30.2081C23.1691 30.1155 23.1129 30.0314 23.0422 29.9605C22.9714 29.8897 22.8873 29.8335 22.7948 29.7951C22.7023 29.7567 22.6032 29.737 22.503 29.737Z" fill="#A0A9B2"/>
<path d="M18.007 35.378C17.8047 35.378 17.6106 35.4584 17.4675 35.6015C17.3244 35.7445 17.244 35.9386 17.244 36.141V38.126C17.244 38.3282 17.3243 38.5222 17.4673 38.6652C17.6103 38.8082 17.8043 38.8885 18.0065 38.8885C18.2087 38.8885 18.4027 38.8082 18.5457 38.6652C18.6887 38.5222 18.769 38.3282 18.769 38.126V36.141C18.7691 36.0408 18.7495 35.9416 18.7113 35.8491C18.6731 35.7565 18.617 35.6724 18.5462 35.6015C18.4754 35.5307 18.3914 35.4744 18.2989 35.4361C18.2063 35.3977 18.1072 35.378 18.007 35.378Z" fill="#A0A9B2"/>
<path d="M22.503 35.378C22.3006 35.378 22.1065 35.4584 21.9635 35.6015C21.8204 35.7445 21.74 35.9386 21.74 36.141V38.126C21.7471 38.3234 21.8306 38.5104 21.9728 38.6476C22.115 38.7847 22.3049 38.8614 22.5025 38.8614C22.7001 38.8614 22.8899 38.7847 23.0322 38.6476C23.1744 38.5104 23.2578 38.3234 23.265 38.126V36.141C23.265 35.9388 23.1847 35.7449 23.0419 35.6018C22.899 35.4588 22.7052 35.3783 22.503 35.378Z" fill="#A0A9B2"/>
<path d="M18.007 41.02C17.9068 41.0199 17.8075 41.0395 17.7149 41.0778C17.6222 41.1161 17.5381 41.1723 17.4672 41.2432C17.3963 41.3141 17.3401 41.3982 17.3018 41.4909C17.2635 41.5835 17.2439 41.6828 17.244 41.783V43.767C17.244 43.9692 17.3244 44.1632 17.4673 44.3062C17.6103 44.4492 17.8043 44.5295 18.0065 44.5295C18.2087 44.5295 18.4027 44.4492 18.5457 44.3062C18.6887 44.1632 18.769 43.9692 18.769 43.767V41.783C18.7691 41.6829 18.7495 41.5837 18.7113 41.4911C18.6731 41.3985 18.617 41.3144 18.5462 41.2436C18.4754 41.1727 18.3914 41.1165 18.2989 41.0781C18.2063 41.0398 18.1072 41.02 18.007 41.02Z" fill="#A0A9B2"/>
<path d="M22.503 41.02C22.4028 41.0199 22.3035 41.0395 22.2109 41.0778C22.1182 41.1161 22.0341 41.1723 21.9632 41.2432C21.8923 41.3141 21.8361 41.3982 21.7978 41.4909C21.7595 41.5835 21.7399 41.6828 21.74 41.783V43.767C21.7363 43.8695 21.7533 43.9716 21.7899 44.0674C21.8266 44.1631 21.8821 44.2505 21.9533 44.3243C22.0245 44.3981 22.1098 44.4568 22.2041 44.4969C22.2985 44.537 22.4 44.5576 22.5025 44.5576C22.605 44.5576 22.7065 44.537 22.8009 44.4969C22.8952 44.4568 22.9805 44.3981 23.0517 44.3243C23.1229 44.2505 23.1784 44.1631 23.2151 44.0674C23.2517 43.9716 23.2687 43.8695 23.265 43.767V41.783C23.2651 41.6829 23.2455 41.5837 23.2073 41.4911C23.1691 41.3985 23.1129 41.3144 23.0422 41.2436C22.9714 41.1727 22.8873 41.1165 22.7948 41.0781C22.7023 41.0398 22.6032 41.02 22.503 41.02Z" fill="#A0A9B2"/>
<path d="M18.007 46.662C17.8047 46.662 17.6106 46.7424 17.4675 46.8855C17.3244 47.0286 17.244 47.2226 17.244 47.425V49.409C17.244 49.6112 17.3243 49.8052 17.4673 49.9482C17.6103 50.0911 17.8043 50.1715 18.0065 50.1715C18.2087 50.1715 18.4027 50.0911 18.5457 49.9482C18.6887 49.8052 18.769 49.6112 18.769 49.409V47.425C18.7691 47.3248 18.7495 47.2257 18.7113 47.1331C18.6731 47.0405 18.617 46.9564 18.5462 46.8855C18.4754 46.8147 18.3914 46.7584 18.2989 46.7201C18.2063 46.6817 18.1072 46.662 18.007 46.662Z" fill="#A0A9B2"/>
<path d="M22.503 46.662C22.3006 46.662 22.1066 46.7424 21.9635 46.8855C21.8204 47.0286 21.74 47.2226 21.74 47.425V49.409C21.7363 49.5115 21.7533 49.6136 21.7899 49.7094C21.8266 49.8051 21.8821 49.8925 21.9533 49.9663C22.0245 50.0401 22.1098 50.0988 22.2041 50.1389C22.2985 50.1789 22.4 50.1996 22.5025 50.1996C22.605 50.1996 22.7065 50.1789 22.8009 50.1389C22.8952 50.0988 22.9805 50.0401 23.0517 49.9663C23.1229 49.8925 23.1784 49.8051 23.2151 49.7094C23.2517 49.6136 23.2687 49.5115 23.265 49.409V47.425C23.265 47.2228 23.1847 47.0289 23.0419 46.8858C22.899 46.7427 22.7052 46.6623 22.503 46.662Z" fill="#A0A9B2"/>
<path d="M18.007 52.304C17.9069 52.3039 17.8077 52.3235 17.7151 52.3617C17.6225 52.4 17.5384 52.4561 17.4676 52.5269C17.3967 52.5976 17.3405 52.6817 17.3021 52.7742C17.2638 52.8667 17.244 52.9659 17.244 53.066V55.051C17.244 55.2533 17.3243 55.4472 17.4673 55.5902C17.6103 55.7332 17.8043 55.8135 18.0065 55.8135C18.2087 55.8135 18.4027 55.7332 18.5457 55.5902C18.6887 55.4472 18.769 55.2533 18.769 55.051V53.066C18.769 52.8639 18.6887 52.6701 18.5458 52.5272C18.4029 52.3843 18.2091 52.304 18.007 52.304Z" fill="#A0A9B2"/>
<path d="M22.503 52.304C22.4028 52.3039 22.3036 52.3235 22.2111 52.3617C22.1185 52.4 22.0344 52.4561 21.9635 52.5269C21.8927 52.5976 21.8364 52.6817 21.7981 52.7742C21.7597 52.8667 21.74 52.9659 21.74 53.066V55.051C21.7471 55.2485 21.8306 55.4354 21.9728 55.5726C22.115 55.7098 22.3049 55.7864 22.5025 55.7864C22.7001 55.7864 22.8899 55.7098 23.0322 55.5726C23.1744 55.4354 23.2578 55.2485 23.265 55.051V53.066C23.265 52.8639 23.1847 52.6701 23.0418 52.5272C22.8989 52.3843 22.7051 52.304 22.503 52.304Z" fill="#A0A9B2"/>
<path d="M32.462 41.478H43.37C43.5722 41.478 43.7661 41.3977 43.9091 41.2547C44.0521 41.1117 44.1325 40.9177 44.1325 40.7155C44.1325 40.5133 44.0521 40.3193 43.9091 40.1763C43.7661 40.0333 43.5722 39.953 43.37 39.953H32.462C32.2597 39.953 32.0658 40.0333 31.9228 40.1763C31.7798 40.3193 31.6995 40.5133 31.6995 40.7155C31.6995 40.9177 31.7798 41.1117 31.9228 41.2547C32.0658 41.3977 32.2597 41.478 32.462 41.478Z" fill="#A0A9B2"/>
<path d="M32.462 46.053H43.37C43.5722 46.053 43.7661 45.9727 43.9091 45.8297C44.0521 45.6867 44.1325 45.4928 44.1325 45.2905C44.1325 45.0883 44.0521 44.8943 43.9091 44.7513C43.7661 44.6083 43.5722 44.528 43.37 44.528H32.462C32.2597 44.528 32.0658 44.6083 31.9228 44.7513C31.7798 44.8943 31.6995 45.0883 31.6995 45.2905C31.6995 45.4928 31.7798 45.6867 31.9228 45.8297C32.0658 45.9727 32.2597 46.053 32.462 46.053Z" fill="#A0A9B2"/>
<path d="M32.462 27.678H43.37C43.5722 27.678 43.7661 27.5977 43.9091 27.4547C44.0521 27.3117 44.1325 27.1178 44.1325 26.9155C44.1325 26.7133 44.0521 26.5194 43.9091 26.3764C43.7661 26.2334 43.5722 26.153 43.37 26.153H32.462C32.2597 26.153 32.0658 26.2334 31.9228 26.3764C31.7798 26.5194 31.6995 26.7133 31.6995 26.9155C31.6995 27.1178 31.7798 27.3117 31.9228 27.4547C32.0658 27.5977 32.2597 27.678 32.462 27.678Z" fill="#A0A9B2"/>
<path d="M32.462 32.253H43.37C43.5722 32.253 43.7661 32.1727 43.9091 32.0297C44.0521 31.8867 44.1325 31.6928 44.1325 31.4905C44.1325 31.2883 44.0521 31.0944 43.9091 30.9514C43.7661 30.8084 43.5722 30.728 43.37 30.728H32.462C32.2597 30.728 32.0658 30.8084 31.9228 30.9514C31.7798 31.0944 31.6995 31.2883 31.6995 31.4905C31.6995 31.6928 31.7798 31.8867 31.9228 32.0297C32.0658 32.1727 32.2597 32.253 32.462 32.253Z" fill="#A0A9B2"/>
<path d="M61 43.058C61.0003 42.2784 60.794 41.5126 60.4023 40.8385C60.0105 40.1644 59.4472 39.6061 58.7697 39.2204C58.0921 38.8347 57.3245 38.6354 56.5448 38.6426C55.7652 38.6499 55.0015 38.8635 54.3312 39.2618C53.661 39.6601 53.1082 40.2288 52.729 40.91C52.3499 41.5913 52.158 42.3608 52.1728 43.1403C52.1876 43.9198 52.4086 44.6815 52.8134 45.3479C53.2181 46.0142 53.7921 46.5615 54.477 46.934C53.6726 47.3709 53.0241 48.0472 52.6215 48.8693C52.2189 49.6914 52.0822 50.6184 52.2302 51.5217C52.3783 52.425 52.8038 53.2598 53.4478 53.9103C54.0918 54.5608 54.9222 54.9948 55.824 55.152V59.475H48.934V10.961C48.9339 10.8351 48.9025 10.7112 48.8428 10.6003C48.783 10.4895 48.6967 10.3952 48.5916 10.3259C48.4865 10.2565 48.3659 10.2143 48.2405 10.203C48.1151 10.1917 47.9888 10.2116 47.873 10.261L37 14.88V8.10001C37 7.99994 36.9803 7.90086 36.942 7.80841C36.9037 7.71596 36.8476 7.63195 36.7768 7.5612C36.7061 7.49044 36.6221 7.43431 36.5296 7.39602C36.4372 7.35772 36.3381 7.33801 36.238 7.33801H29.058V0.762012C29.058 0.559784 28.9777 0.365839 28.8347 0.222843C28.6917 0.0798463 28.4977 -0.000488281 28.2955 -0.000488281C28.0933 -0.000488281 27.8993 0.0798463 27.7563 0.222843C27.6133 0.365839 27.533 0.559784 27.533 0.762012V7.33901H20.1C19.8979 7.33901 19.7041 7.41929 19.5612 7.5622C19.4183 7.7051 19.338 7.89892 19.338 8.10101V24.543H12.829C12.7288 24.543 12.6297 24.5628 12.5372 24.6011C12.4446 24.6395 12.3606 24.6957 12.2898 24.7666C12.2191 24.8374 12.163 24.9215 12.1247 25.0141C12.0865 25.1067 12.0669 25.2059 12.067 25.306V59.474H5.176V55.151C6.07776 54.9938 6.90824 54.5598 7.55221 53.9093C8.19618 53.2588 8.62172 52.424 8.76977 51.5207C8.91783 50.6174 8.78108 49.6904 8.37847 48.8683C7.97587 48.0462 7.32739 47.3699 6.523 46.933C7.38474 46.4642 8.06569 45.7216 8.45827 44.8225C8.85084 43.9235 8.93264 42.9192 8.69075 41.9685C8.44887 41.0178 7.89708 40.1747 7.12258 39.5726C6.34808 38.9705 5.39502 38.6436 4.414 38.6436C3.43298 38.6436 2.47992 38.9705 1.70542 39.5726C0.930919 40.1747 0.379133 41.0178 0.137246 41.9685C-0.10464 42.9192 -0.0228356 43.9235 0.369735 44.8225C0.762305 45.7216 1.44326 46.4642 2.305 46.933C1.50061 47.3699 0.852127 48.0462 0.449526 48.8683C0.0469246 49.6904 -0.0898335 50.6174 0.0582258 51.5207C0.206285 52.424 0.631821 53.2588 1.27579 53.9093C1.91976 54.5598 2.75024 54.9938 3.652 55.151V59.474H0.763C0.56064 59.474 0.366568 59.5544 0.223477 59.6975C0.0803873 59.8406 0 60.0346 0 60.237C0 60.4394 0.0803873 60.6334 0.223477 60.7765C0.366568 60.9196 0.56064 61 0.763 61H60.238C60.4354 60.9929 60.6224 60.9094 60.7596 60.7672C60.8967 60.625 60.9734 60.4351 60.9734 60.2375C60.9734 60.0399 60.8967 59.8501 60.7596 59.7078C60.6224 59.5656 60.4354 59.4822 60.238 59.475H57.349V55.151C58.251 54.9944 59.082 54.5609 59.7264 53.9106C60.3709 53.2604 60.797 52.4256 60.9455 51.5222C61.094 50.6188 60.9576 49.6916 60.5552 48.8692C60.1528 48.0468 59.5044 47.3701 58.7 46.933C59.3957 46.5528 59.9764 45.9925 60.381 45.3107C60.7857 44.6289 60.9995 43.8508 61 43.058ZM4.414 40.169C4.98539 40.169 5.54395 40.3384 6.01904 40.6559C6.49414 40.9733 6.86443 41.4245 7.08309 41.9524C7.30175 42.4803 7.35896 43.0612 7.24749 43.6216C7.13602 44.182 6.86087 44.6968 6.45683 45.1008C6.0528 45.5049 5.53803 45.78 4.97762 45.8915C4.4172 46.003 3.83632 45.9458 3.30843 45.7271C2.78053 45.5084 2.32933 45.1381 2.01188 44.6631C1.69444 44.188 1.525 43.6294 1.525 43.058C1.52579 42.292 1.83043 41.5577 2.37205 41.0161C2.91367 40.4744 3.64803 40.1698 4.414 40.169ZM1.525 50.809C1.5254 50.2377 1.69517 49.6793 2.01286 49.2045C2.33054 48.7297 2.78188 48.3597 3.30981 48.1413C3.83774 47.923 4.41856 47.8661 4.97884 47.9778C5.53912 48.0895 6.0537 48.3648 6.45754 48.7689C6.86137 49.173 7.13632 49.6878 7.24763 50.2481C7.35894 50.8085 7.30162 51.3893 7.0829 51.917C6.86418 52.4448 6.49388 52.8959 6.01883 53.2133C5.54378 53.5306 4.9853 53.7 4.414 53.7C3.64769 53.6992 2.91302 53.3943 2.37134 52.8523C1.82966 52.3102 1.52526 51.5753 1.525 50.809ZM47.409 59.475H43.109V51.813C43.109 51.7129 43.0893 51.6137 43.0509 51.5212C43.0125 51.4287 42.9563 51.3446 42.8855 51.2738C42.8146 51.2031 42.7305 51.147 42.6379 51.1087C42.5453 51.0705 42.4462 51.0509 42.346 51.051H33.488C33.3878 51.0509 33.2887 51.0705 33.1961 51.1087C33.1035 51.147 33.0194 51.2031 32.9485 51.2738C32.8777 51.3446 32.8215 51.4287 32.7831 51.5212C32.7447 51.6137 32.725 51.7129 32.725 51.813V59.474H28.425V20.185L47.412 12.113L47.409 59.475ZM41.581 59.475H34.251V52.575H41.58L41.581 59.475ZM35.481 8.86401V14.678H20.865V8.86401H35.481ZM20.865 16.2H33.893L27.361 18.98C27.2236 19.0384 27.1064 19.1359 27.0239 19.2603C26.9414 19.3848 26.8973 19.5307 26.897 19.68V24.542H20.865V16.2ZM13.592 26.065H26.9V59.474H13.6L13.592 26.065ZM56.592 53.695C56.0205 53.6952 55.4618 53.5259 54.9866 53.2085C54.5113 52.8912 54.1409 52.44 53.9221 51.912C53.7033 51.3841 53.646 50.8031 53.7575 50.2426C53.8689 49.6821 54.1441 49.1673 54.5482 48.7632C54.9523 48.3591 55.4671 48.0839 56.0276 47.9725C56.5881 47.861 57.1691 47.9183 57.697 48.1371C58.225 48.3559 58.6762 48.7263 58.9935 49.2016C59.3109 49.6768 59.4802 50.2355 59.48 50.807C59.4801 51.187 59.4054 51.5632 59.2601 51.9143C59.1147 52.2653 58.9016 52.5843 58.633 52.853C58.3643 53.1216 58.0453 53.3347 57.6943 53.4801C57.3432 53.6254 56.967 53.7001 56.587 53.7L56.592 53.695ZM56.592 45.944C56.0205 45.9442 55.4618 45.7749 54.9866 45.4575C54.5113 45.1402 54.1409 44.689 53.9221 44.161C53.7033 43.6331 53.646 43.0521 53.7575 42.4916C53.8689 41.9311 54.1441 41.4163 54.5482 41.0122C54.9523 40.6081 55.4671 40.3329 56.0276 40.2215C56.5881 40.11 57.1691 40.1673 57.697 40.3861C58.225 40.6049 58.6762 40.9753 58.9935 41.4506C59.3109 41.9258 59.4802 42.4845 59.48 43.056C59.4799 43.4357 59.4049 43.8117 59.2595 44.1625C59.114 44.5133 58.9008 44.8319 58.6322 45.1003C58.3635 45.3687 58.0446 45.5815 57.6937 45.7266C57.3428 45.8717 56.9667 45.9463 56.587 45.946L56.592 45.944Z" fill="#A0A9B2"/>
</g>
<defs>
<clipPath id="clip0_19_26">
<rect width="61" height="61" fill="white"/>
</clipPath>
</defs>
</svg>
