<svg width="43" height="60" viewBox="0 0 43 60" fill="none" xmlns="http://www.w3.org/2000/svg">
<g clip-path="url(#clip0_2391_350)">
<path d="M29.9951 21.154C29.9933 19.8357 29.6952 18.5347 29.1228 17.3471L30.5852 15.8857C31.7364 17.9402 32.1849 20.3145 31.8626 22.6474C31.5402 24.9802 30.4645 27.1439 28.7992 28.8092C27.134 30.4745 24.9703 31.5501 22.6374 31.8725C20.3046 32.1949 17.9302 31.7463 15.8758 30.5951L17.3372 29.1337C18.685 29.7817 20.1753 30.0768 21.6683 29.9914C23.1614 29.9059 24.6083 29.4427 25.8734 28.6452C27.1385 27.8477 28.1803 26.7419 28.9013 25.4317C29.6222 24.1214 29.9985 22.6495 29.9951 21.154ZM7.03852 39.4314C9.42141 43.6602 12.1524 47.8349 14.6917 51.4648C15.4167 52.5039 16.3819 53.3526 17.5053 53.9386C18.6287 54.5246 19.877 54.8307 21.1441 54.8307C22.4111 54.8307 23.6594 54.5246 24.7828 53.9386C25.9062 53.3526 26.8715 52.5039 27.5965 51.4648C34.0734 42.2145 41.7964 29.4474 41.7964 21.154C41.7961 16.7 40.3463 12.3671 37.666 8.80981L36.2626 10.2122C38.5807 13.3895 39.8297 17.221 39.8295 21.154C39.8295 29.3451 31.1556 42.9531 25.9846 50.3358C25.4409 51.1156 24.7169 51.7526 23.8741 52.1924C23.0313 52.6323 22.0947 52.862 21.1441 52.862C20.1934 52.862 19.2568 52.6323 18.4141 52.1924C17.5713 51.7526 16.8472 51.1156 16.3036 50.3358C13.4936 46.3508 10.8855 42.2273 8.4891 37.9808L7.03852 39.4314ZM5.10507 35.8074C2.40453 30.4702 0.491724 25.2619 0.491724 21.154C0.485482 17.1533 1.64334 13.2372 3.82413 9.88306C6.00492 6.52895 9.11444 3.88177 12.7736 2.26423C16.4328 0.646698 20.4835 0.128686 24.4319 0.77335C28.3804 1.41801 32.056 3.1975 35.0107 5.89488L39.624 1.28154C39.7147 1.18761 39.8232 1.11269 39.9432 1.06115C40.0632 1.00961 40.1923 0.982476 40.3228 0.981341C40.4534 0.980206 40.5829 1.00509 40.7038 1.05454C40.8246 1.10399 40.9344 1.17701 41.0268 1.26935C41.1191 1.36169 41.1921 1.47149 41.2416 1.59235C41.291 1.71321 41.3159 1.84271 41.3148 1.97329C41.3137 2.10388 41.2865 2.23292 41.235 2.35291C41.1834 2.47289 41.1085 2.58141 41.0146 2.67213L2.66022 41.0265C2.5695 41.1204 2.46098 41.1954 2.341 41.2469C2.22102 41.2984 2.09197 41.3256 1.96139 41.3267C1.8308 41.3278 1.70131 41.3029 1.58044 41.2535C1.45958 41.204 1.34978 41.131 1.25744 41.0387C1.1651 40.9464 1.09208 40.8365 1.04263 40.7157C0.993181 40.5948 0.968297 40.4653 0.969432 40.3347C0.970567 40.2042 0.997697 40.0751 1.04924 39.9551C1.10078 39.8351 1.1757 39.7266 1.26963 39.6359L5.10507 35.8074ZM26.6622 14.2502C24.9635 12.8929 22.8242 12.2093 20.6532 12.33C18.4823 12.4506 16.4319 13.3672 14.8941 14.9043C13.3563 16.4415 12.439 18.4915 12.3175 20.6624C12.196 22.8334 12.8788 24.9729 14.2354 26.6721L26.6622 14.2502ZM6.57827 34.3322L12.8359 28.0755C11.1021 26.004 10.2067 23.3584 10.3261 20.6597C10.4454 17.961 11.5709 15.4048 13.4807 13.4944C15.3906 11.5841 17.9465 10.458 20.6452 10.3379C23.3439 10.2179 25.9897 11.1126 28.0616 12.8459L33.622 7.28744C30.9428 4.86486 27.6179 3.27228 24.051 2.70308C20.4841 2.13389 16.8286 2.61256 13.5285 4.08099C10.2284 5.54941 7.42565 7.9444 5.46056 10.9751C3.49548 14.0059 2.45262 17.542 2.45862 21.154C2.45862 24.8105 4.20325 29.5487 6.57827 34.3322ZM32.6396 48.5921C32.5103 48.5653 32.3769 48.5648 32.2475 48.5905C32.118 48.6163 31.995 48.668 31.8859 48.7423C31.7768 48.8166 31.6837 48.9122 31.6123 49.0232C31.5409 49.1343 31.4926 49.2586 31.4703 49.3887C31.448 49.5189 31.4521 49.6522 31.4824 49.7807C31.5127 49.9092 31.5685 50.0303 31.6466 50.1367C31.7247 50.2432 31.8235 50.3328 31.9369 50.4003C32.0504 50.4678 32.1763 50.5117 32.3072 50.5295C37.7859 51.4638 39.8295 52.9193 39.8295 53.6077C39.8295 55.0199 33.5847 57.5415 21.1441 57.5415C8.70349 57.5415 2.45862 55.0199 2.45862 53.6077C2.45862 52.9193 4.50221 51.4638 9.98492 50.5207C10.1158 50.5029 10.2417 50.459 10.3551 50.3915C10.4686 50.324 10.5674 50.2343 10.6455 50.1279C10.7236 50.0214 10.7794 49.9003 10.8097 49.7718C10.84 49.6433 10.8441 49.51 10.8218 49.3799C10.7994 49.2498 10.7511 49.1255 10.6798 49.0144C10.6084 48.9033 10.5153 48.8078 10.4062 48.7334C10.2971 48.6591 10.1741 48.6075 10.0446 48.5817C9.91515 48.5559 9.78179 48.5564 9.65252 48.5833C5.47288 49.3012 0.491724 50.7557 0.491724 53.6077C0.491724 57.6841 10.8641 59.5084 21.1441 59.5084C31.424 59.5084 41.7964 57.6841 41.7964 53.6077C41.7964 50.7557 36.8153 49.3012 32.6356 48.5833L32.6396 48.5921Z" fill="#A0A9B2" stroke="#A0A9B2"/>
</g>
<defs>
<clipPath id="clip0_2391_350">
<rect width="42.2882" height="60" fill="white"/>
</clipPath>
</defs>
</svg>
