<svg width="50" height="50" viewBox="0 0 50 50" fill="none" xmlns="http://www.w3.org/2000/svg">
<g clip-path="url(#clip0_322_1478)">
<path d="M16.864 12.0601H10.1386C9.90436 12.0601 9.6797 12.1531 9.51407 12.3188C9.34843 12.4844 9.25537 12.709 9.25537 12.9433V18.1907C9.25537 18.4249 9.34843 18.6496 9.51407 18.8152C9.6797 18.9809 9.90436 19.0739 10.1386 19.0739H16.8649C17.0992 19.0739 17.3238 18.9809 17.4895 18.8152C17.6551 18.6496 17.7482 18.4249 17.7482 18.1907V12.9413C17.7477 12.7073 17.6542 12.483 17.4884 12.3177C17.3226 12.1525 17.098 12.0598 16.864 12.0601ZM15.9807 17.3075H11.0199V13.8236H15.9817L15.9807 17.3075Z" fill="#A0A9B2" stroke="white" stroke-width="0.9"/>
<path d="M16.864 21.752H10.1386C9.90436 21.752 9.6797 21.845 9.51407 22.0106C9.34843 22.1763 9.25537 22.4009 9.25537 22.6352V27.8826C9.25537 28.1168 9.34843 28.3415 9.51407 28.5071C9.6797 28.6728 9.90436 28.7658 10.1386 28.7658H16.8649C17.0992 28.7658 17.3238 28.6728 17.4895 28.5071C17.6551 28.3415 17.7482 28.1168 17.7482 27.8826V22.6332C17.7477 22.3991 17.6542 22.1748 17.4884 22.0096C17.3226 21.8444 17.098 21.7517 16.864 21.752ZM15.9807 26.9994H11.0199V23.5155H15.9817L15.9807 26.9994Z" fill="#A0A9B2" stroke="white" stroke-width="0.9"/>
<path d="M21.2429 28.1581H34.5895C34.7055 28.1581 34.8204 28.1352 34.9275 28.0908C35.0347 28.0465 35.1321 27.9814 35.2141 27.8994C35.2961 27.8174 35.3612 27.72 35.4055 27.6128C35.4499 27.5057 35.4728 27.3908 35.4728 27.2748C35.4728 27.1589 35.4499 27.044 35.4055 26.9368C35.3612 26.8297 35.2961 26.7323 35.2141 26.6503C35.1321 26.5683 35.0347 26.5032 34.9275 26.4588C34.8204 26.4144 34.7055 26.3916 34.5895 26.3916H21.2429C21.1269 26.3916 21.012 26.4144 20.9049 26.4588C20.7977 26.5032 20.7003 26.5683 20.6183 26.6503C20.5363 26.7323 20.4712 26.8297 20.4269 26.9368C20.3825 27.044 20.3596 27.1589 20.3596 27.2748C20.3596 27.3908 20.3825 27.5057 20.4269 27.6128C20.4712 27.72 20.5363 27.8174 20.6183 27.8994C20.7003 27.9814 20.7977 28.0465 20.9049 28.0908C21.012 28.1352 21.1269 28.1581 21.2429 28.1581Z" fill="#A0A9B2" stroke="white" stroke-width="0.9"/>
<path d="M9.47223 5.85754C9.68138 5.85754 9.88584 5.79554 10.0598 5.67938C10.2337 5.56323 10.3693 5.39812 10.4494 5.20492C10.5296 5.01173 10.5506 4.79911 10.51 4.59395C10.4693 4.38879 10.3687 4.20028 10.221 4.05225C10.0732 3.90422 9.88491 3.80331 9.67982 3.76227C9.47473 3.72123 9.26208 3.7419 9.06874 3.82167C8.87539 3.90144 8.71003 4.03673 8.59355 4.21044C8.47707 4.38416 8.4147 4.5885 8.41431 4.79766C8.41405 4.93675 8.44122 5.07453 8.49427 5.20311C8.54732 5.33169 8.62521 5.44854 8.72347 5.54699C8.82173 5.64543 8.93845 5.72354 9.06693 5.77682C9.19541 5.83011 9.33314 5.85754 9.47223 5.85754Z" fill="#A0A9B2" stroke="white" stroke-width="0.9"/>
<path d="M13.5283 5.85754C13.7374 5.85754 13.9419 5.79554 14.1158 5.67938C14.2897 5.56323 14.4253 5.39812 14.5055 5.20492C14.5856 5.01173 14.6067 4.79911 14.566 4.59395C14.5253 4.38879 14.4248 4.20028 14.277 4.05225C14.1293 3.90422 13.9409 3.80331 13.7359 3.76227C13.5308 3.72123 13.3181 3.7419 13.1248 3.82167C12.9314 3.90144 12.7661 4.03673 12.6496 4.21044C12.5331 4.38416 12.4707 4.5885 12.4703 4.79766C12.4701 4.93675 12.4973 5.07453 12.5503 5.20311C12.6034 5.33169 12.6812 5.44854 12.7795 5.54699C12.8778 5.64543 12.9945 5.72354 13.123 5.77682C13.2514 5.83011 13.3892 5.85754 13.5283 5.85754Z" fill="#A0A9B2" stroke="white" stroke-width="0.9"/>
<path d="M17.5843 5.85754C17.7934 5.85715 17.9976 5.79482 18.1713 5.67843C18.345 5.56203 18.4803 5.39679 18.5601 5.20356C18.6399 5.01033 18.6607 4.79778 18.6198 4.59275C18.5789 4.38772 18.4782 4.19939 18.3304 4.05156C18.1826 3.90372 17.9942 3.80301 17.7892 3.76212C17.5842 3.72124 17.3716 3.74203 17.1784 3.82185C16.9852 3.90168 16.8199 4.03697 16.7035 4.21065C16.5871 4.38432 16.5248 4.58859 16.5244 4.79766C16.5242 4.93691 16.5514 5.07485 16.6046 5.20356C16.6577 5.33227 16.7358 5.44921 16.8343 5.54768C16.9327 5.64615 17.0497 5.72421 17.1784 5.77739C17.3071 5.83056 17.445 5.8578 17.5843 5.85754Z" fill="#A0A9B2" stroke="white" stroke-width="0.9"/>
<path d="M24.2242 35.542H20.4842C20.2499 35.542 20.0253 35.635 19.8596 35.8007C19.694 35.9663 19.601 36.191 19.601 36.4252C19.601 36.6595 19.694 36.8841 19.8596 37.0498C20.0253 37.2154 20.2499 37.3085 20.4842 37.3085H24.2252C24.4594 37.3085 24.6841 37.2154 24.8497 37.0498C25.0154 36.8841 25.1084 36.6595 25.1084 36.4252C25.1084 36.191 25.0154 35.9663 24.8497 35.8007C24.6841 35.635 24.4594 35.542 24.2252 35.542H24.2242Z" fill="#A0A9B2" stroke="white" stroke-width="0.9"/>
<path d="M48.7507 3.68089C48.7361 3.04984 48.5383 2.43667 48.1814 1.91598C47.8246 1.39529 47.3241 0.989542 46.7409 0.748102C46.1577 0.506662 45.5169 0.439942 44.8964 0.55606C44.276 0.672178 43.7027 0.966129 43.2462 1.40214L40.0587 4.58964V2.87518C40.0582 2.40294 39.8704 1.95019 39.5364 1.61626C39.2025 1.28234 38.7498 1.09451 38.2775 1.09399H6.42705C5.95498 1.09477 5.50248 1.28271 5.16877 1.61661C4.83505 1.95051 4.64736 2.40311 4.64684 2.87518V9.50436H3.71454C2.84536 9.50644 2.01251 9.85325 1.39874 10.4687C0.78497 11.0841 0.440412 11.9179 0.440674 12.7871V37.4382C0.441454 38.3062 0.786628 39.1385 1.40043 39.7523C2.01423 40.3661 2.84649 40.7113 3.71454 40.712H17.8581V43.5983H13.2545C12.5572 43.599 11.8886 43.8764 11.3956 44.3695C10.9025 44.8625 10.6252 45.531 10.6244 46.2283V48.6818C10.6244 48.9142 10.7167 49.1371 10.8811 49.3015C11.0454 49.4658 11.2683 49.5581 11.5008 49.5581H33.2048C33.4372 49.5581 33.6601 49.4658 33.8245 49.3015C33.9888 49.1371 34.0812 48.9142 34.0812 48.6818V46.2283C34.0804 45.531 33.803 44.8625 33.31 44.3695C32.8169 43.8764 32.1484 43.599 31.4511 43.5983H26.8475V40.712H40.991C41.8589 40.711 42.6909 40.3657 43.3045 39.7519C43.9181 39.1382 44.2631 38.3061 44.2639 37.4382C44.2639 37.4215 44.2639 33.1555 44.2639 33.1407V12.7871C44.2633 12.3561 44.1778 11.9295 44.0123 11.5316C43.8467 11.1337 43.6044 10.7723 43.2992 10.4681L47.8067 5.96062C48.1069 5.66191 48.345 5.30662 48.507 4.91531C48.6691 4.524 48.7519 4.10443 48.7507 3.68089ZM32.3284 46.2283V47.8054H12.3771V46.2283C12.3789 45.9965 12.4718 45.7746 12.6358 45.6106C12.7997 45.4467 13.0216 45.3538 13.2535 45.352H31.4511C31.6836 45.352 31.9066 45.4443 32.0711 45.6086C32.2356 45.7729 32.3282 45.9958 32.3284 46.2283ZM25.0938 40.712V43.5973H19.6118V40.712H25.0938ZM31.9899 12.6605H21.2929C21.0603 12.6605 20.8373 12.7528 20.6729 12.9173C20.5084 13.0817 20.416 13.3048 20.416 13.5373C20.416 13.7699 20.5084 13.9929 20.6729 14.1573C20.8373 14.3218 21.0603 14.4142 21.2929 14.4142H30.2332L27.9446 16.7027H21.2929C21.1753 16.6988 21.0581 16.7186 20.9482 16.7609C20.8384 16.8032 20.7382 16.8671 20.6536 16.9489C20.569 17.0307 20.5018 17.1287 20.4558 17.2371C20.4099 17.3454 20.3862 17.4619 20.3862 17.5796C20.3862 17.6973 20.4099 17.8138 20.4558 17.9221C20.5018 18.0305 20.569 18.1284 20.6536 18.2103C20.7382 18.2921 20.8384 18.356 20.9482 18.3983C21.0581 18.4406 21.1753 18.4604 21.2929 18.4565H26.6326L25.3362 22.3613H21.2929C21.1753 22.3574 21.0581 22.3772 20.9482 22.4195C20.8384 22.4618 20.7382 22.5257 20.6536 22.6075C20.569 22.6893 20.5018 22.7873 20.4558 22.8957C20.4099 23.004 20.3862 23.1205 20.3862 23.2382C20.3862 23.3559 20.4099 23.4724 20.4558 23.5807C20.5018 23.6891 20.569 23.787 20.6536 23.8689C20.7382 23.9507 20.8384 24.0146 20.9482 24.0569C21.0581 24.0992 21.1753 24.119 21.2929 24.1151H34.5611C34.7936 24.1151 35.0167 24.0227 35.1811 23.8582C35.3455 23.6938 35.4379 23.4708 35.4379 23.2382C35.4379 23.0056 35.3455 22.7826 35.1811 22.6182C35.0167 22.4537 34.7936 22.3613 34.5611 22.3613H31.3225C31.405 22.3201 38.3001 15.4623 38.3001 15.4623V32.2732H6.39957L6.40644 8.54556H36.1028L31.9899 12.6605ZM27.3568 21.854L28.0084 19.8912L29.3196 21.2023L27.3568 21.854ZM38.305 2.87518V6.3414L37.8565 6.78988H6.41331L6.42803 2.84672L38.305 2.87518ZM3.71454 11.2581H4.64586V32.2732H2.19537V12.7871C2.19459 12.383 2.35408 11.9951 2.63886 11.7085C2.92365 11.4219 3.31049 11.2599 3.71454 11.2581ZM40.991 38.9583H3.71454C3.3117 38.9575 2.9256 38.7971 2.64084 38.5122C2.35608 38.2272 2.19589 37.841 2.19537 37.4382V34.0259C2.83915 34.0426 42.4994 34.0259 42.5102 34.0259V37.4382C42.5099 37.8411 42.3498 38.2275 42.065 38.5125C41.7802 38.7975 41.3939 38.9578 40.991 38.9583ZM42.5102 12.7871V32.2722H40.0568V13.7086L42.0539 11.7115C42.197 11.8526 42.3108 12.0206 42.3887 12.2059C42.4667 12.3912 42.5073 12.59 42.5082 12.791L42.5102 12.7871ZM46.5662 4.72115L30.9408 20.3456L28.8612 18.2661C31.2489 15.8774 43.7781 3.35409 44.4867 2.64162C44.6207 2.4944 44.7833 2.3759 44.9644 2.2933C45.1456 2.2107 45.3416 2.16571 45.5407 2.16105C45.7397 2.1564 45.9377 2.19217 46.1225 2.26621C46.3073 2.34025 46.4752 2.45102 46.616 2.59181C46.7568 2.7326 46.8676 2.90049 46.9416 3.08532C47.0157 3.27015 47.0514 3.46808 47.0468 3.66714C47.0421 3.86619 46.9971 4.06223 46.9145 4.2434C46.8319 4.42457 46.7134 4.58709 46.5662 4.72115Z" fill="#A0A9B2" stroke="white" stroke-width="0.9"/>
</g>
<defs>
<clipPath id="clip0_322_1478">
<rect width="49.1953" height="50" fill="white"/>
</clipPath>
</defs>
</svg>
