<svg id="Groupe_1" data-name="Groupe 1" xmlns="http://www.w3.org/2000/svg" width="15.996" height="21" viewBox="0 0 15.996 21">
  <path id="Tracé_1" data-name="Tracé 1" d="M15.29,4.359,11.336.617A2.247,2.247,0,0,0,9.785,0H2.256A2.258,2.258,0,0,0,0,2.256V18.744A2.258,2.258,0,0,0,2.256,21H13.74A2.258,2.258,0,0,0,16,18.744V6A2.265,2.265,0,0,0,15.29,4.359ZM14.1,4.922H11.033a.205.205,0,0,1-.205-.205V1.831ZM13.74,19.77H2.256A1.027,1.027,0,0,1,1.23,18.744V2.256A1.027,1.027,0,0,1,2.256,1.23H9.6V4.717a1.437,1.437,0,0,0,1.436,1.436h3.732V18.744A1.027,1.027,0,0,1,13.74,19.77Z"/>
  <path id="Tracé_2" data-name="Tracé 2" d="M12.387,8.2H3.363a.615.615,0,0,0,0,1.23h9.023a.615.615,0,1,0,0-1.23Z"/>
  <path id="Tracé_3" data-name="Tracé 3" d="M12.387,11.484H3.363a.615.615,0,1,0,0,1.23h9.023a.615.615,0,1,0,0-1.23Z"/>
  <path id="Tracé_4" data-name="Tracé 4" d="M6.346,14.766H3.363a.615.615,0,0,0,0,1.231H6.346a.615.615,0,0,0,0-1.231Z"/>
</svg>
