<svg width="81" height="80" viewBox="0 0 81 80" fill="none" xmlns="http://www.w3.org/2000/svg">
<path d="M46.5 50.9364C46.2 50.9364 45.9 50.7366 45.8 50.5369L40 40.6492C39.7 40.05 39.5 39.3509 39.5 38.6517V23.6705C39.5 23.271 39.9 22.8715 40.3 22.8715C40.5 22.8715 40.7 22.9713 40.9 23.0712C41.1 23.271 41.1 23.4707 41.1 23.6705V38.6517C41.1 39.0512 41.2 39.4507 41.4 39.7504L47.2 49.638C47.3 49.8378 47.3 50.0375 47.3 50.2373C47.2 50.437 47.1 50.6368 46.9 50.7366C46.8 50.9364 46.7 50.9364 46.5 50.9364Z" fill="#A0A9B2"/>
<path d="M40.2999 66.2172C35.6999 66.2172 31.1 65.0187 27.1 62.7216H27H26.9L26.7999 62.6217C22.9 60.3246 19.5999 57.0287 17.2999 53.2335V53.1336L17.2 53.0337L17.1 52.9338C12.4 44.7441 12.4 34.6567 17.1 26.5668V26.4669V26.367L17.2 26.2672V26.1673C19.5 22.2722 22.8 18.9763 26.7 16.6791L26.7999 16.5793L26.9 16.4794C30.9 14.1823 35.4999 12.9838 40.0999 12.9838C44.6999 12.9838 49.2999 14.1823 53.2999 16.4794L53.4 16.5793L53.5 16.6791C57.4 18.9763 60.7 22.2722 63 26.1673V26.2672L63.0999 26.367V26.4669V26.5668C67.7999 34.7565 67.7999 44.8439 63.0999 52.9338V53.0337V53.1336C63.0999 53.1336 63.0999 53.2335 63 53.2335V53.3333C60.7 57.2285 57.4 60.5243 53.5 62.7216H53.4L53.2999 62.8215C53.2999 62.8215 53.2999 62.8215 53.2 62.8215H53.0999H53C49.4 65.0187 44.9 66.2172 40.2999 66.2172ZM29.6 57.1286C29.7 57.1286 29.9 57.1286 30 57.2285C30.4 57.4282 30.5 57.9276 30.2999 58.3271L28.4 61.5231L29 61.9226C32.1 63.4207 35.4 64.3196 38.7999 64.5193H39.4V60.824C39.4 60.4245 39.8 60.025 40.2 60.025C40.4 60.025 40.5999 60.1248 40.7999 60.2247C41 60.4245 41 60.6242 41 60.824V64.5193H41.5999C44.9999 64.3196 48.3 63.4207 51.4 61.9226L52 61.623L50.0999 58.427C50 58.2272 50 58.0275 50 57.8277C50.0999 57.628 50.2 57.4282 50.4 57.3283C50.5 57.2285 50.7 57.2285 50.7999 57.2285C51.0999 57.2285 51.4 57.4282 51.5 57.628L53.9 61.7228L54.2 60.4245C57 58.5268 59.2999 56.2297 61.2 53.4332L61.5999 52.9338L58.4 51.0362C58.2 50.9363 58.0999 50.7366 58 50.5368C57.9 50.3371 58 50.1373 58.0999 49.9376C58.1999 49.6379 58.5 49.5381 58.7999 49.5381C58.8999 49.5381 59.1 49.5381 59.2 49.6379L62.4 51.5356L62.7 50.9363C64.2 47.8402 65.1 44.5443 65.3 41.1486V40.5493H61.5999C61.0999 40.5493 60.7999 40.1498 60.7999 39.7503C60.7999 39.3508 61.1999 38.9513 61.5999 38.9513H65.3V38.3521C65.1 34.9563 64.2 31.6604 62.7 28.5643L62.4 27.965L59.2 29.8627C59.1 29.9625 58.8999 29.9625 58.7999 29.9625C58.5 29.9625 58.1999 29.7628 58.0999 29.563C58 29.3633 58 29.1635 58 28.9638C58.0999 28.764 58.2 28.5643 58.4 28.4644L61.5999 26.5668L61.2 26.0674C59.2999 23.171 56.9 20.774 54 18.8764L53.5 18.4769L51.5999 21.6729C51.3999 21.9725 51.2 22.0724 50.9 22.0724C50.8 22.0724 50.5999 22.0724 50.5 21.9725C50.2999 21.8727 50.1999 21.6729 50.0999 21.4732C50 21.2734 50.1 21.0737 50.2 20.8739L52.0999 17.6779L51.5 17.3783C48.4 15.8801 45.1 14.9813 41.7 14.7815H41.0999V18.4769C41.0999 18.8764 40.6999 19.2759 40.2999 19.2759C39.9 19.2759 39.5 18.8764 39.5 18.4769V14.7815H38.9C35.5 14.9813 32.2 15.8801 29.1 17.3783L28.5 17.6779L30.4 20.8739C30.5 21.0737 30.5 21.2734 30.5 21.4732C30.4 21.6729 30.3 21.8727 30.1 21.9725C30 22.0724 29.8 22.0724 29.7 22.0724C29.4 22.0724 29.1 21.8727 29 21.6729L27 18.2771L26.5 18.6766C23.6 20.5743 21.1999 22.9713 19.2999 25.8677L19 26.367L22.2 28.2647C22.6 28.4644 22.7 28.9638 22.5 29.3633C22.4 29.6629 22.0999 29.7628 21.7999 29.7628C21.6999 29.7628 21.4999 29.7628 21.4 29.6629L18.2 27.7653L17.9 28.3645C16.4 31.4607 15.5 34.7565 15.3 38.1523V38.7516H19C19.2 38.7516 19.4 38.8514 19.6 38.9513C19.8 39.1511 19.7999 39.3508 19.7999 39.5506C19.7999 39.9501 19.4 40.3496 19 40.3496H15.3V40.9488C15.5 44.3446 16.4 47.6404 17.9 50.7366L18.2 51.3358L21.4 49.4382C21.4999 49.3383 21.6999 49.3383 21.7999 49.3383C22.0999 49.3383 22.4 49.5381 22.5 49.7378C22.7 50.1373 22.6 50.6367 22.2 50.8365L19 52.7341L19.4 53.2335C21.3 56.1298 23.7 58.5268 26.6 60.4245L27.1 60.824L29 57.628C29.1 57.3283 29.3 57.1286 29.6 57.1286Z" fill="#A0A9B2"/>
<path d="M39.6001 78.9014C31.2001 78.8015 22.9001 75.9051 16.2001 70.7116C-0.799946 57.5281 -3.79995 33.0587 9.30005 16.1798C16.8001 6.59174 28.0001 1.19849 40.1001 1.19849C48.8001 1.19849 57.1001 3.99499 64.0001 9.38825C80.9001 22.4719 84.0001 46.9413 70.8001 63.9201L69.7001 65.3183L76.0001 63.7203L76.7001 63.5206C76.8 63.5206 76.8001 63.5206 76.9001 63.5206C77.3001 63.5206 77.6001 63.8202 77.7001 64.1198C77.8 64.3196 77.7001 64.5193 77.6001 64.7191C77.5001 64.9188 77.3 65.0187 77.1001 65.1186L68.6001 67.3158C68.5001 67.3158 68.3 67.4157 68.2001 67.4157H68.1001C67.7001 67.4157 67.3001 67.216 67.0001 66.8165C66.7001 66.5168 66.6001 66.0175 66.6001 65.618L67.3001 56.8289C67.3001 56.4294 67.7001 56.1298 68.1001 56.1298C68.6001 56.1298 68.9001 56.5293 68.9001 57.0287L68.3001 64.5193L69.5001 62.9213C74.5001 56.5293 77.3001 48.5393 77.4001 40.4494C77.5001 30.4619 73.8001 21.0736 66.8001 13.8826C59.8001 6.69162 50.5001 2.79649 40.5001 2.59674H40.0001C19.7001 2.59674 2.90005 19.176 2.70005 39.4507C2.60005 49.4382 6.30005 58.9263 13.3001 66.0175C20.3001 73.2085 29.6001 77.2035 39.6001 77.3034C39.8001 77.3034 40.0001 77.4032 40.2001 77.5031C40.4001 77.7029 40.4001 77.9026 40.4001 78.1024C40.4001 78.6017 40.0001 78.9014 39.6001 78.9014Z" fill="#A0A9B2"/>
</svg>
