<svg width="67" height="82" viewBox="0 0 67 82" fill="none" xmlns="http://www.w3.org/2000/svg">
<g clip-path="url(#clip0_322_1528)">
<path d="M33.1161 48.581C31.5114 48.589 29.9156 48.3426 28.3881 47.851C26.4142 47.2147 24.5853 46.1952 23.0061 44.851C21.5086 43.5331 20.2589 41.958 19.3161 40.2C18.4094 38.4269 17.8497 36.497 17.6671 34.514C17.4735 32.4507 17.7091 30.3697 18.3591 28.402C18.9954 26.4281 20.0149 24.5992 21.3591 23.02C22.677 21.5224 24.2521 20.2728 26.0101 19.33C27.7838 18.4216 29.7148 17.8605 31.6991 17.677C33.7624 17.4834 35.8434 17.719 37.8111 18.369C38.1461 18.4814 38.4236 18.7206 38.5842 19.0354C38.7447 19.3501 38.7755 19.7153 38.6698 20.0524C38.5642 20.3896 38.3306 20.6719 38.0192 20.8388C37.7078 21.0056 37.3433 21.0438 37.0041 20.945C35.3822 20.4105 33.668 20.2138 31.9671 20.367C28.6446 20.6743 25.5711 22.2593 23.3941 24.788C22.2901 26.0867 21.4534 27.5906 20.9322 29.2135C20.4111 30.8364 20.2156 32.5463 20.3571 34.245C20.5102 35.8953 20.9801 37.5006 21.7411 38.973C22.4866 40.4443 23.5192 41.7513 24.7781 42.817C26.0768 43.921 27.5807 44.7577 29.2036 45.2789C30.8266 45.8 32.5364 45.9955 34.2351 45.854C37.5576 45.5467 40.6312 43.9617 42.8081 41.433C43.9106 40.1345 44.746 38.6312 45.2663 37.0092C45.7866 35.3872 45.9816 33.6785 45.8401 31.981C45.8095 31.6241 45.9218 31.2697 46.1525 30.9957C46.3832 30.7218 46.7132 30.5506 47.0701 30.52C47.4269 30.4894 47.7814 30.6017 48.0553 30.8324C48.3293 31.0631 48.5005 31.3931 48.5311 31.75C48.7247 33.8132 48.489 35.8942 47.8391 37.862C47.2028 39.8358 46.1833 41.6648 44.8391 43.244C43.5317 44.7525 41.9544 46.0039 40.1881 46.934C38.4124 47.8374 36.4824 48.3982 34.4991 48.587C34.0381 48.545 33.5771 48.581 33.1161 48.581Z" fill="#A0A9B2" stroke="white"/>
<path d="M33.1161 65.849C30.2951 65.849 28.0921 63.605 26.1991 61.632C25.1955 60.4231 23.9749 59.4124 22.6 58.652C21.0175 58.2086 19.3707 58.0395 17.731 58.152C14.91 58.191 11.973 58.191 10.041 56.295C8.10905 54.36 8.14705 51.459 8.18605 48.595C8.31765 46.9531 8.1482 45.301 7.68605 43.72C6.92677 42.3452 5.91748 41.1243 4.71005 40.12C2.73905 38.185 0.498047 36.02 0.498047 33.156C0.498047 30.332 2.73905 28.126 4.71005 26.23C5.91746 25.2257 6.92675 24.0048 7.68605 22.63C8.12917 21.0453 8.29827 19.3966 8.18605 17.755C8.14705 14.931 8.14705 11.99 10.041 10.055C11.973 8.12 14.872 8.155 17.731 8.198C19.371 8.32993 21.0212 8.16046 22.6 7.698C23.9754 6.93739 25.1963 5.92636 26.2001 4.717C28.132 2.744 30.3 0.5 33.156 0.5C35.977 0.5 38.18 2.744 40.073 4.717C41.0745 5.9264 42.2931 6.93808 43.666 7.7C45.2486 8.14341 46.8954 8.31253 48.535 8.2C51.356 8.161 54.293 8.161 56.225 10.057C58.157 11.992 58.119 14.893 58.08 17.757C57.9484 19.3989 58.1179 21.051 58.58 22.632C59.3393 24.0068 60.3486 25.2277 61.556 26.232C63.527 28.167 65.768 30.332 65.768 33.196C65.768 36.02 63.527 38.226 61.556 40.122C60.3486 41.1263 59.3393 42.3472 58.58 43.722C58.1369 45.3067 57.9678 46.9554 58.08 48.597C58.119 51.421 58.119 54.362 56.225 56.297C54.293 58.232 51.3941 58.197 48.535 58.154C46.8951 58.0221 45.2449 58.1915 43.666 58.654C42.2931 59.4146 41.0742 60.4249 40.072 61.633C38.14 63.566 35.937 65.849 33.1161 65.849ZM18.663 55.4C20.3419 55.3087 22.0224 55.5465 23.61 56.1C25.3297 56.9887 26.854 58.2128 28.093 59.7C29.716 61.364 31.416 63.1 33.078 63.1C34.778 63.1 36.44 61.359 38.063 59.7C39.3105 58.2214 40.833 56.9988 42.5461 56.1C44.4536 55.488 46.4614 55.2503 48.459 55.4C50.859 55.439 53.0961 55.439 54.217 54.317C55.338 53.195 55.3 50.953 55.3 48.554C55.1507 46.554 55.3883 44.544 56 42.634C56.8866 40.9132 58.1086 39.3872 59.594 38.146C61.256 36.521 62.994 34.819 62.994 33.155C62.994 31.455 61.255 29.789 59.594 28.164C58.1173 26.9143 56.8967 25.3902 56 23.676C55.3883 21.766 55.1507 19.756 55.3 17.756C55.3391 15.356 55.339 13.113 54.218 11.991C53.097 10.869 50.856 10.908 48.46 10.908C46.4624 11.0577 44.4546 10.82 42.5471 10.208C40.8274 9.31927 39.3031 8.09521 38.064 6.608C36.441 4.944 34.779 3.208 33.079 3.208C31.379 3.208 29.717 4.949 28.094 6.608C26.8466 8.08666 25.3242 9.30925 23.611 10.208C21.7035 10.82 19.6957 11.0577 17.698 10.908C15.298 10.869 13.061 10.869 11.94 11.991C10.819 13.113 10.858 15.357 10.858 17.756C11.0074 19.756 10.7698 21.766 10.158 23.676C9.27148 25.3968 8.04948 26.9228 6.56405 28.164C4.90205 29.789 3.16405 31.453 3.16405 33.155C3.16405 34.857 4.90305 36.521 6.56405 38.146C8.04084 39.3957 9.26136 40.9198 10.158 42.634C10.7698 44.544 11.0074 46.554 10.858 48.554C10.819 50.954 10.819 53.197 11.94 54.319C13.061 55.441 15.3 55.4 17.7 55.4H18.663Z" fill="#A0A9B2" stroke="white"/>
<path d="M47.3421 80.4949C47.0623 80.4906 46.7869 80.425 46.5351 80.3029L33.3111 73.3029L20.0871 80.3029C19.8247 80.439 19.5323 80.5069 19.2367 80.5002C18.9412 80.4936 18.6521 80.4127 18.3961 80.2649C18.135 80.1121 17.9191 79.8927 17.7705 79.6292C17.6219 79.3657 17.5458 79.0674 17.5501 78.7649V63.8489C17.5501 63.4921 17.6919 63.1498 17.9442 62.8975C18.1965 62.6452 18.5387 62.5034 18.8956 62.5034C19.2524 62.5034 19.5947 62.6452 19.847 62.8975C20.0993 63.1498 20.2411 63.4921 20.2411 63.8489V77.1489L33.3111 70.2289L46.3811 77.1489V63.8489C46.3811 63.4921 46.5229 63.1498 46.7752 62.8975C47.0275 62.6452 47.3697 62.5034 47.7266 62.5034C48.0834 62.5034 48.4257 62.6452 48.678 62.8975C48.9303 63.1498 49.0721 63.4921 49.0721 63.8489V78.7649C49.0718 79.0666 48.9938 79.363 48.8456 79.6257C48.6974 79.8885 48.4841 80.1086 48.2261 80.2649C47.9564 80.4169 47.6517 80.4962 47.3421 80.4949Z" fill="#A0A9B2" stroke="white"/>
<path d="M32.881 38.4202L24.808 30.3472C24.6843 30.2235 24.5862 30.0766 24.5193 29.915C24.4523 29.7533 24.4178 29.5801 24.4178 29.4052C24.4178 29.2302 24.4523 29.057 24.5193 28.8954C24.5862 28.7337 24.6843 28.5869 24.808 28.4632C24.9317 28.3395 25.0786 28.2413 25.2402 28.1744C25.4019 28.1074 25.5751 28.073 25.75 28.073C25.925 28.073 26.0982 28.1074 26.2598 28.1744C26.4215 28.2413 26.5683 28.3395 26.692 28.4632L32.843 34.6142L47.455 20.0452C47.5803 19.9174 47.7299 19.8159 47.8949 19.7466C48.0599 19.6773 48.2371 19.6416 48.416 19.6416C48.595 19.6416 48.7722 19.6773 48.9372 19.7466C49.1022 19.8159 49.2517 19.9174 49.377 20.0452C49.5047 20.1666 49.6064 20.3127 49.6758 20.4747C49.7453 20.6366 49.7811 20.811 49.7811 20.9872C49.7811 21.1634 49.7453 21.3377 49.6758 21.4997C49.6064 21.6616 49.5047 21.8077 49.377 21.9292L32.881 38.4202Z" fill="#A0A9B2" stroke="white"/>
</g>
<defs>
<clipPath id="clip0_322_1528">
<rect width="66.271" height="81.023" fill="white"/>
</clipPath>
</defs>
</svg>
