<svg width="65" height="60" viewBox="0 0 65 60" fill="none" xmlns="http://www.w3.org/2000/svg">
<g clip-path="url(#clip0_322_1252)">
<path d="M58.14 37.3582V30.1602" stroke="#A0A9B2" stroke-width="2" stroke-miterlimit="10" stroke-linecap="round" stroke-linejoin="round"/>
<path d="M58.1401 25.8169V14.5869C58.1401 14.4861 58.1801 14.3895 58.2514 14.3182C58.3227 14.247 58.4193 14.2069 58.5201 14.2069H60.0701C60.1422 14.2069 60.2128 14.1864 60.2736 14.1478C60.3345 14.1092 60.3831 14.0541 60.4139 13.9889C60.4446 13.9237 60.4561 13.851 60.4471 13.7795C60.4381 13.708 60.409 13.6405 60.3631 13.5849L54.9501 7.02793C54.9144 6.98511 54.8698 6.95065 54.8193 6.92701C54.7689 6.90336 54.7138 6.89111 54.6581 6.89111C54.6023 6.89111 54.5473 6.90336 54.4968 6.92701C54.4464 6.95065 54.4017 6.98511 54.3661 7.02793L48.8801 13.5849C48.834 13.6404 48.8046 13.7078 48.7954 13.7793C48.7861 13.8508 48.7974 13.9234 48.8279 13.9887C48.8584 14.0541 48.9069 14.1094 48.9677 14.1482C49.0284 14.187 49.099 14.2077 49.1711 14.2079H50.7971C50.8979 14.2079 50.9945 14.248 51.0658 14.3192C51.137 14.3905 51.1771 14.4871 51.1771 14.5879V33.8959" stroke="#A0A9B2" stroke-width="2" stroke-miterlimit="10" stroke-linecap="round" stroke-linejoin="round"/>
<path d="M38.0301 22.5571V33.8752H44.9951V22.5571C44.9951 22.4564 45.0351 22.3597 45.1064 22.2885C45.1777 22.2172 45.2743 22.1772 45.3751 22.1772H46.9241C46.9962 22.1772 47.0668 22.1567 47.1277 22.118C47.1885 22.0794 47.2372 22.0243 47.2679 21.9591C47.2986 21.8939 47.3102 21.8213 47.3012 21.7497C47.2922 21.6782 47.263 21.6107 47.2171 21.5551L41.8041 14.9982C41.7684 14.9553 41.7238 14.9209 41.6733 14.8972C41.6229 14.8736 41.5678 14.8613 41.5121 14.8613C41.4564 14.8613 41.4013 14.8736 41.3509 14.8972C41.3004 14.9209 41.2558 14.9553 41.2201 14.9982L35.7341 21.5551C35.688 21.6106 35.6586 21.678 35.6494 21.7495C35.6401 21.821 35.6514 21.8936 35.682 21.959C35.7125 22.0243 35.7609 22.0796 35.8217 22.1184C35.8825 22.1572 35.953 22.1779 36.0251 22.1781H37.6511C37.7515 22.1784 37.8478 22.2184 37.9188 22.2894C37.9898 22.3605 38.0298 22.4567 38.0301 22.5571Z" stroke="#A0A9B2" stroke-width="2" stroke-miterlimit="10" stroke-linecap="round" stroke-linejoin="round"/>
<path d="M4.52204 15.6919C4.35416 15.6919 4.19315 15.7586 4.07444 15.8773C3.95573 15.996 3.88904 16.157 3.88904 16.3249V55.1719C4.93287 54.7864 6.0779 54.7737 7.13004 55.1359C7.36679 54.0142 7.99576 53.0137 8.90395 52.314C9.81215 51.6144 10.9401 51.2616 12.085 51.3189C12.2738 51.3287 12.4618 51.3497 12.648 51.3819V15.6919H4.52204Z" stroke="#A0A9B2" stroke-width="2" stroke-miterlimit="10" stroke-linecap="round" stroke-linejoin="round"/>
<path d="M12.0861 51.32C10.9411 51.2627 9.81317 51.6155 8.90498 52.3151C7.99678 53.0148 7.36781 54.0153 7.13106 55.137C5.94413 54.7279 4.64435 54.7984 3.50864 55.3335C2.37294 55.8687 1.49112 56.8262 1.05106 58.002C1.0158 58.0981 1.00437 58.2013 1.01777 58.3028C1.03117 58.4043 1.06899 58.5011 1.12799 58.5848C1.18698 58.6684 1.2654 58.7366 1.3565 58.7833C1.44761 58.83 1.54868 58.8539 1.65106 58.853H12.6511V51.382C12.4641 51.3501 12.2755 51.3294 12.0861 51.32Z" stroke="#A0A9B2" stroke-width="2" stroke-miterlimit="10" stroke-linecap="round" stroke-linejoin="round"/>
<path d="M2.61902 20.2212H12.649" stroke="#A0A9B2" stroke-width="2" stroke-miterlimit="10" stroke-linecap="round" stroke-linejoin="round"/>
<path d="M2.61902 24.2261H12.649" stroke="#A0A9B2" stroke-width="2" stroke-miterlimit="10" stroke-linecap="round" stroke-linejoin="round"/>
<path d="M2.61902 28.231H12.649" stroke="#A0A9B2" stroke-width="2" stroke-miterlimit="10" stroke-linecap="round" stroke-linejoin="round"/>
<path d="M2.61902 32.2373H12.649" stroke="#A0A9B2" stroke-width="2" stroke-miterlimit="10" stroke-linecap="round" stroke-linejoin="round"/>
<path d="M2.61902 36.2422H12.649" stroke="#A0A9B2" stroke-width="2" stroke-miterlimit="10" stroke-linecap="round" stroke-linejoin="round"/>
<path d="M2.61902 40.2471H12.649" stroke="#A0A9B2" stroke-width="2" stroke-miterlimit="10" stroke-linecap="round" stroke-linejoin="round"/>
<path d="M2.61902 44.2529H12.649" stroke="#A0A9B2" stroke-width="2" stroke-miterlimit="10" stroke-linecap="round" stroke-linejoin="round"/>
<path d="M2.61902 48.2583H12.649" stroke="#A0A9B2" stroke-width="2" stroke-miterlimit="10" stroke-linecap="round" stroke-linejoin="round"/>
<path d="M32.15 11.0701V7.54411C32.1498 7.3764 32.083 7.21565 31.9643 7.09715C31.8456 6.97866 31.6848 6.91211 31.517 6.91211H13.2821C13.1143 6.91211 12.9535 6.97866 12.8348 7.09715C12.7161 7.21565 12.6493 7.3764 12.649 7.54411V58.8531H27.112V42.7641C27.1122 42.586 27.1504 42.4099 27.2242 42.2477C27.2981 42.0856 27.4057 41.9412 27.54 41.8241L32.15 37.8031V15.4381" stroke="#A0A9B2" stroke-width="2" stroke-miterlimit="10" stroke-linecap="round" stroke-linejoin="round"/>
<path d="M20.3801 15.2917H17.5181C17.4186 15.2917 17.3232 15.2522 17.2529 15.1819C17.1826 15.1115 17.1431 15.0161 17.1431 14.9167V12.0547C17.1431 11.9552 17.1826 11.8599 17.2529 11.7895C17.3232 11.7192 17.4186 11.6797 17.5181 11.6797H20.3801C20.4795 11.6797 20.5749 11.7192 20.6452 11.7895C20.7156 11.8599 20.7551 11.9552 20.7551 12.0547V14.9167C20.7551 15.0161 20.7156 15.1115 20.6452 15.1819C20.5749 15.2522 20.4795 15.2917 20.3801 15.2917Z" stroke="#A0A9B2" stroke-width="2" stroke-miterlimit="10" stroke-linecap="round" stroke-linejoin="round"/>
<path d="M27.4121 15.2917H24.5471C24.4477 15.2917 24.3523 15.2522 24.282 15.1819C24.2116 15.1115 24.1721 15.0161 24.1721 14.9167V12.0547C24.1721 11.9552 24.2116 11.8599 24.282 11.7895C24.3523 11.7192 24.4477 11.6797 24.5471 11.6797H27.4091C27.5086 11.6797 27.604 11.7192 27.6743 11.7895C27.7446 11.8599 27.7841 11.9552 27.7841 12.0547V14.9167C27.7841 15.0156 27.745 15.1106 27.6754 15.1808C27.6057 15.251 27.5111 15.2909 27.4121 15.2917Z" stroke="#A0A9B2" stroke-width="2" stroke-miterlimit="10" stroke-linecap="round" stroke-linejoin="round"/>
<path d="M20.3801 22.7087H17.5181C17.4186 22.7087 17.3232 22.6692 17.2529 22.5988C17.1826 22.5285 17.1431 22.4331 17.1431 22.3337V19.4717C17.1431 19.3722 17.1826 19.2768 17.2529 19.2065C17.3232 19.1362 17.4186 19.0967 17.5181 19.0967H20.3801C20.4795 19.0967 20.5749 19.1362 20.6452 19.2065C20.7156 19.2768 20.7551 19.3722 20.7551 19.4717V22.3337C20.7551 22.4331 20.7156 22.5285 20.6452 22.5988C20.5749 22.6692 20.4795 22.7087 20.3801 22.7087Z" stroke="#A0A9B2" stroke-width="2" stroke-miterlimit="10" stroke-linecap="round" stroke-linejoin="round"/>
<path d="M27.4121 22.7087H24.5471C24.4477 22.7087 24.3523 22.6692 24.282 22.5988C24.2116 22.5285 24.1721 22.4331 24.1721 22.3337V19.4717C24.1721 19.3722 24.2116 19.2768 24.282 19.2065C24.3523 19.1362 24.4477 19.0967 24.5471 19.0967H27.4091C27.5086 19.0967 27.604 19.1362 27.6743 19.2065C27.7446 19.2768 27.7841 19.3722 27.7841 19.4717V22.3337C27.7841 22.4326 27.745 22.5275 27.6754 22.5978C27.6057 22.668 27.5111 22.7079 27.4121 22.7087Z" stroke="#A0A9B2" stroke-width="2" stroke-miterlimit="10" stroke-linecap="round" stroke-linejoin="round"/>
<path d="M20.3801 30.1257H17.5181C17.4186 30.1257 17.3232 30.0862 17.2529 30.0158C17.1826 29.9455 17.1431 29.8501 17.1431 29.7507V26.8887C17.1431 26.7892 17.1826 26.6938 17.2529 26.6235C17.3232 26.5532 17.4186 26.5137 17.5181 26.5137H20.3801C20.4795 26.5137 20.5749 26.5532 20.6452 26.6235C20.7156 26.6938 20.7551 26.7892 20.7551 26.8887V29.7507C20.7551 29.8501 20.7156 29.9455 20.6452 30.0158C20.5749 30.0862 20.4795 30.1257 20.3801 30.1257Z" stroke="#A0A9B2" stroke-width="2" stroke-miterlimit="10" stroke-linecap="round" stroke-linejoin="round"/>
<path d="M27.4121 30.1257H24.5471C24.4477 30.1257 24.3523 30.0862 24.282 30.0158C24.2116 29.9455 24.1721 29.8501 24.1721 29.7507V26.8887C24.1721 26.7892 24.2116 26.6938 24.282 26.6235C24.3523 26.5532 24.4477 26.5137 24.5471 26.5137H27.4091C27.5086 26.5137 27.604 26.5532 27.6743 26.6235C27.7446 26.6938 27.7841 26.7892 27.7841 26.8887V29.7507C27.7841 29.8496 27.745 29.9445 27.6754 30.0148C27.6057 30.085 27.5111 30.1249 27.4121 30.1257Z" stroke="#A0A9B2" stroke-width="2" stroke-miterlimit="10" stroke-linecap="round" stroke-linejoin="round"/>
<path d="M20.3801 37.5417H17.5181C17.4186 37.5417 17.3232 37.5022 17.2529 37.4319C17.1826 37.3615 17.1431 37.2661 17.1431 37.1667V34.3047C17.1431 34.2052 17.1826 34.1098 17.2529 34.0395C17.3232 33.9692 17.4186 33.9297 17.5181 33.9297H20.3801C20.4795 33.9297 20.5749 33.9692 20.6452 34.0395C20.7156 34.1098 20.7551 34.2052 20.7551 34.3047V37.1667C20.7551 37.2661 20.7156 37.3615 20.6452 37.4319C20.5749 37.5022 20.4795 37.5417 20.3801 37.5417Z" stroke="#A0A9B2" stroke-width="2" stroke-miterlimit="10" stroke-linecap="round" stroke-linejoin="round"/>
<path d="M27.4121 37.5417H24.5471C24.4477 37.5417 24.3523 37.5022 24.282 37.4319C24.2116 37.3615 24.1721 37.2661 24.1721 37.1667V34.3047C24.1721 34.2052 24.2116 34.1098 24.282 34.0395C24.3523 33.9692 24.4477 33.9297 24.5471 33.9297H27.4091C27.5086 33.9297 27.604 33.9692 27.6743 34.0395C27.7446 34.1098 27.7841 34.2052 27.7841 34.3047V37.1667C27.7841 37.2656 27.745 37.3605 27.6754 37.4308C27.6057 37.501 27.5111 37.5409 27.4121 37.5417Z" stroke="#A0A9B2" stroke-width="2" stroke-miterlimit="10" stroke-linecap="round" stroke-linejoin="round"/>
<path d="M20.3801 44.9587H17.5181C17.4186 44.9587 17.3232 44.9192 17.2529 44.8488C17.1826 44.7785 17.1431 44.6831 17.1431 44.5837V41.7217C17.1431 41.6222 17.1826 41.5268 17.2529 41.4565C17.3232 41.3862 17.4186 41.3467 17.5181 41.3467H20.3801C20.4795 41.3467 20.5749 41.3862 20.6452 41.4565C20.7156 41.5268 20.7551 41.6222 20.7551 41.7217V44.5837C20.7551 44.6831 20.7156 44.7785 20.6452 44.8488C20.5749 44.9192 20.4795 44.9587 20.3801 44.9587Z" stroke="#A0A9B2" stroke-width="2" stroke-miterlimit="10" stroke-linecap="round" stroke-linejoin="round"/>
<path d="M27.0971 42.7458C27.0972 42.5675 27.1355 42.3912 27.2093 42.2289C27.2831 42.0666 27.3908 41.922 27.5251 41.8047L27.7651 41.5948C27.7397 41.5216 27.6921 41.4582 27.6291 41.4132C27.566 41.3683 27.4906 41.344 27.4131 41.3438H24.5471C24.4477 41.3438 24.3523 41.3833 24.282 41.4536C24.2116 41.5239 24.1721 41.6193 24.1721 41.7188V44.5807C24.1721 44.6802 24.2116 44.7756 24.282 44.8459C24.3523 44.9162 24.4477 44.9557 24.5471 44.9557H27.0941L27.0971 42.7458Z" stroke="#A0A9B2" stroke-width="2" stroke-miterlimit="10" stroke-linecap="round" stroke-linejoin="round"/>
<path d="M20.3801 52.3757H17.5181C17.4186 52.3757 17.3232 52.3362 17.2529 52.2658C17.1826 52.1955 17.1431 52.1001 17.1431 52.0007V49.1387C17.1431 49.0392 17.1826 48.9438 17.2529 48.8735C17.3232 48.8032 17.4186 48.7637 17.5181 48.7637H20.3801C20.4795 48.7637 20.5749 48.8032 20.6452 48.8735C20.7156 48.9438 20.7551 49.0392 20.7551 49.1387V51.9997C20.7552 52.049 20.7456 52.0979 20.7268 52.1435C20.708 52.1891 20.6804 52.2306 20.6456 52.2655C20.6107 52.3004 20.5694 52.3281 20.5238 52.347C20.4782 52.366 20.4294 52.3757 20.3801 52.3757Z" stroke="#A0A9B2" stroke-width="2" stroke-miterlimit="10" stroke-linecap="round" stroke-linejoin="round"/>
<path d="M27.0971 48.7637H24.5471C24.4477 48.7637 24.3523 48.8032 24.282 48.8735C24.2116 48.9438 24.1721 49.0392 24.1721 49.1387V51.9997C24.1721 52.0991 24.2116 52.1945 24.282 52.2648C24.3523 52.3352 24.4477 52.3747 24.5471 52.3747H27.0941L27.0971 48.7637Z" stroke="#A0A9B2" stroke-width="2" stroke-miterlimit="10" stroke-linecap="round" stroke-linejoin="round"/>
<path d="M61.874 42.1807H46.155V58.8527H61.241C61.4089 58.8527 61.5699 58.786 61.6886 58.6673C61.8073 58.5486 61.874 58.3875 61.874 58.2197V42.1807Z" stroke="#A0A9B2" stroke-width="2" stroke-miterlimit="10" stroke-linecap="round" stroke-linejoin="round"/>
<path d="M27.061 42.7487V58.8487H46.155V42.1807L36.608 33.8447L27.489 41.8077C27.3547 41.9249 27.2469 42.0696 27.1731 42.2319C27.0993 42.3942 27.0611 42.5704 27.061 42.7487Z" stroke="#A0A9B2" stroke-width="2" stroke-miterlimit="10" stroke-linecap="round" stroke-linejoin="round"/>
<path d="M40.3821 50.0059V47.0329C40.3821 46.865 40.3154 46.704 40.1967 46.5853C40.078 46.4666 39.917 46.3999 39.7491 46.3999H33.4681C33.3002 46.3999 33.1392 46.4666 33.0205 46.5853C32.9018 46.704 32.8351 46.865 32.8351 47.0329V58.8529H40.3821V54.3789" stroke="#A0A9B2" stroke-width="2" stroke-miterlimit="10" stroke-linecap="round" stroke-linejoin="round"/>
<path d="M61.8741 47.3989H51.701C51.6016 47.3989 51.5062 47.4384 51.4359 47.5088C51.3656 47.5791 51.326 47.6745 51.326 47.7739V52.4809C51.326 52.5804 51.3656 52.6758 51.4359 52.7461C51.5062 52.8164 51.6016 52.8559 51.701 52.8559H61.8741V47.3989Z" stroke="#A0A9B2" stroke-width="2" stroke-miterlimit="10" stroke-linecap="round" stroke-linejoin="round"/>
<path d="M51.7051 47.3989C51.6056 47.3989 51.5102 47.4384 51.4399 47.5088C51.3696 47.5791 51.3301 47.6745 51.3301 47.7739V52.4809C51.3301 52.5804 51.3696 52.6758 51.4399 52.7461C51.5102 52.8164 51.6056 52.8559 51.7051 52.8559H55.0051V47.3999L51.7051 47.3989Z" stroke="#A0A9B2" stroke-width="2" stroke-miterlimit="10" stroke-linecap="round" stroke-linejoin="round"/>
<path d="M53.672 33.8447H36.608L46.155 42.1807H62.675C62.7523 42.1807 62.8278 42.1571 62.8913 42.113C62.9548 42.069 63.0034 42.0066 63.0306 41.9343C63.0577 41.8619 63.0622 41.783 63.0433 41.708C63.0245 41.633 62.9832 41.5656 62.925 41.5147L54.494 34.1527C54.2663 33.954 53.9743 33.8446 53.672 33.8447Z" stroke="#A0A9B2" stroke-width="2" stroke-miterlimit="10" stroke-linecap="round" stroke-linejoin="round"/>
<path d="M45.7 10.165C45.572 9.85197 45.442 9.53997 45.3 9.23197C45.2828 9.17294 45.2534 9.11816 45.2138 9.07113C45.1741 9.0241 45.1251 8.98585 45.0699 8.95884C45.0146 8.93183 44.9544 8.91664 44.8929 8.91425C44.8315 8.91187 44.7702 8.92233 44.713 8.94497C44.332 9.03297 43.958 9.14497 43.576 9.22697C42.8498 9.39806 42.0915 9.37669 41.376 9.16497C40.9653 9.02992 40.5948 8.7946 40.298 8.48031C40.0012 8.16602 39.7874 7.78268 39.676 7.36497H42.148C42.2408 7.36497 42.3299 7.32809 42.3955 7.26246C42.4611 7.19682 42.498 7.10779 42.498 7.01497V6.23597C42.498 6.14314 42.4611 6.05412 42.3955 5.98848C42.3299 5.92284 42.2408 5.88597 42.148 5.88597H39.441C39.441 5.66797 39.441 5.45997 39.441 5.25097H42.15C42.2428 5.25097 42.3319 5.21409 42.3975 5.14846C42.4631 5.08282 42.5 4.99379 42.5 4.90097V4.12197C42.5 4.02914 42.4631 3.94012 42.3975 3.87448C42.3319 3.80884 42.2428 3.77197 42.15 3.77197H39.782C39.7792 3.76422 39.7792 3.75572 39.782 3.74797C39.9022 3.42775 40.0864 3.13538 40.3233 2.88866C40.5602 2.64195 40.8449 2.44607 41.16 2.31297C41.9328 2.02807 42.773 1.98037 43.573 2.17597C43.959 2.25397 44.338 2.37597 44.724 2.45997C44.7796 2.4805 44.8388 2.48944 44.8979 2.48623C44.9571 2.48303 45.0149 2.46774 45.068 2.44133C45.121 2.41491 45.1681 2.37791 45.2062 2.33262C45.2444 2.28733 45.2729 2.2347 45.29 2.17797C45.43 1.87797 45.558 1.56697 45.69 1.25697C45.7222 1.19976 45.742 1.13638 45.748 1.071C45.754 1.00562 45.7461 0.939704 45.7249 0.877578C45.7036 0.815452 45.6695 0.758517 45.6247 0.710503C45.5799 0.662489 45.5255 0.624481 45.465 0.598969C45.3968 0.559975 45.3256 0.526533 45.252 0.498969C44.1349 0.0425034 42.915 -0.102643 41.722 0.0789692C40.8719 0.196527 40.0658 0.52901 39.38 1.04497C38.5366 1.70668 37.9214 2.61588 37.621 3.64497L37.581 3.76597H36.36C36.2672 3.76597 36.1782 3.80284 36.1125 3.86848C36.0469 3.93412 36.01 4.02314 36.01 4.11597V4.89897C36.01 4.9918 36.0469 5.08082 36.1125 5.14646C36.1782 5.21209 36.2672 5.24897 36.36 5.24897H37.322V5.88397H36.363C36.2702 5.88397 36.1812 5.92084 36.1155 5.98648C36.0499 6.05212 36.013 6.14114 36.013 6.23397V7.01297C36.013 7.10579 36.0499 7.19482 36.1155 7.26046C36.1812 7.32609 36.2702 7.36297 36.363 7.36297H37.519C37.607 7.64697 37.68 7.93597 37.791 8.20797C38.0455 8.8892 38.4516 9.5037 38.9784 10.005C39.5052 10.5064 40.139 10.8815 40.832 11.102C42.0257 11.4836 43.3063 11.4993 44.509 11.147C44.8311 11.0592 45.1455 10.9451 45.449 10.806C45.5112 10.7851 45.5681 10.7508 45.6156 10.7055C45.6632 10.6603 45.7002 10.6052 45.7241 10.5441C45.7481 10.4829 45.7583 10.4173 45.7541 10.3518C45.75 10.2863 45.7315 10.2226 45.7 10.165Z" fill="#A0A9B2"/>
</g>
<defs>
<clipPath id="clip0_322_1252">
<rect width="64.073" height="59.853" fill="white"/>
</clipPath>
</defs>
</svg>
