<svg width="48" height="38" viewBox="0 0 48 38" fill="none" xmlns="http://www.w3.org/2000/svg">
<g clip-path="url(#clip0_431_803)">
<mask id="mask0_431_803" style="mask-type:luminance" maskUnits="userSpaceOnUse" x="0" y="-1" width="48" height="39">
<path d="M0 -4.44832e-05V35.395C0 36.413 1.145 37.195 2.474 37.214H2.574C2.78653 37.2107 2.99836 37.1886 3.207 37.148L24.96 31.064L44.339 37.064C45.966 37.42 47.61 36.547 47.61 35.325V3.59996C47.5398 2.58162 47.0705 1.63215 46.304 0.958008C45.5376 0.283865 44.536 -0.060441 43.517 -4.44832e-05H0Z" fill="white"/>
</mask>
<g mask="url(#mask0_431_803)">
<path d="M47.611 0H0V37.424H47.611V0Z" fill="#FC2947"/>
</g>
</g>
<path d="M5.26 22V12.816H7.878C8.56867 12.816 9.17067 12.9 9.684 13.068C10.1973 13.236 10.5987 13.5207 10.888 13.922C11.1773 14.314 11.322 14.846 11.322 15.518C11.322 16.4793 11.0093 17.1933 10.384 17.66C9.75867 18.1267 8.942 18.36 7.934 18.36H6.422V22H5.26ZM6.422 17.408H7.794C8.59667 17.408 9.18933 17.2587 9.572 16.96C9.964 16.652 10.16 16.1713 10.16 15.518C10.16 14.8553 9.95467 14.398 9.544 14.146C9.14267 13.8847 8.54067 13.754 7.738 13.754H6.422V17.408ZM13.0777 22V15.196H14.0297L14.1277 16.428H14.1697C14.403 15.9987 14.6877 15.658 15.0237 15.406C15.3597 15.154 15.719 15.028 16.1017 15.028C16.3724 15.028 16.615 15.0747 16.8297 15.168L16.6057 16.176C16.4937 16.1387 16.391 16.1107 16.2977 16.092C16.2044 16.0733 16.0877 16.064 15.9477 16.064C15.6584 16.064 15.355 16.1807 15.0377 16.414C14.7297 16.6473 14.459 17.0533 14.2257 17.632V22H13.0777ZM20.4405 22.168C19.8898 22.168 19.3718 22.028 18.8865 21.748C18.4105 21.468 18.0232 21.062 17.7245 20.53C17.4352 19.998 17.2905 19.3587 17.2905 18.612C17.2905 17.8467 17.4352 17.198 17.7245 16.666C18.0232 16.134 18.4105 15.728 18.8865 15.448C19.3718 15.168 19.8898 15.028 20.4405 15.028C21.0005 15.028 21.5185 15.168 21.9945 15.448C22.4705 15.728 22.8532 16.134 23.1425 16.666C23.4412 17.198 23.5905 17.8467 23.5905 18.612C23.5905 19.3587 23.4412 19.998 23.1425 20.53C22.8532 21.062 22.4705 21.468 21.9945 21.748C21.5185 22.028 21.0005 22.168 20.4405 22.168ZM20.4405 21.216C21.0285 21.216 21.4998 20.978 21.8545 20.502C22.2185 20.0167 22.4005 19.3867 22.4005 18.612C22.4005 17.828 22.2185 17.1933 21.8545 16.708C21.4998 16.2227 21.0285 15.98 20.4405 15.98C19.8618 15.98 19.3905 16.2227 19.0265 16.708C18.6625 17.1933 18.4805 17.828 18.4805 18.612C18.4805 19.3867 18.6625 20.0167 19.0265 20.502C19.3905 20.978 19.8618 21.216 20.4405 21.216ZM25.3824 22V15.196H26.3344L26.4324 16.176H26.4744C26.773 15.8493 27.0997 15.5787 27.4544 15.364C27.809 15.14 28.187 15.028 28.5884 15.028C29.111 15.028 29.517 15.1447 29.8064 15.378C30.105 15.602 30.3244 15.9193 30.4644 16.33C30.819 15.9473 31.1784 15.6347 31.5424 15.392C31.9064 15.1493 32.2937 15.028 32.7044 15.028C33.4044 15.028 33.9224 15.2567 34.2584 15.714C34.6037 16.162 34.7764 16.82 34.7764 17.688V22H33.6284V17.842C33.6284 17.2073 33.5257 16.7453 33.3204 16.456C33.115 16.1667 32.7977 16.022 32.3684 16.022C31.8644 16.022 31.295 16.372 30.6604 17.072V22H29.5124V17.842C29.5124 17.2073 29.4097 16.7453 29.2044 16.456C28.999 16.1667 28.677 16.022 28.2384 16.022C27.7344 16.022 27.165 16.372 26.5304 17.072V22H25.3824ZM39.6358 22.168C39.0851 22.168 38.5671 22.028 38.0818 21.748C37.6058 21.468 37.2185 21.062 36.9198 20.53C36.6305 19.998 36.4858 19.3587 36.4858 18.612C36.4858 17.8467 36.6305 17.198 36.9198 16.666C37.2185 16.134 37.6058 15.728 38.0818 15.448C38.5671 15.168 39.0851 15.028 39.6358 15.028C40.1958 15.028 40.7138 15.168 41.1898 15.448C41.6658 15.728 42.0485 16.134 42.3378 16.666C42.6365 17.198 42.7858 17.8467 42.7858 18.612C42.7858 19.3587 42.6365 19.998 42.3378 20.53C42.0485 21.062 41.6658 21.468 41.1898 21.748C40.7138 22.028 40.1958 22.168 39.6358 22.168ZM39.6358 21.216C40.2238 21.216 40.6951 20.978 41.0498 20.502C41.4138 20.0167 41.5958 19.3867 41.5958 18.612C41.5958 17.828 41.4138 17.1933 41.0498 16.708C40.6951 16.2227 40.2238 15.98 39.6358 15.98C39.0571 15.98 38.5858 16.2227 38.2218 16.708C37.8578 17.1933 37.6758 17.828 37.6758 18.612C37.6758 19.3867 37.8578 20.0167 38.2218 20.502C38.5858 20.978 39.0571 21.216 39.6358 21.216Z" fill="white"/>
<defs>
<clipPath id="clip0_431_803">
<rect width="47.611" height="37.213" fill="white"/>
</clipPath>
</defs>
</svg>
