<svg width="37" height="40" viewBox="0 0 37 40" fill="none" xmlns="http://www.w3.org/2000/svg">
<g clip-path="url(#clip0_304_11)">
<path d="M35.3859 18.348C35.0465 18.3477 34.7211 18.2128 34.4812 17.9728C34.2412 17.7328 34.1062 17.4074 34.1059 17.068C34.1126 14.6575 33.6412 12.2695 32.7189 10.0424C31.7966 7.81524 30.4419 5.79311 28.733 4.093C28.6089 3.97525 28.5097 3.83385 28.4412 3.67716C28.3727 3.52046 28.3363 3.35163 28.3341 3.18063C28.3319 3.00963 28.3639 2.83992 28.4284 2.6815C28.4928 2.52308 28.5883 2.37916 28.7092 2.25824C28.8301 2.13731 28.974 2.04182 29.1325 1.9774C29.2909 1.91298 29.4606 1.88093 29.6316 1.88315C29.8026 1.88536 29.9714 1.9218 30.1281 1.9903C30.2848 2.0588 30.4262 2.15798 30.544 2.282C32.4922 4.21962 34.0367 6.52439 35.0882 9.06291C36.1398 11.6014 36.6774 14.3233 36.6699 17.071C36.6697 17.4104 36.5347 17.7358 36.2948 17.9758C36.0548 18.2158 35.7293 18.3507 35.3899 18.351L35.3859 18.348Z" fill="#FC2947"/>
<path d="M1.28008 18.348C0.940684 18.3477 0.615265 18.2128 0.375276 17.9728C0.135287 17.7328 0.000344861 17.4074 8.00185e-05 17.068C-0.00754464 14.3212 0.529797 11.6002 1.58099 9.06249C2.63219 6.52479 4.17635 4.22082 6.12408 2.284C6.24183 2.15998 6.38323 2.0608 6.53993 1.9923C6.69662 1.9238 6.86545 1.88736 7.03645 1.88515C7.20745 1.88293 7.37716 1.91498 7.53558 1.9794C7.694 2.04382 7.83792 2.13931 7.95884 2.26024C8.07977 2.38116 8.17526 2.52508 8.23968 2.6835C8.3041 2.84192 8.33614 3.01163 8.33393 3.18263C8.33172 3.35363 8.29528 3.52246 8.22678 3.67915C8.15828 3.83585 8.0591 3.97724 7.93508 4.095C6.22551 5.7943 4.87014 7.81596 3.94749 10.0428C3.02485 12.2697 2.55327 14.6576 2.56008 17.068C2.55982 17.4074 2.42487 17.7328 2.18488 17.9728C1.9449 18.2128 1.61948 18.3477 1.28008 18.348Z" fill="#FC2947"/>
<path d="M18.3331 40C16.6363 39.9981 15.0095 39.3233 13.8097 38.1234C12.6098 36.9236 11.935 35.2968 11.9331 33.6C11.9331 33.2605 12.068 32.935 12.308 32.6949C12.5481 32.4549 12.8736 32.32 13.2131 32.32C13.5526 32.32 13.8782 32.4549 14.1182 32.6949C14.3583 32.935 14.4931 33.2605 14.4931 33.6C14.4931 34.6186 14.8977 35.5954 15.618 36.3156C16.3382 37.0359 17.315 37.4405 18.3336 37.4405C19.3522 37.4405 20.329 37.0359 21.0493 36.3156C21.7695 35.5954 22.1741 34.6186 22.1741 33.6C22.1741 33.2605 22.309 32.935 22.549 32.6949C22.7891 32.4549 23.1146 32.32 23.4541 32.32C23.7936 32.32 24.1192 32.4549 24.3592 32.6949C24.5993 32.935 24.7341 33.2605 24.7341 33.6C24.7322 35.297 24.0572 36.9239 22.8572 38.1238C21.6571 39.3236 20.0301 39.9984 18.3331 40Z" fill="#FC2947"/>
<path d="M32.0509 34.88H4.61692C4.02367 34.8842 3.44351 34.7057 2.95521 34.3688C2.46691 34.0318 2.09414 33.5528 1.8875 32.9967C1.68087 32.4405 1.65039 31.8343 1.80021 31.2603C1.95003 30.6862 2.27287 30.1722 2.72492 29.788C3.9675 28.7506 4.9671 27.453 5.6531 25.9868C6.33909 24.5206 6.69474 22.9217 6.69492 21.303V16.693C6.72336 13.625 7.96208 10.6923 10.1416 8.53281C12.3212 6.37337 15.2653 5.16189 18.3334 5.16189C21.4016 5.16189 24.3456 6.37337 26.5252 8.53281C28.7048 10.6923 29.9435 13.625 29.9719 16.693V21.303C29.9717 22.9185 30.3256 24.5143 31.0088 25.9782C31.6919 27.4421 32.6877 28.7385 33.9259 29.776C34.3805 30.1583 34.7062 30.6714 34.8586 31.2454C35.0111 31.8194 34.983 32.4265 34.778 32.9839C34.5731 33.5414 34.2013 34.0221 33.7133 34.3607C33.2253 34.6993 32.6448 34.8792 32.0509 34.876V34.88ZM18.3339 7.60001C15.9162 7.59575 13.5955 8.55073 11.8811 10.2554C10.1667 11.9601 9.19845 14.2753 9.18892 16.693V21.303C9.18927 23.2795 8.75626 25.2319 7.92037 27.0229C7.08448 28.8139 5.86605 30.3999 4.35092 31.669C4.304 31.7077 4.26623 31.7562 4.24029 31.8112C4.21436 31.8662 4.20091 31.9262 4.20092 31.987C4.20249 32.0966 4.24691 32.2012 4.32467 32.2784C4.40243 32.3556 4.50735 32.3992 4.61692 32.4H32.0509C32.1605 32.3992 32.2654 32.3556 32.3432 32.2784C32.4209 32.2012 32.4654 32.0966 32.4669 31.987C32.4672 31.9271 32.4543 31.8679 32.4291 31.8137C32.4038 31.7594 32.3669 31.7113 32.3209 31.673C30.804 30.404 29.5839 28.8177 28.7466 27.026C27.9093 25.2343 27.4752 23.2807 27.4749 21.303V16.693C27.4654 14.276 26.4977 11.9614 24.7842 10.2568C23.0706 8.55226 20.7509 7.59681 18.3339 7.60001Z" fill="#FC2947"/>
<path d="M18.3332 7.681C17.9938 7.68074 17.6684 7.54579 17.4284 7.3058C17.1884 7.06581 17.0535 6.7404 17.0532 6.401V1.28C17.0532 0.940523 17.1881 0.61495 17.4281 0.374903C17.6682 0.134857 17.9937 0 18.3332 0C18.6727 0 18.9983 0.134857 19.2383 0.374903C19.4784 0.61495 19.6132 0.940523 19.6132 1.28V6.4C19.6132 6.73957 19.4784 7.06525 19.2384 7.30545C18.9984 7.54566 18.6728 7.68074 18.3332 7.681Z" fill="#FC2947"/>
</g>
<defs>
<clipPath id="clip0_304_11">
<rect width="36.667" height="40" fill="white"/>
</clipPath>
</defs>
</svg>
