<svg width="24" height="24" viewBox="0 0 24 24" fill="none" xmlns="http://www.w3.org/2000/svg">
<path d="M17.9996 0H5.99985C2.70023 0 0 2.70023 0 5.99985V18.0001C0 21.2989 2.70023 24 5.99985 24H17.9996C21.2992 24 23.9994 21.2989 23.9994 18.0001V5.99985C23.9994 2.70023 21.2992 0 17.9996 0ZM21.9994 18.0001C21.9994 20.2051 20.2057 22 17.9996 22H5.99985C3.79462 22 2.00005 20.2051 2.00005 18.0001V5.99985C2.00005 3.79432 3.79462 2.00005 5.99985 2.00005H17.9996C20.2057 2.00005 21.9994 3.79432 21.9994 5.99985V18.0001Z" fill="black"/>
<path fill-rule="evenodd" clip-rule="evenodd" d="M23 4.28032L15.9602 11.3531C14.9057 12.4134 13.4977 13 12 13C10.4967 13 9.08873 12.4134 8.03417 11.3531L1 4.28032L2.12749 3L9.23457 10.1461C9.9694 10.8849 10.951 11.291 12 11.291C13.049 11.291 14.0306 10.8849 14.7654 10.1461L21.8725 3L23 4.28032Z" fill="black"/>
</svg>
