<svg width="25" height="24" viewBox="0 0 25 24" fill="none" xmlns="http://www.w3.org/2000/svg">
<path d="M18.7476 0H6.7479C3.44827 0 0.748047 2.70023 0.748047 5.99985V18.0001C0.748047 21.2989 3.44827 24 6.7479 24H18.7476C22.0472 24 24.7475 21.2989 24.7475 18.0001V5.99985C24.7475 2.70023 22.0472 0 18.7476 0ZM22.7474 18.0001C22.7474 20.2051 20.9538 22 18.7476 22H6.7479C4.54266 22 2.7481 20.2051 2.7481 18.0001V5.99985C2.7481 3.79432 4.54266 2.00005 6.7479 2.00005H18.7476C20.9538 2.00005 22.7474 3.79432 22.7474 5.99985V18.0001Z" fill="black"/>
<path d="M19.25 6.99971C20.0784 6.99971 20.7499 6.32816 20.7499 5.49975C20.7499 4.67134 20.0784 3.99979 19.25 3.99979C18.4216 3.99979 17.75 4.67134 17.75 5.49975C17.75 6.32816 18.4216 6.99971 19.25 6.99971Z" fill="black"/>
<path d="M12.7499 5.99985C9.43552 5.99985 6.75 8.68566 6.75 11.9997C6.75 15.3125 9.43552 18.0001 12.7499 18.0001C16.0632 18.0001 18.7497 15.3125 18.7497 11.9997C18.7497 8.68566 16.0632 5.99985 12.7499 5.99985ZM12.7499 16.0001C10.541 16.0001 8.75005 14.2092 8.75005 11.9997C8.75005 9.79024 10.541 7.9999 12.7499 7.9999C14.9587 7.9999 16.7497 9.79024 16.7497 11.9997C16.7497 14.2092 14.9587 16.0001 12.7499 16.0001Z" fill="black"/>
</svg>
