<svg width="46" height="43" viewBox="0 0 46 43" fill="none" xmlns="http://www.w3.org/2000/svg">
<g clip-path="url(#clip0_257_549)">
<path d="M33.3208 42.002C32.9921 42.0022 32.6647 41.9599 32.3468 41.876L2.82483 33.971C1.85136 33.7009 1.02291 33.0593 0.517906 32.1843C0.0129009 31.3093 -0.128258 30.271 0.124831 29.293L3.84983 15.409C3.91521 15.1645 4.07504 14.9559 4.29418 14.8292C4.51332 14.7026 4.7738 14.6681 5.01833 14.7335C5.26286 14.7989 5.4714 14.9587 5.59809 15.1778C5.72477 15.397 5.75921 15.6575 5.69383 15.902L1.97183 29.782C1.84652 30.2727 1.91825 30.7929 2.17168 31.2314C2.42511 31.6698 2.8401 31.9917 3.32783 32.128L32.8388 40.028C33.3252 40.1575 33.8431 40.0887 34.2788 39.8367C34.7146 39.5847 35.0325 39.1702 35.1628 38.684L36.6538 33.159C36.7201 32.9145 36.8809 32.7063 37.1007 32.5803C37.3204 32.4542 37.5813 32.4207 37.8258 32.487C38.0704 32.5533 38.2785 32.714 38.4046 32.9338C38.5306 33.1536 38.5641 33.4145 38.4978 33.659L37.0088 39.177C36.7912 39.9884 36.3116 40.7052 35.6447 41.216C34.9778 41.7268 34.1609 42.0031 33.3208 42.002Z" fill="black"/>
<path d="M42.0027 30.547H11.4547C10.4424 30.5459 9.47194 30.1433 8.75615 29.4276C8.04037 28.7118 7.63778 27.7413 7.63672 26.729V3.818C7.63778 2.80573 8.04037 1.83522 8.75615 1.11944C9.47194 0.403651 10.4424 0.00105886 11.4547 0H42.0027C43.015 0.00105886 43.9855 0.403651 44.7013 1.11944C45.4171 1.83522 45.8197 2.80573 45.8207 3.818V26.729C45.8197 27.7413 45.4171 28.7118 44.7013 29.4276C43.9855 30.1433 43.015 30.5459 42.0027 30.547ZM11.4547 1.909C10.9487 1.90979 10.4636 2.11117 10.1057 2.46901C9.74789 2.82684 9.54651 3.31195 9.54572 3.818V26.729C9.54651 27.2351 9.74789 27.7202 10.1057 28.078C10.4636 28.4358 10.9487 28.6372 11.4547 28.638H42.0027C42.5088 28.6372 42.9939 28.4358 43.3517 28.078C43.7095 27.7202 43.9109 27.2351 43.9117 26.729V3.818C43.9109 3.31195 43.7095 2.82684 43.3517 2.46901C42.9939 2.11117 42.5088 1.90979 42.0027 1.909H11.4547Z" fill="black"/>
<path d="M17.1813 13.365C16.4262 13.365 15.688 13.1411 15.0601 12.7216C14.4322 12.302 13.9429 11.7057 13.6539 11.0081C13.3649 10.3104 13.2893 9.54277 13.4366 8.80215C13.584 8.06153 13.9476 7.38123 14.4815 6.84727C15.0155 6.31332 15.6958 5.94969 16.4364 5.80237C17.177 5.65505 17.9447 5.73066 18.6424 6.01963C19.34 6.30861 19.9363 6.79797 20.3558 7.42584C20.7754 8.05371 20.9993 8.79188 20.9993 9.54701C20.9982 10.5593 20.5956 11.5298 19.8798 12.2456C19.1641 12.9614 18.1936 13.3639 17.1813 13.365ZM17.1813 7.63701C16.8037 7.63701 16.4346 7.74897 16.1207 7.95873C15.8068 8.16849 15.5621 8.46664 15.4176 8.81546C15.2731 9.16429 15.2353 9.54812 15.309 9.91843C15.3826 10.2887 15.5644 10.6289 15.8314 10.8959C16.0984 11.1629 16.4385 11.3447 16.8089 11.4183C17.1792 11.492 17.563 11.4542 17.9118 11.3097C18.2606 11.1652 18.5588 10.9205 18.7686 10.6066C18.9783 10.2927 19.0903 9.92357 19.0903 9.54601C19.0895 9.03995 18.8881 8.55485 18.5303 8.19702C18.1724 7.83918 17.6873 7.6378 17.1813 7.63701Z" fill="black"/>
<path d="M8.72537 28.504C8.53648 28.5044 8.35174 28.4486 8.19454 28.3439C8.03735 28.2392 7.91479 28.0901 7.84239 27.9157C7.76999 27.7412 7.75101 27.5492 7.78786 27.3639C7.82471 27.1786 7.91572 27.0085 8.04937 26.875L17.0664 17.858C17.612 17.3378 18.337 17.0476 19.0909 17.0476C19.8448 17.0476 20.5697 17.3378 21.1154 17.858L23.8004 20.546L31.2314 11.63C31.4981 11.3102 31.8313 11.0523 32.2077 10.8742C32.5842 10.6962 32.9949 10.6023 33.4114 10.599H33.4324C33.8456 10.5988 34.254 10.688 34.6294 10.8607C35.0049 11.0333 35.3385 11.2852 35.6074 11.599L45.5924 23.246C45.7481 23.4393 45.8225 23.6856 45.7997 23.9327C45.777 24.1799 45.6589 24.4085 45.4705 24.5701C45.2822 24.7317 45.0383 24.8136 44.7905 24.7984C44.5428 24.7833 44.3107 24.6723 44.1434 24.489L34.1574 12.837C34.068 12.732 33.9566 12.6478 33.8312 12.5905C33.7058 12.5331 33.5693 12.5039 33.4314 12.505C33.2927 12.5087 33.1562 12.5409 33.0305 12.5996C32.9047 12.6583 32.7924 12.7421 32.7004 12.846L24.6004 22.566C24.5155 22.6681 24.4101 22.7513 24.2911 22.8102C24.1721 22.8691 24.042 22.9024 23.9094 22.908C23.7766 22.9162 23.6437 22.8955 23.5197 22.8474C23.3958 22.7992 23.2837 22.7247 23.1914 22.629L19.7684 19.206C19.5861 19.0332 19.3445 18.9369 19.0934 18.9369C18.8422 18.9369 18.6006 19.0332 18.4184 19.206L9.40037 28.226C9.31192 28.3146 9.20685 28.3848 9.09119 28.4327C8.97553 28.4806 8.85155 28.5051 8.72637 28.505L8.72537 28.504Z" fill="black"/>
</g>
<defs>
<clipPath id="clip0_257_549">
<rect width="45.822" height="42.003" fill="white"/>
</clipPath>
</defs>
</svg>
