<svg width="80" height="80" viewBox="0 0 80 80" fill="none" xmlns="http://www.w3.org/2000/svg">
<path d="M76.5 26.5992C75.1 25.7901 73 25.9924 71.6 28.2174L65 39.2415L64.9 39.1403C64.2 38.5335 63.3 38.2301 62.5 38.3312C61.6 38.4324 60.8 38.8369 60.2 39.5449C59.8 40.0506 58.3 41.871 56.8 43.7927C55.3 45.7143 53.7 47.6359 53.3 48.1416C51.8 49.9621 49.8 51.4791 47.8 52.8951C44.5 55.3224 41.1 57.7497 39.6 62.3009C38.7 59.6713 37 57.244 34.8 55.5246C34.5 55.2212 34 55.3224 33.7 55.6258C33.4 55.9292 33.5 56.4349 33.8 56.7383C36.7 58.9633 38.5 62.402 38.8 66.043V68.268H24.2V68.1669V66.3464C24.2 66.1441 24.1 65.9418 24 65.7396L17.9 60.177C14 56.6372 13.2 55.4235 10.9 50.4678C9.10003 46.5234 7.00003 41.3653 5.30003 37.2187C4.00003 34.0834 3.00003 31.6561 2.50003 30.7459C1.90003 29.4311 2.50003 28.4197 3.30003 27.914C4.10003 27.5095 5.30003 27.5095 6.20003 29.0265L13.3 40.6574C13.1 41.4665 13.2 42.4779 13.7 43.6915C15 47.1302 16.7 50.4677 18.5 53.7042C18.7 54.1087 19.2 54.2099 19.5 54.0076C19.9 53.8053 20 53.2996 19.8 52.9962C18 49.8609 16.4 46.6245 15.1 43.287C14.7 42.1744 14.7 41.4665 14.8 41.0619C14.8 41.0619 14.8 41.0619 14.8 40.9608C14.9 40.6574 15.1 40.5562 15.2 40.354C15.6 40.0506 16.1 39.8483 16.5 39.9494C17 39.9494 17.4 40.1517 17.8 40.5562C18.3 41.1631 19.9 43.1858 21.5 45.2086L23.2 47.4336C23.5 47.737 23.9 47.8382 24.3 47.5348C24.6 47.2313 24.7 46.8268 24.4 46.4222L22.7 44.1972C21.1 42.1744 19.4 40.0506 19 39.5449C18.4 38.8369 17.6 38.4324 16.7 38.3312C15.8 38.2301 14.9 38.5335 14.3 39.1403L14.2 39.2415L7.50003 28.2174C6.10003 25.9924 4.00003 25.7901 2.60003 26.5992C1.20003 27.4083 0.200026 29.3299 1.20003 31.3527C1.60003 32.2629 2.70003 34.6903 3.90003 37.8255C5.60003 41.9722 7.70003 47.0291 9.50003 51.0746C11.8 56.2326 12.8 57.5474 16.8 61.2895L22.6 66.6498V68.1669V68.268H21C20.6 68.268 20.2 68.5714 20.2 69.0771V78.4829C20.2 78.8875 20.5 79.292 21 79.292H58.1C58.5 79.292 58.9 78.9886 58.9 78.4829V69.0771C58.9 68.6726 58.6 68.268 58.1 68.268H56.4V68.1669V66.6498L62.2 61.2895C66.3 57.5474 67.2 56.2326 69.5 51.0746C71.3 47.0291 73.4 41.9722 75.1 37.8255C76.4 34.6903 77.4 32.2629 77.8 31.3527C78.9 29.3299 77.9 27.4083 76.5 26.5992ZM21.8 69.7851H38.8V77.5727V77.6738H21.8V69.7851ZM57.3 77.6738H40.3V77.5727V69.7851H57.3V77.6738ZM76.5 30.7459C76 31.7573 75 34.1846 73.7 37.3198C72 41.4665 69.9 46.5234 68.1 50.5689C65.9 55.5246 65 56.7383 61.1 60.2781L55.1 65.7396C54.9 65.8407 54.9 66.043 54.9 66.3464V68.1669V68.268H40.3V66.043C40.9 59.7724 44.7 57.0417 48.6 54.1087C50.6 52.5916 52.7 51.0746 54.4 49.0518C54.8 48.5461 56.4 46.5234 57.9 44.6018C59.4 42.7813 60.8 40.8597 61.2 40.354C61.5 39.9494 62 39.7471 62.5 39.7471C63 39.7471 63.5 39.8483 63.9 40.2528C64.3 40.6574 64.8 41.2642 64.1 43.0847C62.8 46.4222 61.2 49.7598 59.4 52.7939C59.2 53.1985 59.3 53.603 59.7 53.8053C60.1 54.0076 60.5 53.9064 60.7 53.5019C62.6 50.3666 64.2 47.0291 65.5 43.5904C66 42.3767 66.1 41.4665 65.9 40.5562L72.9 28.9254C73.8 27.4083 75.1 27.4083 75.8 27.8129C76.6 28.3186 77.1 29.4311 76.5 30.7459Z" fill="#A0A9B2"/>
<path d="M34.6 26.0935L39.5 21.1378L44.4 26.0935C47.3 29.0265 51 30.4424 54.8 30.4424C58.6 30.4424 62.3 29.0265 65.2 26.0935C70.9 20.3287 70.9 10.9228 65.2 5.15799C59.5 -0.606863 50.2 -0.606863 44.5 5.15799L39.5 10.1137L34.6 5.15799C28.9 -0.606863 19.6 -0.606863 13.9 5.15799C8.2 10.9228 8.2 20.3287 13.9 26.0935C19.6 31.8584 28.9 31.8584 34.6 26.0935ZM15 6.16937C20.1 1.01134 28.5 1.01134 33.6 6.16937L38.5 11.1251L35.2 14.4627L30.3 9.50692C27 6.16937 21.6 6.16937 18.3 9.50692C15 12.8445 15 18.3059 18.3 21.6435C21.6 24.981 27 24.981 30.3 21.6435L45.5 6.16937C50.7 1.01134 59 1.01134 64.1 6.16937C69.2 11.3274 69.2 19.823 64.1 24.981C59 30.139 50.6 30.139 45.5 24.981L40.6 20.0252L43.9 16.6877L48.9 21.6435C50.5 23.2617 52.6 24.1719 54.9 24.1719C57.2 24.1719 59.3 23.2617 60.9 21.6435C64.2 18.3059 64.2 12.8445 60.9 9.50692C57.6 6.16937 52.2 6.16937 48.9 9.50692L33.6 24.981C28.5 30.139 20.1 30.139 15 24.981C9.9 19.823 9.9 11.4285 15 6.16937ZM34.1 15.5752L29.2 20.5309C26.5 23.2617 22.1 23.2617 19.3 20.5309C16.6 17.8002 16.6 13.3502 19.3 10.5183C20.7 9.2035 22.4 8.49554 24.2 8.49554C26 8.49554 27.8 9.2035 29.1 10.5183L34.1 15.5752ZM45 15.5752L49.9 10.6194C52.6 7.88871 57 7.88871 59.8 10.6194C62.5 13.3502 62.5 17.8002 59.8 20.6321C58.5 21.9469 56.7 22.6548 54.9 22.6548C53 22.6548 51.3 21.9469 50 20.6321L45 15.5752Z" fill="#A0A9B2"/>
<path d="M28.2 51.378C28.1 51.4791 28.1 51.4791 28 51.5803C28 51.6814 27.9 51.7825 27.9 51.8837C27.9 52.086 28 52.2882 28.1 52.3894C28.2 52.4905 28.4 52.5917 28.6 52.5917C28.8 52.5917 29 52.4905 29.1 52.3894C29.2 52.2882 29.3 52.086 29.3 51.8837C29.3 51.6814 29.2 51.4791 29.1 51.378C29 51.2769 28.9 51.2769 28.9 51.1757C28.8 51.0746 28.4 51.0746 28.2 51.378Z" fill="#A0A9B2"/>
</svg>
