<svg width="34" height="42" viewBox="0 0 34 42" fill="none" xmlns="http://www.w3.org/2000/svg">
<g clip-path="url(#clip0_257_610)">
<path d="M0.474188 38.043H19.6592C20.2271 39.1212 21.0529 40.0422 22.0628 40.7241C23.0728 41.4059 24.2358 41.8275 25.4481 41.9512C26.6604 42.0749 27.8845 41.897 29.0114 41.4332C30.1383 40.9694 31.1331 40.2341 31.9071 39.2929C32.6811 38.3516 33.2104 37.2336 33.4478 36.0384C33.6852 34.8431 33.6234 33.6077 33.2679 32.4421C32.9123 31.2765 32.2741 30.2169 31.41 29.3576C30.5459 28.4983 29.4828 27.866 28.3152 27.517V7.242C28.3224 7.11102 28.2779 6.98245 28.1912 6.884L21.7372 0.158C21.691 0.108132 21.635 0.068353 21.5727 0.0411627C21.5104 0.0139725 21.4432 -4.18074e-05 21.3752 9.3682e-08H0.474188C0.40856 0.000933378 0.343811 0.0152325 0.283894 0.0420246C0.223977 0.0688166 0.170149 0.107539 0.125697 0.155829C0.0812448 0.204118 0.0471008 0.26096 0.0253496 0.322886C0.00359852 0.384811 -0.00530332 0.45052 -0.000812354 0.516V37.531C-0.00532761 37.5962 0.00359193 37.6617 0.0253945 37.7234C0.047197 37.785 0.0814188 37.8415 0.125942 37.8894C0.170466 37.9373 0.224345 37.9756 0.284245 38.0018C0.344145 38.0281 0.408792 38.0427 0.474188 38.043ZM32.5752 34.6C32.5752 35.8597 32.2017 37.091 31.5018 38.1384C30.802 39.1858 29.8073 40.0021 28.6435 40.4842C27.4797 40.9662 26.1991 41.0924 24.9637 40.8466C23.7282 40.6009 22.5933 39.9943 21.7026 39.1036C20.8119 38.2128 20.2053 37.078 19.9596 35.8425C19.7138 34.6071 19.8399 33.3265 20.322 32.1627C20.8041 30.9989 21.6204 30.0042 22.6678 29.3044C23.7151 28.6045 24.9465 28.231 26.2062 28.231C27.8954 28.231 29.5153 28.902 30.7098 30.0964C31.9042 31.2909 32.5752 32.9108 32.5752 34.6ZM21.8612 1.8L26.6262 6.715H21.8612V1.8ZM1.03219 1.033H20.8322V7.243C20.8404 7.38111 20.9022 7.51057 21.0043 7.60391C21.1064 7.69726 21.2409 7.74715 21.3792 7.743H27.2882V27.282C26.9243 27.2249 26.5565 27.1969 26.1882 27.198C25.1796 27.1934 24.181 27.3977 23.2552 27.798C23.2119 27.7218 23.1497 27.6581 23.0745 27.6131C22.9993 27.568 22.9138 27.5432 22.8262 27.541H4.98919C4.8522 27.541 4.72083 27.5954 4.62397 27.6923C4.5271 27.7891 4.47269 27.9205 4.47269 28.0575C4.47269 28.1945 4.5271 28.3259 4.62397 28.4227C4.72083 28.5196 4.8522 28.574 4.98919 28.574H21.8832C21.0138 29.2256 20.284 30.0451 19.7372 30.984H4.98919C4.8522 30.984 4.72083 31.0384 4.62397 31.1353C4.5271 31.2321 4.47269 31.3635 4.47269 31.5005C4.47269 31.6375 4.5271 31.7689 4.62397 31.8657C4.72083 31.9626 4.8522 32.017 4.98919 32.017H19.2612C18.9637 32.8411 18.8091 33.7099 18.8042 34.586C18.8069 35.4111 18.9458 36.2301 19.2152 37.01H1.03219V1.033Z" fill="black"/>
<path d="M4.98915 25.132H22.8242C22.9611 25.132 23.0925 25.0776 23.1894 24.9807C23.2862 24.8839 23.3407 24.7525 23.3407 24.6155C23.3407 24.4785 23.2862 24.3471 23.1894 24.2503C23.0925 24.1534 22.9611 24.099 22.8242 24.099H4.98915C4.85217 24.099 4.7208 24.1534 4.62394 24.2503C4.52707 24.3471 4.47266 24.4785 4.47266 24.6155C4.47266 24.7525 4.52707 24.8839 4.62394 24.9807C4.7208 25.0776 4.85217 25.132 4.98915 25.132Z" fill="black"/>
<path d="M4.98915 21.689H22.8242C22.9611 21.689 23.0925 21.6346 23.1894 21.5377C23.2862 21.4409 23.3407 21.3095 23.3407 21.1725C23.3407 21.0355 23.2862 20.9041 23.1894 20.8073C23.0925 20.7104 22.9611 20.656 22.8242 20.656H4.98915C4.85217 20.656 4.7208 20.7104 4.62394 20.8073C4.52707 20.9041 4.47266 21.0355 4.47266 21.1725C4.47266 21.3095 4.52707 21.4409 4.62394 21.5377C4.7208 21.6346 4.85217 21.689 4.98915 21.689Z" fill="black"/>
<path d="M4.98915 18.247H22.8242C22.9611 18.247 23.0925 18.1926 23.1894 18.0957C23.2862 17.9988 23.3407 17.8675 23.3407 17.7305C23.3407 17.5935 23.2862 17.4621 23.1894 17.3653C23.0925 17.2684 22.9611 17.214 22.8242 17.214H4.98915C4.85217 17.214 4.7208 17.2684 4.62394 17.3653C4.52707 17.4621 4.47266 17.5935 4.47266 17.7305C4.47266 17.8675 4.52707 17.9988 4.62394 18.0957C4.7208 18.1926 4.85217 18.247 4.98915 18.247Z" fill="black"/>
<path d="M4.98915 14.804H22.8242C22.9611 14.804 23.0925 14.7496 23.1894 14.6527C23.2862 14.5558 23.3407 14.4245 23.3407 14.2875C23.3407 14.1505 23.2862 14.0191 23.1894 13.9223C23.0925 13.8254 22.9611 13.771 22.8242 13.771H4.98915C4.85217 13.771 4.7208 13.8254 4.62394 13.9223C4.52707 14.0191 4.47266 14.1505 4.47266 14.2875C4.47266 14.4245 4.52707 14.5558 4.62394 14.6527C4.7208 14.7496 4.85217 14.804 4.98915 14.804Z" fill="black"/>
<path d="M4.98915 11.361H14.2162C14.3531 11.361 14.4845 11.3066 14.5814 11.2097C14.6782 11.1129 14.7327 10.9815 14.7327 10.8445C14.7327 10.7075 14.6782 10.5761 14.5814 10.4793C14.4845 10.3824 14.3531 10.328 14.2162 10.328H4.98915C4.85217 10.328 4.7208 10.3824 4.62394 10.4793C4.52707 10.5761 4.47266 10.7075 4.47266 10.8445C4.47266 10.9815 4.52707 11.1129 4.62394 11.2097C4.7208 11.3066 4.85217 11.361 4.98915 11.361Z" fill="black"/>
<path d="M23.3076 33.308H22.6357C22.4987 33.308 22.3673 33.3624 22.2704 33.4593C22.1736 33.5562 22.1191 33.6876 22.1191 33.8245C22.1191 33.9615 22.1736 34.0929 22.2704 34.1898C22.3673 34.2866 22.4987 34.341 22.6357 34.341H23.0897C23.0837 34.427 23.0797 34.513 23.0797 34.599C23.0797 34.715 23.0856 34.829 23.0956 34.943H22.6357C22.4987 34.943 22.3673 34.9974 22.2704 35.0943C22.1736 35.1912 22.1191 35.3226 22.1191 35.4595C22.1191 35.5965 22.1736 35.7279 22.2704 35.8247C22.3673 35.9216 22.4987 35.976 22.6357 35.976H23.3357C23.7003 36.9037 24.4168 37.6495 25.3291 38.051C26.2414 38.4524 27.2754 38.4769 28.2057 38.119C28.3335 38.0698 28.4366 37.9719 28.4922 37.8467C28.5478 37.7215 28.5513 37.5794 28.5021 37.4515C28.4529 37.3237 28.355 37.2207 28.2298 37.165C28.1046 37.1094 27.9625 37.1058 27.8347 37.155C27.2267 37.3894 26.5552 37.3994 25.9405 37.1834C25.3258 36.9673 24.8082 36.5392 24.4807 35.976H27.1067C27.2436 35.976 27.375 35.9216 27.4719 35.8247C27.5687 35.7279 27.6231 35.5965 27.6231 35.4595C27.6231 35.3226 27.5687 35.1912 27.4719 35.0943C27.375 34.9974 27.2436 34.943 27.1067 34.943H24.1357C24.1107 34.744 24.1073 34.5428 24.1256 34.343H27.4547C27.5916 34.343 27.723 34.2886 27.8199 34.1918C27.9167 34.0949 27.9712 33.9635 27.9712 33.8265C27.9712 33.6896 27.9167 33.5582 27.8199 33.4613C27.723 33.3645 27.5916 33.31 27.4547 33.31H24.4356C24.7507 32.7209 25.2702 32.2672 25.8963 32.0343C26.5225 31.8013 27.2121 31.8051 27.8357 32.045C27.899 32.0694 27.9664 32.081 28.0342 32.0793C28.102 32.0776 28.1688 32.0625 28.2308 32.035C28.2928 32.0075 28.3487 31.968 28.3955 31.9189C28.4422 31.8697 28.4788 31.8118 28.5031 31.7485C28.5275 31.6852 28.5392 31.6178 28.5374 31.55C28.5357 31.4822 28.5207 31.4154 28.4931 31.3534C28.4656 31.2914 28.4261 31.2354 28.377 31.1887C28.3278 31.142 28.27 31.1054 28.2067 31.081C27.7389 30.9017 27.2402 30.8173 26.7394 30.8325C26.2387 30.8477 25.7461 30.9624 25.2901 31.1698C24.8341 31.3773 24.4239 31.6733 24.0834 32.0407C23.7429 32.4081 23.4788 32.8396 23.3066 33.31L23.3076 33.308Z" fill="black"/>
</g>
<defs>
<clipPath id="clip0_257_610">
<rect width="33.59" height="42" fill="white"/>
</clipPath>
</defs>
</svg>
