<svg width="80" height="80" viewBox="0 0 80 80" fill="none" xmlns="http://www.w3.org/2000/svg">
<g clip-path="url(#clip0_46_26)">
<path d="M27.5 70.8543C24.5 72.8643 21.7 75.1759 19.2 77.8894C18.9 78.1909 18.9 78.6935 19.2 78.995C19.3 79.0955 19.5 79.196 19.7 79.196C19.9 79.196 20.1 79.0955 20.2 78.995C22.6 76.4824 25.3 74.1708 28.2 72.2613C28.5 72.0603 28.6 71.5578 28.4 71.2563C28.3 70.7538 27.8 70.6533 27.5 70.8543Z" fill="#A0A9B2"/>
<path d="M77.6 62.412C75.7 62.412 73.8 62.5125 71.9 62.7136C71.6 61.407 71.3 60.1005 70.8 58.8945C73 58.794 75.3 58.794 77.6 58.794C78 58.794 78.4 58.4924 78.4 58.0904C78.4 57.6884 78.1 57.2864 77.7 57.2864C75.1 57.2864 72.6 57.2864 70.2 57.3869C69.5 56.1809 68.7 55.2764 67.8 55.2764C66.8 55.2764 65.9 56.2814 65.2 57.7889C53.6 58.794 42.6 62.211 32.4 67.8392C32 68.0402 31.9 68.5427 32.1 68.8442C32.2 69.0452 32.5 69.2462 32.8 69.2462C32.9 69.2462 33 69.2462 33.2 69.1457C43 63.7186 53.5 60.402 64.6 59.397C64 61.206 63.5 63.2161 63.3 64.7236C55.7 67.2362 49 71.7588 43.9 77.9899C43.6 78.2914 43.7 78.794 44 79.0955C44.1 79.196 44.3 79.2965 44.5 79.2965C44.7 79.2965 44.9 79.196 45.1 78.995C49.8 73.1658 56.1 68.9447 63.1 66.5326C63.1 66.6331 63.1 66.8342 63.1 66.9347C63.1 69.3467 64.8 71.2563 67.1 71.6583V75.7789C67.1 76.1809 67.4 76.5829 67.9 76.5829C68.4 76.5829 68.7 76.2814 68.7 75.7789V71.6583C71 71.2563 72.7 69.3467 72.7 66.9347C72.7 66.4321 72.6 65.5276 72.4 64.4221C74.2 64.2211 76 64.1206 77.8 64.1206C78.2 64.1206 78.6 63.8191 78.6 63.3166C78.6 62.8141 78 62.412 77.6 62.412ZM68.4 69.9497V65.7286C68.4 65.3266 68.1 64.9246 67.6 64.9246C67.1 64.9246 66.8 65.2261 66.8 65.7286V69.9497C65.4 69.6482 64.3 68.3417 64.3 66.7337C64.3 64.8241 65.2 61.1055 66.2 58.794C66.2 58.794 66.2 58.794 66.2 58.6935C66.7 57.5879 67.2 56.7839 67.6 56.7839C68.9 56.7839 70.9 63.9196 70.9 66.7337C71 68.3417 69.9 69.5477 68.4 69.9497Z" fill="#A0A9B2"/>
<path d="M4.8 58.0905C1.7 58.0905 0 67.6382 0 69.5477C0 71.9598 1.7 73.8694 4 74.2714V78.392C4 78.794 4.3 79.196 4.8 79.196C5.3 79.196 5.6 78.8945 5.6 78.392V74.2714C7.9 73.8694 9.6 71.9598 9.6 69.5477C9.6 67.7387 7.9 58.0905 4.8 58.0905ZM5.5 72.7638V68.5427C5.5 68.1407 5.2 67.7387 4.7 67.7387C4.2 67.7387 3.9 68.0402 3.9 68.5427V72.7638C2.5 72.4623 1.4 71.1558 1.4 69.5477C1.4 66.7337 3.4 59.598 4.7 59.598C6 59.598 8 66.7337 8 69.5477C8.1 71.1558 7 72.3618 5.5 72.7638Z" fill="#A0A9B2"/>
<path d="M78 51.3568H76.6V47.8392C76.6 47.4372 76.3 47.0352 75.8 47.0352C75.3 47.0352 75 47.3367 75 47.8392V51.2563H68.3V37.7889C68.3 37.7889 68.3 37.7889 68.3 37.6884C68.3 37.5879 68.3 37.5879 68.3 37.4874V37.3869C68.3 37.3869 68.3 37.2864 68.2 37.2864L68.1 37.1859L61.2 32.1608C61.1 32.0603 60.9 32.0603 60.8 32.0603H54.8V22.7136H75.1V42.7136C75.1 43.1156 75.4 43.5176 75.9 43.5176C76.4 43.5176 76.7 43.2161 76.7 42.7136V21.9095C76.7 21.809 76.7 21.7085 76.6 21.608C76.6 21.608 76.6 21.608 76.6 21.5075C76.6 21.407 76.5 21.407 76.5 21.3065L65.6 11.8593C65.3 11.6583 64.9 11.6583 64.6 11.8593L55 20.201V12.1608C55 12.0603 55 11.9598 54.9 11.9598C54.8 8.34171 52 5.42714 48.5 5.02513V0.80402C48.5 0.40201 48.2 0 47.7 0C47.2 0 46.9 0.301508 46.9 0.80402V5.02513C43.4 5.42714 40.6 8.34171 40.5 11.9598C40.5 12.0603 40.4 12.1608 40.4 12.2613V22.01L30.1 14.0704C29.8 13.8693 29.5 13.8693 29.2 14.0704L25.8 16.6834C25.5 16.9849 25.4 17.3869 25.7 17.7889C26 18.0905 26.4 18.191 26.8 17.8894L29.7 15.6784L39 22.8141H20.4L22.7 21.005C23 20.7035 23.1 20.3015 22.8 19.8995C22.5 19.598 22.1 19.4975 21.7 19.799L17.7 22.9146C17.6 22.9146 17.6 23.0151 17.6 23.1156C17.6 23.1156 17.6 23.2161 17.5 23.2161C17.5 23.3166 17.4 23.4171 17.4 23.5176V35.9799L11 29.3467C10.9 29.2462 10.7 29.1457 10.5 29.1457C10.3 29.1457 10.1 29.2462 10 29.3467L2.3 37.2864L2.2 37.3869C2.2 37.3869 2.2 37.4874 2.1 37.4874C2.1 37.5879 2 37.6884 2 37.7889V51.2563H0.8C0.4 51.2563 0 51.5578 0 52.0603C0 52.5628 0.4 52.8643 0.8 52.8643H2.5C2.6 52.8643 2.7 52.8643 2.8 52.8643H14C13.6 54.6734 13.4 56.2814 13.4 56.9849C13.4 59.397 15.1 61.3065 17.4 61.7085V65.8291C17.4 66.2312 17.7 66.6332 18.2 66.6332C18.7 66.6332 19 66.3317 19 65.8291V61.7085C21.3 61.3065 23 59.397 23 56.9849C23 56.2814 22.8 54.6734 22.4 52.8643H41.3H45.5H50.3H67.8C67.9 52.8643 68 52.8643 68.1 52.7638H75.7C75.8 52.7638 75.9 52.8643 76 52.8643C76.1 52.8643 76.2 52.8643 76.3 52.7638H78.2C78.6 52.7638 79 52.4623 79 51.9598C79 51.4573 78.4 51.3568 78 51.3568ZM22.2 51.3568C22.1 51.3568 22 51.3568 22 51.3568C21.3 48.8442 20.3 46.4322 19 45.7286V37.7889V24.2211H40.5V27.8392V27.9397V37.7889V51.3568H22.2ZM47.8 31.9598C47.7 31.9598 47.6 31.9598 47.5 32.0603H47.4C47.4 32.0603 47.3 32.0603 47.3 32.1608L41.9 36.2814V23.5176V23.4171V12.9648H53.3V32.0603H47.8V31.9598ZM42 38.191L47.9 33.7688L53.8 38.191V51.3568H51V47.4372C51 45.7286 49.6 44.3216 47.9 44.3216C46.2 44.3216 44.6 45.6281 44.6 47.4372V51.3568H41.9V38.191H42ZM49.4 51.3568H46.1V47.4372C46.1 46.5327 46.8 45.8291 47.7 45.8291C48.6 45.8291 49.3 46.5327 49.3 47.4372L49.4 51.3568ZM55.2 51.3568V38.593H66.9V51.3568H55.2ZM65.4 37.0854H54.7L50.1 33.5678H60.6L65.4 37.0854ZM64.9 13.4673L73.8 21.1055H56.1L64.9 13.4673ZM47.6 6.43216C50.5 6.43216 52.8 8.54271 53.2 11.3568H42C42.4 8.64322 44.8 6.43216 47.6 6.43216ZM10.5 30.9548L16.4 37.0854H10.5H4.6L10.5 30.9548ZM3.6 38.593H10.5H17.4V45.8291C16.1 46.5327 15.1 48.9447 14.4 51.3568H3.6V38.593ZM19 60.201V55.9799C19 55.5779 18.7 55.1759 18.2 55.1759C17.7 55.1759 17.4 55.4774 17.4 55.9799V60.201C16 59.8995 14.9 58.593 14.9 56.9849C14.9 54.1709 16.9 47.0352 18.2 47.0352C19.5 47.0352 21.5 54.1709 21.5 56.9849C21.5 58.593 20.4 59.799 19 60.201Z" fill="#A0A9B2"/>
<path d="M29.7 28.2412C29.3 28.2412 28.9 28.5427 28.9 29.0452V35.0754C28.9 35.4774 29.2 35.8794 29.7 35.8794C30.2 35.8794 30.5 35.5779 30.5 35.0754V29.0452C30.4 28.6432 30.1 28.2412 29.7 28.2412Z" fill="#A0A9B2"/>
<path d="M35.4 28.2412C35 28.2412 34.6 28.5427 34.6 29.0452V35.0754C34.6 35.4774 34.9 35.8794 35.4 35.8794C35.9 35.8794 36.2 35.5779 36.2 35.0754V29.0452C36.2 28.6432 35.9 28.2412 35.4 28.2412Z" fill="#A0A9B2"/>
<path d="M29.7 39.799C29.3 39.799 28.9 40.1005 28.9 40.603V46.6331C28.9 47.0351 29.2 47.4371 29.7 47.4371C30.2 47.4371 30.5 47.1356 30.5 46.6331V40.603C30.4 40.201 30.1 39.799 29.7 39.799Z" fill="#A0A9B2"/>
<path d="M35.4 39.799C35 39.799 34.6 40.1005 34.6 40.603V46.6331C34.6 47.0351 34.9 47.4371 35.4 47.4371C35.9 47.4371 36.2 47.1356 36.2 46.6331V40.603C36.2 40.201 35.9 39.799 35.4 39.799Z" fill="#A0A9B2"/>
<path d="M24 28.2412C23.6 28.2412 23.2 28.5427 23.2 29.0452V35.0754C23.2 35.4774 23.5 35.8794 24 35.8794C24.5 35.8794 24.8 35.5779 24.8 35.0754V29.0452C24.7 28.6432 24.4 28.2412 24 28.2412Z" fill="#A0A9B2"/>
<path d="M24 39.799C23.6 39.799 23.2 40.1005 23.2 40.603V46.6331C23.2 47.0351 23.5 47.4371 24 47.4371C24.5 47.4371 24.8 47.1356 24.8 46.6331V40.603C24.7 40.201 24.4 39.799 24 39.799Z" fill="#A0A9B2"/>
<path d="M47.8 40.7035C48.4 40.7035 48.9999 40.1005 48.8999 39.4975C48.8999 38.8945 48.4 38.392 47.8 38.392C47.2 38.392 46.5999 38.995 46.6999 39.598C46.6999 40.201 47.1 40.7035 47.8 40.7035Z" fill="#A0A9B2"/>
<path d="M58.8 41.608C58.4 41.608 58 41.9095 58 42.4121V44.4221C58 44.8241 58.3 45.2261 58.8 45.2261C59.3 45.2261 59.6 44.9246 59.6 44.4221V42.4121C59.5 42.01 59.2 41.608 58.8 41.608Z" fill="#A0A9B2"/>
<path d="M63.3 41.608C62.9 41.608 62.5 41.9095 62.5 42.4121V44.4221C62.5 44.8241 62.8 45.2261 63.3 45.2261C63.8 45.2261 64.1 44.9246 64.1 44.4221V42.4121C64.1 42.01 63.7 41.608 63.3 41.608Z" fill="#A0A9B2"/>
<path d="M47.6 18.2915C46.9 18.2915 46.3 18.593 45.9 18.995C45.4 19.4975 45.2 20.1005 45.2 20.7036V25.4272C45.2 25.8292 45.5 26.2312 46 26.2312H49.4C49.8 26.2312 50.2 25.9297 50.2 25.4272V20.7036C50.1 19.397 49 18.2915 47.6 18.2915ZM48.6 24.7237H46.7V20.8041C46.7 20.6031 46.8 20.3016 47 20.1005C47.2 19.8995 47.4 19.799 47.7 19.799C48.2 19.799 48.6 20.2011 48.6 20.7036V24.7237Z" fill="#A0A9B2"/>
<path d="M13.3 42.7136C12.9 42.7136 12.5 43.0151 12.5 43.5176V46.8342C12.5 47.2362 12.8 47.6382 13.3 47.6382C13.8 47.6382 14.1 47.3367 14.1 46.8342V43.5176C14.1 43.0151 13.7 42.7136 13.3 42.7136Z" fill="#A0A9B2"/>
<path d="M7.70002 42.7136C7.30002 42.7136 6.90002 43.0151 6.90002 43.5176V46.8342C6.90002 47.2362 7.20002 47.6382 7.70002 47.6382C8.20002 47.6382 8.50002 47.3367 8.50002 46.8342V43.5176C8.40002 43.0151 8.10002 42.7136 7.70002 42.7136Z" fill="#A0A9B2"/>
<path d="M58.2 26.3316V28.9447C58.2 29.3467 58.5 29.7487 59 29.7487C59.5 29.7487 59.8 29.4472 59.8 28.9447V26.3316C59.8 25.9296 59.5 25.5276 59 25.5276C58.5 25.5276 58.2 25.8291 58.2 26.3316Z" fill="#A0A9B2"/>
<path d="M70.1 26.3316V28.9447C70.1 29.3467 70.4 29.7487 70.9 29.7487C71.4 29.7487 71.7 29.4472 71.7 28.9447V26.3316C71.7 25.9296 71.4 25.5276 70.9 25.5276C70.4 25.5276 70.1 25.8291 70.1 26.3316Z" fill="#A0A9B2"/>
<path d="M64.1 26.3316V28.9447C64.1 29.3467 64.4 29.7487 64.9 29.7487C65.4 29.7487 65.7 29.4472 65.7 28.9447V26.3316C65.7 25.9296 65.4 25.5276 64.9 25.5276C64.4 25.5276 64.1 25.8291 64.1 26.3316Z" fill="#A0A9B2"/>
</g>
<defs>
<clipPath id="clip0_46_26">
<rect width="79.6" height="80" fill="white"/>
</clipPath>
</defs>
</svg>
