<svg width="178" height="30" viewBox="0 0 178 30" fill="none" xmlns="http://www.w3.org/2000/svg">
<g clip-path="url(#clip0_2_3)">
<path d="M39.621 10.622L32.321 6.59401V3.65201C32.3206 3.57686 32.3 3.5032 32.2612 3.4388C32.2225 3.37439 32.1672 3.32161 32.101 3.28601L27.901 0.994009C27.8311 0.956042 27.7523 0.937753 27.6728 0.941099C27.5934 0.944446 27.5164 0.969299 27.45 1.01301L25.25 2.46801L21.45 0.477003C21.4023 0.452093 21.3504 0.436165 21.297 0.430006L17.544 0.00600256C17.4673 -0.00138941 17.39 0.0114323 17.3199 0.0431882C17.2497 0.0749442 17.189 0.124534 17.144 0.18701L14.335 4.22201C14.2896 4.28704 14.2639 4.36376 14.261 4.44301L14.227 5.367L12.6 4.49801C12.5051 4.44726 12.3948 4.43338 12.2903 4.45904C12.1859 4.4847 12.0945 4.54809 12.034 4.63701L10.76 6.543L9.69098 5.964C9.58996 5.90908 9.47127 5.8965 9.36098 5.92901C9.30674 5.94455 9.25611 5.97067 9.21201 6.00585C9.1679 6.04103 9.13119 6.08459 9.10398 6.13401L8.17898 7.83401L7.06798 7.15301C7.01572 7.12131 6.95743 7.10085 6.89682 7.09293C6.83622 7.08501 6.77463 7.08981 6.71598 7.10701C6.65755 7.12384 6.6034 7.15299 6.55718 7.19249C6.51095 7.23199 6.47372 7.28092 6.44798 7.336L5.61298 9.13601L4.57798 8.55301C4.52706 8.52435 4.4709 8.50621 4.41284 8.49969C4.35477 8.49316 4.29599 8.49837 4.23998 8.51501C4.1844 8.53119 4.13269 8.55851 4.08799 8.5953C4.04329 8.63208 4.00655 8.67758 3.97998 8.72901L3.05098 10.547L2.05098 9.96501C1.99993 9.93533 1.94343 9.91622 1.88485 9.90883C1.82627 9.90145 1.76679 9.90592 1.70998 9.922C1.65357 9.9381 1.60104 9.96556 1.55564 10.0027C1.51024 10.0399 1.47292 10.0859 1.44598 10.138L0.0459766 12.879C0.0165861 12.9366 0.00117018 13.0003 0.000976562 13.065V18.765C0.00133903 18.8426 0.0232197 18.9185 0.0641804 18.9843C0.105141 19.0502 0.163575 19.1034 0.232977 19.138L6.98398 22.545C7.04635 22.5757 7.11507 22.5912 7.18457 22.5903C7.25408 22.5895 7.32239 22.5722 7.38398 22.54L11.484 20.34L11.463 25.432C11.4632 25.5097 11.4849 25.5859 11.5259 25.6519C11.5669 25.718 11.6254 25.7713 11.695 25.806L19.911 29.954C19.911 29.954 19.921 29.954 19.926 29.954C19.9831 29.9814 20.0456 29.9961 20.109 29.997C20.1729 29.9953 20.2357 29.9796 20.293 29.951C20.293 29.951 20.302 29.951 20.307 29.951L32.093 23.802C32.1609 23.7669 32.218 23.7138 32.258 23.6486C32.298 23.5834 32.3194 23.5085 32.32 23.432V22.318L33.051 22.657C33.1141 22.6864 33.1833 22.7003 33.2529 22.6975C33.3225 22.6947 33.3904 22.6753 33.451 22.641L39.623 19.127C39.6873 19.0909 39.741 19.0384 39.7784 18.9748C39.8158 18.9112 39.8357 18.8388 39.836 18.765V10.987C39.8361 10.9125 39.8162 10.8393 39.7784 10.7751C39.7406 10.7109 39.6862 10.658 39.621 10.622ZM37.956 10.667L36.329 10.444L32.322 8.087V7.558L37.956 10.667ZM33.048 14.577L32.322 14.16V8.36001L36.107 10.586L33.048 14.577ZM12.348 14.421L13.457 11.7L14.699 12.907L14.69 14.651L12.351 15.889L12.361 14.452C12.365 14.445 12.356 14.437 12.352 14.426L12.348 14.421ZM15.999 10.241L17.251 11.241C17.2083 11.2907 17.184 11.3535 17.182 11.419V13.337C17.1657 13.3406 17.1496 13.3453 17.134 13.351L14.934 14.516L14.943 12.876L15.999 10.241ZM15.05 6.06601L15.095 4.82701L21.969 8.77701L19.944 9.823L18.912 8.34801C18.9011 8.33357 18.8871 8.32184 18.8709 8.31369C18.8548 8.30554 18.837 8.3012 18.819 8.30101C18.809 8.29201 18.804 8.27801 18.792 8.27201L14.892 6.37201C14.9393 6.33659 14.9783 6.29134 15.0065 6.23938C15.0346 6.18742 15.0512 6.12997 15.055 6.071L15.05 6.06601ZM31.459 6.699L28.359 8.48701V7.196L31.459 5.408V6.699ZM31.459 12.973L28.359 14.762V13.477L31.459 11.689V12.973ZM27.75 11.642L24.294 9.81301V8.51301L27.75 10.341V11.642ZM24.294 10.086L27.75 11.915V13.215L24.294 11.387V10.086ZM31.46 11.405L28.36 13.193V11.903L31.46 10.114V11.405ZM31.46 9.836L28.36 11.624V10.333L31.46 8.544V9.836ZM27.751 10.073L24.295 8.24501V6.94501L27.751 8.77401V10.073ZM24.295 11.655L27.751 13.484V14.784L24.295 12.956V11.655ZM28.365 15.04L31.465 13.251V14.542L28.365 16.331V15.04ZM28.365 10.056V8.76501L31.465 6.976V8.267L28.365 10.056ZM27.751 8.505L24.298 6.67701V5.377L27.754 7.20601L27.751 8.505ZM24.295 13.225L27.751 15.053V15.491L24.295 13.745V13.225ZM28.365 16.61L31.465 14.822V16.113L28.365 17.901V16.61ZM31.465 5.131L28.365 6.919V6.087L31.465 4.253V5.131ZM27.756 6.93701L24.3 5.10901V4.29901L27.756 6.099V6.93701ZM23.441 13.718L17.814 16.625L17.803 11.603L23.441 8.69001V13.718ZM18.785 8.59301L19.724 9.935L17.931 10.861L18.785 8.59301ZM17.192 14.287L17.198 17.127C17.1985 17.1789 17.2126 17.2298 17.2387 17.2747C17.2648 17.3196 17.3021 17.3569 17.347 17.383C17.3949 17.4111 17.4494 17.4259 17.505 17.426C17.5551 17.4259 17.6044 17.4139 17.649 17.391L18.11 17.153V17.62C18.1153 17.7303 18.1629 17.8344 18.2428 17.9106C18.3228 17.9868 18.429 18.0293 18.5395 18.0293C18.6499 18.0293 18.7561 17.9868 18.8361 17.9106C18.9161 17.8344 18.9636 17.7303 18.969 17.62V16.85C18.967 16.8066 18.9583 16.7637 18.943 16.723L22.89 14.684V15.324C22.8953 15.4343 22.9429 15.5384 23.0228 15.6146C23.1028 15.6908 23.209 15.7333 23.3195 15.7333C23.4299 15.7333 23.5361 15.6908 23.6161 15.6146C23.6961 15.5384 23.7437 15.4343 23.749 15.324V14.524C23.7472 14.4837 23.7391 14.4438 23.725 14.406L26.986 16.053L20.013 19.585L13.461 16.264L17.192 14.287ZM20.444 20.309L27.753 16.609V25.117L20.528 28.887L20.444 20.309ZM28.367 18.182L31.467 16.394V17.685L28.367 19.473V18.182ZM27.713 1.853L31.162 3.73501L28.051 5.57701L24.704 3.83401L25.523 3.30401L26.188 2.87401C26.2001 2.86386 26.2115 2.85283 26.222 2.84101L27.713 1.853ZM17.701 0.865004L21.114 1.25101L24.444 2.99701L23.63 3.52401C23.5713 3.56164 23.5229 3.61339 23.4894 3.67454C23.4558 3.73568 23.4382 3.80427 23.438 3.87401V8.017L22.222 8.645L15.122 4.56901L17.701 0.865004ZM12.53 5.41501L14.144 6.27801L14.183 6.297L14.415 6.421C14.429 6.429 14.446 6.426 14.461 6.433L18.579 8.433L17.603 11.025L17.456 11.101L16.023 9.95301C16.017 9.95301 16.009 9.95301 16.003 9.95301C15.997 9.95301 15.997 9.94101 15.99 9.93801L11.152 7.42301C11.1907 7.39555 11.2245 7.36174 11.252 7.323L12.53 5.41501ZM8.71298 8.62301L9.64998 6.89901L10.687 7.461C10.7043 7.46783 10.722 7.4735 10.74 7.478L15.795 10.105L14.785 12.649L13.507 11.408C13.5 11.401 13.488 11.408 13.48 11.4C13.4705 11.3725 13.4513 11.3493 13.426 11.335L8.59898 8.76001C8.64662 8.72304 8.68582 8.67633 8.71398 8.62301H8.71298ZM6.19298 9.90001L7.01998 8.116L8.10498 8.782C8.12538 8.79121 8.14644 8.7989 8.16798 8.80501L13.268 11.526L12.168 14.226L10.795 12.66C10.7872 12.6539 10.7788 12.6486 10.77 12.644C10.77 12.644 10.77 12.636 10.762 12.634L6.04998 10.061C6.11156 10.0209 6.16156 9.96543 6.19498 9.90001H6.19298ZM3.60398 11.322L4.53598 9.49801L5.58698 10.09C5.59744 10.094 5.60812 10.0973 5.61898 10.1L10.559 12.8L9.75198 15.761L8.39498 14.171C8.38698 14.162 8.37298 14.166 8.36198 14.159C8.35815 14.143 8.35101 14.128 8.34102 14.1149C8.33103 14.1018 8.31841 14.0909 8.30398 14.083L3.47298 11.471C3.52836 11.4327 3.57265 11.3816 3.60398 11.322ZM2.00398 10.912L3.00398 11.494C3.01598 11.501 3.02998 11.501 3.04198 11.507L8.15498 14.277L7.12098 16.677L0.858976 13.163L2.00398 10.912ZM0.859978 18.512V13.442L7.05998 16.921V21.64L0.859978 18.512ZM7.30398 21.63V16.877L8.33698 14.477L9.68498 16.057V20.348L9.35298 20.526V18.268C9.35261 18.2478 9.34708 18.228 9.33694 18.2105C9.32679 18.193 9.31235 18.1784 9.29498 18.168C9.27706 18.1576 9.2569 18.1516 9.2362 18.1506C9.2155 18.1495 9.19485 18.1535 9.17598 18.162L7.81198 18.822C7.79152 18.8317 7.7742 18.847 7.762 18.8661C7.74981 18.8852 7.74321 18.9073 7.74298 18.93L7.74998 21.39L7.30398 21.63ZM7.99798 21.257V20.93C8.00684 20.9285 8.01555 20.9262 8.02398 20.923L9.11098 20.361V20.661L7.99798 21.257ZM7.99198 19.002L9.11098 18.461V19.511L7.99698 20.111L7.99198 19.002ZM7.99198 20.381H7.99898L9.10698 19.781V20.088L7.99298 20.665L7.99198 20.381ZM10.51 17.72L11.629 17.179V18.271L10.513 18.825L10.51 17.72ZM10.51 19.093L11.625 18.54V18.808L10.511 19.392L10.51 19.093ZM10.51 19.663L11.624 19.08V19.303L10.511 19.903L10.51 19.663ZM11.869 19.221V16.986C11.8687 16.9658 11.8632 16.9459 11.8531 16.9284C11.8429 16.9109 11.8284 16.8963 11.811 16.886C11.7931 16.8751 11.7727 16.8688 11.7517 16.8678C11.7308 16.8667 11.7099 16.8709 11.691 16.88L10.327 17.54C10.3066 17.5497 10.2893 17.565 10.2773 17.5841C10.2652 17.6032 10.2589 17.6254 10.259 17.648L10.266 20.035L9.92398 20.218V16.032L10.753 12.993L12.106 14.537L12.094 16.27L12.074 19.255C12.0123 19.2279 11.9452 19.216 11.878 19.22L11.869 19.221ZM12.31 19.535C12.31 19.525 12.321 19.519 12.321 19.508L12.34 16.644L19.576 20.312L19.66 28.889L12.311 25.179L12.335 19.631C12.3339 19.5978 12.3285 19.5648 12.319 19.533L12.31 19.535ZM29.113 20.577L31.09 19.495V20.37L29.115 21.47L29.113 20.577ZM31.09 21.517L29.118 22.617V21.746L31.092 20.646V21.518L31.09 21.517ZM29.12 22.888L31.09 21.788V22.661L29.122 23.756L29.12 22.888ZM29.12 24.035L31.087 22.941V23.373L29.121 24.399L29.12 24.035ZM31.46 23.179L31.333 23.245V19.291C31.3321 19.2705 31.3261 19.2506 31.3154 19.2331C31.3047 19.2156 31.2898 19.2011 31.272 19.191C31.2531 19.1812 31.2322 19.1761 31.211 19.1761C31.1897 19.1761 31.1688 19.1812 31.15 19.191L28.928 20.407C28.9089 20.4173 28.8929 20.4326 28.8818 20.4513C28.8707 20.47 28.8649 20.4913 28.865 20.513L28.876 24.532L28.365 24.799V19.754L31.465 17.966V23.177L31.46 23.179ZM32.319 21.388V14.442L32.955 14.808L33.101 21.751L32.319 21.388ZM34.73 17.001L37.178 15.401V18.71C37.1788 18.7305 37.1848 18.7505 37.1954 18.768C37.2061 18.7855 37.2211 18.7999 37.239 18.81L37.852 19.162L34.817 20.89L34.73 17.001ZM38.096 19.025L37.423 18.64V15.24L38.285 14.677L38.32 18.899L38.096 19.025ZM38.978 18.525L38.563 18.761L38.528 14.454C38.5269 14.4331 38.5203 14.4128 38.5089 14.3953C38.4975 14.3777 38.4817 14.3635 38.463 14.354C38.4432 14.3439 38.4212 14.3392 38.399 14.3404C38.3769 14.3417 38.3555 14.3488 38.337 14.361L34.537 16.846C34.5204 16.8569 34.5068 16.8718 34.4974 16.8892C34.488 16.9067 34.483 16.9262 34.483 16.946L34.574 21.035L33.346 21.735L33.204 14.777L36.342 10.685L38.542 10.985L38.982 11.228V18.521L38.978 18.525Z" fill="black"/>
<path d="M5.71198 17.541L1.72498 15.454C1.70623 15.4442 1.68527 15.4394 1.66413 15.44C1.64298 15.4407 1.62236 15.4468 1.60427 15.4578C1.58617 15.4687 1.57121 15.4842 1.56082 15.5026C1.55044 15.521 1.54498 15.5418 1.54498 15.563V17.608C1.54516 17.6303 1.5514 17.6521 1.56302 17.6712C1.57465 17.6902 1.59123 17.7057 1.61098 17.716L5.59798 19.802C5.6156 19.8111 5.63514 19.8159 5.65498 19.816C5.68752 19.8157 5.71865 19.8027 5.74166 19.7797C5.76468 19.7567 5.77772 19.7255 5.77798 19.693V17.65C5.77809 17.6275 5.77199 17.6054 5.76034 17.5862C5.74869 17.567 5.73196 17.5513 5.71198 17.541ZM5.53198 18.426L5.04998 18.176L5.05798 17.476L5.53198 17.724V18.426ZM3.13198 17.183L2.50598 16.86V16.139L3.14098 16.471L3.13198 17.183ZM3.38498 16.599L3.95798 16.899L3.94998 17.607L3.37698 17.307L3.38498 16.599ZM3.12898 17.458L3.11998 18.228L2.50598 17.906V17.135L3.12898 17.458ZM3.37298 17.584L3.94598 17.884L3.93698 18.658L3.36398 18.358L3.37298 17.584ZM4.19098 18.007L4.80398 18.325L4.79498 19.104L4.18098 18.783L4.19098 18.007ZM4.19098 17.732L4.19898 17.026L4.81198 17.347L4.80398 18.047L4.19098 17.732ZM2.25698 16.009V16.731L1.78798 16.488V15.763L2.25698 16.009ZM1.78798 16.765L2.25698 17.007V17.776L1.78798 17.531V16.765ZM5.03598 19.23L5.04498 18.45L5.52998 18.701V19.489L5.03598 19.23Z" fill="black"/>
<path d="M13.581 24.326L17.569 26.412C17.5877 26.4218 17.6087 26.4266 17.6298 26.426C17.651 26.4253 17.6716 26.4192 17.6897 26.4082C17.7078 26.3973 17.7227 26.3818 17.7331 26.3634C17.7435 26.345 17.749 26.3242 17.749 26.303V25.056C17.7488 25.0337 17.7425 25.0119 17.7309 24.9929C17.7193 24.9738 17.7027 24.9583 17.683 24.948L13.695 22.861C13.6768 22.8503 13.6561 22.8446 13.635 22.8446C13.6139 22.8446 13.5931 22.8503 13.575 22.861C13.5576 22.8714 13.5431 22.8861 13.5328 22.9035C13.5225 22.921 13.5167 22.9407 13.516 22.961V24.209C13.5142 24.2327 13.5194 24.2564 13.531 24.2772C13.5425 24.298 13.5599 24.315 13.581 24.326ZM14.903 23.77L16.257 24.479L16.238 25.44L14.877 24.728C14.877 24.723 14.883 24.72 14.883 24.715L14.903 23.77ZM17.503 26.101L16.482 25.567L16.501 24.607L17.501 25.132L17.503 26.101ZM13.761 23.172L14.661 23.642L14.641 24.603L13.763 24.143V23.171L13.761 23.172Z" fill="black"/>
<path d="M13.998 20.31L17.985 22.396C18.0032 22.4065 18.0239 22.4121 18.045 22.4121C18.066 22.4121 18.0867 22.4065 18.105 22.396C18.1223 22.3855 18.1368 22.3709 18.1471 22.3535C18.1574 22.336 18.1632 22.3162 18.164 22.296V21.049C18.164 21.0265 18.1578 21.0045 18.1462 20.9853C18.1345 20.9661 18.1179 20.9504 18.098 20.94L14.11 18.853C14.0917 18.8426 14.071 18.8371 14.05 18.8371C14.0289 18.8371 14.0082 18.8426 13.99 18.853C13.9726 18.8635 13.9581 18.8781 13.9478 18.8955C13.9375 18.913 13.9317 18.9327 13.931 18.953V20.202C13.9314 20.2244 13.9378 20.2462 13.9496 20.2652C13.9614 20.2842 13.9781 20.2997 13.998 20.31ZM15.298 20.71L15.318 19.75L16.671 20.458L16.652 21.418L15.298 20.71ZM17.917 22.08L16.895 21.546L16.914 20.586L17.914 21.111L17.917 22.08ZM14.175 19.151L15.075 19.622L15.055 20.582L14.175 20.122V19.151Z" fill="black"/>
<path d="M26.52 22.825C26.5017 22.8146 26.481 22.8091 26.46 22.8091C26.439 22.8091 26.4183 22.8146 26.4 22.825L22.412 24.912C22.3921 24.9224 22.3754 24.9381 22.3638 24.9573C22.3522 24.9765 22.346 24.9985 22.346 25.021V26.268C22.3457 26.2893 22.351 26.3102 22.3613 26.3288C22.3716 26.3474 22.3866 26.363 22.4048 26.374C22.423 26.3851 22.4437 26.3911 22.465 26.3916C22.4863 26.3922 22.5073 26.3871 22.526 26.377L26.514 24.291C26.534 24.2807 26.5507 24.265 26.5624 24.2458C26.574 24.2266 26.5801 24.2045 26.58 24.182V22.933C26.5804 22.9113 26.5751 22.8899 26.5646 22.8709C26.554 22.852 26.5386 22.8361 26.52 22.825ZM23.837 24.444L25.194 23.734L25.213 24.695L23.858 25.404L23.837 24.444ZM22.592 25.091L23.592 24.567L23.612 25.527L22.591 26.061L22.592 25.091ZM26.334 24.104L25.454 24.564L25.435 23.602L26.335 23.132L26.334 24.104Z" fill="black"/>
<path d="M26.163 20.162V18.913C26.162 18.8927 26.1561 18.8729 26.1456 18.8554C26.1351 18.838 26.1205 18.8234 26.103 18.813C26.0848 18.8025 26.0641 18.7969 26.043 18.7969C26.0219 18.7969 26.0012 18.8025 25.983 18.813L21.996 20.9C21.976 20.9103 21.9593 20.926 21.9476 20.9452C21.936 20.9644 21.9299 20.9865 21.93 21.009V22.256C21.9301 22.2772 21.9357 22.298 21.9462 22.3164C21.9567 22.3348 21.9718 22.3501 21.99 22.361C22.0083 22.3713 22.029 22.3768 22.05 22.3768C22.071 22.3768 22.0917 22.3713 22.11 22.361L26.097 20.272C26.117 20.2614 26.1337 20.2456 26.1453 20.2262C26.157 20.2068 26.1631 20.1846 26.163 20.162ZM24.775 19.714L24.794 20.675L23.439 21.384L23.42 20.423L24.775 19.714ZM22.175 21.075L23.175 20.55L23.193 21.51L22.172 22.044L22.175 21.075ZM25.917 20.087L25.037 20.547L25.018 19.585L25.918 19.115L25.917 20.087Z" fill="black"/>
<path d="M29.774 22.645L29.536 22.785C29.5174 22.7957 29.502 22.8112 29.4912 22.8298C29.4805 22.8484 29.4749 22.8695 29.475 22.891V23.208C29.4749 23.2294 29.4804 23.2504 29.4909 23.269C29.5015 23.2875 29.5166 23.3031 29.535 23.314C29.5542 23.3249 29.5759 23.3307 29.598 23.331C29.6186 23.3309 29.6388 23.3257 29.657 23.316L29.895 23.186C29.9144 23.1754 29.9305 23.1598 29.9418 23.1408C29.9531 23.1218 29.959 23.1001 29.959 23.078V22.751C29.9593 22.7293 29.9537 22.7079 29.9429 22.689C29.9321 22.6701 29.9165 22.6544 29.8976 22.6436C29.8788 22.6328 29.8574 22.6272 29.8356 22.6275C29.8139 22.6277 29.7926 22.6338 29.774 22.645Z" fill="black"/>
<path d="M30.771 22.177C30.7523 22.1662 30.7311 22.1605 30.7095 22.1605C30.6879 22.1605 30.6667 22.1662 30.648 22.177L30.411 22.317C30.3925 22.3278 30.3771 22.3433 30.3664 22.3619C30.3557 22.3805 30.35 22.4016 30.35 22.423V22.74C30.3501 22.7612 30.3557 22.782 30.3662 22.8004C30.3767 22.8188 30.3918 22.8342 30.41 22.845C30.4291 22.8564 30.4508 22.8626 30.473 22.863C30.4936 22.8629 30.5138 22.8578 30.532 22.848L30.769 22.718C30.7885 22.7076 30.8048 22.692 30.8161 22.673C30.8274 22.6539 30.8332 22.6321 30.833 22.61V22.283C30.833 22.2614 30.8272 22.2403 30.8163 22.2216C30.8054 22.203 30.7898 22.1876 30.771 22.177Z" fill="black"/>
<path d="M30.893 20.043C30.8852 20.0288 30.8748 20.0163 30.8622 20.0062C30.8496 19.996 30.8351 19.9885 30.8196 19.9839C30.8041 19.9794 30.7879 19.9779 30.7718 19.9796C30.7557 19.9814 30.7401 19.9863 30.726 19.994L29.49 20.665C29.466 20.6781 29.447 20.6988 29.4361 20.7239C29.4252 20.7489 29.4229 20.777 29.4297 20.8035C29.4364 20.83 29.4518 20.8534 29.4734 20.8702C29.495 20.887 29.5216 20.896 29.549 20.896C29.5696 20.896 29.5899 20.8908 29.608 20.881L30.844 20.21C30.8724 20.1942 30.8935 20.1678 30.9027 20.1366C30.9119 20.1053 30.9084 20.0717 30.893 20.043Z" fill="black"/>
<path d="M37.96 13.762L34.398 16.157C34.3817 16.1645 34.3672 16.1754 34.3556 16.189C34.344 16.2027 34.3355 16.2187 34.3307 16.236C34.3259 16.2532 34.325 16.2714 34.3279 16.289C34.3308 16.3067 34.3377 16.3235 34.3478 16.3383C34.3579 16.3531 34.3711 16.3655 34.3866 16.3746C34.402 16.3838 34.4192 16.3894 34.437 16.3912C34.4549 16.393 34.4729 16.3908 34.4898 16.3849C34.5067 16.379 34.5221 16.3695 34.535 16.357L38.097 13.962C38.1135 13.9547 38.1283 13.9439 38.1402 13.9303C38.152 13.9167 38.1608 13.9007 38.1658 13.8834C38.1708 13.866 38.1719 13.8478 38.169 13.8299C38.1662 13.8121 38.1595 13.7951 38.1493 13.7802C38.1392 13.7653 38.1258 13.7527 38.1103 13.7435C38.0948 13.7343 38.0774 13.7287 38.0594 13.7269C38.0414 13.7252 38.0233 13.7274 38.0063 13.7335C37.9893 13.7396 37.9738 13.7493 37.961 13.762H37.96Z" fill="black"/>
<path d="M8.83397 18.756L8.16697 19.083C8.14227 19.0954 8.12244 19.1157 8.11069 19.1407C8.09894 19.1657 8.09594 19.1939 8.10218 19.2208C8.10841 19.2477 8.12352 19.2717 8.14507 19.289C8.16662 19.3062 8.19335 19.3158 8.22097 19.316C8.23969 19.3156 8.25811 19.3112 8.27497 19.303L8.94197 18.977C8.97083 18.9624 8.99277 18.9371 9.00307 18.9064C9.01337 18.8758 9.01119 18.8423 8.997 18.8132C8.9828 18.7842 8.95773 18.7619 8.92722 18.7512C8.89671 18.7405 8.86321 18.7422 8.83397 18.756Z" fill="black"/>
<path d="M11.53 17.55C11.5156 17.5209 11.4903 17.4987 11.4596 17.4882C11.4288 17.4777 11.3952 17.4798 11.366 17.494L10.699 17.82C10.6743 17.8324 10.6545 17.8527 10.6427 17.8777C10.631 17.9027 10.628 17.9309 10.6342 17.9578C10.6405 17.9847 10.6556 18.0087 10.6771 18.026C10.6987 18.0433 10.7254 18.0528 10.753 18.053C10.7717 18.0529 10.7901 18.0489 10.807 18.041L11.474 17.714C11.5031 17.6996 11.5253 17.6743 11.5358 17.6435C11.5463 17.6128 11.5442 17.5792 11.53 17.55Z" fill="black"/>
<path d="M18.734 13.779L18.744 13.774C18.744 14.198 18.744 14.409 18.744 14.832C18.744 15.145 18.744 15.616 19.13 15.432C19.584 15.217 19.805 15.109 20.252 14.879H20.26C20.622 14.687 20.621 14.253 20.621 13.904C20.621 13.747 20.621 13.668 20.621 13.511C20.6672 13.44 20.6928 13.3577 20.695 13.273C20.67 13.103 20.657 13.018 20.632 12.849L20.779 12.772L20.879 12.718C20.855 12.903 20.845 12.996 20.821 13.181C20.8214 13.1874 20.8214 13.1937 20.821 13.2C20.8174 13.231 20.8224 13.2625 20.8355 13.2909C20.8485 13.3192 20.8691 13.3435 20.895 13.361C20.895 13.521 20.895 13.6 20.895 13.761C20.895 14.054 20.895 14.542 21.29 14.335C21.74 14.089 21.959 13.965 22.405 13.702C22.772 13.486 22.771 13.051 22.77 12.702C22.77 12.279 22.77 12.067 22.77 11.644L22.779 11.639C22.8373 11.5958 22.8848 11.5396 22.9178 11.4749C22.9508 11.4101 22.9683 11.3386 22.969 11.266C22.969 11.072 22.969 10.974 22.969 10.78C22.969 10.648 22.896 10.58 22.801 10.621C22.5493 10.7172 22.2854 10.7777 22.017 10.801C21.702 10.852 21.366 10.909 21.045 10.943C20.724 10.977 20.407 11.048 20.087 11.107C19.824 11.1346 19.5673 11.2049 19.327 11.315L19.301 11.329C19.1811 11.3897 19.0781 11.479 19.001 11.589C18.9188 11.7056 18.8566 11.835 18.817 11.972C18.775 12.138 18.751 12.365 18.857 12.432C18.8697 12.4395 18.8842 12.4434 18.899 12.4434C18.9137 12.4434 18.9282 12.4395 18.941 12.432C18.9951 12.3976 19.0398 12.3502 19.071 12.294C19.109 12.229 19.134 12.121 19.171 12.048C19.2031 11.9672 19.2616 11.8995 19.337 11.856C19.38 11.8336 19.4275 11.821 19.476 11.819C20.0067 11.7791 20.535 11.7124 21.059 11.619C20.797 11.7604 20.535 11.8984 20.273 12.033L20.396 11.921L20.57 11.766C20.248 11.826 20.088 11.838 19.77 11.888C19.298 12.283 19.233 12.357 18.702 12.8C18.6735 12.8221 18.6485 12.8484 18.628 12.878C18.5776 12.9514 18.5502 13.038 18.549 13.127C18.549 13.321 18.549 13.419 18.549 13.613C18.542 13.75 18.628 13.827 18.734 13.779ZM19.508 11.619C19.4458 11.6223 19.3851 11.639 19.33 11.668C19.2136 11.7376 19.1228 11.8428 19.071 11.968C19.05 12.015 19.033 12.068 19.018 12.108C19.009 12.134 18.997 12.173 18.991 12.183C18.9783 12.2061 18.9601 12.2257 18.938 12.24H18.933C18.876 12.202 18.926 12.001 18.933 11.977C18.963 11.8768 19.0093 11.7822 19.07 11.697C19.1316 11.6157 19.2114 11.55 19.303 11.505L19.326 11.492C19.5219 11.3992 19.7316 11.3391 19.947 11.314L20.057 11.294L20.317 11.245C20.545 11.201 20.781 11.155 21.01 11.131C21.21 11.11 21.41 11.078 21.603 11.047C21.73 11.027 21.858 11.006 21.984 10.989C22.078 10.977 22.157 10.965 22.225 10.953C22.001 11.084 21.776 11.212 21.55 11.338L21.117 11.41C20.5842 11.5072 20.0469 11.5769 19.507 11.619H19.508ZM18.732 12.954C19.401 12.654 20.082 12.316 20.753 11.961C21.424 11.606 22.106 11.219 22.781 10.811C22.815 10.792 22.842 10.811 22.842 10.846C22.842 11.041 22.842 11.138 22.842 11.333C22.8401 11.3579 22.8326 11.3821 22.8202 11.4037C22.8077 11.4253 22.7905 11.4439 22.77 11.458C22.7524 11.4679 22.736 11.4796 22.721 11.493L22.702 11.505L22.642 11.54C22.642 12.031 22.642 12.277 22.642 12.768C22.642 13.2 22.621 13.389 22.397 13.52C21.952 13.781 21.733 13.91 21.28 14.154C21.061 14.271 21.02 14.098 21.019 13.693C21.019 13.488 21.019 13.385 21.019 13.179H20.979C20.9698 13.1783 20.9612 13.174 20.9551 13.1671C20.9489 13.1602 20.9457 13.1512 20.946 13.142C20.98 12.867 20.997 12.73 21.031 12.456L20.777 12.591L20.477 12.75C20.513 12.989 20.532 13.11 20.568 13.35C20.5641 13.3747 20.553 13.3977 20.536 13.416L20.494 13.459C20.494 13.664 20.494 13.767 20.494 13.973C20.5018 14.1301 20.4908 14.2876 20.461 14.442C20.4492 14.4969 20.425 14.5484 20.3904 14.5926C20.3557 14.6368 20.3115 14.6725 20.261 14.697C20.261 14.734 20.261 14.752 20.261 14.789L20.254 14.699C19.808 14.928 19.589 15.036 19.136 15.249C18.91 15.355 18.872 15.186 18.871 14.766C18.871 14.275 18.871 14.03 18.871 13.539L18.811 13.566L18.791 13.574C18.7738 13.5769 18.7572 13.5826 18.742 13.591C18.7341 13.5953 18.7251 13.5973 18.7162 13.5969C18.7072 13.5964 18.6985 13.5935 18.691 13.5885C18.6836 13.5834 18.6777 13.5764 18.674 13.5682C18.6703 13.56 18.6689 13.5509 18.67 13.542C18.67 13.348 18.67 13.25 18.67 13.056C18.6709 13.0353 18.677 13.0152 18.6877 12.9974C18.6983 12.9796 18.7132 12.9647 18.731 12.954H18.732Z" fill="black"/>
<path d="M22.027 10.506C22.0435 10.4968 22.0587 10.4854 22.072 10.472C22.136 10.407 22.282 10.294 22.342 10.314C22.351 10.314 22.38 10.328 22.38 10.436C22.38 10.544 22.443 10.579 22.521 10.536C22.563 10.506 22.5975 10.4666 22.6216 10.4209C22.6457 10.3753 22.6589 10.3246 22.66 10.273C22.66 10.031 22.576 9.953 22.506 9.93C22.306 9.866 22.017 10.152 21.984 10.185C21.541 10.554 21.484 10.597 21.042 10.948C21.352 10.86 21.395 10.889 21.705 10.792C21.855 10.651 21.877 10.645 22.027 10.506Z" fill="black"/>
<path d="M19.301 14.947C19.609 14.8 19.7629 14.724 20.0709 14.568L20.1 14.554C20.317 14.439 20.337 14.359 20.336 13.923C20.336 13.613 20.336 13.458 20.336 13.149C20.336 12.726 20.3189 12.649 20.0749 12.772C19.7539 12.934 19.5939 13.014 19.2749 13.166L19.2089 13.199C19.0289 13.299 19.0229 13.366 19.0239 13.799C19.0239 14.108 19.0239 14.263 19.0239 14.573C19.0269 15.014 19.061 15.063 19.301 14.947ZM19.126 13.384C19.1484 13.3605 19.1757 13.3421 19.2059 13.33L19.268 13.299C19.589 13.147 19.7469 13.068 20.0679 12.899C20.2399 12.812 20.239 12.812 20.241 13.191C20.241 13.346 20.241 13.423 20.241 13.578C20.241 13.733 20.241 13.81 20.241 13.966C20.241 14.341 20.241 14.341 20.095 14.418L20.0679 14.431C19.7589 14.588 19.6079 14.662 19.2999 14.81C19.1089 14.902 19.109 14.902 19.108 14.517C19.108 14.208 19.108 14.053 19.108 13.743C19.1047 13.6233 19.1121 13.5035 19.13 13.385L19.126 13.384Z" fill="black"/>
<path d="M19.287 14.62C19.356 14.507 19.693 13.785 19.708 13.755C19.7117 13.7495 19.7137 13.7431 19.7137 13.7365C19.7137 13.7299 19.7117 13.7234 19.708 13.718C19.701 13.712 19.689 13.718 19.683 13.734C19.677 13.75 19.335 14.482 19.267 14.59C19.2638 14.5958 19.2622 14.6024 19.2622 14.609C19.2622 14.6156 19.2638 14.6221 19.267 14.628C19.269 14.6294 19.2715 14.6302 19.274 14.6302C19.2765 14.6302 19.279 14.6294 19.281 14.628C19.2835 14.6258 19.2856 14.623 19.287 14.62Z" fill="black"/>
<path d="M19.334 14.686C19.3358 14.6879 19.3383 14.6889 19.341 14.6889C19.3436 14.6889 19.3461 14.6879 19.348 14.686C19.3526 14.6835 19.3564 14.6796 19.359 14.675C19.428 14.561 19.765 13.84 19.78 13.808C19.7833 13.8026 19.7851 13.7964 19.7851 13.79C19.7851 13.7837 19.7833 13.7774 19.78 13.772C19.772 13.766 19.762 13.772 19.755 13.787C19.748 13.802 19.4079 14.534 19.3399 14.644C19.3352 14.6498 19.3322 14.6568 19.3311 14.6642C19.33 14.6716 19.331 14.6792 19.334 14.686Z" fill="black"/>
<path d="M21.383 13.95L21.448 13.915C21.763 13.742 21.921 13.652 22.236 13.468C22.487 13.323 22.509 13.258 22.508 12.791C22.508 12.477 22.508 12.32 22.508 12.006C22.508 11.565 22.434 11.54 22.247 11.639L22.162 11.686C21.835 11.877 21.747 11.93 21.418 12.111C21.168 12.249 21.16 12.318 21.161 12.769C21.161 13.083 21.161 13.239 21.161 13.553C21.164 14.021 21.192 14.051 21.383 13.95ZM21.27 12.35C21.284 12.31 21.386 12.25 21.419 12.236C21.706 12.078 21.806 12.02 22.047 11.88L22.164 11.812C22.193 11.794 22.22 11.78 22.245 11.767C22.375 11.698 22.415 11.677 22.416 12.05C22.416 12.364 22.416 12.521 22.416 12.835C22.4225 12.9595 22.4144 13.0844 22.392 13.207C22.376 13.247 22.302 13.295 22.23 13.335C21.916 13.518 21.762 13.605 21.444 13.781L21.38 13.816C21.354 13.83 21.28 13.867 21.274 13.851C21.2522 13.7363 21.2441 13.6195 21.25 13.503C21.25 13.189 21.25 13.032 21.25 12.718C21.2441 12.5966 21.2508 12.475 21.27 12.355V12.35Z" fill="black"/>
<path d="M22.245 12.6C22.2495 12.5973 22.2533 12.5936 22.256 12.589C22.2591 12.5832 22.2607 12.5766 22.2607 12.57C22.2607 12.5634 22.2591 12.5569 22.256 12.551C22.1775 12.4461 22.1054 12.3366 22.04 12.223C22.035 12.212 22.024 12.213 22.016 12.223C22.0115 12.2283 22.0085 12.2347 22.0071 12.2415C22.0057 12.2483 22.006 12.2553 22.008 12.262C22.0756 12.3773 22.149 12.4892 22.228 12.597C22.2289 12.5984 22.2301 12.5995 22.2314 12.6004C22.2328 12.6013 22.2343 12.6018 22.2359 12.6021C22.2375 12.6024 22.2391 12.6024 22.2407 12.602C22.2422 12.6016 22.2437 12.601 22.245 12.6Z" fill="black"/>
<path d="M22.164 12.73C22.169 12.7275 22.1729 12.7232 22.175 12.718C22.1782 12.7122 22.1799 12.7057 22.1799 12.699C22.1799 12.6924 22.1782 12.6858 22.175 12.68C22.097 12.5749 22.0245 12.4657 21.958 12.353C21.958 12.342 21.943 12.342 21.934 12.353C21.9299 12.3585 21.927 12.3649 21.9256 12.3716C21.9243 12.3784 21.9244 12.3853 21.926 12.392C21.9936 12.507 22.0671 12.6185 22.146 12.726L22.1493 12.73L22.154 12.7322H22.1593L22.164 12.73Z" fill="black"/>
<path d="M52.284 4.58501H53.604V8.40901L53.362 8.43601C52.962 8.49001 52.339 8.49001 51.746 8.59801C51.2502 8.64497 50.7669 8.78045 50.319 8.99802C50.0907 9.17717 49.9065 9.40623 49.7804 9.66763C49.6544 9.92904 49.5899 10.2158 49.592 10.506V15.219H52.743V19.019H49.591V25.59H45.204V11.102C45.204 9.54001 45.312 6.95501 46.904 5.82301C48.5537 4.93504 50.412 4.50742 52.284 4.58501ZM55.758 7.00902C55.7598 7.32799 55.8248 7.64343 55.9492 7.93713C56.0737 8.23082 56.2551 8.49694 56.483 8.72011C56.7109 8.94327 56.9808 9.11906 57.2771 9.2373C57.5733 9.35555 57.89 9.41391 58.209 9.40901C58.8546 9.41522 59.4768 9.16682 59.9406 8.71761C60.4044 8.26839 60.6725 7.65455 60.687 7.00902C60.6695 6.35898 60.4013 5.74088 59.9385 5.28406C59.4757 4.82723 58.8542 4.56707 58.204 4.55801C57.557 4.56582 56.9388 4.82657 56.4816 5.28447C56.0245 5.74236 55.7647 6.36202 55.758 7.00902ZM56.027 9.99802V25.591H60.39V9.99802H56.027ZM62.868 10.133C62.868 15.196 62.841 20.259 62.841 25.349V25.591H67.204V17.619C67.2352 16.6414 67.6466 15.7145 68.3507 15.0355C69.0547 14.3565 69.9959 13.9789 70.974 13.983C71.9047 13.988 72.8016 14.3328 73.4959 14.9527C74.1901 15.5726 74.634 16.4248 74.744 17.349C74.771 17.618 74.744 17.915 74.744 18.184L74.771 20.15V25.536L79.134 25.59V17.484C79.0974 16.4878 78.8644 15.5087 78.4484 14.6028C78.0324 13.6969 77.4417 12.882 76.71 12.205C75.9557 11.4572 75.06 10.8673 74.0751 10.4696C73.0902 10.072 72.036 9.87459 70.974 9.88902C69.6474 9.88244 68.3377 10.1869 67.15 10.778V9.96702H62.868V10.133ZM81.289 17.755C81.3625 15.672 82.2416 13.6988 83.7412 12.2512C85.2407 10.8036 87.2437 9.99459 89.328 9.99459C91.4123 9.99459 93.4152 10.8036 94.9148 12.2512C96.4144 13.6988 97.2935 15.672 97.367 17.755C97.3685 18.2965 97.3139 18.8368 97.204 19.367L85.974 19.394C86.2815 20.0226 86.7609 20.5512 87.3567 20.9183C87.9525 21.2854 88.6402 21.476 89.34 21.468C90.3273 21.4711 91.2758 21.084 91.979 20.391H96.879C96.2894 21.9103 95.2531 23.2151 93.9069 24.1335C92.5606 25.0518 90.9676 25.5405 89.338 25.535C88.3052 25.5603 87.2775 25.3817 86.3137 25.0096C85.3499 24.6375 84.4689 24.0791 83.721 23.3663C82.9731 22.6536 82.373 21.8004 81.9551 20.8556C81.5371 19.9108 81.3094 18.8929 81.285 17.86L81.289 17.755ZM86.11 15.897L85.975 16.274H92.789L92.574 15.897C92.2395 15.3384 91.766 14.876 91.1995 14.5549C90.6331 14.2338 89.9931 14.0651 89.342 14.0651C88.6909 14.0651 88.0509 14.2338 87.4844 14.5549C86.918 14.876 86.4444 15.3384 86.11 15.897ZM111.372 23.222C112.435 24.2601 113.762 24.9873 115.209 25.3248C116.655 25.6623 118.167 25.5971 119.58 25.1365C120.992 24.6758 122.251 23.8371 123.221 22.7115C124.191 21.5858 124.834 20.2161 125.08 18.751L125.107 18.451H120.717L120.663 18.666C120.468 19.4736 119.999 20.1886 119.336 20.6895C118.673 21.1903 117.857 21.446 117.027 21.413C116.362 21.3961 115.715 21.2006 115.152 20.8469C114.589 20.4932 114.132 19.9944 113.829 19.403C113.525 18.8116 113.387 18.1494 113.428 17.4859C113.469 16.8225 113.688 16.1824 114.062 15.6328C114.436 15.0833 114.951 14.6446 115.553 14.3629C116.155 14.0812 116.822 13.9669 117.483 14.032C118.145 14.0971 118.776 14.3392 119.312 14.7328C119.848 15.1265 120.267 15.6571 120.527 16.269L120.581 16.431H125.052L124.998 16.131C124.542 14.2188 123.409 12.5364 121.808 11.3946C120.208 10.2528 118.249 9.72863 116.292 9.91904C114.335 10.1095 112.514 11.0015 111.164 12.4305C109.813 13.8595 109.026 15.7287 108.947 17.693C108.933 18.7341 109.142 19.7662 109.561 20.7197C109.979 21.6732 110.597 22.5271 111.372 23.222ZM127.262 9.99902V25.592H131.544L131.598 17.459C131.614 16.474 132.02 15.5356 132.727 14.8491C133.433 14.1626 134.383 13.784 135.368 13.796H136.499L136.526 9.70202H135.368C134.061 9.68625 132.768 9.98172 131.598 10.564V9.99802H127.261L127.262 9.99902ZM138.681 7.01002C138.683 7.32899 138.748 7.64443 138.872 7.93813C138.997 8.23182 139.178 8.49794 139.406 8.72111C139.634 8.94427 139.904 9.12006 140.2 9.2383C140.496 9.35655 140.813 9.41491 141.132 9.41001C141.778 9.41622 142.4 9.16782 142.864 8.71861C143.327 8.26939 143.596 7.65555 143.61 7.01002C143.593 6.36083 143.325 5.74346 142.863 5.28677C142.402 4.83008 141.781 4.56935 141.132 4.55901C140.484 4.56526 139.865 4.82519 139.406 5.28304C138.948 5.74088 138.687 6.36017 138.68 7.00802L138.681 7.01002ZM138.95 9.99902V25.592H143.313V9.99802L138.95 9.99902ZM145.791 25.592H150.154V24.73C151.321 25.2912 152.602 25.5768 153.897 25.565C154.954 25.6063 156.008 25.4339 156.996 25.058C157.985 24.6821 158.887 24.1106 159.649 23.3775C160.412 22.6445 161.018 21.7652 161.432 20.7922C161.846 19.8191 162.06 18.7725 162.06 17.715C162.06 16.6575 161.846 15.6109 161.432 14.6379C161.018 13.6649 160.412 12.7855 159.649 12.0525C158.887 11.3195 157.985 10.7479 156.996 10.372C156.008 9.99614 154.954 9.82369 153.897 9.86501C152.57 9.85844 151.261 10.1629 150.073 10.754V4.55801H145.791V4.82702C145.791 9.10902 145.764 13.418 145.764 17.7C145.764 20.259 145.791 22.79 145.791 25.349V25.592ZM157.691 17.701C157.683 18.7036 157.279 19.6625 156.567 20.3686C155.856 21.0748 154.894 21.471 153.891 21.471C152.971 21.4825 152.08 21.1531 151.389 20.5464C150.698 19.9396 150.256 19.0984 150.148 18.185V17.242C150.248 16.4135 150.628 15.644 151.225 15.061C151.575 14.7106 151.99 14.4331 152.448 14.2442C152.906 14.0554 153.396 13.9592 153.891 13.961C154.889 13.9601 155.847 14.3517 156.559 15.0513C157.27 15.7509 157.678 16.7023 157.694 17.7L157.691 17.701ZM163.131 20.852C163.131 24.622 167.898 25.592 170.806 25.592C173.688 25.592 177.997 24.649 177.997 21.014C178.007 20.5614 177.926 20.1114 177.76 19.6905C177.593 19.2696 177.344 18.8862 177.027 18.563C176.452 17.8853 175.735 17.3427 174.927 16.974C174.351 16.6768 173.748 16.4334 173.127 16.247C172.508 16.032 171.888 15.87 171.296 15.655C170.973 15.547 170.569 15.44 170.138 15.278C169.778 15.1722 169.427 15.0384 169.088 14.878C168.953 14.797 168.819 14.716 168.711 14.636C168.67 14.6105 168.636 14.5749 168.612 14.5325C168.588 14.4902 168.576 14.4425 168.576 14.394C168.576 14.1787 168.791 13.99 169.222 13.828C170.141 13.5369 171.135 13.5847 172.022 13.963C172.534 14.205 172.857 14.529 172.857 14.963V15.663L177.757 15.636V14.882C177.743 14.1444 177.537 13.4232 177.159 12.7893C176.782 12.1554 176.246 11.6308 175.604 11.267C174.022 10.315 172.197 9.84678 170.352 9.92001C167.443 9.92001 163.269 11.132 163.269 14.687C163.267 15.3041 163.435 15.9099 163.754 16.438C164.034 16.9135 164.388 17.3409 164.804 17.704C165.814 18.4178 166.933 18.9635 168.117 19.32C168.683 19.509 169.302 19.643 169.868 19.859C170.191 19.967 170.622 20.074 171.053 20.209C171.484 20.371 171.861 20.509 172.153 20.64C172.453 20.802 172.638 20.99 172.638 21.206C172.638 21.448 172.449 21.606 171.965 21.745C171.558 21.8289 171.142 21.8652 170.726 21.853C170.024 21.8869 169.323 21.7579 168.679 21.476C168.509 21.3835 168.355 21.2655 168.221 21.126C168.086 20.991 168.006 20.884 168.006 20.776L167.979 19.833H163.104V19.941C163.131 20.241 163.131 20.533 163.131 20.857V20.852Z" fill="black"/>
</g>
<defs>
<clipPath id="clip0_2_3">
<rect width="178" height="30" fill="white"/>
</clipPath>
</defs>
</svg>
