<svg width="75" height="75" viewBox="0 0 75 75" fill="none" xmlns="http://www.w3.org/2000/svg">
<g id="Layer 6">
<path id="Vector" d="M70.55 48L59.75 37.1C59.6998 37.0373 59.6345 36.9883 59.5601 36.9577C59.4858 36.9271 59.4049 36.9159 59.325 36.925C59.2444 36.9281 59.1652 36.9473 59.0922 36.9817C59.0191 37.0161 58.9538 37.0648 58.9 37.125L51.7001 44.75C51.2346 45.2451 50.673 45.6401 50.0498 45.9109C49.4265 46.1817 48.7546 46.3226 48.075 46.325C47.3955 46.3226 46.7236 46.1817 46.1003 45.9109C45.4771 45.6401 44.9155 45.2451 44.4501 44.75L29 28.275C28.89 28.1766 28.7476 28.1222 28.6 28.1222C28.4525 28.1222 28.3101 28.1766 28.2 28.275L4.15005 47.025L1.05005 43L25 24.25C26.0993 23.3954 27.4786 22.983 28.8665 23.0941C30.2545 23.2051 31.5507 23.8315 32.5 24.85L47.925 41.325L55.0751 33.7C55.5867 33.1485 56.2051 32.7068 56.8927 32.4016C57.5803 32.0965 58.3228 31.9344 59.075 31.925C59.8275 31.9055 60.5758 32.042 61.2728 32.326C61.9698 32.61 62.6005 33.0352 63.125 33.575L73.925 44.475L70.55 48Z" fill="#F0F0F0"/>
<path id="Vector_2" d="M65.2 75H9.8C7.20088 75 4.70821 73.9675 2.87035 72.1296C1.0325 70.2918 0 67.7991 0 65.2V9.8C0 7.20088 1.0325 4.70821 2.87035 2.87035C4.70821 1.0325 7.20088 0 9.8 0H65.2C67.7991 0 70.2918 1.0325 72.1296 2.87035C73.9675 4.70821 75 7.20088 75 9.8V65.2C75 67.7991 73.9675 70.2918 72.1296 72.1296C70.2918 73.9675 67.7991 75 65.2 75ZM9.8 5C8.52696 5 7.30606 5.50571 6.40589 6.40589C5.50571 7.30606 5 8.52696 5 9.8V65.2C5 65.8303 5.12416 66.4545 5.36538 67.0369C5.6066 67.6192 5.96017 68.1484 6.40589 68.5941C6.85161 69.0398 7.38076 69.3934 7.96312 69.6346C8.54548 69.8758 9.16965 70 9.8 70H65.2C65.8303 70 66.4545 69.8758 67.0369 69.6346C67.6192 69.3934 68.1484 69.0398 68.5941 68.5941C69.0398 68.1484 69.3934 67.6192 69.6346 67.0369C69.8758 66.4545 70 65.8303 70 65.2V9.8C70 9.16965 69.8758 8.54548 69.6346 7.96312C69.3934 7.38076 69.0398 6.85161 68.5941 6.40589C68.1484 5.96017 67.6192 5.6066 67.0369 5.36538C66.4545 5.12416 65.8303 5 65.2 5H9.8Z" fill="#F0F0F0"/>
<path id="Vector_3" d="M48.325 27.075C51.0864 27.075 53.325 24.8364 53.325 22.075C53.325 19.3136 51.0864 17.075 48.325 17.075C45.5635 17.075 43.325 19.3136 43.325 22.075C43.325 24.8364 45.5635 27.075 48.325 27.075Z" fill="#F0F0F0"/>
<path id="Vector_4" d="M2.5 46.25L26.325 27.075L30.725 26.55L45.15 41.9501C45.15 41.9501 47.65 45.375 49.775 43.025L56.95 35.4C56.95 35.4 58.375 32.275 61.425 35.4C64.475 38.525 72.5 48.75 72.5 48.75L72.325 66.8251C72.325 66.8251 71.575 72.5001 64.225 72.5001C56.875 72.5001 9.225 71.725 9.225 71.725C9.225 71.725 2.5 73.375 2.5 65.2001C2.5 57.025 2.5 46.25 2.5 46.25Z" fill="#F0F0F0"/>
</g>
</svg>
