<svg width="101" height="101" viewBox="0 0 101 101" fill="none" xmlns="http://www.w3.org/2000/svg">
<g id="Layer 2">
<path id="Vector" d="M95.0074 64.64L80.4634 49.9613C80.3957 49.8768 80.3077 49.8109 80.2076 49.7697C80.1075 49.7285 79.9986 49.7133 79.8911 49.7257C79.7824 49.7298 79.6758 49.7557 79.5774 49.802C79.4791 49.8483 79.3911 49.9139 79.3187 49.995L69.6227 60.2633C68.9959 60.9301 68.2397 61.462 67.4004 61.8267C66.561 62.1913 65.6562 62.3811 64.7411 62.3843C63.8259 62.3811 62.9211 62.1913 62.0818 61.8267C61.2424 61.462 60.4863 60.9301 59.8594 60.2633L39.0534 38.077C38.9053 37.9445 38.7135 37.8713 38.5147 37.8713C38.316 37.8713 38.1242 37.9445 37.9761 38.077L5.58873 63.327L1.41406 57.9067L33.6667 32.6567C35.147 31.5058 37.0045 30.9504 38.8736 31.1C40.7427 31.2495 42.4882 32.0931 43.7667 33.4647L64.5391 55.651L74.1677 45.3827C74.8567 44.64 75.6895 44.0451 76.6155 43.6342C77.5415 43.2233 78.5414 43.0049 79.5544 42.9923C80.5676 42.966 81.5754 43.1499 82.514 43.5323C83.4527 43.9147 84.302 44.4874 85.0084 45.2143L99.5524 59.893L95.0074 64.64Z" fill="#F0F0F0"/>
<path id="Vector_2" d="M87.8027 101H13.1973C9.69718 101 6.34039 99.6096 3.86541 97.1346C1.39043 94.6596 0 91.3028 0 87.8027V13.1973C0 9.69718 1.39043 6.34039 3.86541 3.86541C6.34039 1.39043 9.69718 0 13.1973 0H87.8027C91.3028 0 94.6596 1.39043 97.1346 3.86541C99.6096 6.34039 101 9.69718 101 13.1973V87.8027C101 91.3028 99.6096 94.6596 97.1346 97.1346C94.6596 99.6096 91.3028 101 87.8027 101ZM13.1973 6.73333C11.483 6.73333 9.83883 7.41436 8.6266 8.6266C7.41436 9.83883 6.73333 11.483 6.73333 13.1973V87.8027C6.73333 88.6515 6.90053 89.4921 7.22538 90.2763C7.55022 91.0606 8.02636 91.7732 8.6266 92.3734C9.22683 92.9736 9.93942 93.4498 10.7237 93.7746C11.5079 94.0995 12.3485 94.2667 13.1973 94.2667H87.8027C88.6515 94.2667 89.4921 94.0995 90.2763 93.7746C91.0606 93.4498 91.7732 92.9736 92.3734 92.3734C92.9736 91.7732 93.4498 91.0606 93.7746 90.2763C94.0995 89.4921 94.2667 88.6515 94.2667 87.8027V13.1973C94.2667 12.3485 94.0995 11.5079 93.7746 10.7237C93.4498 9.93942 92.9736 9.22683 92.3734 8.6266C91.7732 8.02636 91.0606 7.55022 90.2763 7.22538C89.4921 6.90053 88.6515 6.73333 87.8027 6.73333H13.1973Z" fill="#F0F0F0"/>
<path id="Vector_3" d="M65.0776 36.461C68.7963 36.461 71.8109 33.4464 71.8109 29.7277C71.8109 26.0089 68.7963 22.9943 65.0776 22.9943C61.3589 22.9943 58.3442 26.0089 58.3442 29.7277C58.3442 33.4464 61.3589 36.461 65.0776 36.461Z" fill="#F0F0F0"/>
<path id="Vector_4" d="M3.3667 62.2834L35.451 36.461L41.3764 35.754L60.802 56.4927C60.802 56.4927 64.1687 61.105 67.0304 57.9404L76.6927 47.672C76.6927 47.672 78.6117 43.4637 82.719 47.672C86.8264 51.8804 97.6334 65.65 97.6334 65.65L97.3977 89.991C97.3977 89.991 96.3877 97.6334 86.4897 97.6334C76.5917 97.6334 12.423 96.5897 12.423 96.5897C12.423 96.5897 3.3667 98.8117 3.3667 87.8027C3.3667 76.7937 3.3667 62.2834 3.3667 62.2834Z" fill="#F0F0F0"/>
</g>
</svg>
