<svg width="197" height="197" viewBox="0 0 197 197" fill="none" xmlns="http://www.w3.org/2000/svg">
<g id="Layer 4">
<path id="Vector" d="M185.311 126.08L156.943 97.4493C156.811 97.2845 156.64 97.1559 156.444 97.0755C156.249 96.9951 156.037 96.9655 155.827 96.9897C155.615 96.9976 155.407 97.0483 155.215 97.1385C155.023 97.2288 154.852 97.3568 154.71 97.515L135.798 117.543C134.576 118.844 133.101 119.881 131.464 120.593C129.827 121.304 128.062 121.674 126.277 121.68C124.492 121.674 122.727 121.304 121.09 120.593C119.453 119.881 117.978 118.844 116.755 117.543L76.1731 74.269C75.8842 74.0105 75.5101 73.8677 75.1225 73.8677C74.7348 73.8677 74.3607 74.0105 74.0718 74.269L10.9005 123.519L2.75781 112.947L65.6665 63.6967C68.5538 61.4518 72.1767 60.3687 75.8224 60.6603C79.4681 60.952 82.8727 62.5973 85.3665 65.2727L125.883 108.547L144.663 88.5186C146.007 87.07 147.632 85.9097 149.438 85.1082C151.244 84.3067 153.194 83.8808 155.17 83.8563C157.146 83.805 159.112 84.1636 160.943 84.9095C162.774 85.6554 164.43 86.7725 165.808 88.1903L194.176 116.821L185.311 126.08Z" fill="#F0F0F0"/>
<path id="Vector_2" d="M171.259 197H25.7413C18.9143 197 12.3669 194.288 7.53946 189.461C2.71203 184.633 0 178.086 0 171.259V25.7413C0 18.9143 2.71203 12.3669 7.53946 7.53946C12.3669 2.71203 18.9143 0 25.7413 0H171.259C178.086 0 184.633 2.71203 189.461 7.53946C194.288 12.3669 197 18.9143 197 25.7413V171.259C197 178.086 194.288 184.633 189.461 189.461C184.633 194.288 178.086 197 171.259 197ZM25.7413 13.1333C22.3975 13.1333 19.1906 14.4617 16.8261 16.8261C14.4617 19.1906 13.1333 22.3975 13.1333 25.7413V171.259C13.1333 172.914 13.4594 174.554 14.0931 176.084C14.7267 177.613 15.6554 179.003 16.8261 180.174C17.9969 181.345 19.3868 182.273 20.9165 182.907C22.4461 183.541 24.0856 183.867 25.7413 183.867H171.259C172.914 183.867 174.554 183.541 176.084 182.907C177.613 182.273 179.003 181.345 180.174 180.174C181.345 179.003 182.273 177.613 182.907 176.084C183.541 174.554 183.867 172.914 183.867 171.259V25.7413C183.867 24.0856 183.541 22.4461 182.907 20.9165C182.273 19.3868 181.345 17.9969 180.174 16.8261C179.003 15.6554 177.613 14.7267 176.084 14.0931C174.554 13.4594 172.914 13.1333 171.259 13.1333H25.7413Z" fill="#F0F0F0"/>
<path id="Vector_3" d="M126.933 71.1171C134.186 71.1171 140.066 65.2371 140.066 57.9838C140.066 50.7305 134.186 44.8505 126.933 44.8505C119.68 44.8505 113.8 50.7305 113.8 57.9838C113.8 65.2371 119.68 71.1171 126.933 71.1171Z" fill="#F0F0F0"/>
<path id="Vector_4" d="M6.56641 121.483L69.1467 71.117L80.7041 69.738L118.594 110.189C118.594 110.189 125.16 119.185 130.742 113.012L149.588 92.984C149.588 92.984 153.331 84.7756 161.343 92.984C169.354 101.192 190.433 128.05 190.433 128.05L189.973 175.527C189.973 175.527 188.003 190.433 168.697 190.433C149.391 190.433 24.2307 188.398 24.2307 188.398C24.2307 188.398 6.56641 192.732 6.56641 171.259C6.56641 149.786 6.56641 121.483 6.56641 121.483Z" fill="#F0F0F0"/>
</g>
</svg>
