<svg width="181" height="181" viewBox="0 0 181 181" fill="none" xmlns="http://www.w3.org/2000/svg">
<g id="Layer 3">
<path id="Vector" d="M170.26 115.84L144.196 89.5346C144.075 89.3832 143.917 89.265 143.738 89.1911C143.559 89.1173 143.363 89.0901 143.171 89.1123C142.976 89.1196 142.785 89.1661 142.609 89.2491C142.432 89.332 142.275 89.4496 142.145 89.5949L124.769 107.997C123.646 109.191 122.291 110.145 120.786 110.798C119.282 111.452 117.661 111.792 116.021 111.798C114.381 111.792 112.759 111.452 111.255 110.798C109.751 110.145 108.396 109.191 107.272 107.997L69.9864 68.237C69.7209 67.9995 69.3772 67.8682 69.021 67.8682C68.6648 67.8682 68.3212 67.9995 68.0557 68.237L10.015 113.487L2.53369 103.773L60.333 58.5233C62.9859 56.4607 66.3145 55.4656 69.6641 55.7335C73.0137 56.0015 76.1418 57.5132 78.433 59.9713L115.659 99.7309L132.914 81.3293C134.149 79.9983 135.641 78.9322 137.301 78.1958C138.96 77.4594 140.752 77.0681 142.567 77.0456C144.383 76.9985 146.189 77.3279 147.871 78.0133C149.553 78.6986 151.075 79.7249 152.341 81.0276L178.405 107.333L170.26 115.84Z" fill="#F0F0F0"/>
<path id="Vector_2" d="M157.349 181H23.6507C17.3781 181 11.3625 178.508 6.92712 174.073C2.49176 169.638 0 163.622 0 157.349V23.6507C0 17.3781 2.49176 11.3625 6.92712 6.92712C11.3625 2.49176 17.3781 0 23.6507 0H157.349C163.622 0 169.638 2.49176 174.073 6.92712C178.508 11.3625 181 17.3781 181 23.6507V157.349C181 163.622 178.508 169.638 174.073 174.073C169.638 178.508 163.622 181 157.349 181ZM23.6507 12.0667C20.5784 12.0667 17.632 13.2871 15.4595 15.4595C13.2871 17.632 12.0667 20.5784 12.0667 23.6507V157.349C12.0667 158.871 12.3663 160.377 12.9484 161.782C13.5306 163.188 14.3839 164.465 15.4595 165.54C16.5352 166.616 17.8122 167.469 19.2177 168.052C20.6231 168.634 22.1294 168.933 23.6507 168.933H157.349C158.871 168.933 160.377 168.634 161.782 168.052C163.188 167.469 164.465 166.616 165.54 165.54C166.616 164.465 167.469 163.188 168.052 161.782C168.634 160.377 168.933 158.871 168.933 157.349V23.6507C168.933 22.1294 168.634 20.6231 168.052 19.2177C167.469 17.8122 166.616 16.5352 165.54 15.4595C164.465 14.3839 163.188 13.5306 161.782 12.9484C160.377 12.3663 158.871 12.0667 157.349 12.0667H23.6507Z" fill="#F0F0F0"/>
<path id="Vector_3" d="M116.624 65.3412C123.289 65.3412 128.691 59.9387 128.691 53.2745C128.691 46.6103 123.289 41.2078 116.624 41.2078C109.96 41.2078 104.558 46.6103 104.558 53.2745C104.558 59.9387 109.96 65.3412 116.624 65.3412Z" fill="#F0F0F0"/>
<path id="Vector_4" d="M6.0332 111.617L63.5309 65.341L74.1495 64.074L108.962 101.239C108.962 101.239 114.995 109.505 120.124 103.834L137.439 85.432C137.439 85.432 140.878 77.8903 148.239 85.432C155.6 92.9736 174.967 117.65 174.967 117.65L174.544 161.271C174.544 161.271 172.734 174.967 154.996 174.967C137.258 174.967 22.2629 173.096 22.2629 173.096C22.2629 173.096 6.0332 177.078 6.0332 157.349C6.0332 137.62 6.0332 111.617 6.0332 111.617Z" fill="#F0F0F0"/>
</g>
</svg>
