<svg width="14" height="18" viewBox="0 0 14 18" fill="none" xmlns="http://www.w3.org/2000/svg">
<g clip-path="url(#clip0_117_120)">
<path d="M6.649 0C4.88622 0.00211713 3.19625 0.703315 1.94978 1.94979C0.703313 3.19626 0.00211713 4.88623 0 6.649C0.0397237 7.52837 0.230508 8.39435 0.563999 9.209C0.783506 9.70681 1.04058 10.1872 1.333 10.646L5.892 17.554C5.96715 17.689 6.07699 17.8014 6.21017 17.8797C6.34334 17.958 6.49502 17.9992 6.6495 17.9992C6.80398 17.9992 6.95565 17.958 7.08883 17.8797C7.22201 17.8014 7.33185 17.689 7.407 17.554L11.966 10.646C12.2586 10.1873 12.5156 9.70689 12.735 9.209C13.0685 8.39435 13.2593 7.52838 13.299 6.649C13.2969 4.88605 12.5955 3.19593 11.3489 1.94943C10.1022 0.702933 8.41195 0.00185251 6.649 0ZM12.013 8.906C11.813 9.3597 11.579 9.79762 11.313 10.216L6.754 17.124C6.664 17.261 6.635 17.261 6.546 17.124L1.987 10.216C1.72092 9.79729 1.48692 9.35904 1.287 8.905C0.995863 8.18609 0.82687 7.4236 0.786999 6.649C0.786999 5.09298 1.40513 3.60068 2.5054 2.5004C3.60568 1.40013 5.09797 0.782 6.654 0.782C8.21002 0.782 9.70232 1.40013 10.8026 2.5004C11.9029 3.60068 12.521 5.09298 12.521 6.649C12.4789 7.42432 12.3076 8.18716 12.014 8.906H12.013Z" fill="black"/>
<path d="M6.65309 3.12702C5.95577 3.12544 5.27366 3.33077 4.69309 3.71703C4.11252 4.10329 3.65959 4.65311 3.39164 5.29689C3.12369 5.94068 3.05277 6.64949 3.18784 7.3336C3.32291 8.01772 3.6579 8.64638 4.15042 9.14002C4.64294 9.63366 5.27084 9.97009 5.95464 10.1067C6.63845 10.2433 7.34742 10.174 7.99182 9.90753C8.63621 9.64105 9.18706 9.18937 9.57463 8.60968C9.96221 8.02999 10.1691 7.34834 10.1691 6.65102C10.1688 5.71786 9.79857 4.82289 9.13947 4.16229C8.48038 3.5017 7.58625 3.12941 6.65309 3.12702ZM6.65309 9.39302C6.11072 9.39421 5.58019 9.23446 5.12865 8.934C4.6771 8.63354 4.32484 8.20586 4.11646 7.70512C3.90808 7.20437 3.85295 6.65306 3.95803 6.12097C4.06312 5.58887 4.32369 5.09991 4.70679 4.71597C5.08988 4.33204 5.57827 4.07038 6.11014 3.96414C6.642 3.85789 7.19344 3.91181 7.69464 4.1191C8.19584 4.32638 8.62428 4.6777 8.92573 5.12858C9.22718 5.57946 9.38809 6.10964 9.38809 6.65202C9.3881 7.37794 9.10014 8.07422 8.5874 8.58808C8.07466 9.10195 7.37901 9.39143 6.65309 9.39302Z" fill="black"/>
</g>
<defs>
<clipPath id="clip0_117_120">
<rect width="13.299" height="18" fill="white"/>
</clipPath>
</defs>
</svg>
