<svg width="61" height="61" viewBox="0 0 61 61" fill="none" xmlns="http://www.w3.org/2000/svg">
<g clip-path="url(#clip0_34_8)">
<path d="M49.9 36.4V34.9H52V31.2H48.6C48.2 31.2 47.9 30.9 47.9 30.5C47.9 30.4 47.9 30.3 47.9 30.3L50 24.1C50.1 23.8 50.4 23.6 50.7 23.6H54.8C55.1 23.6 55.4 23.8 55.5 24.1L57.6 30.3C57.7 30.5 57.6 30.7 57.6 30.9C57.5 31.1 57.4 31.2 57.2 31.3C57.1 31.3 57.1 31.3 57 31.3H53.6V35H55.7V36.5H49.9V36.4ZM49.6 29.8H55.8L54.3 25H51.2L49.6 29.8Z" fill="#A0A9B2"/>
<path d="M59.3 26.5V14.9L30.5 1.79999L1.70005 14.9V26.5H0.300049V14.5C0.300049 14.2 0.500049 14 0.700049 13.8L30.2001 0.399988C30.3001 0.399988 30.4 0.299988 30.5 0.299988C30.6 0.299988 30.7 0.299988 30.8 0.399988L60.3 13.8C60.6 13.9 60.7001 14.2 60.7001 14.5V26.6H59.3V26.5Z" fill="#A0A9B2"/>
<path d="M59.2 54.5V48.3H46.2V54.5H44.7V39.3C44.7 39.1 44.8 38.9 44.9 38.8C45 38.7 45.2 38.6 45.4 38.6H60C60.4 38.6 60.7 38.9 60.7 39.3V54.5H59.2ZM46.2 46.8H59.2V40H46.2V46.8Z" fill="#A0A9B2"/>
<path d="M53.8 42.9H50.5V44.9H53.8V42.9Z" fill="#A0A9B2"/>
<path d="M30.5 22.4C27.1 22.4 24.2 20 23.7 16.6C23.6 16.2 23.6 15.8 23.6 15.4C23.6 11.6 26.7 8.5 30.5 8.5C31.2 8.5 31.9 8.6 32.5 8.8L32 10.2C31.5 10.1 31 10 30.5 10C27.5 10 25 12.5 25 15.5C25 17 25.6 18.3 26.6 19.4C27.6 20.4 29 21 30.5 21C33.5 21 36 18.5 36 15.5C36 15.3 36 15.1 36 14.9L37.4 14.7C37.9 18.4 35.3 21.8 31.7 22.4C31.3 22.4 30.9 22.4 30.5 22.4Z" fill="#A0A9B2"/>
<path d="M38.2001 60.7C37.8 60.7 37.5 60.4 37.5 60V56.6H5.90005V60C5.90005 60.4 5.60005 60.7 5.20005 60.7H1.00005C0.600049 60.7 0.300049 60.4 0.300049 60V43.4C0.300049 41.1 1.90005 39.1 4.20005 38.6H4.40005V29C4.40005 27.5 5.70005 26.2 7.20005 26.2H36.1C37.6 26.2 38.9001 27.5 38.9001 29V38.6H39.1C41.4 39.1 43 41.1 43 43.4V60C43 60.4 42.7001 60.7 42.3 60.7H38.2001ZM38.2001 55.1C38.6001 55.1 38.9001 55.4 38.9001 55.8V59.2H41.6V50.3H1.80005V59.2H4.50005V55.8C4.50005 55.4 4.80005 55.1 5.20005 55.1H38.2001ZM5.20005 40C3.30005 40 1.80005 41.5 1.80005 43.4V48.9H41.6V43.4C41.6 41.5 40.1001 40 38.2001 40H5.20005ZM32 31.3C33.5 31.3 34.8 32.6 34.8 34.1V38.5H37.5V29C37.5 28.3 36.9001 27.7 36.2001 27.7H7.20005C6.50005 27.7 5.90005 28.3 5.90005 29V38.6H8.60005V34.2C8.60005 32.7 9.90005 31.4 11.4 31.4H17.6C19.1 31.4 20.4 32.7 20.4 34.2V38.6H23V34.2C23 32.7 24.3 31.4 25.8 31.4H32V31.3ZM25.8 32.8C25.1 32.8 24.5 33.4 24.5 34.1V38.5H33.4001V34.1C33.4001 33.4 32.8 32.8 32.1 32.8H25.8ZM11.4 32.8C10.7 32.8 10.1 33.4 10.1 34.1V38.5H19V34.1C19 33.4 18.4001 32.8 17.7001 32.8H11.4Z" fill="#A0A9B2"/>
<path d="M30.4 17.3C30.2 17.3 30.1 17.3 30 17.2L29.9 17L28.1 15.2L29.1 14.2L30.4 15.5L36.9 9L37.9 10L30.9 17C30.8 17.2 30.6 17.3 30.4 17.3Z" fill="#A0A9B2"/>
</g>
<defs>
<clipPath id="clip0_34_8">
<rect width="61" height="61" fill="white"/>
</clipPath>
</defs>
</svg>
