<svg width="13" height="8" viewBox="0 0 13 8" fill="none" xmlns="http://www.w3.org/2000/svg">
<path id="arrow" d="M6.12834 7.5C6.01539 7.50013 5.90353 7.4779 5.79918 7.43458C5.69484 7.39126 5.60008 7.32771 5.52034 7.24758L0.240338 1.95877C0.08416 1.79621 -0.00212015 1.57877 3.95902e-05 1.35318C0.00219933 1.12758 0.0926266 0.911834 0.251888 0.752306C0.41115 0.592779 0.626534 0.502203 0.851753 0.50004C1.07697 0.497876 1.29405 0.584297 1.45634 0.740736L6.12834 5.42054L10.8003 0.740736C10.9626 0.584297 11.1797 0.497876 11.4049 0.50004C11.6301 0.502203 11.8455 0.592779 12.0048 0.752306C12.1641 0.911834 12.2545 1.12758 12.2566 1.35318C12.2588 1.57877 12.1725 1.79621 12.0163 1.95877L6.73634 7.24758C6.6566 7.32771 6.56184 7.39126 6.45749 7.43458C6.35315 7.4779 6.24129 7.50013 6.12834 7.5Z" fill="#A0A9B2"/>
</svg>
