<svg width="85" height="82" viewBox="0 0 85 82" fill="none" xmlns="http://www.w3.org/2000/svg">
<g clip-path="url(#clip0_322_1538)">
<path d="M80.358 8.84876L70.758 2.18276C69.3378 1.20418 67.6537 0.680176 65.929 0.680176C64.2043 0.680176 62.5202 1.20418 61.1 2.18276L51.5 8.84876C50.0844 9.84195 49.0059 11.2437 48.4086 12.8665C47.8114 14.4894 47.724 16.2559 48.158 17.9298H1.894C1.52529 17.9313 1.17209 18.0783 0.911089 18.3387C0.650089 18.5992 0.502367 18.9521 0.5 19.3208V79.2818C0.5 79.4648 0.536056 79.6461 0.606112 79.8152C0.676167 79.9844 0.778848 80.138 0.908293 80.2675C1.03774 80.3969 1.19141 80.4996 1.36054 80.5696C1.52967 80.6397 1.71094 80.6758 1.894 80.6758H43.728C43.9111 80.6758 44.0923 80.6397 44.2615 80.5696C44.4306 80.4996 44.5843 80.3969 44.7137 80.2675C44.8431 80.138 44.9458 79.9844 45.0159 79.8152C45.0859 79.6461 45.122 79.4648 45.122 79.2818V63.9468H61.858C62.0411 63.9468 62.2223 63.9107 62.3915 63.8407C62.5606 63.7706 62.7143 63.6679 62.8437 63.5385C62.9732 63.409 63.0758 63.2553 63.1459 63.0862C63.2159 62.9171 63.252 62.7358 63.252 62.5528V34.6638H72.001C73.7696 34.6635 75.4938 34.1095 76.9316 33.0795C78.3694 32.0496 79.4487 30.5953 80.018 28.9208L83.553 18.5308C84.1383 16.7885 84.1438 14.9035 83.5686 13.1579C82.9934 11.4122 81.8684 9.89976 80.362 8.84676L80.358 8.84876ZM60.458 40.2418H53.489C53.489 39.8719 53.3421 39.5172 53.0806 39.2557C52.819 38.9942 52.4643 38.8473 52.0945 38.8473C51.7247 38.8473 51.37 38.9942 51.1084 39.2557C50.8469 39.5172 50.7 39.8719 50.7 40.2418V43.0308C50.7 43.4006 50.8469 43.7553 51.1084 44.0168C51.37 44.2783 51.7247 44.4253 52.0945 44.4253C52.4643 44.4253 52.819 44.2783 53.0806 44.0168C53.3421 43.7553 53.489 43.4006 53.489 43.0308H60.458V61.1578H45.122V54.1858C45.122 53.816 44.9751 53.4615 44.7137 53.2001C44.4523 52.9386 44.0977 52.7918 43.728 52.7918H26.995C26.8119 52.7918 26.6305 52.8278 26.4613 52.8979C26.2922 52.968 26.1384 53.0707 26.0089 53.2002C25.8794 53.3297 25.7767 53.4834 25.7066 53.6526C25.6366 53.8218 25.6005 54.0031 25.6005 54.1863C25.6005 54.3694 25.6366 54.5507 25.7066 54.7199C25.7767 54.8891 25.8794 55.0428 26.0089 55.1723C26.1384 55.3018 26.2922 55.4045 26.4613 55.4746C26.6305 55.5447 26.8119 55.5808 26.995 55.5808H42.333V77.8918H3.289V43.0298H10.258C10.258 43.3996 10.4049 43.7543 10.6664 44.0158C10.928 44.2773 11.2827 44.4243 11.6525 44.4243C12.0223 44.4243 12.377 44.2773 12.6386 44.0158C12.9001 43.7543 13.047 43.3996 13.047 43.0298V40.2418C13.047 39.8719 12.9001 39.5172 12.6386 39.2557C12.377 38.9942 12.0223 38.8473 11.6525 38.8473C11.2827 38.8473 10.928 38.9942 10.6664 39.2557C10.4049 39.5172 10.258 39.8719 10.258 40.2418H3.289V20.7208H31.178V40.2418H20.022C20.022 39.8719 19.8751 39.5172 19.6136 39.2557C19.352 38.9942 18.9973 38.8473 18.6275 38.8473C18.2577 38.8473 17.903 38.9942 17.6414 39.2557C17.3799 39.5172 17.233 39.8719 17.233 40.2418V43.0308C17.233 43.4006 17.3799 43.7553 17.6414 44.0168C17.903 44.2783 18.2577 44.4253 18.6275 44.4253C18.9973 44.4253 19.352 44.2783 19.6136 44.0168C19.8751 43.7553 20.022 43.4006 20.022 43.0308H43.728C43.728 43.4006 43.8749 43.7553 44.1364 44.0168C44.398 44.2783 44.7527 44.4253 45.1225 44.4253C45.4923 44.4253 45.847 44.2783 46.1086 44.0168C46.3701 43.7553 46.517 43.4006 46.517 43.0308V40.2418C46.517 39.8719 46.3701 39.5172 46.1086 39.2557C45.847 38.9942 45.4923 38.8473 45.1225 38.8473C44.7527 38.8473 44.398 38.9942 44.1364 39.2557C43.8749 39.5172 43.728 39.8719 43.728 40.2418H33.967V20.7208H49.052L51.841 28.9208C52.41 30.5954 53.4892 32.0499 54.9271 33.0799C56.365 34.1099 58.0893 34.6638 59.858 34.6638H60.458V40.2418ZM80.909 17.6348L77.378 28.0208C76.9958 29.144 76.2716 30.1193 75.3069 30.81C74.3422 31.5006 73.1854 31.8719 71.999 31.8718H59.858C58.672 31.8716 57.5158 31.5001 56.5516 30.8095C55.5875 30.1188 54.8638 29.1436 54.482 28.0208L50.949 17.6348C50.555 16.4658 50.5504 15.2006 50.9358 14.0288C51.3213 12.857 52.076 11.8416 53.087 11.1348L62.687 4.46976C63.639 3.81245 64.7686 3.4604 65.9255 3.4604C67.0824 3.4604 68.212 3.81245 69.164 4.46976L78.764 11.1358C79.7764 11.8413 80.533 12.8559 80.9202 14.0276C81.3075 15.1992 81.3046 16.4649 80.912 17.6348H80.909Z" fill="#A0A9B2" stroke="white"/>
<path d="M66.0259 16.5586H57.7469C57.5657 16.5585 57.3862 16.5941 57.2187 16.6634C57.0512 16.7327 56.899 16.8343 56.7708 16.9625C56.6427 17.0907 56.541 17.2429 56.4717 17.4103C56.4024 17.5778 56.3668 17.7573 56.3669 17.9386V24.8386C56.3669 25.2046 56.5123 25.5556 56.7711 25.8144C57.0299 26.0732 57.3809 26.2186 57.7469 26.2186C58.1129 26.2186 58.4639 26.0732 58.7227 25.8144C58.9815 25.5556 59.127 25.2046 59.127 24.8386V19.3176H60.5069V24.8376C60.5069 25.2036 60.6523 25.5546 60.9111 25.8134C61.1699 26.0722 61.5209 26.2176 61.8869 26.2176C62.2529 26.2176 62.6039 26.0722 62.8627 25.8134C63.1215 25.5546 63.267 25.2036 63.267 24.8376V19.3176H64.6469V24.8376C64.6469 25.0188 64.6826 25.1983 64.752 25.3657C64.8214 25.5331 64.923 25.6853 65.0511 25.8134C65.1793 25.9415 65.3314 26.0432 65.4988 26.1125C65.6663 26.1819 65.8457 26.2176 66.0269 26.2176C66.2082 26.2176 66.3876 26.1819 66.5551 26.1125C66.7225 26.0432 66.8746 25.9415 67.0027 25.8134C67.1309 25.6853 67.2325 25.5331 67.3019 25.3657C67.3712 25.1983 67.407 25.0188 67.407 24.8376V17.9376C67.4068 17.7564 67.371 17.5769 67.3015 17.4096C67.232 17.2422 67.1303 17.0901 67.002 16.9621C66.8738 16.834 66.7216 16.7325 66.5541 16.6633C66.3866 16.594 66.2072 16.5585 66.0259 16.5586Z" fill="#A0A9B2" stroke="white"/>
<path d="M54.477 65.9068C54.2182 65.6482 53.8673 65.5029 53.5015 65.5029C53.1356 65.5029 52.7848 65.6482 52.526 65.9068L49.766 68.6668C49.5179 68.9277 49.3816 69.2752 49.3861 69.6351C49.3906 69.9951 49.5356 70.3391 49.7902 70.5936C50.0447 70.8482 50.3887 70.9932 50.7487 70.9977C51.1086 71.0022 51.4561 70.8659 51.717 70.6178L52.117 70.2178V79.3058C52.117 79.6718 52.2624 80.0228 52.5212 80.2816C52.78 80.5404 53.131 80.6858 53.497 80.6858C53.863 80.6858 54.214 80.5404 54.4728 80.2816C54.7316 80.0228 54.877 79.6718 54.877 79.3058V70.2178L55.277 70.6178C55.5379 70.8659 55.8854 71.0022 56.2453 70.9977C56.6053 70.9932 56.9493 70.8482 57.2038 70.5936C57.4584 70.3391 57.6034 69.9951 57.6079 69.6351C57.6124 69.2752 57.4761 68.9277 57.228 68.6668L54.477 65.9068Z" fill="#A0A9B2" stroke="white"/>
<path d="M72.4371 16.3697C73.3521 16.3697 74.2296 16.0062 74.8766 15.3592C75.5236 14.7122 75.8871 13.8347 75.8871 12.9197C75.8871 12.0047 75.5236 11.1272 74.8766 10.4802C74.2296 9.83321 73.3521 9.46973 72.4371 9.46973H70.3671C70.0011 9.46973 69.6501 9.61512 69.3913 9.87392C69.1325 10.1327 68.9871 10.4837 68.9871 10.8497C68.9871 11.2157 69.1325 11.5667 69.3913 11.8255C69.6501 12.0843 70.0011 12.2297 70.3671 12.2297H72.4371C72.6201 12.2297 72.7956 12.3024 72.925 12.4318C73.0544 12.5612 73.1271 12.7367 73.1271 12.9197C73.1271 13.1027 73.0544 13.2782 72.925 13.4076C72.7956 13.537 72.6201 13.6097 72.4371 13.6097C71.5223 13.6105 70.6452 13.9743 69.9984 14.6211C69.3516 15.2679 68.9879 16.145 68.9871 17.0597V19.1297C68.9869 19.311 69.0225 19.4905 69.0918 19.658C69.1611 19.8255 69.2628 19.9777 69.391 20.1058C69.5191 20.234 69.6713 20.3356 69.8388 20.4049C70.0063 20.4743 70.1858 20.5099 70.3671 20.5097H74.5061C74.8721 20.5097 75.2231 20.3643 75.4819 20.1055C75.7407 19.8467 75.8861 19.4957 75.8861 19.1297C75.8861 18.7637 75.7407 18.4127 75.4819 18.1539C75.2231 17.8951 74.8721 17.7497 74.5061 17.7497H71.7451V17.0597C71.7452 16.969 71.7632 16.8792 71.798 16.7954C71.8329 16.7116 71.8839 16.6355 71.9482 16.5714C72.0124 16.5073 72.0887 16.4565 72.1725 16.4219C72.2564 16.3873 72.3463 16.3696 72.4371 16.3697Z" fill="#A0A9B2" stroke="white"/>
</g>
<defs>
<clipPath id="clip0_322_1538">
<rect width="84.638" height="81.181" fill="white"/>
</clipPath>
</defs>
</svg>
