<svg width="63" height="61" viewBox="0 0 63 61" fill="none" xmlns="http://www.w3.org/2000/svg">
<g clip-path="url(#clip0_34_24)">
<path d="M56.2154 7.35874C56.3123 7.45556 56.4092 7.64921 56.5061 7.84287L57.5723 10.6508L58.5415 7.84287C58.6384 7.64921 58.7354 7.55239 58.8323 7.35874C58.9292 7.26191 59.1231 7.16509 59.22 7.06826L62.0308 5.80953L59.22 4.5508C59.0261 4.45398 58.9292 4.35715 58.8323 4.26033C58.7354 4.1635 58.6384 3.96985 58.5415 3.7762L57.5723 0.968262L56.6031 3.7762C56.5061 3.96985 56.4092 4.06667 56.3123 4.26033C56.2154 4.35715 56.0215 4.45398 55.9246 4.5508L53.0169 5.80953L55.8277 7.06826C56.0215 7.06826 56.1184 7.16509 56.2154 7.35874Z" fill="#A0A9B2"/>
<path d="M3.87692 9.68254C3.87692 9.29524 3.78 8.90794 3.58615 8.61746C3.39231 8.32698 3.00462 8.03651 2.71385 7.93968C2.32615 7.74603 1.93846 7.74603 1.55077 7.74603C1.16308 7.74603 0.872308 8.03651 0.581538 8.23016C0.290769 8.61746 0.0969231 8.90794 0 9.29524C0 9.68254 0 10.0698 0.193846 10.3603C0.387692 10.7476 0.581538 11.0381 0.872308 11.2317C1.16308 11.4254 1.55077 11.619 1.93846 11.619C2.42308 11.619 2.90769 11.4254 3.29538 11.0381C3.68308 10.6508 3.87692 10.1667 3.87692 9.68254Z" fill="#A0A9B2"/>
<path d="M43.6154 3.09842C38.0908 0.871435 32.1785 0.290482 26.3631 1.45239C20.5477 2.61429 15.2169 5.42223 11.0492 9.58572C6.78463 13.6524 3.97386 18.9778 2.81079 24.6905C1.64771 30.5 2.22925 36.4064 4.5554 41.8286C6.78463 47.2508 10.6616 51.8984 15.5077 55.1905C20.4508 58.4825 26.1692 60.2254 32.0816 60.2254C40.0292 60.2254 47.5892 57.127 53.2108 51.5111C58.8323 45.8952 61.9339 38.4397 61.9339 30.5968C62.1277 24.5937 60.3831 18.881 57.0877 14.0397C53.7923 9.10159 49.14 5.3254 43.6154 3.09842ZM55.5369 45.9921C52.5323 50.6397 48.1708 54.2222 42.9369 56.3524C37.8 58.4825 32.1785 59.0635 26.6539 57.9016C21.1292 56.8365 16.1862 54.2222 12.2123 50.2524C8.23848 46.3794 5.62156 41.3444 4.45848 35.9222C3.39232 30.5 3.87694 24.8841 6.10617 19.7524C8.23848 14.6206 11.8246 10.2635 16.4769 7.26191C21.1292 4.1635 26.5569 2.51747 32.1785 2.51747C39.7385 2.51747 46.8139 5.42223 52.0477 10.7476C57.3785 15.9762 60.2862 23.0445 60.2862 30.5C60.2862 36.0191 58.6385 41.4413 55.5369 45.9921Z" fill="#A0A9B2"/>
<path d="M13.5692 22.8508C13.7631 23.1413 14.3446 23.1413 14.7323 22.8508C14.9261 22.6572 15.0231 22.4635 15.0231 22.2699C15.0231 21.0111 15.5077 19.8492 16.38 18.9778C17.2523 18.1064 18.5123 17.6223 19.7723 17.6223C21.0323 17.6223 22.1954 18.1064 23.1646 18.9778C24.0369 19.8492 24.5215 21.0111 24.5215 22.2699C24.5215 22.4635 24.6184 22.754 24.8123 22.8508C25.0061 23.0445 25.2 23.1413 25.3938 23.1413C25.5877 23.1413 25.8784 23.0445 25.9754 22.8508C26.1692 22.6572 26.2661 22.4635 26.2661 22.2699C26.2661 20.527 25.5877 18.9778 24.3277 17.7191C23.0677 16.4603 21.5169 15.8794 19.7723 15.8794C18.0277 15.8794 16.38 16.5572 15.2169 17.7191C13.9569 18.9778 13.2784 20.527 13.2784 22.2699C13.2784 22.4635 13.3754 22.754 13.5692 22.8508Z" fill="#A0A9B2"/>
<path d="M38.4785 22.8508C38.7692 23.2381 39.3508 23.2381 39.6415 22.8508C39.8354 22.6572 39.9323 22.4635 39.9323 22.2699C39.9323 21.0111 40.4169 19.8492 41.2892 18.9778C42.1615 18.1064 43.4215 17.6223 44.6815 17.6223C45.9415 17.6223 47.1046 18.1064 48.0738 18.9778C48.9461 19.8492 49.4308 21.0111 49.4308 22.2699C49.4308 22.4635 49.5277 22.754 49.7215 22.8508C49.9154 23.0445 50.1092 23.1413 50.3031 23.1413C50.4969 23.1413 50.7877 23.0445 50.8846 22.8508C51.0785 22.6572 51.1754 22.4635 51.1754 22.2699C51.1754 20.527 50.4969 18.9778 49.2369 17.7191C47.9769 16.4603 46.4261 15.8794 44.6815 15.8794C42.9369 15.8794 41.2892 16.5572 40.1261 17.7191C38.8661 18.9778 38.1877 20.527 38.1877 22.2699C38.1877 22.4635 38.2846 22.754 38.4785 22.8508Z" fill="#A0A9B2"/>
<path d="M12.4062 30.2095C12.2123 30.2095 11.9216 30.3064 11.8246 30.5C11.6308 30.5968 11.6308 30.7905 11.6308 31.081C11.6308 36.5032 13.7631 41.6349 17.64 45.5079C21.517 49.381 26.6539 51.5111 32.1785 51.5111C37.7031 51.5111 42.84 49.381 46.717 45.5079C50.5939 41.6349 52.7262 36.5032 52.7262 31.081C52.7262 30.8873 52.6293 30.5968 52.4354 30.5C52.2416 30.4032 52.1446 30.2095 51.8539 30.2095H12.4062ZM43.9062 45.7016C40.6108 48.3159 36.4431 49.6714 32.2754 49.6714C28.1077 49.6714 23.94 48.2191 20.6446 45.7016L20.257 45.4111L20.3539 44.927C22.4862 41.5381 27.1385 39.3111 32.1785 39.3111C37.2185 39.3111 41.7739 41.5381 44.0031 44.927L44.2939 45.4111L43.9062 45.7016ZM50.8846 32.6302C50.497 36.6968 48.8493 40.6667 46.0385 43.7651L45.5539 44.2492L45.1662 43.5714C42.5493 39.8921 37.6062 37.5683 32.1785 37.5683V37.6651C26.7508 37.6651 21.8077 39.9889 19.1908 43.6683L18.7062 44.2492L18.2216 43.6683C15.4108 40.6667 13.6662 36.6968 13.3754 32.5333L13.2785 31.9524H50.9816L50.8846 32.6302Z" fill="#A0A9B2"/>
</g>
<defs>
<clipPath id="clip0_34_24">
<rect width="63" height="61" fill="white"/>
</clipPath>
</defs>
</svg>
