<svg width="45" height="50" viewBox="0 0 45 50" fill="none" xmlns="http://www.w3.org/2000/svg">
<g clip-path="url(#clip0_48_100)">
<path d="M18.759 10.554C20.1456 10.5487 21.474 9.99564 22.4546 9.01524C23.4351 8.03484 23.9885 6.70661 23.994 5.32C23.9919 3.92436 23.4423 2.58525 22.4634 1.59047C21.4845 0.59568 20.1545 0.0246166 18.759 0C17.3726 0.0055295 16.0445 0.558743 15.0641 1.53911C14.0838 2.51948 13.5306 3.84756 13.525 5.234C13.5272 6.62947 14.0766 7.96843 15.0553 8.96319C16.0339 9.95795 17.3638 10.5291 18.759 10.554ZM18.759 1.716C19.6908 1.72021 20.5831 2.09221 21.242 2.75105C21.9008 3.40989 22.2728 4.30227 22.277 5.234C22.277 5.69599 22.186 6.15346 22.0092 6.58028C21.8324 7.0071 21.5733 7.39493 21.2466 7.7216C20.9199 8.04828 20.5321 8.30741 20.1053 8.48421C19.6785 8.661 19.221 8.752 18.759 8.752C18.297 8.752 17.8396 8.661 17.4127 8.48421C16.9859 8.30741 16.5981 8.04828 16.2714 7.7216C15.9447 7.39493 15.6856 7.0071 15.5088 6.58028C15.332 6.15346 15.241 5.69599 15.241 5.234C15.2452 4.30227 15.6172 3.40989 16.2761 2.75105C16.9349 2.09221 17.8273 1.72021 18.759 1.716Z" fill="#A0A9B2"/>
<path d="M44.811 44.8221L43.011 35.2911C42.7878 34.2247 42.1568 33.2878 41.2526 32.6801C40.3485 32.0724 39.2426 31.842 38.171 32.0381L34.892 32.6431C34.424 30.2231 34.111 28.2561 34.033 28.0291C34.3694 27.6166 34.5399 27.0934 34.511 26.5619C34.4822 26.0304 34.2561 25.5287 33.877 25.1551L28.646 19.4821L26.928 15.7001C26.5617 14.9186 25.977 14.26 25.2444 13.8037C24.5119 13.3475 23.6629 13.1131 22.8 13.1291H14.443C13.5638 13.1354 12.7038 13.3864 11.9592 13.8539C11.2146 14.3214 10.6148 14.987 10.227 15.7761L5.855 25.4581C5.70818 25.7359 5.62501 26.0428 5.61152 26.3568C5.59803 26.6707 5.65456 26.9837 5.777 27.2731C5.30096 27.3946 4.87681 27.6664 4.5675 28.0481C4.25819 28.4299 4.08022 28.9012 4.06 29.3921V30.4511H1.483C1.29123 30.4479 1.10071 30.4825 0.922353 30.5531C0.743992 30.6236 0.581288 30.7286 0.443547 30.8621C0.305806 30.9955 0.195733 31.1548 0.119624 31.3309C0.0435157 31.5069 0.00286578 31.6963 0 31.8881V39.5291C0.00299672 39.7208 0.0437356 39.9101 0.11989 40.0861C0.196044 40.262 0.306121 40.4213 0.443835 40.5547C0.581549 40.6882 0.744202 40.7932 0.922504 40.8638C1.10081 40.9343 1.29126 40.9691 1.483 40.9661H12.883V46.5661C12.8866 47.001 12.9766 47.431 13.1479 47.8308C13.3192 48.2307 13.5683 48.5925 13.8807 48.8952C14.193 49.1979 14.5625 49.4354 14.9675 49.5941C15.3726 49.7527 15.8051 49.8291 16.24 49.8191C16.7145 49.8249 17.1844 49.7263 17.6165 49.5301C18.0485 49.334 18.4321 49.0451 18.74 48.6841C19.0452 49.0679 19.4392 49.3717 19.8879 49.5695C20.3367 49.7672 20.8268 49.8528 21.316 49.8191C22.1455 49.7752 22.9258 49.412 23.4934 48.8056C24.0611 48.1992 24.372 47.3966 24.361 46.5661V21.0711C24.829 21.8271 24.907 22.1301 25.22 22.3571L30.607 28.2571C30.869 28.4934 31.1793 28.67 31.5164 28.7744C31.8535 28.8789 32.2092 28.9088 32.559 28.8621C32.715 29.7701 35.135 42.4771 35.604 45.0491C35.0935 45.2951 34.6788 45.7032 34.4246 46.2098C34.1705 46.7163 34.0911 47.2927 34.199 47.8491C34.3332 48.5436 34.7373 49.1565 35.3227 49.5536C35.9081 49.9506 36.6271 50.0993 37.322 49.9671C37.8395 49.8632 38.3176 49.6168 38.7025 49.2557C39.0874 48.8945 39.3636 48.4329 39.5 47.9231L43.169 47.1671C43.6956 47.07 44.1627 46.7696 44.4695 46.3307C44.7762 45.8919 44.8978 45.3499 44.808 44.8221H44.811ZM5.777 29.3921C5.77804 29.3013 5.797 29.2117 5.83278 29.1283C5.86856 29.0449 5.92046 28.9694 5.98551 28.9061C6.05055 28.8428 6.12745 28.793 6.2118 28.7596C6.29614 28.7261 6.38627 28.7096 6.477 28.7111H8.9C8.99073 28.7096 9.08086 28.7261 9.1652 28.7596C9.24955 28.793 9.32645 28.8428 9.39149 28.9061C9.45654 28.9694 9.50844 29.0449 9.54422 29.1283C9.58 29.2117 9.59896 29.3013 9.6 29.3921V30.4511H5.7V29.3921H5.777ZM13.584 39.4521L1.484 39.5281L1.406 31.9641H13.818L13.896 39.4521H13.584ZM9.993 27.4291L12.882 21.9071V30.4541H11.242V29.3921C11.2092 28.9879 11.0783 28.5979 10.8607 28.2558C10.643 27.9138 10.3452 27.63 9.993 27.4291ZM32.711 27.2021C32.5878 27.3213 32.427 27.3941 32.2561 27.408C32.0852 27.4218 31.9148 27.3759 31.774 27.2781L26.309 21.3021C26.231 21.2261 26.387 21.3781 24.279 17.7471C24.1946 17.6009 24.0658 17.4855 23.9113 17.4176C23.7569 17.3496 23.5848 17.3326 23.42 17.3691C23.2574 17.4156 23.1151 17.5154 23.0161 17.6525C22.9171 17.7896 22.867 17.9561 22.874 18.1251V46.5621C22.8857 46.9967 22.7304 47.4193 22.44 47.7429C22.1497 48.0666 21.7464 48.2667 21.313 48.3021C21.0945 48.3175 20.8752 48.288 20.6685 48.2152C20.4619 48.1425 20.2725 48.028 20.1119 47.8791C19.9513 47.7301 19.823 47.5498 19.7349 47.3492C19.6469 47.1486 19.601 46.9321 19.6 46.7131V33.8541C19.6045 33.7514 19.5873 33.649 19.5493 33.5535C19.5113 33.458 19.4535 33.3717 19.3797 33.3003C19.3058 33.2288 19.2177 33.1738 19.121 33.139C19.0244 33.1041 18.9214 33.0902 18.819 33.0981C18.6153 33.0951 18.4187 33.173 18.2723 33.3147C18.1259 33.4564 18.0417 33.6504 18.038 33.8541V46.6381C18.0058 47.0923 17.8027 47.5174 17.4695 47.8279C17.1363 48.1383 16.6979 48.3109 16.2425 48.3109C15.7871 48.3109 15.3487 48.1383 15.0155 47.8279C14.6823 47.5174 14.4792 47.0923 14.447 46.6381V40.8891C14.7504 40.8092 15.0201 40.6339 15.2162 40.389C15.4123 40.1441 15.5244 39.8426 15.536 39.5291V31.8891C15.5369 31.583 15.4384 31.285 15.2554 31.0397C15.0724 30.7945 14.8146 30.6153 14.521 30.5291V18.7291C14.513 18.5578 14.4503 18.3937 14.342 18.2608C14.2337 18.1279 14.0856 18.0333 13.9195 17.991C13.7533 17.9486 13.578 17.9608 13.4193 18.0256C13.2606 18.0904 13.127 18.2045 13.038 18.3511L8.744 26.6711C8.70285 26.7529 8.6458 26.8257 8.57617 26.8853C8.50654 26.9448 8.42574 26.9899 8.33849 27.0178C8.25124 27.0457 8.1593 27.056 8.06804 27.048C7.97678 27.0399 7.88803 27.0138 7.807 26.9711C7.72031 26.9288 7.6431 26.8694 7.58007 26.7964C7.51703 26.7234 7.46949 26.6383 7.44031 26.5464C7.41114 26.4545 7.40094 26.3576 7.41034 26.2616C7.41974 26.1656 7.44854 26.0726 7.495 25.9881L11.867 16.3061C12.1072 15.7843 12.4926 15.3428 12.9771 15.0342C13.4616 14.7257 14.0246 14.5631 14.599 14.5661H22.874C23.4484 14.5631 24.0114 14.7257 24.4959 15.0342C24.9804 15.3428 25.3658 15.7843 25.606 16.3061C27.48 20.3151 27.406 20.2391 27.558 20.3911L32.867 26.1401C32.9562 26.3104 32.9892 26.5047 32.9612 26.6949C32.9332 26.8852 32.8456 27.0617 32.711 27.1991V27.2021ZM35.131 34.1611L38.488 33.4801C39.1598 33.3711 39.848 33.5214 40.4133 33.9004C40.9786 34.2795 41.3788 34.8591 41.533 35.5221L41.689 36.2031L35.834 37.7161L35.131 34.1611ZM37.083 48.4611C36.7887 48.5008 36.4901 48.4299 36.2449 48.2622C35.9998 48.0945 35.8256 47.8418 35.756 47.5531C35.7304 47.4068 35.7345 47.2569 35.7681 47.1122C35.8017 46.9676 35.8641 46.8312 35.9516 46.7112C36.039 46.5912 36.1497 46.49 36.2771 46.4137C36.4045 46.3374 36.5459 46.2875 36.693 46.2671C36.9873 46.2274 37.2859 46.2982 37.5311 46.4659C37.7762 46.6337 37.9504 46.8863 38.02 47.1751C38.0533 47.4669 37.9754 47.7606 37.8017 47.9975C37.628 48.2344 37.3714 48.3971 37.083 48.4531V48.4611ZM42.86 45.6611L39.347 46.3421C39.16 45.9046 38.858 45.526 38.4731 45.2464C38.0882 44.9668 37.6348 44.7967 37.161 44.7541L36.146 39.1541L42 37.6361L43.405 44.9731C43.327 45.3511 43.171 45.6541 42.859 45.6541L42.86 45.6611Z" fill="#A0A9B2"/>
</g>
<defs>
<clipPath id="clip0_48_100">
<rect width="44.853" height="50" fill="white"/>
</clipPath>
</defs>
</svg>
