<svg width="50" height="50" viewBox="0 0 50 50" fill="none" xmlns="http://www.w3.org/2000/svg">
<path d="M45.8 43.7L43.5 41.4L43.4 41.3C43.4 40.8 43.2 40.3 42.8 39.9L41.8 38.9C41.4 38.5 40.9 38.3 40.5 38.3L37.5 35.3C38.2 33.8 38.6 32.1 38.6 30.3C38.6 27.9 37.9 25.7 36.6 23.8C36.6 23.7 36.6 23.7 36.6 23.6V10.2C37.5 9.99997 38.1 9.19997 38.1 8.19997V6.69998C38.1 5.59998 37.2 4.59998 36 4.59998H32.2V2.19998C32.2 1.09998 31.3 0.0999756 30.1 0.0999756H19C18.7 0.0999756 18.4 0.399976 18.4 0.699975C18.4 0.999976 18.7 1.29998 19 1.29998H30.2C30.7 1.29998 31.1 1.69998 31.1 2.19998V4.59998H12.6V2.19998C12.6 1.69998 13 1.29998 13.5 1.29998H16.1C16.4 1.29998 16.7 0.999976 16.7 0.699975C16.7 0.399976 16.4 0.0999756 16.1 0.0999756H13.5C12.4 0.0999756 11.4 0.999976 11.4 2.19998V4.59998H7.7C6.6 4.59998 5.6 5.49998 5.6 6.69998V8.19997C5.6 9.09997 6.2 9.89997 7.1 10.2V44.2H5.6C4.5 44.2 3.5 45.1 3.5 46.3V47.8C3.5 48.9 4.4 49.9 5.6 49.9H9.5C9.8 49.9 10.1 49.6 10.1 49.3C10.1 49 9.8 48.7 9.5 48.7H5.6C5.1 48.7 4.7 48.3 4.7 47.8V46.3C4.7 45.8 5.1 45.4 5.6 45.4H35.8L36.6 46.2C37 46.6 37.5 46.8 38.1 46.8C38.2 46.8 38.2 46.8 38.3 46.8L38.1 47L39 47.9C39 48 38.9 48 38.9 48.1C38.8 48.5 38.5 48.7 38.1 48.7H12.4C12.1 48.7 11.8 49 11.8 49.3C11.8 49.6 12.1 49.9 12.4 49.9H38.1C38.9 49.9 39.6 49.5 39.9 48.8L40.3 49.2C40.7 49.6 41.3 49.9 42 49.9C42.7 49.9 43.2 49.7 43.7 49.2L45.8 47.1C46.7 46.2 46.7 44.7 45.8 43.7ZM39.1 38.8C39 38.9 39 38.9 38.9 39L35.7 42.2C35.6 42.3 35.5 42.4 35.5 42.5L33.2 40.2C33.9 39.7 34.7 39.2 35.3 38.6C35.9 38 36.5 37.3 36.9 36.5L39.1 38.8ZM34.3 37.7C30.3 41.7 23.7 41.7 19.7 37.7C15.7 33.7 15.7 27.1 19.7 23.1C21.7 21.1 24.2 20.1 27 20.1C29.8 20.1 32.4 21.2 34.3 23.1C36.3 25.1 37.3 27.6 37.3 30.4C37.3 33.2 36.3 35.8 34.3 37.7ZM18.3 38C18.1 38.1 17.9 38.2 17.7 38.2H14.7C14.2 38.2 13.8 37.8 13.8 37.3V32.5C13.8 31.5 14.4 30.6 15.4 30.3C15.5 33.1 16.4 35.8 18.3 38ZM17.8 22.6H14.8C14.3 22.6 13.9 22.2 13.9 21.7V17C13.9 15.7 15 14.6 16.3 14.6C17.6 14.6 18.7 15.7 18.7 17V21.8C18.6 22.2 18.2 22.6 17.8 22.6ZM29.8 19.2C28.3 18.8 26.6 18.8 25.1 19V17C25.1 15.7 26.2 14.6 27.5 14.6C28.8 14.6 29.9 15.7 29.9 17V19.2H29.8ZM6.8 8.19997V6.69998C6.8 6.19998 7.2 5.79998 7.7 5.79998H36C36.5 5.79998 36.9 6.19998 36.9 6.69998V8.19997C36.9 8.69997 36.5 9.09997 36 9.09997H7.7C7.2 9.09997 6.8 8.69997 6.8 8.19997ZM8.3 10.3H35.3V22.5C35.2 22.4 35.2 22.4 35.1 22.3C33.9 21.1 32.4 20.2 30.9 19.6V17C30.9 15 29.3 13.4 27.3 13.4C25.3 13.4 23.7 15 23.7 17V19.3C22.3 19.7 20.9 20.4 19.7 21.4V17C19.7 15 18.1 13.4 16.1 13.4C14.1 13.4 12.7 15 12.7 17V21.8C12.7 22.9 13.6 23.9 14.8 23.9H17.6C16.5 25.5 15.8 27.3 15.6 29.2C14 29.5 12.8 31 12.8 32.7V37.5C12.8 38.6 13.7 39.6 14.9 39.6H17.9C18.4 39.6 18.9 39.4 19.3 39C21.4 41 24.2 42.1 27.1 42.1C28.9 42.1 30.5 41.7 32.1 41L35.1 44C35.1 44.1 35.1 44.2 35.1 44.3H8.3V10.3ZM37.4 45.3L36.4 44.3C36.1 44 36.1 43.4 36.4 43.1L39.6 39.9C39.8 39.7 40 39.6 40.2 39.6C40.4 39.6 40.6 39.7 40.8 39.9L41.8 40.9C42.1 41.2 42.1 41.8 41.8 42.1L38.6 45.3C38.3 45.6 37.8 45.6 37.4 45.3ZM44.9 46.2L42.8 48.3C42.4 48.7 41.6 48.7 41.2 48.3L39.3 46.3C39.4 46.2 39.5 46.2 39.6 46.1L42.8 42.9C42.9 42.8 43 42.7 43 42.6L44.9 44.5C45.1 44.7 45.2 45 45.2 45.3C45.3 45.7 45.1 46 44.9 46.2Z" fill="#A0A9B2"/>
<path d="M21.4 24.8C18.3 27.9 18.3 32.9 21.4 36C22.9 37.5 25 38.3 27 38.3C29 38.3 31 37.5 32.6 36C35.7 32.9 35.7 27.9 32.6 24.8C29.5 21.7 24.5 21.7 21.4 24.8ZM25 36.8V32.6C25 32 25.2 31.4 25.7 30.9C26.1 30.5 26.7 30.2 27.4 30.2C28.7 30.2 29.8 31.3 29.8 32.6V36.4V36.5C28.9 36.9 28 37.1 27 37.1C26.3 37.1 25.7 37 25 36.8ZM31.7 35.1C31.5 35.3 31.2 35.5 30.9 35.7V32.5C30.9 30.5 29.3 28.9 27.3 28.9C26.3 28.9 25.5 29.3 24.8 29.9C24.1 30.6 23.8 31.5 23.8 32.4V36.1C23.2 35.8 22.7 35.4 22.2 34.9C19.6 32.3 19.6 28 22.2 25.4C23.5 24.1 25.2 23.4 26.9 23.4C28.6 23.4 30.3 24.1 31.6 25.4C34.3 28.3 34.3 32.5 31.7 35.1Z" fill="#A0A9B2"/>
</svg>
