<svg width="50" height="50" viewBox="0 0 50 50" fill="none" xmlns="http://www.w3.org/2000/svg">
<g clip-path="url(#clip0_48_116)">
<path d="M23.9 8.79998C23.4 8.79998 23.1 9.19998 23.1 9.59998C23.1 9.99998 23.5 10.4 23.9 10.4H27.7C28.5 10.4 29.2 9.69998 29.2 8.89998V6.09998C29.2 5.29998 28.5 4.59998 27.7 4.59998H10.4C9.6 4.59998 9 5.29998 9 6.09998V8.99998C9 9.79998 9.7 10.5 10.5 10.5H20C20.5 10.5 20.8 10.1 20.8 9.69998C20.8 9.29998 20.5 8.79998 20 8.79998H10.6V6.29998H27.5V8.79998H23.9Z" fill="#A0A9B2"/>
<path d="M6.69995 13.5C6.69995 14 7.09995 14.3 7.49995 14.3H33.7C34.2 14.3 34.5 13.9 34.5 13.5C34.5 13.1 34.1 12.7 33.7 12.7H7.59995C7.09995 12.6 6.69995 13 6.69995 13.5Z" fill="#A0A9B2"/>
<path d="M28.6 23C28.6 22.5 28.2 22.2 27.8 22.2H7.60005C7.10005 22.2 6.80005 22.6 6.80005 23C6.80005 23.5 7.20005 23.7999 7.60005 23.7999H27.8C28.2 23.7999 28.6 23.5 28.6 23Z" fill="#A0A9B2"/>
<path d="M18 28.6C18.5 28.6 18.8 28.2 18.8 27.8C18.8 27.4 18.4 27 18 27H7.60005C7.10005 27 6.80005 27.4 6.80005 27.8C6.80005 28.2 7.20005 28.6 7.60005 28.6H18Z" fill="#A0A9B2"/>
<path d="M6.59998 42.6C6.99998 42.7 7.49998 42.5 7.59998 42C7.99998 40.9 9.09998 40.1 10.3 40.1C11.2 40.1 12 40.5 12.5 41.1C13.5 42.1 14.8 42.6 16.2 42.6C18.6 42.6 19.9 40.1 19.9 40C20.1 39.6 19.9 39.1 19.5 38.9C19.1 38.7 18.6 38.9 18.4 39.3C18.4 39.3 17.5 41 16.2 41C15.2 41 14.3 40.6 13.6 39.9C12.7 39 11.5 38.5 10.3 38.5C8.29998 38.5 6.59998 39.7 5.99998 41.6C5.89998 42 6.09998 42.5 6.59998 42.6Z" fill="#A0A9B2"/>
<path d="M49.3 7.8C49.2 7.6 49.1 7.5 48.9 7.4L47.1 6.6C47.2 6.2 47.1 5.8 46.7 5.6L46.3 5.4L46.9 4.1C47.5 2.5 46.7 0.8 45.1 0.2C43.7 -0.3 42.1 0.3 41.4 1.7L40.8 3.1C40.1 3 39.5 3.3 39.2 4L37.6 7.7V3.8C37.6 1.7 35.9 0 33.8 0H3.8C1.7 0 0 1.7 0 3.8V46.2C0 48.3 1.7 50 3.8 50H33.8C35.9 50 37.6 48.3 37.6 46.2V35.5C37.6 35.1 37.3 34.7 36.8 34.7C36.3 34.7 36 35 36 35.5V46.1C36 47.4 35 48.4 33.7 48.4H3.7C2.4 48.4 1.4 47.4 1.4 46.1V3.8C1.4 2.5 2.4 1.5 3.7 1.5H33.7C35 1.5 36 2.5 36 3.8V11.2L33.3 17.4H7.6C7.1 17.4 6.8 17.8 6.8 18.2C6.8 18.6 7.2 19 7.6 19H32.7L24.4 38.2C24.4 38.3 24.3 38.4 24.3 38.5V44.9C24.3 45.8 25.1 46.6 26 46.5C26.4 46.5 26.8 46.3 27.1 46.1L31.8 41.7C31.9 41.6 31.9 41.6 32 41.5L46.5 8L47.6 8.5L41.9 21.6C41.7 22 41.9 22.4 42.3 22.6C42.7 22.8 43.1 22.6 43.3 22.2L49.3 8.4C49.3 8.2 49.3 8 49.3 7.8ZM26.1 45C26 45.1 25.9 45.1 25.9 45V44.9V39.7L30 41.5L26.1 45ZM30.9 40.2L26.1 38.1L33.8 20.2L38.6 22.3L30.9 40.2ZM39.3 20.9L34.5 18.8L40.6 4.6L45.4 6.7L39.3 20.9ZM45.5 3.6L44.9 4.9L42.2 3.7L42.8 2.4C43 1.8 43.6 1.5 44.2 1.5C45 1.6 45.6 2.3 45.6 3.1C45.6 3.3 45.6 3.4 45.5 3.6Z" fill="#A0A9B2"/>
</g>
<defs>
<clipPath id="clip0_48_116">
<rect width="49.3" height="50" fill="white"/>
</clipPath>
</defs>
</svg>
