<svg width="50" height="50" viewBox="0 0 50 50" fill="none" xmlns="http://www.w3.org/2000/svg">
<g clip-path="url(#clip0_48_108)">
<g clip-path="url(#clip1_48_108)">
<path d="M3.16835 34.4554C3.16835 34.6534 3.36637 34.6534 3.46538 34.6534C3.6634 34.6534 3.96043 34.6534 4.05944 34.4554L6.03964 31.6831C6.13865 31.5841 6.13865 31.3861 6.13865 31.1881C6.13865 30.99 6.03964 30.792 5.94063 30.693C5.84162 30.594 5.6436 30.594 5.54459 30.594C5.34657 30.594 5.04954 30.594 4.95053 30.792L2.97033 33.5643C2.77231 33.9603 2.87132 34.2574 3.16835 34.4554Z" fill="#A0A9B2"/>
<path d="M7.32674 29.3069C7.32674 29.5049 7.52476 29.5049 7.62377 29.5049H7.72278V29.4059H7.82179C8.01981 29.4059 8.31684 29.4059 8.41585 29.2079C9.60397 27.7227 10.7921 26.6336 12.0792 25.9406L15.3465 23.6633C15.5446 23.4653 15.7426 23.0693 15.4456 22.7722C15.3465 22.6732 15.1485 22.5742 14.8515 22.5742C14.7525 22.5742 14.6535 22.5742 14.4555 22.6732L11.1881 24.9505C9.50496 25.9406 8.11882 27.1287 7.22773 28.5148C7.12872 28.6138 7.12872 28.8118 7.12872 29.0099C7.12872 29.1089 7.22773 29.3069 7.32674 29.3069Z" fill="#A0A9B2"/>
<path d="M32.5743 25.2475C37.4257 25.2475 41.1881 21.4851 41.1881 16.6336C41.1881 11.8812 37.3267 8.01978 32.5743 8.01978C27.7228 8.01978 23.9604 11.7822 23.9604 16.6336C23.9604 21.3861 27.8218 25.2475 32.5743 25.2475ZM32.5743 23.8614C28.6139 23.8614 25.3465 20.594 25.3465 16.6336C25.3465 12.6732 28.6139 9.40591 32.5743 9.40591C36.5346 9.40591 39.802 12.6732 39.802 16.6336C39.802 20.594 36.5346 23.8614 32.5743 23.8614Z" fill="#A0A9B2"/>
<path d="M37.5248 13.0692C37.4258 12.9702 37.1287 12.9702 37.0297 12.9702C36.9307 12.9702 36.6337 13.0692 36.5347 13.1682L31.7822 18.8118L29.703 16.6336C29.604 16.5346 29.505 16.4356 29.208 16.4356C29.1089 16.4356 28.8119 16.5346 28.7129 16.6336C28.5149 16.8316 28.5149 17.3267 28.7129 17.5247L31.3862 20.1979C31.4852 20.2969 31.5842 20.396 31.8812 20.396C32.1783 20.396 32.2773 20.2969 32.3763 20.0989L37.6238 13.9603C37.8218 13.7623 37.7228 13.3663 37.5248 13.0692Z" fill="#A0A9B2"/>
<path d="M41.9802 26.5346C41.9802 26.1386 41.6832 25.8416 41.2872 25.8416H23.7624C23.3664 25.8416 23.0693 26.1386 23.0693 26.5346C23.0693 26.9307 23.3664 27.2277 23.7624 27.2277H41.2872C41.6832 27.2277 41.9802 26.9307 41.9802 26.5346Z" fill="#A0A9B2"/>
<path d="M38.0198 29.1089H27.5247C27.1287 29.1089 26.8317 29.4059 26.8317 29.802C26.8317 30.198 27.1287 30.495 27.5247 30.495H38.0198C38.4158 30.495 38.7129 30.198 38.7129 29.802C38.7129 29.4059 38.4158 29.1089 38.0198 29.1089Z" fill="#A0A9B2"/>
<path d="M45.8416 0.494995H23.4654C21.3861 0.494995 19.703 2.17816 19.703 4.25737V23.5643H18.7129C18.0198 23.5643 17.4257 23.7623 16.8317 24.1584L11.8812 27.6237C10.7921 28.2178 9.901 29.0098 9.20793 29.9999L5.44555 35.3465C5.04951 35.9405 4.35644 36.4356 3.56436 36.6336L0.990106 37.1287C0.792086 37.2277 0.495056 37.4257 0.495056 37.7227V48.9108C0.495056 49.1089 0.495056 49.2079 0.594066 49.4059C0.693076 49.5049 0.990106 49.6039 1.08912 49.6039H15.7426C17.2277 49.6039 18.6139 49.1089 19.703 48.1188L20.099 47.7227L20.198 47.8217C20.8911 48.9108 21.9802 49.5049 23.3663 49.5049H45.8416C47.9208 49.5049 49.604 47.8217 49.604 45.7425V4.25737C49.604 2.17816 47.9208 0.494995 45.8416 0.494995ZM1.58417 38.2178L3.56436 37.8217C4.75248 37.6237 5.74258 37.0296 6.33664 36.1386L10.099 30.792C10.7921 29.9009 11.5842 29.2079 12.4753 28.7128L17.5248 25.2475C17.8218 24.9504 18.2178 24.8514 18.6139 24.8514H19.703V29.3069L16.5347 31.1881C15.9406 31.4851 15.5446 32.0792 15.5446 32.7722V38.7128C15.5446 39.9009 16.3366 40.693 17.5248 40.693C17.8218 40.693 18.4158 40.693 18.8119 40.297L26.1386 34.0594C26.5347 33.7623 27.1287 33.5643 27.5248 33.5643H27.7228C29.0099 33.5643 29.901 34.4554 29.901 35.7425C29.901 36.2376 29.604 36.8316 29.2079 37.2277L29.1089 37.3267L18.8119 47.0296C18.0198 47.8217 16.9307 48.3168 15.7426 48.3168H1.58417V38.2178ZM17.5248 39.6039C17.2277 39.6039 17.1287 39.5049 16.9307 39.4059C16.8317 39.2079 16.7327 39.0098 16.7327 38.8118V32.8712C16.7327 32.6732 16.9307 32.4752 17.1287 32.3762L19.604 30.891V38.1188L18.0198 39.4059C17.9208 39.5049 17.7228 39.6039 17.5248 39.6039ZM30.9901 36.8316C31.3861 35.8415 31.1881 34.7524 30.5941 33.7623H30.4951V33.5643H38.7129V37.1287H30.8911L30.9901 36.8316ZM20.9901 46.7326L30 38.3168H38.6139C39.4059 38.3168 40 37.7227 40 36.9306V33.7623C40 32.9702 39.4059 32.3762 38.6139 32.3762H27.6238C26.9307 32.3762 26.0396 32.6732 25.4456 33.1683L20.8911 37.1287V4.25737C20.8911 2.87123 22.0792 1.68311 23.4654 1.68311H26.1386L26.8317 4.35638C26.9307 4.5544 27.1287 4.85143 27.4258 4.85143H38.6139C38.9109 4.85143 39.1089 4.65341 39.2079 4.35638L39.901 1.68311H42.5743C43.9604 1.68311 45.1485 2.87123 45.1485 4.25737V45.7425C45.1485 47.1287 43.9604 48.3168 42.5743 48.3168H23.3663C22.4753 48.3168 21.5842 47.7227 21.0891 46.9306L20.9901 46.7326ZM38.1188 3.66331H27.9208L27.4258 1.68311H38.6139L38.1188 3.66331ZM45.6436 47.9207C46.1386 47.3267 46.4357 46.4356 46.4357 45.6435V4.15836C46.4357 3.36628 46.1386 2.5742 45.6436 1.88113L45.4456 1.68311H45.8416C47.2277 1.68311 48.4159 2.87123 48.4159 4.25737V45.6435C48.4159 47.0296 47.2277 48.2178 45.8416 48.2178H45.4456L45.6436 47.9207Z" fill="#A0A9B2"/>
</g>
</g>
<defs>
<clipPath id="clip0_48_108">
<rect width="50" height="50" fill="white"/>
</clipPath>
<clipPath id="clip1_48_108">
<rect width="50" height="50" fill="white"/>
</clipPath>
</defs>
</svg>
