<svg width="23" height="23" viewBox="0 0 23 23" fill="none" xmlns="http://www.w3.org/2000/svg">
<g clip-path="url(#clip0_257_657)">
<mask id="mask0_257_657" style="mask-type:luminance" maskUnits="userSpaceOnUse" x="0" y="0" width="23" height="23">
<path d="M0 0H23V23H0V0Z" fill="white"/>
</mask>
<g mask="url(#mask0_257_657)">
<path d="M18.8671 3.11503C16.7367 1.24279 13.9736 0.251619 11.139 0.342814C8.30432 0.434009 5.61069 1.60074 3.6051 3.60604C1.90595 5.30575 0.800537 7.50834 0.453186 9.88647C0.105835 12.2646 0.535052 14.6913 1.67706 16.806" stroke="black" stroke-miterlimit="10" stroke-linecap="round" stroke-linejoin="round"/>
<path d="M8.97852 22.3751C10.8251 22.8047 12.7507 22.7563 14.5734 22.2347C16.3961 21.7131 18.0557 20.7355 19.3955 19.3941C21.4008 17.3885 22.5675 14.6948 22.6587 11.8602C22.7499 9.02551 21.7588 6.26241 19.8865 4.13208" stroke="black" stroke-miterlimit="10" stroke-linecap="round" stroke-linejoin="round"/>
<path d="M8.01633 8.08604L7.96333 8.62404C7.95181 8.74172 7.91722 8.85598 7.86153 8.96028C7.80584 9.06459 7.73014 9.1569 7.63876 9.23193C7.54738 9.30697 7.4421 9.36327 7.32896 9.3976C7.21581 9.43194 7.09701 9.44364 6.97933 9.43204C6.86165 9.42052 6.7474 9.38593 6.64309 9.33024C6.53879 9.27455 6.44648 9.19884 6.37144 9.10746C6.2964 9.01608 6.24011 8.91081 6.20577 8.79766C6.17144 8.68452 6.15973 8.56571 6.17133 8.44804L6.24233 7.73104C6.25385 7.61336 6.28844 7.4991 6.34413 7.3948C6.39983 7.29049 6.47553 7.19818 6.56691 7.12315C6.65829 7.04811 6.76356 6.99182 6.87671 6.95748C6.98986 6.92315 7.10866 6.91144 7.22633 6.92304" stroke="black" stroke-miterlimit="10" stroke-linecap="round" stroke-linejoin="round"/>
<path d="M15.5417 8.82701L15.4887 9.365C15.4772 9.48268 15.4426 9.59694 15.3869 9.70125C15.3312 9.80555 15.2555 9.89786 15.1641 9.9729C15.0728 10.0479 14.9675 10.1042 14.8543 10.1386C14.7412 10.1729 14.6224 10.1846 14.5047 10.173C14.387 10.1615 14.2728 10.1269 14.1685 10.0712C14.0642 10.0155 13.9719 9.93981 13.8968 9.84843C13.8218 9.75705 13.7655 9.65178 13.7312 9.53863C13.6968 9.42548 13.6851 9.30668 13.6967 9.18901L13.7677 8.47201C13.7792 8.35433 13.8138 8.24007 13.8695 8.13576C13.9252 8.03146 14.0009 7.93915 14.0923 7.86411C14.1837 7.78907 14.289 7.73278 14.4021 7.69845C14.5152 7.66411 14.6341 7.65241 14.7517 7.66401" stroke="black" stroke-miterlimit="10" stroke-linecap="round" stroke-linejoin="round"/>
<path d="M7.88281 13.39C9.75934 13.4796 11.5998 13.9383 13.2988 14.74" stroke="black" stroke-miterlimit="10" stroke-linecap="round" stroke-linejoin="round"/>
<path d="M8.61825 5.73704C8.05359 5.32115 7.38588 5.06775 6.68748 5.00429C5.98907 4.94083 5.28662 5.06974 4.65625 5.37704" stroke="black" stroke-miterlimit="10" stroke-linecap="round" stroke-linejoin="round"/>
<path d="M13.6602 6.45804L17.2602 5.73804" stroke="black" stroke-miterlimit="10" stroke-linecap="round" stroke-linejoin="round"/>
<path d="M8.25711 22.663C8.4479 22.6625 8.63074 22.5865 8.76566 22.4515C8.90057 22.3166 8.97658 22.1338 8.97711 21.943C8.97658 21.7522 8.90057 21.5694 8.76566 21.4345C8.63074 21.2996 8.4479 21.2235 8.25711 21.223H8.61711C8.8079 21.2225 8.99074 21.1464 9.12566 21.0115C9.26057 20.8766 9.33658 20.6938 9.33711 20.503C9.33658 20.3122 9.26057 20.1294 9.12566 19.9945C8.99074 19.8596 8.8079 19.7835 8.61711 19.783H8.97711C9.16791 19.7825 9.35074 19.7064 9.48566 19.5715C9.62057 19.4366 9.69659 19.2538 9.69711 19.063C9.69659 18.8722 9.62057 18.6894 9.48566 18.5545C9.35074 18.4196 9.16791 18.3435 8.97711 18.343H12.9391C13.1301 18.343 13.3132 18.2671 13.4482 18.1321C13.5833 17.9971 13.6591 17.814 13.6591 17.623C13.6591 17.5285 13.6405 17.4348 13.6043 17.3475C13.5681 17.2601 13.5151 17.1807 13.4482 17.1139C13.3814 17.047 13.302 16.994 13.2146 16.9578C13.1273 16.9216 13.0337 16.903 12.9391 16.903H6.45612C6.16968 16.903 5.89498 16.7892 5.69244 16.5867C5.4899 16.3841 5.37611 16.1094 5.37611 15.823V13.662C5.37611 13.471 5.30026 13.2879 5.16524 13.1529C5.03021 13.0179 4.84707 12.942 4.65611 12.942C4.46516 12.942 4.28203 13.0179 4.147 13.1529C4.01198 13.2879 3.93611 13.471 3.93611 13.662V15.425C3.93599 15.9158 3.76882 16.3919 3.46211 16.775L3.12611 17.195C2.7175 17.706 2.49497 18.3408 2.49512 18.995V20.505C2.49512 21.0781 2.72279 21.6278 3.12805 22.0331C3.53332 22.4383 4.08298 22.666 4.65611 22.666L8.25711 22.663Z" stroke="black" stroke-miterlimit="10" stroke-linecap="round" stroke-linejoin="round"/>
</g>
</g>
<defs>
<clipPath id="clip0_257_657">
<rect width="23" height="23" fill="white"/>
</clipPath>
</defs>
</svg>
