<svg width="18" height="16" viewBox="0 0 18 16" fill="none" xmlns="http://www.w3.org/2000/svg">
<path d="M16.0219 15.439H2.30895C2.01232 15.4411 1.72224 15.3518 1.47809 15.1834C1.23394 15.0149 1.04756 14.7754 0.944241 14.4973C0.840924 14.2192 0.825685 13.9161 0.900593 13.6291C0.9755 13.3421 1.13693 13.0851 1.36295 12.893C1.98425 12.3744 2.48407 11.7257 2.82707 10.9927C3.17007 10.2597 3.34789 9.46027 3.34795 8.65098V6.35098C3.34795 4.80769 3.96102 3.3276 5.05229 2.23633C6.14357 1.14505 7.62365 0.531982 9.16695 0.531982C10.7102 0.531982 12.1903 1.14505 13.2816 2.23633C14.3729 3.3276 14.9859 4.80769 14.9859 6.35098V8.65098C14.9858 9.45864 15.1628 10.2565 15.5044 10.9884C15.846 11.7202 16.3438 12.3683 16.9629 12.887C17.1909 13.0779 17.3544 13.3346 17.431 13.6219C17.5077 13.9093 17.4937 14.2133 17.3911 14.4924C17.2885 14.7715 17.1022 15.0121 16.8576 15.1813C16.6131 15.3506 16.3223 15.4402 16.0249 15.438L16.0219 15.439ZM9.16695 1.80098C7.95823 1.79885 6.79802 2.27629 5.94089 3.12855C5.08376 3.9808 4.59971 5.13827 4.59495 6.34698V8.64698C4.59508 9.63505 4.37855 10.6111 3.9606 11.5065C3.54266 12.4018 2.93346 13.1946 2.17595 13.829C2.15249 13.8483 2.1336 13.8726 2.12063 13.9001C2.10767 13.9276 2.10095 13.9576 2.10095 13.988C2.10173 14.0428 2.12392 14.0952 2.16279 14.1338C2.20166 14.1725 2.25412 14.1945 2.30895 14.195H16.0219C16.0768 14.1945 16.1292 14.1725 16.1681 14.1338C16.207 14.0952 16.2292 14.0428 16.2299 13.988C16.2303 13.958 16.224 13.9284 16.2113 13.9012C16.1987 13.874 16.1801 13.85 16.1569 13.831C15.3989 13.1965 14.7893 12.4034 14.371 11.5077C13.9527 10.6121 13.7359 9.63553 13.7359 8.64698V6.34698C13.7312 5.13879 13.2475 3.98178 12.3911 3.12961C11.5346 2.27744 10.3751 1.79965 9.16695 1.80098Z" fill="white"/>
</svg>
