<svg width="22" height="22" viewBox="0 0 22 22" fill="none" xmlns="http://www.w3.org/2000/svg">
<g clip-path="url(#clip0_34_32)">
<path d="M17.9967 13.1279V12.5869H18.7541V11.2525H17.5278C17.3836 11.2525 17.2754 11.1443 17.2754 11C17.2754 10.9639 17.2754 10.9279 17.2754 10.9279L18.0328 8.6918C18.0688 8.58361 18.177 8.51147 18.2852 8.51147H19.7639C19.8721 8.51147 19.9803 8.58361 20.0164 8.6918L20.7738 10.9279C20.8098 11 20.7738 11.0721 20.7738 11.1443C20.7377 11.2164 20.7016 11.2525 20.6295 11.2885C20.5934 11.2885 20.5934 11.2885 20.5574 11.2885H19.3311V12.6229H20.0885V13.1639H17.9967V13.1279ZM17.8885 10.7475H20.1246L19.5836 9.01639H18.4656L17.8885 10.7475Z" fill="#A0A9B2"/>
<path d="M21.3869 9.55733V5.37373L11 0.649138L0.613133 5.37373V9.55733H0.108215V5.22947C0.108215 5.12127 0.180346 5.04914 0.252478 4.97701L10.8918 0.14422C10.9279 0.14422 10.964 0.108154 11 0.108154C11.0361 0.108154 11.0722 0.108154 11.1082 0.14422L21.7476 4.97701C21.8558 5.01307 21.8918 5.12127 21.8918 5.22947V9.5934H21.3869V9.55733Z" fill="#A0A9B2"/>
<path d="M21.3508 19.6557V17.4196H16.6623V19.6557H16.1213V14.1737C16.1213 14.1016 16.1574 14.0295 16.1935 13.9934C16.2295 13.9573 16.3017 13.9213 16.3738 13.9213H21.6394C21.7836 13.9213 21.8918 14.0295 21.8918 14.1737V19.6557H21.3508ZM16.6623 16.8786H21.3508V14.4262H16.6623V16.8786Z" fill="#A0A9B2"/>
<path d="M19.4033 15.4722H18.2131V16.1935H19.4033V15.4722Z" fill="#A0A9B2"/>
<path d="M11 8.07867C9.77377 8.07867 8.72787 7.21309 8.54754 5.98686C8.51147 5.8426 8.51147 5.69834 8.51147 5.55408C8.51147 4.18358 9.62951 3.06555 11 3.06555C11.2525 3.06555 11.5049 3.10162 11.7213 3.17375L11.541 3.67867C11.3607 3.6426 11.1803 3.60654 11 3.60654C9.91803 3.60654 9.01639 4.50817 9.01639 5.59014C9.01639 6.13113 9.23279 6.59998 9.59344 6.9967C9.9541 7.35735 10.459 7.57375 11 7.57375C12.082 7.57375 12.9836 6.67211 12.9836 5.59014C12.9836 5.51801 12.9836 5.44588 12.9836 5.37375L13.4885 5.30162C13.6689 6.63604 12.7311 7.86227 11.4328 8.07867C11.2885 8.07867 11.1443 8.07867 11 8.07867Z" fill="#A0A9B2"/>
<path d="M13.7771 21.8918C13.6328 21.8918 13.5246 21.7836 13.5246 21.6394V20.4132H2.12789V21.6394C2.12789 21.7836 2.01969 21.8918 1.87543 21.8918H0.360674C0.216412 21.8918 0.108215 21.7836 0.108215 21.6394V15.6525C0.108215 14.823 0.685265 14.1017 1.51477 13.9213H1.5869V10.4591C1.5869 9.91807 2.05576 9.44922 2.59674 9.44922H13.0197C13.5607 9.44922 14.0295 9.91807 14.0295 10.4591V13.9213H14.1017C14.9312 14.1017 15.5082 14.823 15.5082 15.6525V21.6394C15.5082 21.7836 15.4 21.8918 15.2558 21.8918H13.7771ZM13.7771 19.8722C13.9213 19.8722 14.0295 19.9804 14.0295 20.1246V21.3509H15.0033V18.141H0.649199V21.3509H1.62297V20.1246C1.62297 19.9804 1.73117 19.8722 1.87543 19.8722H13.7771ZM1.87543 14.4263C1.19018 14.4263 0.649199 14.9673 0.649199 15.6525V17.6361H15.0033V15.6525C15.0033 14.9673 14.4623 14.4263 13.7771 14.4263H1.87543ZM11.541 11.2886C12.082 11.2886 12.5508 11.7574 12.5508 12.2984V13.8853H13.5246V10.4591C13.5246 10.2066 13.3082 9.9902 13.0558 9.9902H2.59674C2.34428 9.9902 2.12789 10.2066 2.12789 10.4591V13.9213H3.10166V12.3345C3.10166 11.7935 3.57051 11.3246 4.11149 11.3246H6.34756C6.88854 11.3246 7.3574 11.7935 7.3574 12.3345V13.9213H8.2951V12.3345C8.2951 11.7935 8.76395 11.3246 9.30494 11.3246H11.541V11.2886ZM9.30494 11.8295C9.05248 11.8295 8.83609 12.0459 8.83609 12.2984V13.8853H12.0459V12.2984C12.0459 12.0459 11.8295 11.8295 11.5771 11.8295H9.30494ZM4.11149 11.8295C3.85904 11.8295 3.64264 12.0459 3.64264 12.2984V13.8853H6.85248V12.2984C6.85248 12.0459 6.63609 11.8295 6.38363 11.8295H4.11149Z" fill="#A0A9B2"/>
<path d="M10.9639 6.23929C10.8918 6.23929 10.8557 6.23929 10.8196 6.20323L10.7836 6.1311L10.1344 5.48191L10.4951 5.12126L10.9639 5.59011L13.3082 3.24585L13.6688 3.60651L11.1442 6.1311C11.1082 6.20323 11.036 6.23929 10.9639 6.23929Z" fill="#A0A9B2"/>
</g>
<defs>
<clipPath id="clip0_34_32">
<rect width="22" height="22" fill="white"/>
</clipPath>
</defs>
</svg>
