<svg width="61" height="61" viewBox="0 0 61 61" fill="none" xmlns="http://www.w3.org/2000/svg">
<g clip-path="url(#clip0_19_67)">
<mask id="mask0_19_67" style="mask-type:luminance" maskUnits="userSpaceOnUse" x="0" y="0" width="61" height="61">
<path d="M0 0H61V61H0V0Z" fill="white"/>
</mask>
<g mask="url(#mask0_19_67)">
<path d="M39.778 21.016V20.733C39.7833 18.976 40.3331 17.2638 41.3515 15.8321C42.3699 14.4004 43.807 13.3194 45.465 12.738M51.043 12.745C52.6963 13.3292 54.1284 14.4104 55.1432 15.8405C56.1579 17.2706 56.7055 18.9795 56.711 20.733V32.022C56.7086 32.7697 56.4105 33.4861 55.8818 34.0148C55.3531 34.5435 54.6367 34.8416 53.889 34.844L52.478 56.987C52.453 57.7275 52.1477 58.4309 51.6238 58.9548C51.0999 59.4787 50.3965 59.784 49.656 59.809H46.833C46.0924 59.784 45.3891 59.4787 44.8651 58.9548C44.3412 58.4309 44.0359 57.7275 44.011 56.987C43.541 51.343 43.07 40.487 42.6 34.844C41.852 34.8419 41.1353 34.5437 40.6065 34.0147C40.0777 33.4858 39.7798 32.7689 39.778 32.021V31.738" stroke="#A0A9B2" stroke-width="1.5" stroke-miterlimit="22.926" stroke-linecap="round" stroke-linejoin="round"/>
<path d="M48.244 1.19098C49.5558 1.19494 50.8128 1.71783 51.7405 2.64546C52.6681 3.5731 53.191 4.83011 53.195 6.14198V8.61798C53.191 9.92985 52.6681 11.1869 51.7405 12.1145C50.8128 13.0421 49.5558 13.565 48.244 13.569C46.9321 13.565 45.6751 13.0421 44.7475 12.1145C43.8198 11.1869 43.2969 9.92985 43.293 8.61798V6.14198C43.2969 4.83011 43.8198 3.5731 44.7475 2.64546C45.6751 1.71783 46.9321 1.19494 48.244 1.19098Z" stroke="#A0A9B2" stroke-width="1.5" stroke-miterlimit="22.926" stroke-linecap="round" stroke-linejoin="round"/>
<path d="M31.0279 22.16C32.4575 22.6666 33.6955 23.6026 34.5726 24.8399C35.4498 26.0772 35.9231 27.5553 35.9279 29.072V37.814C35.9258 38.4613 35.6677 39.0814 35.2101 39.5391C34.7524 39.9968 34.1322 40.2549 33.4849 40.257L32.2629 57.365C32.2412 58.006 31.9769 58.6149 31.5233 59.0684C31.0698 59.5219 30.461 59.7863 29.8199 59.808H27.3769C26.7359 59.7863 26.127 59.5219 25.6735 59.0684C25.22 58.6149 24.9556 58.006 24.9339 57.365C24.5269 52.478 24.1189 45.143 23.7119 40.257C23.0646 40.2549 22.4445 39.9968 21.9868 39.5391C21.5291 39.0814 21.271 38.4613 21.2689 37.814V29.071C21.2733 27.554 21.7465 26.0754 22.6236 24.8377C23.5008 23.6001 24.7391 22.6637 26.1689 22.157" stroke="#A0A9B2" stroke-width="1.5" stroke-miterlimit="22.926" stroke-linecap="round" stroke-linejoin="round"/>
<path d="M28.5939 12.152C29.7295 12.1559 30.8174 12.6089 31.6202 13.4121C32.423 14.2153 32.8755 15.3034 32.8789 16.439V18.582C32.8755 19.7179 32.4227 20.8063 31.6195 21.6096C30.8162 22.4128 29.7278 22.8655 28.5919 22.869C27.4563 22.865 26.3684 22.412 25.5656 21.6089C24.7628 20.8057 24.3103 19.7176 24.3069 18.582V16.439C24.3103 15.303 24.7631 14.2146 25.5663 13.4114C26.3695 12.6082 27.458 12.1554 28.5939 12.152Z" stroke="#A0A9B2" stroke-width="1.5" stroke-miterlimit="22.926" stroke-linecap="round" stroke-linejoin="round"/>
<path d="M13.0229 32.111C14.299 32.5652 15.4037 33.4023 16.1862 34.5078C16.9687 35.6134 17.3908 36.9335 17.3949 38.288V44.912C17.3931 45.4907 17.1624 46.0451 16.7532 46.4543C16.344 46.8634 15.7896 47.0941 15.2109 47.096L14.1179 57.626C14.0985 58.199 13.8622 58.7433 13.4567 59.1488C13.0513 59.5542 12.507 59.7905 11.9339 59.81H9.74994C9.17671 59.7908 8.63218 59.5546 8.22653 59.1491C7.82088 58.7436 7.5844 58.1992 7.56494 57.626C7.20094 53.258 6.83694 51.466 6.47294 47.098C5.89427 47.0961 5.33984 46.8654 4.93066 46.4563C4.52148 46.0471 4.29079 45.4927 4.28894 44.914V38.288C4.29316 36.9329 4.7158 35.6121 5.49907 34.5063C6.28234 33.4005 7.38801 32.5636 8.66494 32.11" stroke="#A0A9B2" stroke-width="1.5" stroke-miterlimit="22.926" stroke-linecap="round" stroke-linejoin="round"/>
<path d="M10.8419 23.164C11.8573 23.1669 12.8303 23.5716 13.5483 24.2896C14.2663 25.0076 14.671 25.9806 14.6739 26.996V28.912C14.671 29.9274 14.2663 30.9004 13.5483 31.6184C12.8303 32.3364 11.8573 32.7411 10.8419 32.744C9.82647 32.7411 8.85347 32.3364 8.13546 31.6184C7.41745 30.9004 7.01279 29.9274 7.00989 28.912V26.996C7.01279 25.9806 7.41745 25.0076 8.13546 24.2896C8.85347 23.5716 9.82647 23.1669 10.8419 23.164Z" stroke="#A0A9B2" stroke-width="1.5" stroke-miterlimit="22.926" stroke-linecap="round" stroke-linejoin="round"/>
</g>
</g>
<defs>
<clipPath id="clip0_19_67">
<rect width="61" height="61" fill="white"/>
</clipPath>
</defs>
</svg>
