<svg width="54" height="61" viewBox="0 0 54 61" fill="none" xmlns="http://www.w3.org/2000/svg">
<g clip-path="url(#clip0_322_1299)">
<path d="M43.149 25.558C43.196 22.2872 42.2691 19.0764 40.4861 16.3339C38.7031 13.5914 36.1446 11.4413 33.1362 10.157C30.1277 8.87267 26.8052 8.51227 23.5913 9.1216C20.3775 9.73094 17.4175 11.2825 15.0879 13.5789C12.7583 15.8752 11.1645 18.8126 10.509 22.0174C9.85362 25.2222 10.1663 28.5495 11.4073 31.5761C12.6483 34.6027 14.7614 37.1918 17.478 39.014C20.1946 40.8361 23.3919 41.8091 26.663 41.809C31.0026 41.8349 35.1753 40.1385 38.2659 37.092C41.3564 34.0455 43.1125 29.8975 43.149 25.558ZM26.663 39.709C23.8717 39.6672 21.155 38.8012 18.8545 37.2199C16.5539 35.6385 14.7721 33.4124 13.7332 30.8213C12.6942 28.2302 12.4443 25.3898 13.015 22.6571C13.5857 19.9245 14.9514 17.4215 16.9406 15.4628C18.9297 13.5041 21.4535 12.1771 24.1947 11.6486C26.9358 11.1202 29.772 11.4138 32.3468 12.4926C34.9215 13.5715 37.1199 15.3873 38.6656 17.712C40.2113 20.0367 41.0352 22.7664 41.034 25.558C40.9991 29.3385 39.4668 32.9509 36.773 35.6035C34.0792 38.2561 30.4435 39.7325 26.663 39.709Z" fill="#A0A9B2"/>
<path d="M46.751 42.5678C47.3504 42.2772 47.8729 41.8493 48.276 41.3188C49.341 39.8598 49.091 37.9528 48.854 36.0998C48.6249 35.0174 48.6116 33.9004 48.815 32.8128C49.2752 31.8598 49.9184 31.0066 50.708 30.3018C51.957 28.9868 53.364 27.5018 53.364 25.6218C53.364 23.7418 51.97 22.2298 50.721 20.9148C49.9343 20.2074 49.2915 19.3549 48.828 18.4038C48.6246 17.3163 48.6379 16.1993 48.867 15.1168C49.104 13.2628 49.34 11.3568 48.289 9.89784C47.238 8.43884 45.318 8.07084 43.477 7.71585C42.391 7.60075 41.338 7.27464 40.377 6.75585C39.5943 6.0109 38.9684 5.11707 38.536 4.12684C37.681 2.54884 36.695 0.760846 34.947 0.182846C33.264 -0.369154 31.542 0.445846 29.872 1.23485C28.8912 1.79454 27.8101 2.15638 26.69 2.29984C25.5699 2.15638 24.4888 1.79454 23.508 1.23485C21.838 0.445846 20.116 -0.365154 18.433 0.182846C16.671 0.747846 15.751 2.47084 14.844 4.12684C14.4025 5.11239 13.7766 6.00441 13 6.75484C12.0407 7.27755 10.9868 7.6039 9.9 7.71485C8.059 8.05685 6.153 8.42484 5.088 9.89684C4.023 11.3688 4.273 13.2628 4.51 15.1158C4.73912 16.1983 4.75237 17.3153 4.549 18.4028C4.08878 19.3559 3.44557 20.2091 2.656 20.9138C1.407 22.2288 0 23.7138 0 25.5938C0 27.4738 1.42 28.9598 2.656 30.2738C3.44269 30.9812 4.08545 31.8338 4.549 32.7848C4.75271 33.8741 4.73911 34.9929 4.509 36.0768C4.272 37.9308 4.036 39.8368 5.087 41.2958C5.4864 41.8298 6.00981 42.2585 6.612 42.5448L0.880001 52.4708C0.776776 52.6515 0.729074 52.8586 0.742859 53.0663C0.756644 53.2739 0.831302 53.4729 0.957508 53.6384C1.08371 53.8038 1.25587 53.9285 1.45248 53.9967C1.64909 54.0649 1.86144 54.0736 2.063 54.0218L10.53 51.7478L12.804 60.2148C12.8598 60.4157 12.9728 60.596 13.1292 60.7337C13.2856 60.8715 13.4787 60.9608 13.685 60.9908C13.738 60.9908 13.777 61.0038 13.816 61.0038C14.0001 61.0039 14.181 60.9553 14.3403 60.863C14.4996 60.7706 14.6316 60.6377 14.723 60.4778L20.1 51.1528C21.2954 50.9352 22.4489 50.5302 23.518 49.9528C24.4991 49.3945 25.5802 49.0341 26.7 48.8918C27.8201 49.0353 28.9012 49.3971 29.882 49.9568C30.9485 50.5399 32.103 50.9453 33.3 51.1568L38.679 60.4768C38.7704 60.6367 38.9024 60.7696 39.0617 60.862C39.221 60.9543 39.4019 61.0029 39.586 61.0028C39.6301 61.005 39.6742 61.0006 39.717 60.9898C39.9242 60.9625 40.1187 60.874 40.2755 60.7359C40.4324 60.5977 40.5447 60.416 40.598 60.2138L42.872 51.7468L51.339 54.0208C51.5406 54.0726 51.7529 54.0639 51.9495 53.9957C52.1461 53.9275 52.3183 53.8028 52.4445 53.6374C52.5707 53.4719 52.6454 53.2729 52.6591 53.0653C52.6729 52.8576 52.6252 52.6505 52.522 52.4698L46.751 42.5678ZM14.133 57.2398L12.253 50.2058C12.2178 50.072 12.1565 49.9464 12.0727 49.8363C11.9888 49.7261 11.8841 49.6336 11.7644 49.564C11.6448 49.4945 11.5126 49.4492 11.3754 49.4308C11.2382 49.4124 11.0988 49.4212 10.965 49.4568L3.931 51.3368L8.611 43.2248C9.019 43.3168 9.439 43.3958 9.86 43.4748C10.946 43.5899 11.999 43.916 12.96 44.4348C13.7423 45.1799 14.3679 46.0737 14.8 47.0638C15.563 48.4708 16.417 50.0348 17.837 50.7718L14.133 57.2398ZM26.663 46.8008C25.2294 46.9234 23.8391 47.3538 22.587 48.0628C21.287 48.6808 19.944 49.3118 19.064 49.0228C18.104 48.7068 17.381 47.3658 16.671 46.0778C16.0984 44.8062 15.2599 43.6721 14.212 42.7518C13.0037 42.0302 11.6541 41.5772 10.255 41.4238C8.822 41.1478 7.336 40.8718 6.745 40.0828C6.18 39.3068 6.364 37.8088 6.545 36.3748C6.83081 34.9851 6.81274 33.55 6.492 32.1678C5.94783 30.9076 5.14084 29.7781 4.125 28.8548C3.1 27.7768 2.035 26.6548 2.035 25.6208C2.035 24.5868 3.1 23.4648 4.125 22.3868C5.14679 21.4694 5.95568 20.3397 6.495 19.0768C6.81573 17.6947 6.83382 16.2596 6.548 14.8698C6.364 13.4238 6.18 11.9378 6.748 11.1618C7.326 10.3618 8.812 10.0838 10.258 9.82084C11.6571 9.66746 13.0067 9.21452 14.215 8.49285C15.2658 7.57529 16.1048 6.44047 16.674 5.16685C17.384 3.86685 18.107 2.53785 19.067 2.22185C19.961 1.93285 21.302 2.56384 22.59 3.18184C23.8421 3.89085 25.2324 4.32132 26.666 4.44385C28.0986 4.31921 29.4876 3.88705 30.738 3.17685C32.038 2.55885 33.381 1.92784 34.261 2.21684C35.221 2.53284 35.944 3.87384 36.654 5.16184C37.2266 6.43348 38.0651 7.56761 39.113 8.48784C40.3213 9.20952 41.6709 9.66246 43.07 9.81584C44.503 10.0918 45.989 10.3678 46.58 11.1568C47.145 11.9328 46.961 13.4308 46.78 14.8648C46.4925 16.256 46.5095 17.6929 46.83 19.0768C47.3754 20.3363 48.1834 21.4648 49.2 22.3868C50.225 23.4648 51.29 24.5868 51.29 25.6208C51.29 26.6548 50.225 27.7768 49.2 28.8548C48.1789 29.7734 47.3711 30.9042 46.833 32.1678C46.5123 33.55 46.4942 34.9851 46.78 36.3748C46.964 37.8208 47.148 39.3068 46.58 40.0828C46.002 40.8828 44.516 41.1608 43.07 41.4238C41.6709 41.5772 40.3213 42.0302 39.113 42.7518C38.0623 43.6691 37.2233 44.8036 36.654 46.0768C35.944 47.3768 35.221 48.7058 34.261 49.0218C33.367 49.3108 32.026 48.6798 30.738 48.0618C29.4862 47.3533 28.0962 46.9232 26.663 46.8008ZM42.363 49.4568C42.2292 49.4212 42.0898 49.4124 41.9526 49.4308C41.8154 49.4492 41.6832 49.4945 41.5635 49.564C41.4439 49.6336 41.3392 49.7261 41.2553 49.8363C41.1715 49.9464 41.1102 50.072 41.075 50.2058L39.195 57.2398L35.474 50.7978C36.881 50.0748 37.709 48.5628 38.511 47.0898C38.9515 46.1042 39.5764 45.2118 40.352 44.4608C41.3113 43.9381 42.3652 43.6118 43.452 43.5008C43.873 43.4218 44.293 43.3428 44.701 43.2508L49.381 51.3628L42.363 49.4568Z" fill="#A0A9B2"/>
<path d="M36.435 19.211C36.2392 19.017 35.9746 18.9082 35.699 18.9082C35.4234 18.9082 35.1589 19.017 34.963 19.211L24.409 29.765L18.375 23.733C18.279 23.6337 18.1641 23.5546 18.0371 23.5001C17.9101 23.4457 17.7736 23.4171 17.6355 23.416C17.4974 23.4148 17.3604 23.4412 17.2325 23.4936C17.1047 23.5459 16.9886 23.6232 16.8909 23.7208C16.7932 23.8185 16.716 23.9347 16.6636 24.0625C16.6113 24.1903 16.5849 24.3273 16.586 24.4654C16.5872 24.6036 16.6158 24.7401 16.6702 24.8671C16.7246 24.994 16.8038 25.1089 16.903 25.205L23.679 31.981C23.8784 32.1731 24.1446 32.2805 24.4215 32.2805C24.6985 32.2805 24.9646 32.1731 25.164 31.981L36.435 20.681C36.6284 20.4852 36.7368 20.2211 36.7368 19.946C36.7368 19.6708 36.6284 19.4067 36.435 19.211Z" fill="#A0A9B2"/>
</g>
<defs>
<clipPath id="clip0_322_1299">
<rect width="53.365" height="61" fill="white"/>
</clipPath>
</defs>
</svg>
