<svg width="22" height="22" viewBox="0 0 22 22" fill="none" xmlns="http://www.w3.org/2000/svg">
<path id="Trac&#195;&#169; 811" d="M19.0784 3.47353L20.9454 1.65425C21.0313 1.57043 21.0796 1.45674 21.0796 1.3382C21.0796 1.21965 21.0313 1.10596 20.9454 1.02214C20.8594 0.938317 20.7429 0.891225 20.6213 0.891225C20.4998 0.891225 20.3833 0.938317 20.2973 1.02214L18.4314 2.84142C16.3471 0.964416 13.5991 -0.0530505 10.763 0.00213285C7.92689 0.0573162 5.22269 1.18087 3.21681 3.13745C1.21092 5.09404 0.0589536 7.73187 0.00220061 10.4984C-0.0545523 13.265 0.988308 15.9457 2.91235 17.979L1.04635 19.7983C0.960613 19.8822 0.912472 19.9958 0.912472 20.1143C0.912472 20.2328 0.960613 20.3464 1.04635 20.4304C1.08869 20.4722 1.13915 20.5054 1.19477 20.528C1.2504 20.5506 1.31009 20.5622 1.37035 20.5621C1.49201 20.5624 1.60887 20.5158 1.69535 20.4323L3.56035 18.613C5.64438 20.4925 8.39342 21.512 11.2311 21.4576C14.0687 21.4033 16.7746 20.2793 18.7814 18.3215C20.7882 16.3636 21.94 13.7239 21.9954 10.9558C22.0508 8.18774 21.0053 5.50623 19.0784 3.47353ZM0.912349 10.7263C0.909086 8.81888 1.47537 6.95187 2.54203 5.3533C3.60869 3.75474 5.12954 2.49382 6.91879 1.72459C8.70804 0.955355 10.6882 0.711115 12.6174 1.0217C14.5466 1.33229 16.3414 2.18426 17.7824 3.47353L3.56035 17.3469C1.85839 15.5417 0.91335 13.1788 0.912349 10.7263ZM10.9953 20.5621C8.48112 20.5611 6.05893 19.6392 4.20835 17.979L18.4303 4.10564C19.752 5.5113 20.6254 7.26202 20.9438 9.14394C21.2622 11.0259 21.0118 12.9575 20.2232 14.7029C19.4347 16.4483 18.1421 17.9318 16.5033 18.9723C14.8646 20.0128 12.9507 20.5652 10.9953 20.5621Z" fill="black"/>
</svg>
