<svg width="18" height="24" viewBox="0 0 18 24" fill="none" xmlns="http://www.w3.org/2000/svg">
<g id="elevator" clip-path="url(#clip0_319_522)">
<g id="elevator_2">
<g id="Groupe 1207">
<g id="Groupe 1206">
<path id="Trac&#195;&#169; 852" d="M14.8567 4.19H1.14272C1.04167 4.19 0.944765 4.23015 0.873314 4.3016C0.801863 4.37305 0.761719 4.46995 0.761719 4.571V23.619C0.761719 23.7201 0.801863 23.817 0.873314 23.8884C0.944765 23.9599 1.04167 24 1.14272 24C1.24376 24 1.34067 23.9599 1.41212 23.8884C1.48358 23.817 1.52372 23.7201 1.52372 23.619V4.952H14.4757V23.619C14.4757 23.7201 14.5159 23.817 14.5873 23.8884C14.6588 23.9599 14.7557 24 14.8567 24C14.9578 24 15.0547 23.9599 15.1261 23.8884C15.1976 23.817 15.2377 23.7201 15.2377 23.619V4.571C15.2377 4.46995 15.1976 4.37305 15.1261 4.3016C15.0547 4.23015 14.9578 4.19 14.8567 4.19Z" fill="black"/>
</g>
</g>
<g id="Groupe 1209">
<g id="Groupe 1208">
<path id="Trac&#195;&#169; 853" d="M13.7153 5.33301H2.28627C2.18522 5.33301 2.08832 5.37315 2.01687 5.4446C1.94542 5.51605 1.90527 5.61296 1.90527 5.714V23.619C1.90527 23.7201 1.94542 23.817 2.01687 23.8884C2.08832 23.9599 2.18522 24 2.28627 24C2.38732 24 2.48423 23.9599 2.55568 23.8884C2.62713 23.817 2.66727 23.7201 2.66727 23.619V6.09501H13.3343V23.619C13.3343 23.7201 13.3744 23.817 13.4459 23.8884C13.5173 23.9599 13.6142 24 13.7153 24C13.8163 24 13.9132 23.9599 13.9847 23.8884C14.0561 23.817 14.0963 23.7201 14.0963 23.619V5.714C14.0963 5.61296 14.0561 5.51605 13.9847 5.4446C13.9132 5.37315 13.8163 5.33301 13.7153 5.33301Z" fill="black"/>
</g>
</g>
<g id="Groupe 1211">
<g id="Groupe 1210">
<path id="Trac&#195;&#169; 854" d="M17.1265 12.099C17.0912 12.0635 17.0492 12.0353 17.0029 12.0161C16.9567 11.9968 16.9071 11.9869 16.857 11.9869C16.8069 11.9869 16.7573 11.9968 16.7111 12.0161C16.6648 12.0353 16.6228 12.0635 16.5875 12.099L15.8255 12.8611C15.7901 12.8964 15.762 12.9384 15.7429 12.9847C15.7237 13.0309 15.7139 13.0805 15.7139 13.1306C15.7139 13.1806 15.7237 13.2302 15.7429 13.2764C15.762 13.3226 15.7901 13.3647 15.8255 13.4001C15.8609 13.4354 15.9029 13.4635 15.9492 13.4827C15.9954 13.5018 16.045 13.5117 16.095 13.5117C16.1451 13.5117 16.1946 13.5018 16.2408 13.4827C16.2871 13.4635 16.3291 13.4354 16.3645 13.4001L17.1265 12.638C17.1619 12.6026 17.19 12.5606 17.2092 12.5144C17.2283 12.4682 17.2382 12.4186 17.2382 12.3685C17.2382 12.3185 17.2283 12.2689 17.2092 12.2227C17.19 12.1764 17.1619 12.1344 17.1265 12.099Z" fill="black"/>
</g>
</g>
<g id="Groupe 1213">
<g id="Groupe 1212">
<path id="Trac&#195;&#169; 855" d="M17.8882 12.8611L17.1262 12.099C17.0908 12.0637 17.0488 12.0356 17.0026 12.0164C16.9563 11.9973 16.9068 11.9874 16.8567 11.9874C16.8067 11.9874 16.7571 11.9973 16.7109 12.0164C16.6646 12.0356 16.6226 12.0637 16.5872 12.099C16.5518 12.1344 16.5238 12.1765 16.5046 12.2227C16.4855 12.2689 16.4756 12.3185 16.4756 12.3685C16.4756 12.4186 16.4855 12.4682 16.5046 12.5144C16.5238 12.5607 16.5518 12.6027 16.5872 12.638L17.3492 13.4001C17.3846 13.4355 17.4266 13.4635 17.4729 13.4827C17.5191 13.5018 17.5687 13.5117 17.6187 13.5117C17.6688 13.5117 17.7183 13.5018 17.7646 13.4827C17.8108 13.4635 17.8528 13.4355 17.8882 13.4001C17.9236 13.3647 17.9517 13.3227 17.9708 13.2764C17.99 13.2302 17.9998 13.1806 17.9998 13.1306C17.9998 13.0805 17.99 13.0309 17.9708 12.9847C17.9517 12.9385 17.9236 12.8965 17.8882 12.8611Z" fill="black"/>
</g>
</g>
<g id="Groupe 1215">
<g id="Groupe 1214">
<path id="Trac&#195;&#169; 856" d="M17.8882 15.096C17.8528 15.0606 17.8108 15.0326 17.7646 15.0134C17.7183 14.9942 17.6688 14.9844 17.6187 14.9844C17.5687 14.9844 17.5191 14.9942 17.4729 15.0134C17.4266 15.0326 17.3846 15.0606 17.3492 15.096L16.5872 15.8581C16.5518 15.8935 16.5238 15.9354 16.5046 15.9817C16.4855 16.0279 16.4756 16.0775 16.4756 16.1276C16.4756 16.1776 16.4855 16.2272 16.5046 16.2734C16.5238 16.3196 16.5518 16.3617 16.5872 16.3971C16.6226 16.4325 16.6646 16.4605 16.7109 16.4797C16.7571 16.4988 16.8067 16.5087 16.8567 16.5087C16.9068 16.5087 16.9563 16.4988 17.0026 16.4797C17.0488 16.4605 17.0908 16.4325 17.1262 16.3971L17.8882 15.635C17.9236 15.5997 17.9517 15.5577 17.9709 15.5114C17.99 15.4652 17.9999 15.4156 17.9999 15.3655C17.9999 15.3155 17.99 15.2659 17.9709 15.2197C17.9517 15.1735 17.9236 15.1314 17.8882 15.096Z" fill="black"/>
</g>
</g>
<g id="Groupe 1217">
<g id="Groupe 1216">
<path id="Trac&#195;&#169; 857" d="M17.1265 15.858L16.3645 15.096C16.3291 15.0606 16.2871 15.0325 16.2408 15.0134C16.1946 14.9942 16.1451 14.9844 16.095 14.9844C16.045 14.9844 15.9954 14.9942 15.9492 15.0134C15.9029 15.0325 15.8609 15.0606 15.8255 15.096C15.7901 15.1314 15.762 15.1734 15.7429 15.2196C15.7237 15.2659 15.7139 15.3154 15.7139 15.3655C15.7139 15.4155 15.7237 15.4651 15.7429 15.5114C15.762 15.5576 15.7901 15.5996 15.8255 15.635L16.5875 16.397C16.6229 16.4324 16.6649 16.4605 16.7112 16.4796C16.7574 16.4988 16.8069 16.5086 16.857 16.5086C16.907 16.5086 16.9566 16.4988 17.0028 16.4796C17.0491 16.4605 17.0911 16.4324 17.1265 16.397C17.1619 16.3616 17.19 16.3196 17.2091 16.2733C17.2283 16.2271 17.2381 16.1776 17.2381 16.1275C17.2381 16.0775 17.2283 16.0279 17.2091 15.9816C17.19 15.9354 17.1619 15.8934 17.1265 15.858Z" fill="black"/>
</g>
</g>
<g id="Groupe 1219">
<g id="Groupe 1218">
<path id="Trac&#195;&#169; 858" d="M7.87613 5.33301C7.77508 5.33301 7.67817 5.37315 7.60672 5.4446C7.53527 5.51605 7.49512 5.61296 7.49512 5.714V23.619C7.49512 23.7201 7.53527 23.817 7.60672 23.8884C7.67817 23.9599 7.77508 24 7.87613 24C7.97718 24 8.07409 23.9599 8.14554 23.8884C8.21699 23.817 8.25713 23.7201 8.25713 23.619V5.714C8.25713 5.61296 8.21699 5.51605 8.14554 5.4446C8.07409 5.37315 7.97718 5.33301 7.87613 5.33301Z" fill="black"/>
</g>
</g>
<g id="Groupe 1221">
<g id="Groupe 1220">
<path id="Trac&#195;&#169; 859" d="M15.3402 23.238H0.374165C0.273117 23.238 0.176207 23.2782 0.104755 23.3496C0.033304 23.4211 -0.00683594 23.518 -0.00683594 23.619C-0.00683594 23.7201 0.033304 23.817 0.104755 23.8885C0.176207 23.9599 0.273117 24 0.374165 24H15.3402C15.4412 24 15.5381 23.9599 15.6096 23.8885C15.681 23.817 15.7212 23.7201 15.7212 23.619C15.7212 23.518 15.681 23.4211 15.6096 23.3496C15.5381 23.2782 15.4412 23.238 15.3402 23.238Z" fill="black"/>
</g>
</g>
<g id="Groupe 1223">
<g id="Groupe 1222">
<path id="Trac&#195;&#169; 860" d="M7.886 0C6.97699 0.00105911 6.10553 0.3627 5.46286 1.00556C4.82019 1.64842 4.4588 2.51999 4.45801 3.429C4.45801 3.53005 4.49814 3.62696 4.5696 3.69841C4.64105 3.76986 4.73796 3.81 4.839 3.81C4.94005 3.81 5.03696 3.76986 5.10841 3.69841C5.17987 3.62696 5.22 3.53005 5.22 3.429C5.23352 2.73074 5.5204 2.06565 6.019 1.57662C6.51759 1.08759 7.18812 0.813641 7.88651 0.813641C8.58489 0.813641 9.25542 1.08759 9.75401 1.57662C10.2526 2.06565 10.5395 2.73074 10.553 3.429C10.553 3.53005 10.5931 3.62696 10.6646 3.69841C10.736 3.76986 10.833 3.81 10.934 3.81C11.0351 3.81 11.132 3.76986 11.2034 3.69841C11.2749 3.62696 11.315 3.53005 11.315 3.429C11.3142 2.51982 10.9527 1.6481 10.3098 1.00521C9.66691 0.362318 8.79519 0.000794394 7.886 0Z" fill="black"/>
</g>
</g>
<g id="Groupe 1225">
<g id="Groupe 1224">
<path id="Trac&#195;&#169; 861" d="M10.9332 3.04797H4.83315C4.7321 3.04797 4.63519 3.08812 4.56374 3.15957C4.49228 3.23102 4.45215 3.32792 4.45215 3.42897C4.45215 3.53002 4.49228 3.62693 4.56374 3.69838C4.63519 3.76983 4.7321 3.80997 4.83315 3.80997H10.9332C11.0342 3.80997 11.1311 3.76983 11.2026 3.69838C11.274 3.62693 11.3141 3.53002 11.3141 3.42897C11.3141 3.32792 11.274 3.23102 11.2026 3.15957C11.1311 3.08812 11.0342 3.04797 10.9332 3.04797Z" fill="black"/>
</g>
</g>
<g id="Groupe 1227">
<g id="Groupe 1226">
<path id="Trac&#195;&#169; 862" d="M7.87613 1.52399C7.77508 1.52399 7.67817 1.56413 7.60672 1.63558C7.53527 1.70703 7.49512 1.80394 7.49512 1.90499V3.42399C7.49512 3.52504 7.53527 3.62194 7.60672 3.69339C7.67817 3.76485 7.77508 3.80499 7.87613 3.80499C7.97718 3.80499 8.07409 3.76485 8.14554 3.69339C8.21699 3.62194 8.25713 3.52504 8.25713 3.42399V1.90499C8.25713 1.80394 8.21699 1.70703 8.14554 1.63558C8.07409 1.56413 7.97718 1.52399 7.87613 1.52399Z" fill="black"/>
</g>
</g>
</g>
</g>
<defs>
<clipPath id="clip0_319_522">
<rect width="18" height="24" fill="white"/>
</clipPath>
</defs>
</svg>
