<svg width="36" height="28" viewBox="0 0 36 28" fill="none" xmlns="http://www.w3.org/2000/svg">
<g id="elevator 1" clip-path="url(#clip0_431_663)">
<path id="Vector" d="M17.4636 5.10875C16.8783 5.10875 16.2929 4.81402 15.9027 4.42104C15.5124 4.02805 15.2197 3.43858 15.2197 2.75086C15.2197 1.47367 16.2929 0.491211 17.4636 0.491211C18.7319 0.491211 19.8051 1.47367 19.8051 2.75086C19.8051 4.1263 18.8295 5.10875 17.4636 5.10875ZM17.3661 1.08068C16.3905 1.08068 15.7075 1.9649 15.7075 2.94735C15.7075 3.92981 16.488 4.71577 17.4636 4.71577C17.9514 4.71577 18.4392 4.51928 18.7319 4.22454C19.0246 3.92981 19.2197 3.43858 19.2197 2.94735C19.3173 1.86665 18.5368 0.982439 17.5612 0.982439L17.3661 1.08068Z" fill="black"/>
<g id="Vector_2">
<path d="M11.22 27.3123C11.1224 27.3123 11.0249 27.3123 11.0249 27.214C11.0249 27.214 10.9273 27.1158 10.9273 27.0175V23.4807L0.585842 17.0947C0.488281 17.0947 0.488281 16.9965 0.488281 16.8982V6.38596C0.488281 4.95485 0.552174 4.23149 0.576548 3.95554C0.582293 3.8905 0.585842 3.85031 0.585842 3.83157V3.73333C0.683403 3.43859 0.780964 3.2421 0.878525 3.04561C1.26877 2.55438 1.85413 2.25964 2.53706 2.25964C3.02487 2.25964 3.51267 2.45613 3.90292 2.75087L15.0161 11.6667V8.94035C15.0161 7.46666 16.1956 6.28771 17.5615 6.28771C18.2444 6.28771 18.7322 6.58245 19.22 7.07368C19.7078 7.56491 20.0005 8.25263 20.0005 8.94035V15.5656L22.1468 17.586C22.1991 17.6123 22.2444 17.6386 22.2864 17.663C22.4012 17.7298 22.4918 17.7825 22.6346 17.7825H33.1712C33.7566 17.7825 34.2444 17.9789 34.6346 18.4702C35.0249 18.8632 35.22 19.4526 35.22 20.0421C35.22 21.221 34.2444 22.2035 33.0736 22.2035H32.781H32.6834V27.1158C32.6834 27.3123 32.5858 27.4105 32.4883 27.4105L11.22 27.3123ZM21.659 26.7228H32.3907V22.007H21.659V26.7228ZM11.5127 23.2842V26.7228H21.2688V22.1053L21.0736 22.007C20.9991 21.9695 20.9388 21.9463 20.8873 21.9265C20.804 21.8944 20.7437 21.8712 20.6834 21.8105L15.5127 17.6842L11.5127 23.2842ZM1.07365 16.6035L11.1224 22.8912L15.1224 17.2912L14.9273 17.0947C10.9804 13.8978 8.24086 11.6127 5.71321 9.50434C5.36682 9.21541 5.0244 8.92979 4.6834 8.64561L1.17121 5.69824V16.6035H1.07365ZM26.4395 18.2737V21.614H33.2688C33.9517 21.614 34.6346 21.221 34.8297 20.5333V20.4351V20.2386C34.8297 20.169 34.842 20.1117 34.8535 20.058C34.8744 19.9602 34.8927 19.8742 34.8297 19.7474C34.7322 18.8632 34.0493 18.1754 33.2688 18.1754L26.4395 18.2737ZM14.4395 16.2105L14.7322 16.407C16.2932 17.6842 19.4151 20.2386 20.8785 21.4175C20.9308 21.4439 20.9761 21.4702 21.0181 21.4946C21.1329 21.5614 21.2235 21.614 21.3663 21.614H25.8541V18.2737H22.7322C22.4395 18.2737 22.1468 18.1754 21.8541 17.9789L16.781 13.7544L14.4395 16.2105ZM5.75657 9.03859L14.0493 15.9158L16.3907 13.5579L8.09804 6.6807L5.75657 9.03859ZM17.5615 6.87719C16.3907 6.87719 15.5127 7.85964 15.5127 8.94035V11.8877L19.5434 15.1667V8.94035C19.4458 7.7614 18.6346 6.87719 17.5615 6.87719ZM2.63462 2.65263C2.14682 2.65263 1.65901 2.84912 1.36633 3.2421L1.26877 3.43859C1.07365 3.63508 0.976086 4.12631 0.976086 4.42105C0.976086 4.91228 1.26877 5.30526 1.56145 5.59999L5.26877 8.64561L7.61023 6.28771L3.70779 3.04561C3.41511 2.75087 3.02487 2.65263 2.63462 2.65263Z" fill="black"/>
<path d="M11.22 27.3123C11.1224 27.3123 11.0249 27.3123 11.0249 27.214C11.0249 27.214 10.9273 27.1158 10.9273 27.0175V23.4807L0.585842 17.0947C0.488281 17.0947 0.488281 16.9965 0.488281 16.8982V6.38596C0.488281 4.95485 0.552174 4.23149 0.576548 3.95554C0.582293 3.8905 0.585842 3.85031 0.585842 3.83157V3.73333C0.683403 3.43859 0.780964 3.2421 0.878525 3.04561C1.26877 2.55438 1.85413 2.25964 2.53706 2.25964C3.02487 2.25964 3.51267 2.45613 3.90292 2.75087L15.0161 11.6667V8.94035C15.0161 7.46666 16.1956 6.28771 17.5615 6.28771C18.2444 6.28771 18.7322 6.58245 19.22 7.07368C19.7078 7.56491 20.0005 8.25263 20.0005 8.94035V15.5656L22.1468 17.586C22.1991 17.6123 22.2444 17.6386 22.2864 17.663C22.4012 17.7298 22.4918 17.7825 22.6346 17.7825H33.1712C33.7566 17.7825 34.2444 17.9789 34.6346 18.4702C35.0249 18.8632 35.22 19.4526 35.22 20.0421C35.22 21.221 34.2444 22.2035 33.0736 22.2035H32.781H32.6834V27.1158C32.6834 27.3123 32.5858 27.4105 32.4883 27.4105L11.22 27.3123ZM21.659 26.7228H32.3907V22.007H21.659V26.7228ZM11.5127 23.2842V26.7228H21.2688V22.1053L21.0736 22.007C20.9991 21.9695 20.9388 21.9463 20.8873 21.9265C20.804 21.8944 20.7437 21.8712 20.6834 21.8105L15.5127 17.6842L11.5127 23.2842ZM1.07365 16.6035L11.1224 22.8912L15.1224 17.2912L14.9273 17.0947C10.9804 13.8978 8.24086 11.6127 5.71321 9.50434C5.36682 9.21541 5.0244 8.92979 4.6834 8.64561L1.17121 5.69824V16.6035H1.07365ZM26.4395 18.2737V21.614H33.2688C33.9517 21.614 34.6346 21.221 34.8297 20.5333V20.4351V20.2386C34.8297 20.169 34.842 20.1117 34.8535 20.058C34.8744 19.9602 34.8927 19.8742 34.8297 19.7474C34.7322 18.8632 34.0493 18.1754 33.2688 18.1754L26.4395 18.2737ZM14.4395 16.2105L14.7322 16.407C16.2932 17.6842 19.4151 20.2386 20.8785 21.4175C20.9308 21.4439 20.9761 21.4702 21.0181 21.4946C21.1329 21.5614 21.2235 21.614 21.3663 21.614H25.8541V18.2737H22.7322C22.4395 18.2737 22.1468 18.1754 21.8541 17.9789L16.781 13.7544L14.4395 16.2105ZM5.75657 9.03859L14.0493 15.9158L16.3907 13.5579L8.09804 6.6807L5.75657 9.03859ZM17.5615 6.87719C16.3907 6.87719 15.5127 7.85964 15.5127 8.94035V11.8877L19.5434 15.1667V8.94035C19.4458 7.7614 18.6346 6.87719 17.5615 6.87719ZM2.63462 2.65263C2.14682 2.65263 1.65901 2.84912 1.36633 3.2421L1.26877 3.43859C1.07365 3.63508 0.976086 4.12631 0.976086 4.42105C0.976086 4.91228 1.26877 5.30526 1.56145 5.59999L5.26877 8.64561L7.61023 6.28771L3.70779 3.04561C3.41511 2.75087 3.02487 2.65263 2.63462 2.65263Z" stroke="black"/>
</g>
</g>
<defs>
<clipPath id="clip0_431_663">
<rect width="36" height="28" fill="white"/>
</clipPath>
</defs>
</svg>
