<svg width="344" height="286" viewBox="0 0 344 286" fill="none" xmlns="http://www.w3.org/2000/svg">
<rect width="344" height="285.757" fill="#DCDCDC"/>
<path d="M217.007 156.64L202.463 141.961C202.396 141.877 202.308 141.811 202.208 141.77C202.108 141.728 201.999 141.713 201.891 141.726C201.782 141.73 201.676 141.756 201.577 141.802C201.479 141.848 201.391 141.914 201.319 141.995L191.623 152.263C190.996 152.93 190.24 153.462 189.4 153.827C188.561 154.191 187.656 154.381 186.741 154.384C185.826 154.381 184.921 154.191 184.082 153.827C183.242 153.462 182.486 152.93 181.859 152.263L161.053 130.077C160.905 129.945 160.713 129.871 160.515 129.871C160.316 129.871 160.124 129.945 159.976 130.077L127.589 155.327L123.414 149.907L155.667 124.657C157.147 123.506 159.004 122.95 160.874 123.1C162.743 123.25 164.488 124.093 165.767 125.465L186.539 147.651L196.168 137.383C196.857 136.64 197.69 136.045 198.616 135.634C199.542 135.223 200.541 135.005 201.554 134.992C202.568 134.966 203.575 135.15 204.514 135.532C205.453 135.915 206.302 136.487 207.008 137.214L221.552 151.893L217.007 156.64Z" fill="#F0F0F0"/>
<path d="M209.803 193H135.197C131.697 193 128.34 191.61 125.865 189.135C123.39 186.66 122 183.303 122 179.803V105.197C122 101.697 123.39 98.3404 125.865 95.8654C128.34 93.3904 131.697 92 135.197 92H209.803C213.303 92 216.66 93.3904 219.135 95.8654C221.61 98.3404 223 101.697 223 105.197V179.803C223 183.303 221.61 186.66 219.135 189.135C216.66 191.61 213.303 193 209.803 193ZM135.197 98.7333C133.483 98.7333 131.839 99.4144 130.627 100.627C129.414 101.839 128.733 103.483 128.733 105.197V179.803C128.733 180.652 128.901 181.492 129.225 182.276C129.55 183.061 130.026 183.773 130.627 184.373C131.227 184.974 131.939 185.45 132.724 185.775C133.508 186.099 134.348 186.267 135.197 186.267H209.803C210.652 186.267 211.492 186.099 212.276 185.775C213.061 185.45 213.773 184.974 214.373 184.373C214.974 183.773 215.45 183.061 215.775 182.276C216.099 181.492 216.267 180.652 216.267 179.803V105.197C216.267 104.348 216.099 103.508 215.775 102.724C215.45 101.939 214.974 101.227 214.373 100.627C213.773 100.026 213.061 99.5502 212.276 99.2254C211.492 98.9005 210.652 98.7333 209.803 98.7333H135.197Z" fill="#F0F0F0"/>
<path d="M187.078 128.461C190.796 128.461 193.811 125.446 193.811 121.728C193.811 118.009 190.796 114.994 187.078 114.994C183.359 114.994 180.344 118.009 180.344 121.728C180.344 125.446 183.359 128.461 187.078 128.461Z" fill="#F0F0F0"/>
<path d="M125.367 154.283L157.451 128.461L163.376 127.754L182.802 148.493C182.802 148.493 186.169 153.105 189.03 149.94L198.693 139.672C198.693 139.672 200.612 135.464 204.719 139.672C208.826 143.88 219.633 157.65 219.633 157.65L219.398 181.991C219.398 181.991 218.388 189.633 208.49 189.633C198.592 189.633 134.423 188.59 134.423 188.59C134.423 188.59 125.367 190.812 125.367 179.803C125.367 168.794 125.367 154.283 125.367 154.283Z" fill="#F0F0F0"/>
</svg>
