<svg width="34" height="30" viewBox="0 0 34 30" fill="none" xmlns="http://www.w3.org/2000/svg">
<g id="Groupe 1266">
<g id="Groupe 1265">
<path id="Trac&#195;&#169; 1023" d="M17.1809 10.8879C16.5363 10.8879 15.9062 11.0791 15.3703 11.4372C14.8343 11.7953 14.4166 12.3043 14.17 12.8998C13.9233 13.4953 13.8587 14.1506 13.9845 14.7827C14.1102 15.4149 14.4206 15.9956 14.8764 16.4514C15.3322 16.9072 15.9129 17.2176 16.5451 17.3433C17.1773 17.4691 17.8325 17.4045 18.428 17.1579C19.0235 16.9112 19.5325 16.4935 19.8906 15.9576C20.2487 15.4216 20.4399 14.7915 20.4399 14.1469C20.4399 13.2826 20.0965 12.4537 19.4853 11.8425C18.8742 11.2313 18.0452 10.8879 17.1809 10.8879ZM17.1809 15.8539C16.7282 15.8539 16.294 15.6741 15.9738 15.354C15.6537 15.0338 15.4739 14.5997 15.4739 14.1469C15.4739 13.6942 15.6537 13.26 15.9738 12.9399C16.294 12.6198 16.7282 12.4399 17.1809 12.4399C17.6336 12.4399 18.0678 12.6198 18.3879 12.9399C18.708 13.26 18.8879 13.6942 18.8879 14.1469C18.8879 14.5997 18.708 15.0338 18.3879 15.354C18.0678 15.6741 17.6336 15.8539 17.1809 15.8539Z" fill="black" stroke="white" stroke-width="0.7"/>
<path id="Trac&#195;&#169; 1024" d="M30.1759 3.43893L8.99493 1.02893C8.58842 0.971168 8.17429 1.00012 7.77977 1.11387C7.38525 1.22762 7.01928 1.42361 6.70593 1.68893C6.3923 1.9321 6.131 2.23609 5.93769 2.58267C5.74437 2.92926 5.62303 3.31131 5.58093 3.70593L5.19293 6.88693H3.99293C3.16934 6.91999 2.39236 7.27782 1.83186 7.88216C1.27137 8.4865 0.972977 9.28819 1.00193 10.1119V25.9779C0.99168 26.365 1.05779 26.7503 1.19649 27.1119C1.33519 27.4734 1.54375 27.8041 1.81027 28.085C2.07679 28.3659 2.39604 28.5915 2.74978 28.749C3.10353 28.9065 3.48483 28.9928 3.87193 29.0029H25.2879C26.1186 29.0235 26.9244 28.7186 27.5333 28.1532C28.1422 27.5878 28.5059 26.8068 28.5469 25.9769V25.3559C29.0761 25.2536 29.5781 25.0421 30.0209 24.7349C30.6495 24.2057 31.052 23.4562 31.1459 22.6399L32.9309 6.88893C33.0177 6.06712 32.7772 5.24423 32.2615 4.59849C31.7459 3.95274 30.9966 3.53615 30.1759 3.43893ZM26.9949 25.9789C26.9546 26.397 26.7547 26.7834 26.4368 27.0579C26.1189 27.3324 25.7074 27.4739 25.2879 27.4529H3.98993C3.61993 27.4629 3.26105 27.3259 2.99176 27.072C2.72247 26.8181 2.56469 26.4679 2.55293 26.0979C2.55293 26.0579 2.55293 26.0183 2.55293 25.9789V23.1079L8.56593 18.6849C8.91563 18.4164 9.34929 18.2806 9.7897 18.3019C10.2301 18.3231 10.6487 18.5 10.9709 18.8009L15.2019 22.5289C15.8442 23.0679 16.6526 23.3692 17.4909 23.3819C18.146 23.3913 18.7907 23.2181 19.3529 22.8819L26.9949 18.4589V25.9849V25.9789ZM26.9949 16.6299L18.5379 21.5569C18.1837 21.7669 17.7727 21.8611 17.3624 21.8263C16.952 21.7915 16.5628 21.6295 16.2489 21.3629L11.9819 17.5989C11.3881 17.0888 10.6385 16.7956 9.85607 16.7674C9.07367 16.7392 8.30493 16.9778 7.67593 17.4439L2.55493 21.1679V10.1119C2.52674 9.70106 2.66153 9.29563 2.93012 8.98344C3.1987 8.67124 3.57946 8.47741 3.98993 8.44393H25.2899C25.7302 8.46226 26.148 8.64276 26.4632 8.9507C26.7783 9.25863 26.9684 9.67224 26.9969 10.1119L26.9949 16.6299ZM31.3799 6.68293V6.69793L29.5559 22.4479C29.5579 22.649 29.5139 22.8479 29.4272 23.0294C29.3406 23.2108 29.2136 23.3701 29.0559 23.4949C28.9009 23.6499 28.5559 23.7279 28.5559 23.8049V10.1119C28.5265 9.26058 28.1725 8.45273 27.5666 7.85402C26.9606 7.2553 26.1486 6.91108 25.2969 6.89193H6.74493L7.09393 3.86593C7.16964 3.47398 7.37456 3.11872 7.67593 2.85693C8.01625 2.62177 8.42772 2.51218 8.83993 2.54693L29.9819 4.99093C30.3915 5.02993 30.7688 5.22995 31.031 5.54704C31.2931 5.86413 31.4186 6.27233 31.3799 6.68193V6.68293Z" fill="black" stroke="white" stroke-width="0.7"/>
</g>
</g>
</svg>
