<svg width="24" height="24" viewBox="0 0 24 24" fill="none" xmlns="http://www.w3.org/2000/svg">
<g id="kitchenware" clip-path="url(#clip0_321_700)">
<g id="kitchenware_2">
<path id="Trac&#195;&#169; 890" d="M23.2351 6.82706L23.8358 4.34772C23.9094 4.04403 23.9132 3.72756 23.8469 3.42219C23.7806 3.11681 23.6461 2.83051 23.4533 2.58488C23.2605 2.33924 23.0146 2.14069 22.734 2.00421C22.4535 1.86772 22.1457 1.79686 21.8339 1.79697H21.5074C21.1952 1.79686 20.8871 1.86788 20.6063 2.00466C20.3256 2.14144 20.0795 2.3404 19.8868 2.58649C19.694 2.83259 19.5596 3.11938 19.4937 3.42519C19.4278 3.73099 19.4322 4.04781 19.5065 4.35168L20.1121 6.83102C20.1888 7.14672 20.3592 7.43168 20.6009 7.64823C20.8426 7.86479 21.1442 8.00276 21.4658 8.04391V8.67367C21.1835 8.72226 20.9273 8.86917 20.7425 9.08852C20.5576 9.30787 20.456 9.58557 20.4555 9.87267V10.6304H18.8642V9.1854C18.8637 8.89844 18.7622 8.62086 18.5776 8.40153C18.393 8.1822 18.137 8.03519 17.8549 7.98639V6.40953H18.8692C19.1026 6.41005 19.3332 6.3582 19.5441 6.2578C19.5934 6.23439 19.6314 6.1923 19.6498 6.14078C19.6682 6.08926 19.6654 6.03254 19.642 5.98309C19.6187 5.93364 19.5767 5.89552 19.5253 5.8771C19.4739 5.85869 19.4173 5.8615 19.3679 5.88491C19.2133 5.95849 19.0443 5.99676 18.8731 5.99697H16.4329C16.1236 5.99645 15.8271 5.87309 15.6084 5.65393C15.3898 5.43476 15.2667 5.13766 15.2662 4.82772V0.717964C15.2662 0.663255 15.2878 0.610787 15.3264 0.572101C15.365 0.533416 15.4174 0.511683 15.472 0.511683H19.835C19.8896 0.511683 19.9419 0.533416 19.9805 0.572101C20.0191 0.610787 20.0408 0.663255 20.0408 0.717964V1.57086C20.0408 1.62557 20.0625 1.67803 20.1011 1.71672C20.1397 1.7554 20.1921 1.77714 20.2467 1.77714C20.3012 1.77714 20.3536 1.7554 20.3922 1.71672C20.4308 1.67803 20.4525 1.62557 20.4525 1.57086V0.717964C20.4522 0.553917 20.3871 0.396665 20.2713 0.280666C20.1556 0.164667 19.9987 0.0993834 19.835 0.0991211H15.472C15.3083 0.0993834 15.1514 0.164667 15.0356 0.280666C14.9199 0.396665 14.8548 0.553917 14.8545 0.717964V4.82772C14.8545 5.03609 14.8954 5.24243 14.975 5.43495C15.0546 5.62747 15.1712 5.80239 15.3182 5.94974C15.4653 6.09708 15.6398 6.21396 15.8319 6.29371C16.024 6.37345 16.2299 6.41449 16.4378 6.41449H17.4521V7.99135C17.1699 8.04015 16.914 8.18716 16.7294 8.40649C16.5447 8.62582 16.4432 8.9034 16.4427 9.19036V12.239H16.0469C15.8832 12.2392 15.7263 12.3045 15.6106 12.4205C15.4948 12.5365 15.4297 12.6938 15.4294 12.8578V16.0224C15.4294 16.0771 15.4511 16.1296 15.4897 16.1683C15.5283 16.207 15.5807 16.2287 15.6353 16.2287C15.6899 16.2287 15.7422 16.207 15.7808 16.1683C15.8194 16.1296 15.8411 16.0771 15.8411 16.0224V14.159H23.4855V21.3064C23.485 21.6163 23.3619 21.9134 23.1432 22.1326C22.9245 22.3518 22.6281 22.4751 22.3188 22.4756H18.129C18.0744 22.4756 18.022 22.4974 17.9834 22.5361C17.9448 22.5748 17.9231 22.6272 17.9231 22.6819C17.9231 22.7366 17.9448 22.7891 17.9834 22.8278C18.022 22.8665 18.0744 22.8882 18.129 22.8882H22.3188C22.4121 22.8879 22.5051 22.8792 22.5969 22.8624V23.0082C22.5969 23.136 22.5462 23.2586 22.456 23.349C22.3658 23.4394 22.2435 23.4902 22.1159 23.4902H17.65C17.5954 23.4902 17.5431 23.5119 17.5045 23.5506C17.4659 23.5893 17.4442 23.6418 17.4442 23.6965C17.4442 23.7512 17.4659 23.8037 17.5045 23.8423C17.5431 23.881 17.5954 23.9028 17.65 23.9028H22.114C22.3502 23.9028 22.5767 23.8087 22.7437 23.6413C22.9107 23.4739 23.0046 23.2469 23.0046 23.0102V22.7305C23.2707 22.6007 23.4953 22.3988 23.6527 22.1476C23.8101 21.8964 23.8941 21.606 23.8952 21.3094V12.8528C23.8949 12.6888 23.8298 12.5315 23.714 12.4155C23.5983 12.2995 23.4414 12.2343 23.2777 12.234H22.8819V9.87168C22.8815 9.58501 22.7802 9.30766 22.596 9.08837C22.4118 8.86908 22.1563 8.72189 21.8745 8.67268V8.04292C22.1972 8.0022 22.4999 7.86395 22.7422 7.64657C22.9846 7.42919 23.1551 7.14299 23.2312 6.82606L23.2351 6.82706ZM23.1293 2.83929C23.284 3.0355 23.392 3.26454 23.445 3.50895C23.498 3.75335 23.4946 4.00665 23.435 4.24953L22.8344 6.72887C22.7631 7.02689 22.5798 7.28586 22.3228 7.45185C22.4008 7.24179 22.451 7.02241 22.4722 6.79929L22.7354 4.31995C22.8234 3.6401 22.7206 2.94912 22.4385 2.32458C22.7105 2.43136 22.9489 2.60907 23.1293 2.83929ZM21.7439 2.20854C21.7831 2.2135 21.8209 2.22644 21.8549 2.24657C21.8889 2.26669 21.9185 2.29357 21.9418 2.32557C22.3026 2.90723 22.4385 3.60113 22.3238 4.27631L22.0605 6.75565C21.9952 7.37548 21.7696 7.64821 21.6647 7.64821C21.5657 7.64821 21.3401 7.37945 21.2738 6.76259L21.0086 4.28325C20.8976 3.60717 21.0332 2.91362 21.3906 2.32953C21.4137 2.29732 21.4433 2.27021 21.4773 2.24991C21.5114 2.22961 21.5492 2.21654 21.5885 2.21152H21.731L21.7439 2.20854ZM20.5138 6.73185L19.9082 4.25251C19.8129 3.86444 19.8615 3.45487 20.045 3.10003C20.2285 2.7452 20.5344 2.46926 20.9057 2.32358C20.623 2.94934 20.5201 3.64177 20.6088 4.32292L20.874 6.80226C20.8951 7.02328 20.9447 7.24062 21.0215 7.44887C20.7673 7.28314 20.586 7.02625 20.5148 6.73086L20.5138 6.73185ZM21.2966 12.234H17.9449V11.5229C17.9449 11.3951 17.9956 11.2725 18.0858 11.1821C18.176 11.0917 18.2983 11.0409 18.4258 11.0409H20.8166C20.9442 11.0409 21.0665 11.0917 21.1567 11.1821C21.2469 11.2725 21.2976 11.3951 21.2976 11.5229V12.234H21.2966ZM17.651 8.38011C17.8639 8.38064 18.0678 8.46568 18.2183 8.61662C18.3687 8.76755 18.4533 8.97208 18.4535 9.1854V9.2092H16.8475V9.1854C16.8475 8.97217 16.9319 8.76764 17.0821 8.61668C17.2324 8.46571 17.4363 8.38064 17.649 8.38011H17.651ZM16.8485 9.62077H18.4545V10.6284H18.4249C18.3079 10.6284 18.1921 10.6515 18.084 10.6963C17.976 10.7412 17.8778 10.8069 17.7951 10.8898C17.7124 10.9727 17.6468 11.0711 17.602 11.1794C17.5573 11.2877 17.5342 11.4037 17.5342 11.5209V12.232H16.8495L16.8485 9.62077ZM23.4845 12.8528V13.7454H15.8401V12.8528C15.8401 12.7981 15.8618 12.7457 15.9004 12.707C15.939 12.6683 15.9913 12.6466 16.0459 12.6466H23.2787C23.3329 12.6471 23.3848 12.669 23.4229 12.7077C23.4611 12.7463 23.4825 12.7985 23.4825 12.8528H23.4845ZM21.7082 12.234V11.5229C21.7086 11.2949 21.6219 11.0753 21.4658 10.9093C21.3098 10.7434 21.0963 10.6435 20.8691 10.6304V10.3071H22.4752V12.233L21.7082 12.234ZM22.4752 9.87168V9.89548H20.8691V9.87168C20.8691 9.65811 20.9537 9.45328 21.1044 9.30226C21.2551 9.15124 21.4595 9.06639 21.6726 9.06639C21.8852 9.06718 22.0888 9.15237 22.2389 9.30331C22.3889 9.45424 22.4732 9.65862 22.4732 9.87168H22.4752Z" fill="black" stroke="black" stroke-width="0.2"/>
<path id="Trac&#195;&#169; 891" d="M17.4443 1.34178V4.9269C17.4443 4.98161 17.4661 5.03408 17.5048 5.07277C17.5434 5.11145 17.5959 5.13318 17.6506 5.13318C17.7053 5.13318 17.7578 5.11145 17.7965 5.07277C17.8352 5.03408 17.8569 4.98161 17.8569 4.9269V1.34178C17.8569 1.28707 17.8352 1.2346 17.7965 1.19592C17.7578 1.15723 17.7053 1.1355 17.6506 1.1355C17.5959 1.1355 17.5434 1.15723 17.5048 1.19592C17.4661 1.2346 17.4443 1.28707 17.4443 1.34178Z" fill="black" stroke="black" stroke-width="0.2"/>
<path id="Trac&#195;&#169; 892" d="M16.3555 1.34178V4.9269C16.3555 4.98161 16.3772 5.03408 16.4159 5.07277C16.4546 5.11145 16.507 5.13318 16.5618 5.13318C16.6165 5.13318 16.6689 5.11145 16.7076 5.07277C16.7463 5.03408 16.768 4.98161 16.768 4.9269V1.34178C16.768 1.28707 16.7463 1.2346 16.7076 1.19592C16.6689 1.15723 16.6165 1.1355 16.5618 1.1355C16.507 1.1355 16.4546 1.15723 16.4159 1.19592C16.3772 1.2346 16.3555 1.28707 16.3555 1.34178Z" fill="black" stroke="black" stroke-width="0.2"/>
<path id="Trac&#195;&#169; 893" d="M18.5332 1.34178V4.9269C18.5332 4.98161 18.5549 5.03408 18.5936 5.07277C18.6323 5.11145 18.6848 5.13318 18.7395 5.13318C18.7942 5.13318 18.8467 5.11145 18.8853 5.07277C18.924 5.03408 18.9458 4.98161 18.9458 4.9269V1.34178C18.9458 1.28707 18.924 1.2346 18.8853 1.19592C18.8467 1.15723 18.7942 1.1355 18.7395 1.1355C18.6848 1.1355 18.6323 1.15723 18.5936 1.19592C18.5549 1.2346 18.5332 1.28707 18.5332 1.34178Z" fill="black" stroke="black" stroke-width="0.2"/>
<path id="Trac&#195;&#169; 894" d="M16.8471 23.3871L18.5798 19.8853C18.5951 19.8574 18.6026 19.8258 18.6016 19.794V19.1801C18.6013 18.9342 18.5653 18.6897 18.4947 18.4542C18.4947 18.4542 18.4947 18.4453 18.4947 18.4403C18.3359 17.9184 18.0142 17.4613 17.5769 17.1362C17.1396 16.8112 16.6098 16.6352 16.0653 16.6344H13.5914V16.2625C13.5914 15.8746 13.4377 15.5027 13.164 15.2285C12.8904 14.9542 12.5192 14.8001 12.1323 14.8001C11.7453 14.8001 11.3742 14.9542 11.1005 15.2285C10.8269 15.5027 10.6731 15.8746 10.6731 16.2625V16.6344H8.19923C7.52602 16.6351 6.88061 16.9035 6.40459 17.3806C5.92856 17.8577 5.66078 18.5045 5.65999 19.1792V19.5868H3.73133L2.79519 10.3368H15.6329C15.6599 10.3368 15.6867 10.3315 15.7116 10.3211C15.7366 10.3108 15.7593 10.2956 15.7784 10.2764C15.7975 10.2573 15.8127 10.2345 15.823 10.2095C15.8334 10.1845 15.8387 10.1576 15.8387 10.1306C15.8387 10.1035 15.8334 10.0766 15.823 10.0516C15.8127 10.0266 15.7975 10.0039 15.7784 9.9847C15.7593 9.96554 15.7366 9.95035 15.7116 9.93998C15.6867 9.92961 15.6599 9.92428 15.6329 9.92428H2.76848V9.44428C2.76952 8.95128 2.96588 8.47887 3.31437 8.13092C3.66286 7.78297 4.13496 7.58795 4.62688 7.58874H16.4562C16.5108 7.58874 16.5631 7.56701 16.6017 7.52832C16.6403 7.48964 16.662 7.43717 16.662 7.38246C16.662 7.32775 16.6403 7.27528 16.6017 7.2366C16.5631 7.19791 16.5108 7.17618 16.4562 7.17618H12.6523V6.29948H12.8363C13.0639 6.29182 13.2796 6.19584 13.4379 6.0318C13.5961 5.86776 13.6846 5.6485 13.6846 5.42031C13.6846 5.19212 13.5961 4.97286 13.4379 4.80882C13.2796 4.64478 13.0639 4.5488 12.8363 4.54114H8.63266C8.4051 4.5488 8.18941 4.64478 8.03113 4.80882C7.87286 4.97286 7.78438 5.19212 7.78438 5.42031C7.78438 5.6485 7.87286 5.86776 8.03113 6.0318C8.18941 6.19584 8.4051 6.29182 8.63266 6.29948H8.81672V7.17618H4.62688C4.02655 7.1767 3.45091 7.41574 3.02613 7.84089C2.60135 8.26604 2.36208 8.84263 2.36077 9.44428V10.1385L2.68139 13.312H1.91547C1.86088 13.312 1.80852 13.2903 1.76992 13.2516C1.73132 13.2129 1.70964 13.1605 1.70964 13.1058V12.2707C1.70964 12.0568 1.62482 11.8515 1.47385 11.7002C1.32288 11.5489 1.11813 11.4639 0.904623 11.4639C0.69112 11.4639 0.486362 11.5489 0.335392 11.7002C0.184423 11.8515 0.0996094 12.0568 0.0996094 12.2707V13.1474C0.100133 13.6033 0.281084 14.0404 0.602767 14.3628C0.924449 14.6852 1.36059 14.8666 1.81552 14.8671H2.83972L3.31769 19.5877H0.995169C0.757783 19.5877 0.53012 19.6823 0.362263 19.8505C0.194406 20.0187 0.100104 20.2469 0.100104 20.4848C0.100104 20.7227 0.194406 20.9508 0.362263 21.1191C0.53012 21.2873 0.757783 21.3818 0.995169 21.3818H3.46315L3.6106 22.4787C3.64921 22.8689 3.83145 23.2308 4.12178 23.4937C4.41212 23.7566 4.78974 23.9017 5.18104 23.9008H6.63967C6.69426 23.9008 6.74661 23.8791 6.78521 23.8404C6.82381 23.8017 6.8455 23.7492 6.8455 23.6945C6.8455 23.6398 6.82381 23.5874 6.78521 23.5487C6.74661 23.51 6.69426 23.4882 6.63967 23.4882H5.18104C4.89068 23.4886 4.61066 23.3802 4.39578 23.1845C4.18091 22.9888 4.04665 22.7198 4.01929 22.4301L3.87877 21.3818H6.41207L7.40163 23.3871C7.47548 23.5363 7.5895 23.6618 7.7308 23.7494C7.8721 23.837 8.03504 23.8833 8.20121 23.883H16.0445C16.2107 23.8833 16.3736 23.837 16.5149 23.7494C16.6562 23.6618 16.7702 23.5363 16.8441 23.3871H16.8471ZM8.16756 5.42081C8.16782 5.29727 8.21691 5.17886 8.30407 5.0915C8.39124 5.00415 8.50939 4.95495 8.63266 4.95469H12.8393C12.9628 4.95469 13.0812 5.00385 13.1685 5.09136C13.2559 5.17886 13.3049 5.29755 13.3049 5.4213C13.3049 5.54506 13.2559 5.66374 13.1685 5.75125C13.0812 5.83876 12.9628 5.88792 12.8393 5.88792H8.63266C8.50939 5.88765 8.39124 5.83846 8.30407 5.7511C8.21691 5.66374 8.16782 5.54435 8.16756 5.42081ZM9.22937 6.30048H12.2436V7.17717H9.22838L9.22937 6.30048ZM1.81552 14.4545C1.46969 14.4543 1.1381 14.3165 0.893566 14.0714C0.649028 13.8263 0.511532 13.494 0.51127 13.1474V12.2707C0.522135 12.1738 0.568253 12.0843 0.640815 12.0193C0.713377 11.9543 0.807294 11.9183 0.904623 11.9183C1.00195 11.9183 1.09587 11.9543 1.16843 12.0193C1.24099 12.0843 1.28711 12.1738 1.29798 12.2707V13.1048C1.29824 13.2688 1.36338 13.4261 1.47912 13.5421C1.59487 13.6581 1.75178 13.7234 1.91547 13.7236H2.72394L2.79816 14.4545H1.81552ZM18.1939 19.1801V19.5877H6.06275V19.1801C6.06312 19.0179 6.08204 18.8561 6.11915 18.6982H18.1325C18.1713 18.8559 18.1919 19.0177 18.1939 19.1801ZM11.0789 16.2635C11.0789 15.985 11.1892 15.718 11.3857 15.5212C11.5821 15.3243 11.8485 15.2137 12.1263 15.2137C12.4041 15.2137 12.6706 15.3243 12.867 15.5212C13.0634 15.718 13.1738 15.985 13.1738 16.2635V16.6354H11.0789V16.2635ZM8.19032 17.0479H16.0613C16.4672 17.0486 16.8644 17.1656 17.2061 17.3851C17.5478 17.6045 17.8198 17.9173 17.99 18.2866H6.26165C6.43185 17.9173 6.70383 17.6045 7.04554 17.3851C7.38726 17.1656 7.78446 17.0486 8.19032 17.0479ZM0.995169 20.9692C0.866962 20.9692 0.744006 20.9182 0.65335 20.8273C0.562695 20.7365 0.511765 20.6133 0.511765 20.4848C0.511765 20.3563 0.562695 20.2331 0.65335 20.1422C0.744006 20.0514 0.866962 20.0003 0.995169 20.0003H5.72531L6.20426 20.9692H0.995169ZM16.0485 23.4714H8.20417C8.11459 23.4717 8.02674 23.4467 7.95063 23.3994C7.87452 23.352 7.81322 23.2842 7.77371 23.2036L6.1904 20.0003H18.0652L16.4819 23.2036C16.4422 23.2849 16.3803 23.3532 16.3034 23.4006C16.2265 23.448 16.1378 23.4725 16.0475 23.4714H16.0485Z" fill="black" stroke="black" stroke-width="0.2"/>
</g>
</g>
<defs>
<clipPath id="clip0_321_700">
<rect width="24" height="24" fill="white"/>
</clipPath>
</defs>
</svg>
