<svg width="29" height="28" viewBox="0 0 29 28" fill="none" xmlns="http://www.w3.org/2000/svg">
<g id="plan" clip-path="url(#clip0_311_345)">
<g id="plan_2">
<path id="Trac&#195;&#169; 306" d="M7.06522 23.219C6.60356 23.2187 6.16088 23.0352 5.83443 22.7088C5.50799 22.3823 5.32448 21.9397 5.32422 21.478V1.741C5.32501 1.2795 5.50869 0.837132 5.83502 0.510803C6.16135 0.184474 6.60372 0.000793181 7.06522 0H26.7972C27.2587 0.000793181 27.7011 0.184474 28.0274 0.510803C28.3537 0.837132 28.5374 1.2795 28.5382 1.741V21.473C28.5374 21.9345 28.3537 22.3769 28.0274 22.7032C27.7011 23.0295 27.2587 23.2132 26.7972 23.214H7.06522V23.219ZM21.1652 14.804C21.2531 14.8045 21.3372 14.8397 21.3994 14.9018C21.4615 14.964 21.4967 15.0481 21.4972 15.136V22.559H26.8042C27.0908 22.5587 27.3656 22.4448 27.5683 22.2421C27.771 22.0394 27.8849 21.7646 27.8852 21.478V7.006H21.4922V10.906C21.4922 10.9942 21.4572 11.0788 21.3948 11.1411C21.3325 11.2035 21.2479 11.2385 21.1597 11.2385C21.0715 11.2385 20.987 11.2035 20.9246 11.1411C20.8623 11.0788 20.8272 10.9942 20.8272 10.906V7.006H17.6352C17.547 7.006 17.4625 6.97097 17.4001 6.90861C17.3377 6.84626 17.3027 6.76168 17.3027 6.6735C17.3027 6.58532 17.3377 6.50074 17.4001 6.43839C17.4625 6.37603 17.547 6.341 17.6352 6.341H27.8752V1.741C27.8749 1.45438 27.761 1.17958 27.5583 0.97691C27.3556 0.77424 27.0808 0.660265 26.7942 0.66H13.0342V6.674C13.0342 6.76218 12.9992 6.84676 12.9368 6.90911C12.8745 6.97147 12.7899 7.0065 12.7017 7.0065C12.6135 7.0065 12.529 6.97147 12.4666 6.90911C12.4043 6.84676 12.3692 6.76218 12.3692 6.674V0.664997H7.06921C6.7826 0.665262 6.50779 0.779237 6.30512 0.981907C6.10245 1.18458 5.98848 1.45938 5.98821 1.746V11.986H12.3772V10.9C12.3772 10.8118 12.4122 10.7272 12.4746 10.6649C12.537 10.6025 12.6215 10.5675 12.7097 10.5675C12.7979 10.5675 12.8825 10.6025 12.9448 10.6649C13.0072 10.7272 13.0422 10.8118 13.0422 10.9V13.718C13.0422 13.8062 13.0072 13.8908 12.9448 13.9531C12.8825 14.0155 12.7979 14.0505 12.7097 14.0505C12.6215 14.0505 12.537 14.0155 12.4746 13.9531C12.4122 13.8908 12.3772 13.8062 12.3772 13.718V12.641H5.98421V21.473C5.98448 21.7596 6.09846 22.0344 6.30112 22.2371C6.50379 22.4398 6.7786 22.5537 7.06522 22.554H12.3722V17.954C12.3722 17.8658 12.4072 17.7812 12.4696 17.7189C12.532 17.6565 12.6165 17.6215 12.7047 17.6215C12.7929 17.6215 12.8775 17.6565 12.9398 17.7189C13.0022 17.7812 13.0372 17.8658 13.0372 17.954V22.559H20.8372V18.286H17.6452C17.557 18.286 17.4725 18.251 17.4101 18.1886C17.3477 18.1263 17.3127 18.0417 17.3127 17.9535C17.3127 17.8653 17.3477 17.7807 17.4101 17.7184C17.4725 17.656 17.557 17.621 17.6452 17.621H20.8372V15.131C20.8366 15.0879 20.8445 15.045 20.8605 15.0049C20.8765 14.9649 20.9003 14.9284 20.9306 14.8976C20.9608 14.8668 20.9968 14.8423 21.0366 14.8256C21.0764 14.8088 21.1191 14.8001 21.1622 14.8L21.1652 14.804Z" fill="black"/>
<path id="Trac&#195;&#169; 309" d="M1.38995 18.196C1.35264 18.1965 1.31562 18.1893 1.28121 18.1748C1.24681 18.1604 1.21574 18.139 1.18995 18.112L0.0899511 17.012C0.0633506 16.9859 0.0422197 16.9548 0.0277961 16.9205C0.0133724 16.8861 0.00594575 16.8493 0.00595107 16.812C0.00548336 16.7747 0.0126995 16.7377 0.0271505 16.7033C0.0416016 16.6689 0.0629785 16.6378 0.0899511 16.612C0.116025 16.5854 0.147144 16.5643 0.181486 16.5499C0.215828 16.5354 0.252703 16.528 0.289951 16.528C0.327267 16.5275 0.36428 16.5347 0.398687 16.5492C0.433094 16.5637 0.46416 16.585 0.489951 16.612L1.09995 17.219V6.09901L0.486951 6.71201C0.460877 6.73861 0.429758 6.75974 0.395416 6.77416C0.361074 6.78858 0.324199 6.79602 0.286951 6.79601C0.249635 6.79648 0.212622 6.78925 0.178215 6.7748C0.143808 6.76035 0.112742 6.73898 0.086951 6.71201C0.0603506 6.68594 0.0392197 6.65482 0.024796 6.62047C0.0103723 6.58613 0.00294573 6.54925 0.00295105 6.512C0.00248334 6.47468 0.00969945 6.43767 0.0241505 6.40327C0.0386016 6.36886 0.0599784 6.33779 0.086951 6.312L1.18695 5.21201C1.21302 5.18541 1.24414 5.16427 1.27849 5.14985C1.31283 5.13542 1.3497 5.12801 1.38695 5.12801C1.42427 5.12754 1.46128 5.13476 1.49569 5.14921C1.53009 5.16366 1.56116 5.18504 1.58695 5.21201L2.68695 6.312C2.71355 6.33808 2.73468 6.3692 2.74911 6.40354C2.76353 6.43788 2.77096 6.47475 2.77095 6.512C2.77142 6.54932 2.7642 6.58634 2.74975 6.62075C2.7353 6.65516 2.71392 6.68622 2.68695 6.71201C2.66088 6.73861 2.62976 6.75974 2.59542 6.77416C2.56107 6.78858 2.5242 6.79602 2.48695 6.79601C2.44964 6.79648 2.41262 6.78925 2.37821 6.7748C2.34381 6.76035 2.31274 6.73898 2.28695 6.71201L1.67395 6.09901V17.215L2.28695 16.602C2.31302 16.5754 2.34414 16.5543 2.37849 16.5398C2.41283 16.5254 2.4497 16.518 2.48695 16.518C2.52427 16.5175 2.56128 16.5248 2.59569 16.5392C2.63009 16.5537 2.66116 16.575 2.68695 16.602C2.71355 16.6281 2.73468 16.6592 2.74911 16.6935C2.76353 16.7279 2.77096 16.7648 2.77095 16.802C2.77142 16.8393 2.7642 16.8763 2.74975 16.9107C2.7353 16.9451 2.71392 16.9762 2.68695 17.002L1.58695 18.102C1.56113 18.1293 1.53016 18.1512 1.49584 18.1665C1.46151 18.1818 1.42451 18.1901 1.38695 18.191L1.38995 18.196Z" fill="black"/>
<path id="Trac&#195;&#169; 310" d="M10.1036 26.61C10.1032 26.5727 10.1104 26.5357 10.1248 26.5013C10.1393 26.4669 10.1607 26.4358 10.1876 26.4101L11.2876 25.31C11.3137 25.2834 11.3448 25.2623 11.3792 25.2479C11.4135 25.2335 11.4504 25.226 11.4876 25.226C11.5249 25.2256 11.562 25.2328 11.5964 25.2472C11.6308 25.2617 11.6619 25.283 11.6876 25.31C11.7142 25.3361 11.7354 25.3672 11.7498 25.4016C11.7642 25.4359 11.7716 25.4728 11.7716 25.51C11.7721 25.5473 11.7649 25.5843 11.7504 25.6187C11.736 25.6531 11.7146 25.6843 11.6876 25.71L11.0746 26.323H22.1906L21.5776 25.71C21.551 25.684 21.5299 25.6528 21.5155 25.6185C21.5011 25.5841 21.4936 25.5473 21.4936 25.51C21.4932 25.4727 21.5004 25.4357 21.5148 25.4013C21.5293 25.3669 21.5507 25.3358 21.5776 25.31C21.6037 25.2834 21.6348 25.2623 21.6692 25.2479C21.7035 25.2335 21.7404 25.226 21.7776 25.226C21.815 25.2256 21.852 25.2328 21.8864 25.2472C21.9208 25.2617 21.9518 25.283 21.9776 25.31L23.0776 26.4101C23.1042 26.4361 23.1254 26.4672 23.1398 26.5015C23.1542 26.5359 23.1616 26.5728 23.1616 26.61C23.1621 26.6473 23.1549 26.6844 23.1404 26.7188C23.126 26.7532 23.1046 26.7842 23.0776 26.81L21.9776 27.9101C21.9516 27.9367 21.9204 27.9578 21.8861 27.9722C21.8518 27.9866 21.8149 27.994 21.7776 27.994C21.7403 27.9945 21.7033 27.9873 21.6689 27.9728C21.6345 27.9583 21.6034 27.937 21.5776 27.9101C21.551 27.884 21.5299 27.8528 21.5155 27.8185C21.5011 27.7842 21.4936 27.7473 21.4936 27.71C21.4932 27.6727 21.5004 27.6357 21.5148 27.6013C21.5293 27.5669 21.5507 27.5358 21.5776 27.51L22.1906 26.8971H11.0706L11.6836 27.51C11.7102 27.5361 11.7314 27.5672 11.7458 27.6016C11.7602 27.6359 11.7677 27.6728 11.7676 27.71C11.7681 27.7474 11.7609 27.7843 11.7464 27.8187C11.732 27.8532 11.7106 27.8843 11.6836 27.9101C11.6576 27.9367 11.6265 27.9578 11.5921 27.9722C11.5578 27.9866 11.5209 27.994 11.4836 27.994C11.4463 27.9945 11.4093 27.9873 11.3749 27.9728C11.3405 27.9583 11.3094 27.937 11.2836 27.9101L10.1836 26.81C10.1567 26.7842 10.1353 26.7532 10.1208 26.7188C10.1064 26.6844 10.0992 26.6473 10.0996 26.61H10.1036Z" fill="black"/>
</g>
</g>
<defs>
<clipPath id="clip0_311_345">
<rect width="28.538" height="28" fill="white"/>
</clipPath>
</defs>
</svg>
