<svg width="26" height="24" viewBox="0 0 26 24" fill="none" xmlns="http://www.w3.org/2000/svg">
<g id="armchair" clip-path="url(#clip0_314_404)">
<path id="armchair_2" d="M25.9613 10.442C25.8558 9.78755 25.544 9.18467 25.072 8.72256C24.6 8.26044 23.9929 7.96362 23.3404 7.876C23.215 7.86379 23.0891 7.85812 22.9631 7.859V6.545C22.961 4.80981 22.2758 3.14629 21.0577 1.91932C19.8396 0.692357 18.188 0.00211706 16.4654 0H9.53872C7.81519 0.000793484 6.16241 0.690449 4.94322 1.91756C3.72404 3.14467 3.0381 4.80894 3.03599 6.545V7.858C2.91003 7.85712 2.78411 7.86279 2.65873 7.875C2.00627 7.96262 1.39913 8.25944 0.927113 8.72156C0.4551 9.18367 0.143284 9.78655 0.037787 10.441C-0.0780715 11.1708 0.074577 11.918 0.46706 12.5424C0.859543 13.1668 1.46485 13.6254 2.16929 13.832V19.632C2.17034 19.9788 2.30759 20.3112 2.55108 20.5564C2.79457 20.8017 3.12451 20.9399 3.46885 20.941V23.559C3.46819 23.6168 3.47893 23.6741 3.50045 23.7276C3.52197 23.7812 3.55384 23.8299 3.59421 23.8709C3.63457 23.9119 3.68263 23.9445 3.73559 23.9666C3.78854 23.9888 3.84535 24.0001 3.90269 24H5.20225C5.29663 23.9998 5.38835 23.9685 5.46345 23.9109C5.53854 23.8533 5.59289 23.7726 5.61822 23.681L6.39359 20.945H19.6065L20.3819 23.681C20.4072 23.7726 20.4616 23.8533 20.5367 23.9109C20.6118 23.9685 20.7035 23.9998 20.7979 24H22.0974C22.2122 24 22.3223 23.9541 22.4035 23.8723C22.4847 23.7905 22.5303 23.6796 22.5303 23.564V20.945C22.8755 20.9453 23.2067 20.8076 23.4513 20.5622C23.6958 20.3168 23.8337 19.9837 23.8348 19.636V13.836C24.5392 13.6294 25.1446 13.1708 25.537 12.5464C25.9295 11.922 26.0822 11.1748 25.9663 10.445L25.9613 10.442ZM3.9017 6.542C3.90407 5.03766 4.49901 3.59575 5.5559 2.53286C6.61279 1.46998 8.04524 0.872998 9.53872 0.873H16.4703C17.9636 0.874324 19.3954 1.47244 20.4514 2.53605C21.5073 3.59965 22.1011 5.04183 22.1024 6.546V7.986C21.4762 8.17225 20.9267 8.55777 20.5362 9.08488C20.1457 9.61198 19.9352 10.2523 19.9361 10.91V12.3C19.7974 12.2491 19.651 12.2224 19.5033 12.221H6.5018C6.35244 12.2218 6.20433 12.2485 6.06398 12.3V10.909C6.06497 10.2513 5.85445 9.61098 5.46394 9.08388C5.07344 8.55678 4.52395 8.17124 3.89773 7.985L3.9017 6.542ZM19.9302 13.524V15.706H6.06398V13.527C6.06398 13.4114 6.10959 13.3005 6.19076 13.2187C6.27194 13.1369 6.38204 13.091 6.49684 13.091H19.4983C19.6131 13.091 19.7232 13.1369 19.8044 13.2187C19.8856 13.3005 19.9312 13.4114 19.9312 13.527L19.9302 13.524ZM4.87264 23.127H4.33555V20.945H5.49214L4.87264 23.127ZM21.6596 23.127H21.1185L20.503 20.945H21.6596V23.127ZM23.3186 13.056C23.2179 13.0743 23.1268 13.1275 23.0612 13.2064C22.9955 13.2854 22.9594 13.385 22.9592 13.488V19.636C22.9592 19.7516 22.9136 19.8625 22.8324 19.9443C22.7512 20.0261 22.6411 20.072 22.5263 20.072H3.46885C3.35405 20.072 3.24395 20.0261 3.16277 19.9443C3.0816 19.8625 3.03599 19.7516 3.03599 19.636V13.488C3.03575 13.385 2.99965 13.2854 2.93398 13.2064C2.86831 13.1275 2.77723 13.0743 2.6766 13.056C2.16438 12.9697 1.70008 12.7006 1.36853 12.2979C1.03698 11.8953 0.86031 11.3859 0.870789 10.8629C0.881268 10.3399 1.0782 9.83813 1.42561 9.44928C1.77301 9.06043 2.24771 8.81045 2.76298 8.745C2.85347 8.73282 2.9447 8.72713 3.03599 8.728C3.56364 8.72705 4.07293 8.92298 4.4656 9.278C4.69508 9.48254 4.87893 9.73373 5.00504 10.015C5.13116 10.2963 5.19668 10.6013 5.19728 10.91V16.146C5.19728 16.2616 5.24289 16.3725 5.32406 16.4543C5.40524 16.5361 5.51534 16.582 5.63014 16.582H20.3601C20.4749 16.582 20.585 16.5361 20.6661 16.4543C20.7473 16.3725 20.7929 16.2616 20.7929 16.146V10.909C20.7935 10.6004 20.859 10.2953 20.9852 10.014C21.1113 9.73273 21.2951 9.48154 21.5246 9.277C21.7541 9.06952 22.0254 8.91454 22.32 8.8227C22.6146 8.73087 22.9255 8.70436 23.2312 8.745C23.6961 8.80563 24.1291 9.01597 24.4656 9.34467C24.8021 9.67337 25.0242 10.1028 25.0986 10.569C25.1895 11.1357 25.0538 11.7157 24.7211 12.1818C24.3884 12.6479 23.8858 12.9623 23.3235 13.056H23.3186Z" fill="black"/>
</g>
<defs>
<clipPath id="clip0_314_404">
<rect width="26" height="24" fill="white"/>
</clipPath>
</defs>
</svg>
