<svg width="29" height="24" viewBox="0 0 29 24" fill="none" xmlns="http://www.w3.org/2000/svg">
<g id="balcony" clip-path="url(#clip0_314_416)">
<path id="balcony_2" d="M28.6228 24H0.377189C0.327573 24 0.278444 23.9901 0.232617 23.9708C0.18679 23.9516 0.145165 23.9233 0.110127 23.8878C0.0750892 23.8522 0.0473264 23.81 0.0284291 23.7635C0.0095318 23.717 -0.000128593 23.6672 1.29253e-06 23.617V21.989C1.29253e-06 21.8877 0.0397406 21.7905 0.110477 21.7189C0.181213 21.6472 0.277153 21.607 0.377189 21.607H0.835343V11.122H0.377189C0.277153 11.122 0.181213 11.0818 0.110477 11.0101C0.0397406 10.9385 1.29253e-06 10.8413 1.29253e-06 10.74C1.29253e-06 10.6387 0.0397406 10.5415 0.110477 10.4699C0.181213 10.3982 0.277153 10.358 0.377189 10.358H7.87453V0.382C7.87453 0.280687 7.91427 0.183524 7.98501 0.111885C8.05575 0.0402462 8.15168 0 8.25172 0H20.6505C20.7001 0 20.7491 0.00988023 20.7949 0.0290775C20.8406 0.0482748 20.8822 0.0764131 20.9172 0.111885C20.9523 0.147357 20.98 0.189469 20.999 0.235815C21.018 0.282161 21.0277 0.331835 21.0277 0.382V10.359H28.6228C28.7229 10.359 28.8188 10.3992 28.8895 10.4709C28.9603 10.5425 29 10.6397 29 10.741C29 10.8423 28.9603 10.9395 28.8895 11.0111C28.8188 11.0828 28.7229 11.123 28.6228 11.123H28.1765V21.608H28.6228C28.6723 21.608 28.7214 21.6179 28.7672 21.6371C28.8129 21.6563 28.8545 21.6844 28.8895 21.7199C28.9245 21.7554 28.9523 21.7975 28.9713 21.8438C28.9902 21.8902 29 21.9398 29 21.99V23.617C29.0001 23.6672 28.9905 23.717 28.9716 23.7635C28.9527 23.81 28.9249 23.8522 28.8899 23.8878C28.8548 23.9233 28.8132 23.9516 28.7674 23.9708C28.7216 23.9901 28.6724 24 28.6228 24ZM0.754376 23.236H28.2456V22.371H0.754376V23.236ZM26.1425 21.607H27.4261V11.122H26.1425V21.607ZM23.6404 21.607H25.3881V11.122H23.6404V21.607ZM21.1383 21.607H22.886V11.122H21.1383V21.607ZM18.6362 21.607H20.2743V11.122H18.6362V21.608V21.607ZM16.1342 21.607H17.8819V11.122H16.1342V21.607ZM13.6321 21.607H15.3798V11.122H13.6321V21.607ZM11.13 21.607H12.8777V11.122H11.13V21.607ZM8.62792 21.607H10.3756V11.122H8.62891L8.62792 21.607ZM6.12584 21.607H7.87355V11.122H6.12189L6.12584 21.607ZM3.62377 21.607H5.37147V11.122H3.62475L3.62377 21.607ZM1.58774 21.607H2.87137V11.122H1.58972L1.58774 21.607ZM19.4005 10.358H20.2724V0.764H8.62891V10.359H9.50078V2.036C9.50078 1.93538 9.53998 1.83882 9.60986 1.76729C9.67974 1.69577 9.77467 1.65505 9.87402 1.654H13.7437C13.8437 1.654 13.9396 1.69425 14.0104 1.76588C14.0811 1.83752 14.1208 1.93469 14.1208 2.036V10.358H14.7745V2.036C14.7745 1.93469 14.8142 1.83752 14.885 1.76588C14.9557 1.69425 15.0517 1.654 15.1517 1.654H19.0213C19.1214 1.654 19.2173 1.69425 19.288 1.76588C19.3588 1.83752 19.3985 1.93469 19.3985 2.036V10.359L19.4005 10.358ZM15.5308 10.358H18.6471V2.417H15.5318L15.5308 10.358ZM10.2532 10.358H13.3694V2.417H10.2542L10.2532 10.358Z" fill="black"/>
</g>
<defs>
<clipPath id="clip0_314_416">
<rect width="29" height="24" fill="white"/>
</clipPath>
</defs>
</svg>
