<svg width="24" height="24" viewBox="0 0 24 24" fill="none" xmlns="http://www.w3.org/2000/svg">
<g id="cleaning-tools" clip-path="url(#clip0_321_776)">
<g id="cleaning-tools_2">
<path id="Trac&#195;&#169; 944" d="M1.99983 9.50139C2.00009 9.20967 2.1161 8.92997 2.32238 8.72369C2.52865 8.51741 2.80835 8.40141 3.10008 8.40115H7.29965C7.59137 8.40141 7.87107 8.51741 8.07735 8.72369C8.28363 8.92997 8.39964 9.20967 8.3999 9.50139V11.6017H9.19953V9.50139C9.19901 8.99768 8.99868 8.51474 8.64249 8.15856C8.28631 7.80237 7.80337 7.60204 7.29965 7.60151H7.20044V5.30181C7.20018 5.06324 7.10529 4.83452 6.9366 4.66582C6.7679 4.49713 6.53918 4.40224 6.3006 4.40198H4.10012C3.86155 4.40224 3.63282 4.49713 3.46413 4.66582C3.29543 4.83452 3.20054 5.06324 3.20028 5.30181V7.60151H3.10107C2.59718 7.60178 2.11399 7.802 1.75759 8.15821C1.40119 8.51442 1.20072 8.9975 1.2002 9.50139V12.0015H1.99983V9.50139ZM3.99991 5.30181C3.99991 5.2755 4.01037 5.25027 4.02897 5.23166C4.04758 5.21306 4.07281 5.20261 4.09913 5.20261H6.29961C6.32592 5.20261 6.35116 5.21306 6.36977 5.23166C6.38837 5.25027 6.39882 5.2755 6.39882 5.30181V7.60151H3.99991V5.30181Z" fill="black"/>
<path id="Trac&#195;&#169; 945" d="M7.5996 12.0005V10.5004C7.59934 10.2619 7.50445 10.0331 7.33576 9.86443C7.16706 9.69574 6.93834 9.60085 6.69977 9.60059H3.69964C3.46107 9.60085 3.23235 9.69574 3.06365 9.86443C2.89495 10.0331 2.80007 10.2619 2.7998 10.5004V12.0005H3.59944V10.5004C3.59944 10.4741 3.60989 10.4489 3.6285 10.4303C3.6471 10.4117 3.67234 10.4012 3.69865 10.4012H6.69878C6.72509 10.4012 6.75032 10.4117 6.76893 10.4303C6.78753 10.4489 6.79798 10.4741 6.79798 10.5004V12.0005H7.5996Z" fill="black"/>
<path id="Trac&#195;&#169; 946" d="M2.80103 20.0009C2.56361 20.0009 2.33151 20.0713 2.1341 20.2032C1.93669 20.3351 1.78282 20.5226 1.69196 20.7419C1.60111 20.9613 1.57733 21.2026 1.62365 21.4355C1.66997 21.6683 1.7843 21.8823 1.95219 22.0502C2.12007 22.218 2.33397 22.3324 2.56684 22.3787C2.7997 22.425 3.04107 22.4012 3.26042 22.3104C3.47978 22.2195 3.66726 22.0656 3.79917 21.8682C3.93108 21.6708 4.00148 21.4387 4.00148 21.2013C4.00148 20.8829 3.875 20.5776 3.64987 20.3525C3.42475 20.1273 3.11941 20.0009 2.80103 20.0009ZM2.80103 21.6011C2.72254 21.6011 2.64582 21.5779 2.58056 21.5342C2.5153 21.4906 2.46443 21.4286 2.4344 21.3561C2.40436 21.2836 2.3965 21.2038 2.41181 21.1268C2.42713 21.0499 2.46492 20.9792 2.52042 20.9237C2.57592 20.8682 2.64663 20.8304 2.72361 20.8151C2.80059 20.7997 2.88039 20.8076 2.9529 20.8376C3.02541 20.8677 3.08739 20.9186 3.13099 20.9838C3.1746 21.0491 3.19787 21.1258 3.19787 21.2043C3.19787 21.3095 3.15607 21.4105 3.08164 21.4849C3.00722 21.5593 2.90628 21.6011 2.80103 21.6011Z" fill="black"/>
<path id="Trac&#195;&#169; 947" d="M8.83354 7.36239C8.85582 7.41353 8.88862 7.4594 8.92982 7.49701C8.97102 7.53462 9.01968 7.56312 9.07264 7.58066L10.2731 7.9775C10.3478 8.00286 10.4284 8.00537 10.5046 7.98469C10.5808 7.96401 10.649 7.9211 10.7007 7.86142L12.8 5.46251V6.27207L10.0727 10.1691C10.0254 10.2361 10.0001 10.3162 10.0003 10.3982V11.5987H10.7999V10.5292L13.4081 6.80284H15.3021L16.3993 10.4617V12.0035H17.199V10.4012C17.199 10.3622 17.1934 10.3235 17.1821 10.2861L15.9985 6.34251V4.80078C15.9985 4.80078 15.9985 4.79582 15.9985 4.79284C15.9985 4.79284 15.9985 4.78689 15.9985 4.7849V4.76705C15.9933 4.70819 15.975 4.65125 15.9449 4.60037L14.3477 1.80562C14.3125 1.74476 14.2619 1.69433 14.2009 1.65947C14.1399 1.6246 14.0707 1.60656 14.0004 1.60719H9.19665C9.0914 1.60719 8.99047 1.649 8.91605 1.72343C8.84162 1.79785 8.79981 1.89879 8.79981 2.00404V3.20448C8.79924 3.28867 8.82546 3.37087 8.87469 3.43917C8.92391 3.50748 8.99359 3.55836 9.07364 3.58446L9.65897 3.78288L9.62823 3.85927C9.60646 3.91227 9.59642 3.96936 9.59881 4.0266C9.60121 4.08385 9.61597 4.1399 9.64208 4.1909C9.66819 4.24189 9.70503 4.28663 9.75008 4.32204C9.79512 4.35744 9.84731 4.38268 9.90303 4.396L10.0023 4.4208L8.83553 7.04591C8.8135 7.0957 8.80196 7.1495 8.80162 7.20395C8.80127 7.25839 8.81214 7.31232 8.83354 7.36239ZM13.5956 6.00123V5.20159H15.1959V6.00123H13.5956ZM11.0668 2.40088H13.7643L14.9072 4.40096H13.2454L10.538 3.72434L11.0668 2.40088ZM9.59548 2.91281V2.40088H10.2046L9.95264 3.03186L9.59548 2.91281ZM10.786 4.61029L12.1749 4.95852L10.2681 7.14115L9.73834 6.96456L10.786 4.61029Z" fill="black"/>
<path id="Trac&#195;&#169; 948" d="M23.9337 19.7786L21.6817 16.4054C21.5991 16.2827 21.4876 16.1823 21.3569 16.1131C21.2262 16.0438 21.0805 16.0079 20.9326 16.0086H20.3999V3.60729H19.6002V16.0086H18.8006V0.900832C18.8006 0.887803 18.8032 0.874902 18.8081 0.862865C18.8131 0.850828 18.8204 0.839892 18.8296 0.830679C18.8389 0.821466 18.8498 0.814159 18.8618 0.809173C18.8739 0.804187 18.8868 0.801621 18.8998 0.801621H19.4951C19.5081 0.801621 19.521 0.804187 19.533 0.809173C19.5451 0.814159 19.556 0.821466 19.5652 0.830679C19.5744 0.839892 19.5817 0.850828 19.5867 0.862865C19.5917 0.874902 19.5943 0.887803 19.5943 0.900832V2.80071H20.3939V0.900832C20.3939 0.663285 20.3001 0.435349 20.1329 0.266637C19.9656 0.0979245 19.7386 0.00209292 19.501 0H18.9058C18.6672 0.0002626 18.4385 0.0951519 18.2698 0.263848C18.1011 0.432543 18.0062 0.661267 18.0059 0.899838V12.7981H13.597C13.597 12.6929 13.5552 12.592 13.4808 12.5175C13.4063 12.4431 13.3054 12.4013 13.2002 12.4013H6.40027C6.29502 12.4013 6.19409 12.4431 6.11966 12.5175C6.04524 12.592 6.00343 12.6929 6.00343 12.7981H0.402009C0.29676 12.7981 0.195822 12.84 0.121399 12.9144C0.0469771 12.9888 0.00516737 13.0897 0.00516737 13.195V13.7903C0.00569227 14.1614 0.153345 14.5171 0.415756 14.7795C0.678167 15.0419 1.03392 15.1896 1.40503 15.1901H1.60345V16.7904H2.40308V15.201H6.00343V20.0008C6.00343 20.1061 6.04524 20.207 6.11966 20.2814C6.19409 20.3559 6.29502 20.3977 6.40027 20.3977H11.2001V19.598H6.80009V18.3976H12.8033V19.598H12.0037V20.3977H13.2002C13.3054 20.3977 13.4063 20.3559 13.4808 20.2814C13.5552 20.207 13.597 20.1061 13.597 20.0008V15.201H17.997V16.0007H17.4662C17.3183 16 17.1726 16.0359 17.0419 16.1051C16.9112 16.1744 16.7997 16.2748 16.7172 16.3975L14.4651 19.7707C14.4209 19.8364 14.3975 19.9137 14.3976 19.9929V23.1934H4.75834C5.18043 22.7804 5.46111 22.2444 5.56022 21.6623C5.65934 21.0801 5.57182 20.4815 5.31018 19.952C5.04854 19.4226 4.62618 18.9894 4.1035 18.7145C3.58083 18.4396 2.98461 18.337 2.40011 18.4214V17.593H1.60047V18.6714C1.02593 18.9438 0.561199 19.4036 0.282749 19.9752C0.00429978 20.5468 -0.0712852 21.1962 0.0684304 21.8165C0.208146 22.4368 0.554838 22.991 1.05147 23.3881C1.5481 23.7851 2.16509 24.0013 2.80092 24.001C2.86706 24.001 2.9332 23.9987 2.99934 23.994V24.001H23.6004C23.7056 24.001 23.8066 23.9592 23.881 23.8848C23.9554 23.8103 23.9972 23.7094 23.9972 23.6042V20.0008C23.9974 19.9217 23.9739 19.8443 23.9298 19.7786H23.9337ZM12.8033 13.2009V16.0007H6.80009V13.2009H12.8033ZM1.40304 14.4014C1.24557 14.4001 1.09491 14.337 0.98356 14.2256C0.872207 14.1143 0.809076 13.9636 0.80778 13.8061V13.6077H6.0074V14.4073L1.40304 14.4014ZM6.80307 17.6019V16.8023H12.8033V17.6019H6.80307ZM13.597 14.4004V13.6008H17.997V14.4004H13.597ZM0.79885 21.2013C0.79885 20.8057 0.916154 20.419 1.13593 20.0901C1.3557 19.7612 1.66807 19.5048 2.03354 19.3534C2.399 19.2021 2.80115 19.1625 3.18913 19.2396C3.57711 19.3168 3.93349 19.5073 4.21321 19.787C4.49292 20.0667 4.68341 20.4231 4.76058 20.8111C4.83776 21.1991 4.79815 21.6012 4.64677 21.9667C4.49539 22.3321 4.23903 22.6445 3.91012 22.8643C3.58121 23.0841 3.19451 23.2014 2.79893 23.2014C2.26848 23.2014 1.75975 22.9906 1.38466 22.6155C1.00957 22.2405 0.79885 21.7317 0.79885 21.2013ZM17.3839 16.8459C17.3929 16.8321 17.4053 16.8208 17.4199 16.813C17.4344 16.8053 17.4507 16.8012 17.4672 16.8013H20.9316C20.9481 16.8012 20.9644 16.8053 20.979 16.813C20.9935 16.8208 21.0059 16.8321 21.015 16.8459L23.1212 20.0008H15.2836L17.3839 16.8459ZM21.5993 23.2014V21.6011H20.7997V23.2014H19.5992V21.6011H18.7996V23.2014H17.5992V21.6011H16.7995V23.2014H15.2002V20.8005H23.2006V23.2004L21.5993 23.2014Z" fill="black"/>
<path id="Trac&#195;&#169; 949" d="M17.6006 18.0007H18.4002V18.8004H17.6006V18.0007Z" fill="black"/>
<path id="Trac&#195;&#169; 950" d="M20.001 18.0007H20.8006V18.8004H20.001V18.0007Z" fill="black"/>
<path id="Trac&#195;&#169; 951" d="M22.001 5.60046H22.8006V6.4001H22.001V5.60046Z" fill="black"/>
<path id="Trac&#195;&#169; 952" d="M22.001 7.20068H22.8006V8.00032H22.001V7.20068Z" fill="black"/>
<path id="Trac&#195;&#169; 953" d="M21.2002 6.401H21.9998V7.20064H21.2002V6.401Z" fill="black"/>
<path id="Trac&#195;&#169; 954" d="M22.8008 6.401H23.6004V7.20064H22.8008V6.401Z" fill="black"/>
<path id="Trac&#195;&#169; 955" d="M2 1.20044H2.79964V2.00008H2V1.20044Z" fill="black"/>
<path id="Trac&#195;&#169; 956" d="M2 2.80066H2.79964V3.6003H2V2.80066Z" fill="black"/>
<path id="Trac&#195;&#169; 957" d="M1.2002 2.00012H1.99983V2.79976H1.2002V2.00012Z" fill="black"/>
<path id="Trac&#195;&#169; 958" d="M2.7998 2.00012H3.59944V2.79976H2.7998V2.00012Z" fill="black"/>
</g>
</g>
<defs>
<clipPath id="clip0_321_776">
<rect width="24.001" height="24" fill="white"/>
</clipPath>
</defs>
</svg>
