<svg width="23" height="24" viewBox="0 0 23 24" fill="none" xmlns="http://www.w3.org/2000/svg">
<g id="vacuum" clip-path="url(#clip0_321_793)">
<g id="vacuum_2">
<path id="Trac&#195;&#169; 942" d="M19.509 16.4139V14.4129C19.509 14.3194 19.4715 14.2298 19.4046 14.1637C19.3377 14.0976 19.2471 14.0605 19.1525 14.0605C19.058 14.0605 18.9673 14.0976 18.9004 14.1637C18.8336 14.2298 18.796 14.3194 18.796 14.4129V16.413C18.015 16.4851 17.2749 16.7917 16.6753 17.2916C16.0756 17.7915 15.6451 18.4608 15.4415 19.2095C15.2379 19.9583 15.271 20.7507 15.5363 21.4804C15.8017 22.21 16.2865 22.842 16.9258 23.2913H13.4933C13.0495 23.2913 12.6112 23.1946 12.2096 23.0081C11.8079 22.8216 11.4527 22.55 11.1694 22.2124C10.886 21.8749 10.6813 21.4798 10.57 21.0553C10.4586 20.6307 10.4432 20.1871 10.525 19.756L11.1979 16.2058H14.9543C15.3001 16.2058 15.6317 16.0701 15.8761 15.8284C16.1206 15.5868 16.258 15.2591 16.258 14.9173V10.2591C16.7482 10.1445 17.2503 10.0866 17.7541 10.0866C18.0295 10.0871 18.2934 10.1955 18.4882 10.3879C18.6829 10.5804 18.7925 10.8413 18.793 11.1134V13.0035C18.793 13.0969 18.8306 13.1866 18.8974 13.2526C18.9643 13.3187 19.055 13.3558 19.1495 13.3558C19.2441 13.3558 19.3347 13.3187 19.4016 13.2526C19.4684 13.1866 19.506 13.0969 19.506 13.0035V11.1144C19.5062 10.7787 19.4078 10.4501 19.2227 10.1686C19.0375 9.88704 18.7736 9.66473 18.4631 9.52863V7.66234C18.4631 7.56903 18.4256 7.47953 18.3588 7.41355C18.2921 7.34757 18.2015 7.3105 18.1071 7.3105H18.1041V2.5769C18.1035 1.98718 17.8983 1.4155 17.5228 0.957269C17.1472 0.499042 16.6239 0.181999 16.0404 0.0590616C15.4568 -0.0638761 14.8483 0.0147295 14.3163 0.281758C13.7843 0.548786 13.3611 0.988079 13.1172 1.52631L11.0916 6.00915C11.053 6.09445 11.0503 6.1914 11.0841 6.27866C11.1178 6.36593 11.1853 6.43637 11.2716 6.47448C11.3579 6.5126 11.456 6.51527 11.5443 6.4819C11.6326 6.44854 11.7038 6.38188 11.7424 6.29658L13.768 1.81374C13.9452 1.42275 14.2527 1.10363 14.6392 0.909659C15.0257 0.715684 15.4678 0.658581 15.8917 0.747879C16.3156 0.837176 16.6958 1.06747 16.9686 1.40034C17.2415 1.7332 17.3906 2.14849 17.3911 2.5769V7.3105H16.6781V2.5769C16.6777 2.30979 16.5847 2.0509 16.4145 1.8434C16.2443 1.6359 16.0073 1.49235 15.743 1.4367C15.4787 1.38104 15.203 1.41664 14.9621 1.53756C14.7211 1.65848 14.5294 1.85741 14.4189 2.10116L6.2802 20.1098H5.49903L11.1608 7.58305C11.1799 7.54082 11.1904 7.49528 11.1917 7.44904C11.1929 7.40279 11.185 7.35675 11.1683 7.31354C11.1516 7.27033 11.1264 7.2308 11.0942 7.1972C11.0621 7.1636 11.0235 7.1366 10.9808 7.11772C10.8945 7.07961 10.7964 7.07694 10.7081 7.1103C10.6198 7.14367 10.5485 7.21033 10.51 7.29563L4.71886 20.1098H4.52632C4.30593 20.1101 4.09463 20.1967 3.93879 20.3508C3.78295 20.5048 3.69528 20.7136 3.69501 20.9315V21.6679H2.48063C1.91454 21.6681 1.36454 21.854 0.916837 22.1964C0.469136 22.5388 0.149047 23.0184 0.00674755 23.5599C-0.00706702 23.612 -0.00859687 23.6666 0.00227572 23.7193C0.0131483 23.7721 0.0361329 23.8217 0.0694592 23.8643C0.102786 23.9069 0.145564 23.9414 0.194498 23.9651C0.243433 23.9888 0.297217 24.0011 0.351707 24.001H5.96031C6.05486 24.001 6.14554 23.9639 6.21239 23.8978C6.27925 23.8317 6.31681 23.7421 6.31681 23.6486C6.31681 23.5552 6.27925 23.4656 6.21239 23.3995C6.14554 23.3334 6.05486 23.2963 5.96031 23.2963H0.88118C1.04206 23.0158 1.27534 22.7826 1.5572 22.6203C1.83907 22.458 2.15944 22.3725 2.48564 22.3726H8.52746C8.77546 22.3726 9.01644 22.4539 9.21262 22.6039C9.4088 22.7538 9.54908 22.9639 9.61147 23.2011L9.63654 23.3003H7.38628C7.29173 23.3003 7.20106 23.3374 7.1342 23.4035C7.06735 23.4695 7.02979 23.5591 7.02979 23.6526C7.02979 23.746 7.06735 23.8357 7.1342 23.9017C7.20106 23.9678 7.29173 24.0049 7.38628 24.0049H10.0938C10.1483 24.005 10.2021 23.9928 10.251 23.9691C10.3 23.9454 10.3427 23.9109 10.3761 23.8683C10.4094 23.8257 10.4324 23.7761 10.4432 23.7233C10.4541 23.6705 10.4526 23.616 10.4388 23.5639L10.2984 23.0287C10.1963 22.6405 9.96669 22.2968 9.64565 22.0514C9.32462 21.806 8.93028 21.6729 8.52445 21.6728H7.73926V20.9364C7.73893 20.7432 7.66982 20.5563 7.54404 20.4085C7.41827 20.2606 7.24384 20.1612 7.05135 20.1277L15.0697 2.3876C15.1135 2.29109 15.1895 2.21234 15.285 2.16447C15.3804 2.1166 15.4896 2.1025 15.5943 2.12452C15.699 2.14654 15.7929 2.20334 15.8604 2.28548C15.9279 2.36761 15.9648 2.47011 15.9652 2.57591V7.3105H15.904C15.8096 7.3105 15.719 7.34757 15.6523 7.41355C15.5855 7.47953 15.548 7.56903 15.548 7.66234V9.72388C14.3106 10.1176 13.2037 10.8342 12.3442 11.798C11.4846 12.7618 10.9043 13.9371 10.6644 15.1998L9.82406 19.6301C9.72316 20.1629 9.74226 20.7112 9.88001 21.2358C10.0178 21.7605 10.2708 22.2488 10.6211 22.6658C10.9713 23.0829 11.4103 23.4186 11.9067 23.649C12.4032 23.8794 12.9448 23.9989 13.4933 23.999H19.152C20.1404 23.9975 21.0903 23.6201 21.8047 22.945C22.519 22.27 22.9431 21.349 22.9889 20.3732C23.0347 19.3974 22.6987 18.4416 22.0506 17.704C21.4025 16.9665 20.492 16.5038 19.508 16.412L19.509 16.4139ZM4.40699 21.6669V20.9305C4.40726 20.8994 4.41994 20.8696 4.4423 20.8477C4.46465 20.8258 4.49485 20.8135 4.52632 20.8135H6.91096C6.94226 20.8138 6.97221 20.8262 6.99434 20.8481C7.01648 20.8699 7.02903 20.8995 7.02929 20.9305V21.6669H4.40699ZM16.261 8.01518H17.7531V9.38293C17.2517 9.38311 16.7516 9.43493 16.261 9.53755V8.01518ZM15.548 10.4692V14.9193C15.5477 15.0749 15.4851 15.224 15.3738 15.3339C15.2625 15.4439 15.1117 15.5058 14.9543 15.5061H11.3323L11.3654 15.3297C11.5752 14.2306 12.0713 13.2046 12.8048 12.353C13.5383 11.5013 14.4838 10.8534 15.548 10.4732V10.4692ZM19.153 23.2913C18.5332 23.2913 17.9274 23.1097 17.412 22.7694C16.8967 22.429 16.495 21.9453 16.2578 21.3793C16.0207 20.8134 15.9586 20.1906 16.0795 19.5898C16.2004 18.989 16.4989 18.4371 16.9371 18.004C17.3754 17.5708 17.9338 17.2758 18.5417 17.1563C19.1495 17.0368 19.7796 17.0982 20.3522 17.3326C20.9249 17.567 21.4143 17.964 21.7586 18.4733C22.103 18.9827 22.2867 19.5815 22.2867 20.1941C22.2857 21.0152 21.9552 21.8024 21.3677 22.383C20.7803 22.9636 19.9838 23.2903 19.153 23.2913Z" fill="black"/>
<path id="Trac&#195;&#169; 943" d="M19.1523 18.6162C18.835 18.6162 18.5248 18.7092 18.2609 18.8835C17.9971 19.0577 17.7914 19.3054 17.67 19.5951C17.5486 19.8849 17.5168 20.2038 17.5787 20.5114C17.6406 20.819 17.7934 21.1015 18.0178 21.3233C18.2422 21.5451 18.5281 21.6961 18.8393 21.7573C19.1505 21.8185 19.4731 21.7871 19.7663 21.6671C20.0595 21.5471 20.3101 21.3438 20.4864 21.083C20.6627 20.8223 20.7568 20.5157 20.7568 20.202C20.7568 19.7814 20.5877 19.3781 20.2868 19.0807C19.9859 18.7833 19.5779 18.6162 19.1523 18.6162ZM19.1523 21.0762C18.9766 21.0762 18.8048 21.0247 18.6587 20.9282C18.5126 20.8317 18.3987 20.6945 18.3315 20.5341C18.2642 20.3736 18.2466 20.1971 18.2809 20.0267C18.3152 19.8564 18.3998 19.6999 18.5241 19.5771C18.6483 19.4543 18.8067 19.3707 18.979 19.3368C19.1513 19.3029 19.33 19.3203 19.4923 19.3867C19.6547 19.4532 19.7934 19.5658 19.8911 19.7102C19.9887 19.8546 20.0408 20.0244 20.0408 20.198C20.0405 20.4309 19.9468 20.6541 19.7803 20.8187C19.6137 20.9833 19.3879 21.0759 19.1523 21.0762Z" fill="black"/>
</g>
</g>
<defs>
<clipPath id="clip0_321_793">
<rect width="23" height="24" fill="white"/>
</clipPath>
</defs>
</svg>
