<svg width="28" height="29" viewBox="0 0 28 29" fill="none" xmlns="http://www.w3.org/2000/svg">
<g id="Groupe 1322 1" clip-path="url(#clip0_431_676)">
<g id="Group">
<path id="Vector" d="M27.9 5.2V4.8C27.9 4.7 27.9 4.6 27.8 4.6C27 2 21.2 0 13.9 0C6.7 0 0.9 2 0.1 4.6C0 4.6 0 4.7 0 4.8V5.2V16.1V16.5C0 16.6 0 16.7 0.1 16.7C0.6 18.2 2.6 19.4 5.9 20.3C6 20.3 6 20.3 6.1 20.3C6.5 20.3 6.8 20 6.9 19.6C6.9 19.5 6.9 19.5 6.9 19.4V12.6C7.4 12.5 7.8 12.4 8.3 12.3V13.6C8.3 13.7 8.3 13.9 8.4 14C8.2 14.1 8.1 14.3 7.9 14.5C7.8 15 7.7 15.5 7.8 16C8 16.8 8.7 17.4 9.5 17.4H9.9C10 18.6 10.6 19.7 11.5 20.4L11.6 21.4L10.2 21.9C10.1 21.9 10 22 10 22.1L7 23.4C5.7 24.1 5 25.4 5 26.8V27.6C5 28.2 5.4 28.7 6 28.7H13C13.2 28.7 13.4 28.5 13.4 28.4C13.4 28.3 13.2 28 13 28H8.3C8.4 27.9 8.4 27.9 8.4 27.8V26.1C8.4 25.9 8.2 25.8 8 25.8C7.8 25.8 7.6 26 7.6 26.1V27.8C7.6 27.9 7.6 28 7.7 28H6C5.8 28 5.7 27.8 5.7 27.6V26.8C5.7 25.6 6.3 24.6 7.3 24.1L10.2 22.9C10.8 24.5 12.2 25.5 13.9 25.5H14C15.7 25.5 17.1 24.4 17.7 22.9L20.6 24.1C21.6 24.6 22.3 25.7 22.2 26.9V27.7C22.2 27.9 22.1 28.1 21.9 28.1H20.1C20.1 28 20.2 28 20.2 27.9V26.2C20.2 26 20 25.9 19.9 25.9C19.8 25.9 19.6 26.1 19.6 26.2V27.9C19.6 28 19.6 28.1 19.7 28.1H15C14.8 28.1 14.6 28.3 14.6 28.4C14.6 28.5 14.8 28.7 15 28.7H22C22.6 28.7 23 28.2 23 27.6V26.8C23 25.4 22.3 24.1 21 23.4L17.9 22.1C17.9 22 17.8 21.9 17.7 21.9L16.4 21.4V20.3C17.3 19.6 18 18.5 18 17.3H18.4C19.4 17.3 20.2 16.5 20.2 15.5C20.2 14.7 19.7 14.1 19 13.8V12.2C19.7 12.3 20.3 12.4 20.9 12.5V19.3C20.9 19.8 21.3 20.2 21.7 20.2C21.8 20.2 21.8 20.2 21.9 20.2C22.8 20 23.6 19.7 24.4 19.4C24.6 19.3 24.7 19.1 24.6 18.9C24.5 18.7 24.3 18.6 24.1 18.7C23.3 19 22.5 19.3 21.6 19.5C21.5 19.5 21.4 19.4 21.4 19.3V12.7C24.6 13.5 26.7 14.7 27 16.1C26.9 16.8 26.4 17.4 25.8 17.8C25.6 17.9 25.6 18.1 25.7 18.3C25.8 18.5 26 18.5 26.2 18.4C26.9 18 27.4 17.4 27.6 16.6C27.7 16.5 27.8 16.4 27.8 16.3L27.9 5.2ZM6.3 12.1C3.6 12.7 1.7 13.7 0.7 14.8V6.4C1.6 7.4 3.5 8.4 6.1 9C6.2 9 6.3 9.1 6.3 9.3V12.1ZM6.3 19.5C6.3 19.6 6.2 19.6 6.1 19.6C2.8 18.8 0.9 17.5 0.7 16.2C0.9 14.9 3.1 13.6 6.3 12.8V19.5ZM18.2 13.8C18.1 13.8 17.9 13.9 17.9 14C17.9 14.1 17.8 14.2 17.7 14.2C17.7 14.2 17.7 14.2 17.6 14.2C17.2 14.1 16.8 13.7 16.8 13.3C16.8 13.2 16.7 13.1 16.7 13C16.6 12.9 16.5 12.9 16.4 12.9C16.3 12.9 16.1 13 16 13.1C15.6 13.8 14.9 14.3 14.1 14.3H10.2C10.1 14.3 10 14.3 10 14.4C9.8 14.4 9.6 14.3 9.4 14.1C9.3 14 9.2 13.9 9 14V13.9V12.4C9.1 12.4 9.2 12.2 9.2 12.1V11.5C9.2 10.3 10.1 9.3 11.3 9.3H15C15.2 9.3 15.5 9.3 15.7 9.5C15.9 9.6 16 9.9 16.1 10.1V10.2C16.2 10.7 16.7 11.1 17.1 11C17.5 11 17.9 11.3 17.9 11.8V12.1C17.9 12.3 18 12.4 18.2 12.4V13.8ZM9.5 16.7C9 16.7 8.6 16.4 8.4 15.9C8.3 15.6 8.4 15.3 8.5 15.1C8.6 15 8.6 14.9 8.7 14.8C9 15.1 9.3 15.2 9.7 15.2H9.8V16.7H9.5ZM14 24.8C12.5 24.8 11.3 23.9 10.8 22.6L12.1 22C12.3 21.9 12.4 21.6 12.4 21.4V20.8C12.6 20.9 12.9 21 13.1 21C13.3 21 13.6 21.1 13.8 21.1C13.9 21.1 14 21.1 14.1 21.1C14.5 21.1 14.9 21 15.3 20.8V21.4C15.3 21.7 15.5 21.9 15.7 22.1L16.9 22.6C16.6 23.9 15.4 24.8 14 24.8ZM15.8 19.9C15.7 19.9 15.7 19.9 15.6 20C15.4 20.1 15.2 20.3 14.9 20.3C14.8 20.3 14.7 20.4 14.6 20.4H14.5C14.3 20.4 14.1 20.5 13.9 20.5C13.7 20.5 13.6 20.5 13.4 20.4C13 20.3 12.6 20.2 12.2 19.9C12.1 19.9 12.1 19.8 12 19.8C11.2 19.2 10.6 18.3 10.6 17.3C10.7 17.3 10.8 17.1 10.8 17V15.2H14.1C14.9 15.2 15.7 14.8 16.3 14.2C16.4 14.5 16.6 14.7 16.9 14.9V17C16.9 17.2 17 17.3 17.2 17.3C17.2 18.4 16.6 19.3 15.8 19.9ZM19.4 15.6C19.4 16.2 18.9 16.7 18.3 16.7H17.9V15.2C18.3 15.2 18.6 15 18.8 14.6C19.2 14.8 19.4 15.1 19.4 15.6ZM18.9 11.6V11.2C18.9 10.4 18.2 9.7 17.4 9.7H17.3C17.1 9.7 17 9.6 17 9.5C16.8 8.5 16.2 8.1 15.2 8.1H11.4C9.8 8.1 8.5 9.4 8.5 11V11.8C8 11.9 7.5 12 7.1 12.1V9.3C7.1 8.9 6.8 8.5 6.4 8.4C3 7.5 0.9 6.3 0.7 5C1 2.9 6.2 0.7 13.9 0.7C21.6 0.7 26.8 2.9 27.1 5C26.9 6.3 24.9 7.6 21.6 8.4C21.2 8.5 20.9 8.9 20.9 9.3V12C20.2 11.8 19.6 11.7 18.9 11.6ZM21.6 12.1V9.3C21.6 9.2 21.7 9.1 21.8 9C24.4 8.4 26.3 7.4 27.2 6.4V14.8C26.2 13.7 24.2 12.7 21.6 12.1Z" fill="black"/>
<path id="Vector_2" d="M10.3 2.7C9.90004 2.6 9.60004 2.7 9.30004 2.9C9.00004 3.1 8.80004 3.4 8.80004 3.8C8.80004 4 8.90004 4.2 9.10004 4.2C9.30004 4.2 9.50004 4.1 9.50004 3.9C9.60004 3.5 9.90004 3.3 10.2 3.4C10.6 3.5 10.8 3.8 10.7 4.1C10.6 4.4 10.4 4.6 10.1 4.6C10.1 4.6 10.1 4.6 10 4.6H9.90004C9.90004 4.6 9.90004 4.6 9.80004 4.6C9.80004 4.6 9.80004 4.6 9.80004 4.7C9.80004 4.7 9.80004 4.7 9.80004 4.8C9.80004 4.8 9.80004 4.8 9.80004 4.9C9.80004 4.9 9.80004 4.9 9.80004 5C9.80004 5 9.80004 5 9.80004 5.1C9.80004 5.1 9.80004 5.2 9.90004 5.2C9.90004 5.2 10 5.2 10 5.3H10.1C10.4 5.3 10.7 5.5 10.7 5.8C10.8 6.2 10.5 6.5 10.2 6.5C9.80004 6.7 9.50004 6.4 9.50004 6.1C9.50004 5.9 9.30004 5.8 9.10004 5.8C8.90004 5.8 8.70004 6 8.80004 6.2C8.90004 6.9 9.50004 7.3 10.1 7.3C10.2 7.3 10.2 7.3 10.3 7.3C10.7 7.2 11 7 11.2 6.8C11.4 6.5 11.5 6.1 11.4 5.8C11.4 5.4 11.2 5.2 11 5C11.2 4.8 11.4 4.5 11.4 4.2C11.6 3.5 11.1 2.8 10.3 2.7Z" fill="black"/>
<path id="Vector_3" d="M13.6 4.19999C13.4 4.19999 13.3 4.19999 13.2 4.29999C13.4 3.89999 13.8 3.59999 14.2 3.29999C14.4 3.19999 14.4 2.99999 14.3 2.79999C14.2 2.59999 14 2.59999 13.8 2.69999C12.6 3.29999 12 4.49999 12 5.79999C12 6.69999 12.7 7.29999 13.6 7.29999C14.5 7.29999 15.2 6.59999 15.2 5.69999C15.1 4.89999 14.4 4.19999 13.6 4.19999ZM13.6 6.59999C13.1 6.59999 12.7 6.19999 12.7 5.69999C12.7 5.19999 13.1 4.79999 13.6 4.79999C14.1 4.79999 14.5 5.19999 14.5 5.69999C14.5 6.19999 14 6.59999 13.6 6.59999Z" fill="black"/>
<path id="Vector_4" d="M17.0996 2.60001C16.2996 2.60001 15.5996 3.30001 15.5996 4.10001V5.80001C15.5996 6.60001 16.2996 7.30001 17.0996 7.30001C17.8996 7.30001 18.5996 6.60001 18.5996 5.80001V4.10001C18.5996 3.30001 17.8996 2.60001 17.0996 2.60001ZM17.8996 5.80001C17.8996 6.20001 17.4996 6.60001 17.0996 6.60001C16.6996 6.60001 16.2996 6.20001 16.2996 5.80001V4.10001C16.2996 3.70001 16.6996 3.30001 17.0996 3.30001C17.4996 3.30001 17.8996 3.70001 17.8996 4.10001V5.80001Z" fill="black"/>
<path id="Vector_5" d="M21.8 3.9C21.8 3.2 21.2 2.5 20.4 2.5C19.6 2.5 19 3.1 19 3.9C19 4.7 19.6 5.3 20.4 5.3C21.2 5.3 21.8 4.6 21.8 3.9ZM20.5 4.5C20.1 4.5 19.8 4.2 19.8 3.8C19.8 3.4 20.1 3.1 20.5 3.1C20.9 3.1 21.2 3.4 21.2 3.8C21.2 4.2 20.9 4.5 20.5 4.5Z" fill="black"/>
</g>
</g>
<defs>
<clipPath id="clip0_431_676">
<rect width="27.9" height="28.7" fill="white"/>
</clipPath>
</defs>
</svg>
