<svg width="24" height="24" viewBox="0 0 24 24" fill="none" xmlns="http://www.w3.org/2000/svg">
<g id="Outline" clip-path="url(#clip0_314_449)">
<path id="Trac&#195;&#169; 344" d="M23.6 11.2H21.2V10.8C21.2 10.4817 21.0736 10.1765 20.8485 9.95147C20.6235 9.72643 20.3183 9.6 20 9.6H19.2C18.8817 9.6 18.5765 9.72643 18.3515 9.95147C18.1264 10.1765 18 10.4817 18 10.8V11.2H15.818L15.769 10.922C15.7081 10.571 15.5318 10.2504 15.2681 10.0109C15.0043 9.77142 14.6682 9.62682 14.313 9.6L14.113 8.8H16.8C17.2243 8.8 17.6313 8.63143 17.9314 8.33137C18.2314 8.03131 18.4 7.62435 18.4 7.2V1.6C18.4 1.17565 18.2314 0.768688 17.9314 0.46863C17.6313 0.168572 17.2243 0 16.8 0H7.2C6.77565 0 6.36869 0.168572 6.06863 0.46863C5.76857 0.768688 5.6 1.17565 5.6 1.6V7.2C5.6 7.41012 5.64138 7.61817 5.72179 7.81229C5.8022 8.00642 5.92005 8.1828 6.06863 8.33137C6.2172 8.47995 6.39358 8.5978 6.58771 8.67821C6.78183 8.75861 6.98989 8.8 7.2 8.8H9.888L9.688 9.6C9.33366 9.62678 8.99832 9.77076 8.73487 10.0092C8.47141 10.2477 8.29484 10.5671 8.233 10.917L8.184 11.195H6.4V10C6.4 9.89391 6.35786 9.79217 6.28284 9.71716C6.20783 9.64214 6.10609 9.6 6 9.6H5.2V8.4C5.2 8.29391 5.15786 8.19217 5.08284 8.11716C5.00783 8.04214 4.90609 8 4.8 8H1.2C1.09391 8 0.992173 8.04214 0.917158 8.11716C0.842144 8.19217 0.799999 8.29391 0.799999 8.4V11.2H0.4C0.293913 11.2 0.192172 11.2421 0.117157 11.3172C0.0421424 11.3922 0 11.4939 0 11.6V12.4C0 12.7183 0.126427 13.0235 0.351471 13.2485C0.576515 13.4736 0.881741 13.6 1.2 13.6H1.934L0.545 22.628C0.518384 22.7838 0.523049 22.9434 0.558725 23.0974C0.594401 23.2513 0.660374 23.3967 0.752796 23.5249C0.845219 23.6532 0.962244 23.7617 1.09705 23.8443C1.23185 23.9268 1.38174 23.9817 1.53797 24.0057C1.6942 24.0297 1.85365 24.0224 2.00703 23.9842C2.1604 23.946 2.30464 23.8776 2.43132 23.783C2.558 23.6885 2.66459 23.5697 2.74489 23.4335C2.82518 23.2974 2.87757 23.1466 2.899 22.99L4.343 13.6H7.758L7.206 16.73C7.19487 16.7933 7.19915 16.8583 7.21847 16.9196C7.23779 16.9808 7.27159 17.0366 7.317 17.082C7.79939 17.5242 8.35149 17.8837 8.951 18.146L7.851 22.538C7.81351 22.6878 7.8059 22.8436 7.8286 22.9964C7.8513 23.1492 7.90387 23.296 7.98331 23.4284C8.06275 23.5609 8.16751 23.6764 8.29159 23.7684C8.41567 23.8604 8.55666 23.927 8.7065 23.9645C8.85634 24.002 9.01209 24.0096 9.16488 23.9869C9.31766 23.9642 9.46447 23.9116 9.59693 23.8322C9.72939 23.7527 9.84491 23.648 9.93689 23.5239C10.0289 23.3998 10.0955 23.2588 10.133 23.109L10.29 22.481L12 21.2L13.708 22.481L13.865 23.109C13.9024 23.2588 13.969 23.3998 14.0609 23.5239C14.1528 23.6481 14.2683 23.7528 14.4007 23.8323C14.5331 23.9118 14.6799 23.9645 14.8327 23.9872C14.9854 24.01 15.1412 24.0024 15.291 23.965C15.4408 23.9276 15.5818 23.861 15.7059 23.7691C15.8301 23.6772 15.9348 23.5617 16.0143 23.4293C16.0938 23.2969 16.1465 23.1501 16.1692 22.9973C16.192 22.8446 16.1844 22.6888 16.147 22.539L15.047 18.147C15.6465 17.8847 16.1986 17.5252 16.681 17.083C16.7264 17.0376 16.7602 16.9818 16.7795 16.9206C16.7988 16.8593 16.8031 16.7943 16.792 16.731L16.241 13.6H19.656L21.1 22.99C21.1214 23.1466 21.1738 23.2974 21.2541 23.4335C21.3344 23.5697 21.441 23.6885 21.5677 23.783C21.6944 23.8776 21.8386 23.946 21.992 23.9842C22.1453 24.0224 22.3048 24.0297 22.461 24.0057C22.6173 23.9817 22.7671 23.9268 22.902 23.8443C23.0368 23.7617 23.1538 23.6532 23.2462 23.5249C23.3386 23.3967 23.4046 23.2513 23.4403 23.0974C23.4759 22.9434 23.4806 22.7838 23.454 22.628L22.066 13.6H22.8C23.1183 13.6 23.4235 13.4736 23.6485 13.2485C23.8736 13.0235 24 12.7183 24 12.4V11.6C24 11.4939 23.9579 11.3922 23.8828 11.3172C23.8078 11.2421 23.7061 11.2 23.6 11.2ZM18.8 10.8C18.8 10.6939 18.8421 10.5922 18.9172 10.5172C18.9922 10.4421 19.0939 10.4 19.2 10.4H20C20.1061 10.4 20.2078 10.4421 20.2828 10.5172C20.3579 10.5922 20.4 10.6939 20.4 10.8V11.2H18.8V10.8ZM6.4 7.2V1.6C6.4 1.38783 6.48429 1.18434 6.63432 1.03432C6.78434 0.884286 6.98783 0.799999 7.2 0.799999H16.8C17.0122 0.799999 17.2157 0.884286 17.3657 1.03432C17.5157 1.18434 17.6 1.38783 17.6 1.6V7.2C17.6 7.41217 17.5157 7.61566 17.3657 7.76569C17.2157 7.91572 17.0122 8 16.8 8H7.2C6.98783 8 6.78434 7.91572 6.63432 7.76569C6.48429 7.61566 6.4 7.41217 6.4 7.2ZM13.288 8.8L13.488 9.6H10.512L10.712 8.8H13.288ZM4.4 8.8V9.6H1.6V8.8H4.4ZM1.6 10.4H5.6V11.2H1.6V10.4ZM2.108 22.869C2.10243 22.9216 2.08624 22.9726 2.06041 23.0187C2.03458 23.0649 1.99965 23.1054 1.95773 23.1376C1.91581 23.1699 1.86777 23.1934 1.81652 23.2065C1.76528 23.2197 1.7119 23.2223 1.65961 23.2143C1.60731 23.2062 1.5572 23.1876 1.5123 23.1596C1.4674 23.1316 1.42865 23.0948 1.3984 23.0514C1.36814 23.008 1.34701 22.9589 1.33629 22.9071C1.32556 22.8553 1.32547 22.8019 1.336 22.75L2.744 13.6H3.535L2.108 22.869ZM1.2 12.8C1.09391 12.8 0.992173 12.7579 0.917158 12.6828C0.842144 12.6078 0.799999 12.5061 0.799999 12.4V12H8.041L7.9 12.8H1.2ZM9.225 23.12C9.16339 23.1698 9.08762 23.1989 9.00851 23.203C8.92941 23.2072 8.851 23.1863 8.78448 23.1433C8.71796 23.1003 8.66672 23.0374 8.63808 22.9635C8.60944 22.8896 8.60486 22.8086 8.625 22.732L9.7 18.439C9.93869 18.5183 10.1814 18.585 10.427 18.639L9.357 22.919C9.33661 22.9988 9.29015 23.0696 9.225 23.12ZM12.778 18.76L12.958 19.481L12 20.2L11.042 19.482L11.222 18.761C11.739 18.8138 12.26 18.8138 12.777 18.761L12.778 18.76ZM10.6 21.25L10.832 20.324L11.332 20.7L10.6 21.25ZM12.667 20.7L13.167 20.324L13.398 21.25L12.667 20.7ZM15.367 22.733C15.3868 22.8095 15.382 22.8904 15.3533 22.964C15.3245 23.0377 15.2733 23.1004 15.2068 23.1433C15.1404 23.1861 15.0621 23.207 14.9831 23.2028C14.9042 23.1986 14.8286 23.1696 14.767 23.12C14.7017 23.07 14.6549 22.9996 14.634 22.92L13.564 18.64C13.8096 18.586 14.0523 18.5193 14.291 18.44L15.367 22.733ZM12 18C10.5627 18.0118 9.16395 17.5351 8.033 16.648L9.019 11.061C9.05168 10.8758 9.14859 10.708 9.2927 10.5871C9.43681 10.4662 9.6189 10.4 9.807 10.4H14.193C14.3811 10.4 14.5632 10.4662 14.7073 10.5871C14.8514 10.708 14.9483 10.8758 14.981 11.061L15.967 16.648C14.836 17.5351 13.4373 18.0117 12 18ZM22.664 22.75C22.6745 22.8019 22.6744 22.8553 22.6637 22.9071C22.653 22.9589 22.6319 23.008 22.6016 23.0514C22.5713 23.0948 22.5326 23.1316 22.4877 23.1596C22.4428 23.1876 22.3927 23.2062 22.3404 23.2143C22.2881 23.2223 22.2347 23.2197 22.1835 23.2065C22.1322 23.1934 22.0842 23.1699 22.0423 23.1376C22.0004 23.1054 21.9654 23.0649 21.9396 23.0187C21.9138 22.9726 21.8976 22.9216 21.892 22.869L20.466 13.6H21.257L22.664 22.75ZM23.2 12.4C23.2 12.5061 23.1579 12.6078 23.0828 12.6828C23.0078 12.7579 22.9061 12.8 22.8 12.8H16.1L15.959 12H23.2V12.4Z" fill="black"/>
<path id="Rectangle 5773" d="M12.8422 2.96452L10.5957 5.211L11.1571 5.77244L13.4036 3.52596L12.8422 2.96452Z" fill="black"/>
<path id="Rectangle 5774" d="M13.4127 4.68543L12.2891 5.80902L12.8505 6.37046L13.9741 5.24687L13.4127 4.68543Z" fill="black"/>
<path id="Rectangle 5775" d="M11.149 2.40241L10.0254 3.526L10.5868 4.08744L11.7104 2.96385L11.149 2.40241Z" fill="black"/>
<path id="Trac&#195;&#169; 345" d="M19.2344 7.59802V8.78903H20.0284V7.99503H22.0144V10.378H22.8084V7.59802C22.8084 7.49194 22.7662 7.3902 22.6912 7.31519C22.6162 7.24017 22.5145 7.19803 22.4084 7.19803H22.1224L22.3964 6.09802L21.6254 5.90503L21.3034 7.19302H20.7344L20.4124 5.90503L19.6414 6.09802L19.9154 7.19803H19.6344C19.5283 7.19803 19.4265 7.24017 19.3515 7.31519C19.2765 7.3902 19.2344 7.49194 19.2344 7.59802Z" fill="black"/>
</g>
<defs>
<clipPath id="clip0_314_449">
<rect width="24" height="24" fill="white"/>
</clipPath>
</defs>
</svg>
